<svg width="137" height="48" viewBox="0 0 137 48" fill="none" xmlns="http://www.w3.org/2000/svg">
<path d="M36.0611 12.8774V41.9346H32.0922V26.037H16.4355V29.9695H28.1247V31.9991C28.1245 37.076 28.1162 42.1529 28.1294 47.2296C28.1302 47.5458 28.147 47.7976 28.1834 47.9964C32.6231 47.2725 36.6568 45.3468 39.9439 42.5638V22.1278C39.9439 19.047 39.2607 15.6673 36.0611 12.8774Z" fill="#FF2E4C"/>
<path d="M28.1934 14.0905H32.1592V5.37542C34.5455 5.89249 43.5968 11.8123 43.9658 21.0866V38.3127C46.8954 34.2961 48.6284 29.3509 48.6284 23.9988C48.6284 11.9094 39.8063 1.88475 28.2498 0C28.2157 0.203994 28.2006 0.463484 28.1989 0.790525L28.1934 14.0905Z" fill="#FF2E4C"/>
<path d="M12.4336 35.119V6.06185H16.4025V21.9594H32.0591V18.0269H20.37V15.9973C20.3702 10.9204 20.3784 5.8435 20.3652 0.766797C20.3645 0.450663 20.3476 0.198827 20.3113 0C15.8716 0.723931 11.8378 2.64963 8.55078 5.43264V25.8686C8.55078 28.9494 9.23395 32.3291 12.4336 35.119Z" fill="#FF2E4C"/>
<path d="M20.435 33.9095H16.4692V42.6246C14.0829 42.1075 5.03154 36.1877 4.66259 26.9134V9.68738C1.733 13.7039 0 18.6492 0 24.0012C0 36.0907 8.82209 46.1153 20.3786 48C20.4126 47.796 20.4278 47.5365 20.4295 47.2095L20.435 33.9095Z" fill="#FF2E4C"/>
<path d="M62.2666 34.5895V13.8045H65.4318V22.2131H68.2661V13.8045H71.4312V34.5895H68.2661V24.9293H65.4318V34.5895H62.2666Z" fill="#042F4B"/>
<path d="M84.6862 28.3423L83.2925 17.9026H83.2454L81.9698 28.3423H84.6862ZM78.167 34.5895L81.1314 13.8045H85.3121L88.4654 34.5895H85.5129L85.0169 30.8813H81.6628L81.2139 34.5895H78.167Z" fill="#042F4B"/>
<path d="M95.1367 34.5895V13.8045H97.6168L102.022 26.2755L101.798 20.6069V13.8045H104.644V34.5895H102.4L97.8767 21.6816L98.0537 27.1376V34.5895H95.1367Z" fill="#042F4B"/>
<path d="M111.839 34.5895V13.8045H115.004V23.3704L118.169 13.8045H121.44L117.992 24.0553L121.712 34.5895H118.37L115.028 24.882V34.5895H111.839Z" fill="#042F4B"/>
<path d="M130.938 31.3628C131.123 31.8431 131.503 32.0833 132.078 32.0833C132.652 32.0833 133.03 31.8372 133.211 31.345C133.392 30.8532 133.483 30.0087 133.483 28.8119V19.1281C133.483 18.144 133.39 17.4256 133.205 16.9728C133.02 16.5202 132.658 16.2937 132.119 16.2937C131.58 16.2937 131.202 16.5202 130.985 16.9728C130.769 17.4256 130.66 18.1401 130.66 19.1163V28.8119C130.66 30.0325 130.753 30.8827 130.938 31.3628ZM135.573 33.3232C134.849 34.3232 133.689 34.8231 132.095 34.8231C130.501 34.8231 129.332 34.3211 128.588 33.3174C127.844 32.3135 127.472 30.8 127.472 28.7765V19.2698C127.472 15.4593 129.027 13.5539 132.137 13.5539C133.743 13.5539 134.898 14.038 135.603 15.0065C136.307 15.9748 136.66 17.3961 136.66 19.2698V28.7765C136.66 30.8079 136.298 32.3235 135.573 33.3232Z" fill="#042F4B"/>
</svg>
