<svg width="168" height="26" viewBox="0 0 168 26" fill="none" xmlns="http://www.w3.org/2000/svg">
<path d="M140.88 4.51975C141.436 4.49387 141.993 4.52919 142.541 4.62505C143.06 4.78703 143.321 5.219 143.323 5.92094V24.1444C143.323 24.8329 143.061 25.2581 142.537 25.4201C141.979 25.5175 141.412 25.5528 140.846 25.5254C139.896 25.5254 139.421 25.0583 139.421 24.1242V21.1477H127.943C122.151 21.1477 119.255 19.4806 119.255 16.1463V5.90069C119.255 5.21495 119.512 4.78973 120.025 4.62505C120.571 4.52922 121.127 4.49389 121.682 4.51975C122.632 4.51975 123.107 4.98007 123.107 5.90069V16.1261C123.107 17.4085 124.719 18.0497 127.943 18.0497H139.438V5.90069C139.438 4.98007 139.919 4.51975 140.88 4.51975ZM14.2474 4.66554C17.4745 4.66554 19.8237 4.86398 21.2949 5.26084C24.1134 6.00868 25.5227 7.53136 25.5227 9.82887L25.5142 16.4055C25.5142 19.764 22.886 21.4447 17.6295 21.4474H8.2102C6.40464 21.4643 4.61887 21.0861 2.98899 20.3418C0.996329 19.432 0 18.1779 0 16.5797V14.4455C0 12.696 0.949824 11.3826 2.84947 10.5052C4.496 9.79226 6.2898 9.44612 8.09606 9.49274H21.7346C21.5402 8.31294 19.7927 7.72439 16.4923 7.72709C16.1371 7.72709 15.7017 7.72709 15.1901 7.75139L14.2558 7.77569C13.3032 7.77569 12.8269 7.32212 12.8269 6.415V6.04648C12.8269 5.12585 13.3004 4.66554 14.2474 4.66554ZM91.2296 4.53182C92.1907 4.5238 92.6727 5.10291 92.6755 6.26921C92.6755 7.17634 92.1936 7.6299 91.2339 7.6299H89.5935C86.6369 7.6299 85.1587 8.33454 85.1587 9.74382V19.9206C85.1587 20.6091 84.8965 21.0343 84.3723 21.1963C83.8148 21.2938 83.2473 21.3292 82.6812 21.3016C81.7314 21.3016 81.2565 20.8345 81.2565 19.9004L81.303 9.72762C81.303 6.26381 84.6119 4.53182 91.2296 4.53182ZM63.9102 4.51975H70.3321C76.0282 4.51975 78.8763 6.30431 78.8763 9.87341V16.0856C78.8763 17.9754 77.8898 19.3753 75.9169 20.2851C74.1559 21.0129 72.2491 21.3599 70.3321 21.3016H63.9271C61.9674 21.3452 60.0205 20.9891 58.2155 20.2568C56.0735 19.3469 55.0024 17.9525 55.0024 16.0735V9.90986C55.0024 8.05511 56.0678 6.63773 58.1986 5.65771C59.9895 4.87361 61.9414 4.48473 63.9102 4.51975ZM105.862 4.51975C106.823 4.51975 107.303 4.98007 107.303 5.90069V6.26921C107.303 7.17634 106.823 7.6299 105.862 7.6299H103.088C101.679 7.6299 100.815 7.64745 100.497 7.68254C99.2087 7.82293 98.5647 8.20225 98.5647 8.8205V9.69523C98.5647 10.4188 99.2285 10.8791 100.556 11.0762C101.489 11.18 102.428 11.2206 103.367 11.1977H109.755C114.51 11.1977 116.889 12.7095 116.892 15.7333L116.883 16.5027C116.883 19.702 114.347 21.3016 109.273 21.3016H96.2226C95.2756 21.3016 94.8007 20.8413 94.7978 19.9206C94.7978 18.7786 95.2727 18.2076 96.2226 18.2076H109.273C111.68 18.2076 112.885 17.6407 112.888 16.5068V15.871C112.888 14.8532 111.793 14.3442 109.603 14.3442H103.346C97.5825 14.3442 94.7006 12.8054 94.7006 9.72762V8.8205C94.7006 6.76867 96.1662 5.45118 99.0974 4.86803C100.278 4.63584 102.533 4.51975 105.862 4.51975ZM156.734 4.51975C157.695 4.51975 158.175 4.98007 158.175 5.90069V6.26921C158.175 7.17634 157.695 7.6299 156.734 7.6299H153.956C152.547 7.6299 151.683 7.64745 151.365 7.68254C150.076 7.82293 149.432 8.20225 149.432 8.8205V9.69523C149.432 10.4188 150.096 10.8791 151.424 11.0762C152.357 11.18 153.296 11.2206 154.235 11.1977H160.611C165.368 11.1977 167.747 12.7095 167.747 15.7333V16.5027C167.747 19.702 165.21 21.3016 160.137 21.3016H147.086C146.136 21.3016 145.661 20.8413 145.661 19.9206C145.661 18.7786 146.136 18.2076 147.086 18.2076H160.137C162.547 18.2076 163.75 17.6407 163.747 16.5068V15.871C163.747 14.8532 162.652 14.3442 160.463 14.3442H154.206C148.45 14.3442 145.573 12.8054 145.573 9.72762V8.8205C145.573 6.76867 147.038 5.45118 149.969 4.86803C151.15 4.63584 153.405 4.51975 156.734 4.51975ZM51.8528 0.113717C52.3742 0.275704 52.6349 0.700919 52.6349 1.38936L52.6307 16.1382C52.6307 17.9228 51.4512 19.2875 49.0921 20.2325C47.227 20.9592 45.229 21.3213 43.2156 21.2975H37.3391C31.316 21.2975 28.2439 19.7168 28.1227 16.5554C28.0607 14.7951 28.079 12.5664 28.1777 9.86936C28.2988 6.39205 31.3343 4.65339 37.2841 4.65339H48.7835V1.38936C48.7835 0.468738 49.2584 0.00842612 50.2082 0.00842612C50.7588 -0.0178789 51.3107 0.0174572 51.8528 0.113717ZM21.6628 12.5826H7.99459C7.15522 12.5855 6.32221 12.7223 5.52984 12.9876C4.40245 13.3386 3.83876 13.8124 3.83876 14.409V16.5311C3.83876 17.1385 4.41654 17.6123 5.57211 17.9525C6.39078 18.212 7.24645 18.3486 8.10874 18.3575H17.6634C19.3798 18.3575 20.5072 18.1415 21.0455 17.7095C21.5049 17.345 21.7346 16.6229 21.7346 15.5429C21.7346 15.3108 21.7219 14.8694 21.6966 14.2187C21.6712 13.5681 21.6599 13.0227 21.6628 12.5826ZM48.7793 7.75139H37.2038C33.7596 7.75139 32.0375 8.48033 32.0375 9.93821V15.8912C32.0375 16.9711 32.683 17.6717 33.9738 17.993C35.071 18.1721 36.1845 18.2426 37.2968 18.2036H42.8436C46.8035 18.2063 48.7821 17.4949 48.7793 16.0694V7.75139ZM60.8282 8.01462C59.5148 8.42228 58.8581 9.04053 58.8581 9.86936V16.0896C58.8581 16.8996 59.5331 17.4841 60.8832 17.8432C61.895 18.1018 62.9392 18.2258 63.9863 18.2117H70.2433C71.2152 18.2235 72.1828 18.0868 73.1097 17.8067C74.3498 17.4071 74.9699 16.8348 74.9699 16.0896V9.60613C74.9699 8.27514 73.3887 7.60965 70.2264 7.60965H63.9652C62.9042 7.59205 61.8465 7.72859 60.8282 8.01462Z" fill="#042F4B"/>
</svg>
