<svg width="213" height="109" viewBox="0 0 213 109" fill="none" xmlns="http://www.w3.org/2000/svg">
<path fill-rule="evenodd" clip-rule="evenodd" d="M3.05859 105.063V3.11035H209.17L107.217 105.063H3.05859ZM122.094 51.8879H126.561C132.526 51.8879 137.273 49.9136 137.273 43.6141C137.273 37.5144 132.526 35.5493 126.561 35.5493H122.094V51.8879ZM71.9786 62.416C73.8956 63.1368 76.1132 63.5684 78.4778 63.5684H78.4847C80.7942 63.5684 82.9544 63.1506 84.853 62.4711L78.5513 42.1219H78.4135L71.9786 62.416ZM105.09 22.2755H125.377L125.375 22.2962C144.769 22.2962 153.878 29.204 153.878 44.2638C153.878 57.7947 144.498 65.8572 128.657 65.8572H122.099V85.3478H92.0385L89.0633 76.0272C85.8838 77.0741 82.291 77.648 78.4824 77.648C74.5797 77.648 70.8928 77.0328 67.6558 75.9377L64.5612 85.3478H46.1381L48.1676 79.8932L47.4237 80.5429C42.83 84.2344 37.0816 86.2661 29.9649 86.4038H28.9066C20.7269 86.4038 12.7126 84.1495 5.94259 80.295L12.2076 67.8453C18.9983 71.8582 23.2614 72.7536 29.0099 72.6388C31.992 72.5722 34.1477 72.0327 35.5503 70.5749C36.4021 69.7026 36.8405 68.5983 36.8864 67.4206C36.9392 64.186 32.3386 62.6685 26.7027 60.9307C22.1342 59.4981 16.962 57.5858 12.9078 54.6152C8.11662 51.0867 5.8278 46.6743 5.94259 40.4575C6.01834 35.9189 7.69651 31.8417 10.798 28.6186C15.2609 24.0111 22.4556 21.1965 31.0898 21.1965H31.1357C38.5371 21.2126 47.5844 23.3063 54.1134 26.642L47.0656 38.9194C39.9099 35.4598 36.3056 35.1292 32.2193 34.9226C26.1563 34.5989 23.0823 36.766 23.0364 39.1031C22.9836 41.9612 28.7918 44.5416 34.2487 46.2978C42.527 48.9218 53.0574 52.4411 54.6575 62.6065L69.8 22.2755H87.3668L105.09 70.5152V22.2755Z" fill="url(#paint0_linear)"/>
<path d="M134.992 94.641V102.246H136.14V98.9455H137.431L139.511 102.246H140.803L138.579 98.9455C139.69 98.8077 140.587 98.1615 140.587 96.7933C140.587 95.2942 139.67 94.641 137.861 94.641H134.992ZM136.14 95.6454H137.718C138.494 95.6454 139.368 95.7717 139.368 96.7214C139.368 97.9085 138.483 98.013 137.503 98.013H136.14V95.6454ZM137.574 91.843C133.933 91.843 130.831 94.6486 130.831 98.4432C130.831 102.266 133.933 105.115 137.574 105.115C141.165 105.115 144.175 102.266 144.175 98.4432C144.175 94.6486 141.165 91.843 137.574 91.843ZM137.574 92.9192C140.545 92.9192 142.883 95.3189 142.883 98.4432C142.883 101.621 140.545 103.967 137.574 103.967C134.553 103.967 132.122 101.621 132.122 98.4432C132.122 95.3189 134.553 92.9192 137.574 92.9192Z" fill="#042F4B"/>
<defs>
<linearGradient id="paint0_linear" x1="106.042" y1="3.15397" x2="106.042" y2="105.066" gradientUnits="userSpaceOnUse">
<stop stop-color="#36596F"/>
<stop offset="1" stop-color="#042F4B"/>
</linearGradient>
</defs>
</svg>
