<svg width="727" height="208" viewBox="0 0 727 208" fill="none" xmlns="http://www.w3.org/2000/svg">
<path d="M249 86.5L180.5 90C178.5 81 165 57.5 137 57.5C109 57.5 91.5 82 91.5 103C91.5 124 109 148.5 136.5 148.5C164 148.5 180.5 127.5 182 107H250C250 142.5 213.3 208 136.5 208C59.7 208 31.5 148 27 118H0V83.5H27C31.8333 55.6667 60.5 0 136.5 0C212.5 0 243.167 57.6667 249 86.5Z" fill="#042F4B"/>
<path d="M319 5H254V134C254 182.5 291 206 317 206H344.5C373 206 410 184 410 134V5H345.5V135C345.5 143 339.5 148.5 332 148.5C324.5 148.5 319 142.5 319 135V5Z" fill="#042F4B"/>
<path d="M431.5 202.5V5H529C562 5 595 37 595 68.5C595 93.5 580.5 113 566.5 121L604.5 202.5H537L505 140.5V87.5C515.5 87.5 530.5 87 530.5 73C530.5 59 517 59 496.5 59V202.5H431.5Z" fill="#042F4B"/>
<path d="M666.5 5H726.5V62H678C670.5 62 666.5 65.5 666.5 71.5C666.5 77.5 669.5 81.5 678 81.5H723V126H678C670.5 126 666.5 129.1 666.5 135.5C666.5 141.9 671 145.5 678 145.5H726.5V202.5H661.5C636.3 202.5 603 183 603 145.5C603 130.5 602.5 97.8 602.5 63C602.5 23.5 641 5 666.5 5Z" fill="#042F4B"/>
</svg>
