<svg width="160" height="36" viewBox="0 0 160 36" fill="none" xmlns="http://www.w3.org/2000/svg">
<g clip-path="url(#clip0_1562_2754)">
<path d="M75.0041 14.4597V23.7608H70.9122V14.4597C70.8772 13.6614 70.5384 12.9076 69.9664 12.3553C69.3944 11.8029 68.6334 11.4946 67.8418 11.4946C67.0502 11.4946 66.2892 11.8029 65.7172 12.3553C65.1452 12.9076 64.8064 13.6614 64.7714 14.4597V23.7608H60.6795V14.4597C60.6444 13.6614 60.3056 12.9076 59.7336 12.3553C59.1617 11.8029 58.4006 11.4946 57.609 11.4946C56.8175 11.4946 56.0564 11.8029 55.4844 12.3553C54.9124 12.9076 54.5736 13.6614 54.5386 14.4597V18.803C54.537 19.5148 54.4927 20.2258 54.406 20.9321C54.289 21.8913 54.0873 22.8379 53.8034 23.7608C52.6028 27.684 50.0513 31.044 46.6101 33.2335C43.1689 35.4229 39.0652 36.2972 35.0409 35.6983C31.0167 35.0995 27.3375 33.0669 24.6687 29.9681C21.9999 26.8694 20.5175 22.909 20.4896 18.803V7.24508C20.4546 6.44684 20.1158 5.69302 19.5438 5.14067C18.9718 4.58832 18.2108 4.28003 17.4192 4.28003C16.6276 4.28003 15.8666 4.58832 15.2946 5.14067C14.7226 5.69302 14.3838 6.44684 14.3488 7.24508V23.7608H10.2448V7.23292C10.2098 6.43467 9.87097 5.68085 9.29899 5.1285C8.72701 4.57615 7.96596 4.26786 7.17439 4.26786C6.38281 4.26786 5.62176 4.57615 5.04978 5.1285C4.4778 5.68085 4.139 6.43467 4.10395 7.23292V23.7608H0V7.22684C0.00169559 5.79097 0.426734 4.38811 1.22098 3.19692C2.01523 2.00573 3.14274 1.08012 4.45991 0.537979C5.77709 -0.00416217 7.22431 -0.138299 8.61727 0.152652C10.0102 0.443604 11.2859 1.14648 12.2817 2.17175C13.2768 1.14557 14.5521 0.441871 15.945 0.150425C17.3379 -0.141021 18.7853 -0.00699923 20.1024 0.535392C21.4195 1.07778 22.5467 2.00395 23.3402 3.19574C24.1337 4.38753 24.5575 5.79091 24.5574 7.22684C24.5574 7.36066 24.5574 7.49449 24.5574 7.62832V18.6449C24.5574 22.1136 25.9225 25.4402 28.3524 27.893C30.7822 30.3457 34.0778 31.7236 37.5141 31.7236C40.9505 31.7236 44.246 30.3457 46.6759 27.893C49.1057 25.4402 50.4708 22.1136 50.4708 18.6449V14.4597C50.4696 13.0232 50.8925 11.619 51.6855 10.4263C52.4785 9.23357 53.6057 8.30645 54.923 7.76331C56.2404 7.22016 57.6883 7.08563 59.0818 7.37688C60.4752 7.66814 61.7511 8.37197 62.7465 9.39852C63.7427 8.37287 65.0189 7.66988 66.4125 7.37912C67.806 7.08836 69.2537 7.223 70.5711 7.7659C71.8885 8.30879 73.016 9.23535 73.8098 10.4275C74.6036 11.6196 75.0277 13.0233 75.0282 14.4597H75.0041Z" fill="#042F4B"/>
<path d="M114.5 14.4606V23.7617H110.409V14.4606C110.374 13.6624 110.035 12.9085 109.463 12.3562C108.891 11.8038 108.13 11.4956 107.338 11.4956C106.547 11.4956 105.785 11.8038 105.214 12.3562C104.642 12.9085 104.303 13.6624 104.268 14.4606V23.7617H100.176V14.4606C100.23 12.5795 101.008 10.7936 102.345 9.48233C103.683 8.17102 105.474 7.4375 107.338 7.4375C109.203 7.4375 110.993 8.17102 112.331 9.48233C113.668 10.7936 114.446 12.5795 114.5 14.4606Z" fill="#042F4B"/>
<path d="M130.58 6.89168V8.43071C130.58 9.118 130.31 9.77713 129.828 10.2631C129.347 10.7491 128.694 11.0221 128.013 11.0221H125.735V23.4135H121.643V11.0221H118.027V9.47701C118.027 8.79134 118.297 8.13375 118.778 7.6489C119.258 7.16406 119.909 6.89168 120.589 6.89168H121.661V5.02415C121.661 4.65872 121.767 4.3012 121.966 3.99615C122.165 3.69109 122.449 3.45201 122.782 3.30871L125.753 2.03125V6.89776L130.58 6.89168Z" fill="#042F4B"/>
<path d="M160 7.23828V11.3626C159.463 11.3626 158.931 11.4695 158.434 11.6771C157.938 11.8846 157.487 12.1889 157.107 12.5724C156.727 12.956 156.425 13.4113 156.22 13.9124C156.014 14.4136 155.908 14.9507 155.908 15.4931V23.7601H151.816V15.4931C151.818 13.3032 152.681 11.2036 154.216 9.65569C155.75 8.10779 157.831 7.23828 160 7.23828Z" fill="#042F4B"/>
<path d="M139.813 7.23828C138.12 7.23828 136.464 7.74525 135.056 8.69508C133.648 9.64491 132.55 10.9949 131.902 12.5744C131.254 14.154 131.084 15.892 131.415 17.5688C131.745 19.2456 132.561 20.7858 133.758 21.9947C134.956 23.2036 136.482 24.0269 138.143 24.3605C139.804 24.694 141.526 24.5228 143.091 23.8686C144.655 23.2143 145.993 22.1064 146.934 20.6848C147.875 19.2633 148.377 17.5921 148.377 15.8824C148.377 13.5899 147.475 11.3912 145.869 9.77009C144.263 8.149 142.085 7.23828 139.813 7.23828ZM139.813 20.3109C138.944 20.3109 138.095 20.0507 137.372 19.5632C136.65 19.0756 136.086 18.3826 135.754 17.572C135.422 16.7613 135.335 15.8693 135.505 15.0089C135.675 14.1486 136.094 13.3584 136.709 12.7384C137.324 12.1185 138.108 11.6966 138.96 11.5262C139.813 11.3558 140.696 11.4445 141.499 11.781C142.302 12.1176 142.987 12.687 143.469 13.417C143.951 14.1471 144.208 15.0051 144.207 15.8824C144.207 16.4645 144.093 17.0409 143.872 17.5785C143.651 18.1162 143.328 18.6047 142.92 19.016C142.512 19.4273 142.027 19.7534 141.494 19.9756C140.961 20.1978 140.39 20.3117 139.813 20.3109Z" fill="#042F4B"/>
<path d="M38.0127 7.23302C37.639 7.23302 37.2714 7.23302 36.9098 7.29993C32.4624 7.83525 29.0273 11.4243 29.0273 15.7677C29.0273 20.476 33.071 24.284 38.0669 24.284C38.4352 24.2867 38.8034 24.2684 39.1697 24.2293C40.8921 24.035 42.5265 23.3587 43.8884 22.2766C44.033 22.161 44.1716 22.0455 44.3102 21.9177L43.5147 21.0357C43.4218 20.9099 43.319 20.7919 43.2074 20.6828C42.8426 20.2734 42.3617 19.9872 41.8302 19.8632C41.2987 19.7391 40.7422 19.7832 40.2364 19.9894L39.9592 20.1232C39.3552 20.387 38.7048 20.5252 38.0468 20.5298C37.3888 20.5343 36.7366 20.4049 36.1291 20.1494C35.5217 19.894 34.9715 19.5176 34.5113 19.0428C34.0511 18.5679 33.6904 18.0044 33.4507 17.3858H45.7987C46.0124 16.6796 46.126 15.9464 46.1362 15.208C46.1029 13.0643 45.2292 11.0213 43.7066 9.5265C42.1839 8.03171 40.1365 7.207 38.0127 7.23302ZM33.6797 13.2553C33.8314 12.9598 34.0153 12.6823 34.2281 12.428C34.6808 11.8561 35.2639 11.4032 35.9275 11.108C36.9759 10.6519 38.1583 10.6227 39.2275 11.0263C40.2967 11.4299 41.17 12.2351 41.6646 13.2736L33.6797 13.2553Z" fill="#042F4B"/>
<path d="M88.0439 7.23327C87.6703 7.23327 87.3027 7.23327 86.9411 7.30019C82.4996 7.8355 79.0586 11.4246 79.0586 15.7679C79.0586 20.4763 83.1023 24.2843 88.0981 24.2843C88.4727 24.2834 88.847 24.2611 89.219 24.2174C90.9396 24.0229 92.572 23.3466 93.9317 22.2647C94.0763 22.1491 94.2149 22.0335 94.3535 21.9058L93.564 21.0237H93.5339C93.4496 20.889 93.3528 20.7627 93.2447 20.6466C92.8808 20.2377 92.401 19.9518 91.8706 19.8277C91.3401 19.7036 90.7846 19.7474 90.2797 19.9531L89.9964 20.0869C89.3846 20.357 88.7238 20.4958 88.056 20.4945C87.0702 20.4951 86.1073 20.1952 85.2933 19.634C84.4793 19.0728 83.8521 18.2766 83.494 17.3495H95.8721C96.0811 16.6408 96.1866 15.9051 96.1855 15.1657C96.1412 13.0262 95.2602 10.9913 93.7348 9.50515C92.2095 8.01899 90.1637 7.20228 88.0439 7.23327ZM83.7109 13.2556C83.8648 12.9613 84.0486 12.6841 84.2593 12.4283C84.7132 11.8575 85.296 11.4049 85.9588 11.1082C87.008 10.6519 88.1913 10.6224 89.2615 11.026C90.3317 11.4295 91.2061 12.2349 91.7019 13.2738L83.7109 13.2556Z" fill="#042F4B"/>
</g>
<defs>
<clipPath id="clip0_1562_2754">
<rect width="160" height="36" fill="white"/>
</clipPath>
</defs>
</svg>
