<svg width="128" height="44" viewBox="0 0 128 44" fill="none" xmlns="http://www.w3.org/2000/svg">
<path d="M103.103 12.0474C103.651 12.0474 103.946 12.3428 103.946 12.8903V13.5085C103.946 14.056 103.651 14.3516 103.103 14.3516H89.8311C89.2836 14.3516 88.9883 14.056 88.9883 13.5085V12.8903C88.9883 12.3428 89.2836 12.0474 89.8311 12.0474H103.103Z" fill="#042F4B"/>
<path d="M103.103 6.13143C103.651 6.13143 103.946 6.42682 103.946 6.97449V7.59249C103.946 8.14021 103.651 8.43555 103.103 8.43555H89.8311C89.2836 8.43555 88.9883 8.14021 88.9883 7.59249V6.97449C88.9883 6.42682 89.2836 6.13143 89.8311 6.13143H103.103Z" fill="#042F4B"/>
<path d="M103.103 0.213619C103.651 0.213619 103.946 0.50901 103.946 1.05652V1.67468C103.946 2.22219 103.651 2.51758 103.103 2.51758H89.8311C89.2836 2.51758 88.9883 2.22219 88.9883 1.67468V1.05652C88.9883 0.50901 89.2836 0.213619 89.8311 0.213619H103.103Z" fill="#042F4B"/>
<path d="M103.103 41.4791C103.651 41.4791 103.946 41.7745 103.946 42.3219V42.9401C103.946 43.4876 103.651 43.7832 103.103 43.7832H89.8311C89.2836 43.7832 88.9883 43.4876 88.9883 42.9401V42.3219C88.9883 41.7745 89.2836 41.4791 89.8311 41.4791H103.103Z" fill="#042F4B"/>
<path d="M103.103 35.565C103.651 35.565 103.946 35.8606 103.946 36.4081V37.0263C103.946 37.5738 103.651 37.8691 103.103 37.8691H89.8311C89.2836 37.8691 88.9883 37.5738 88.9883 37.0263V36.4081C88.9883 35.8606 89.2836 35.565 89.8311 35.565H103.103Z" fill="#042F4B"/>
<path d="M116.351 21.375H112.335C111.532 21.375 111.151 21.756 111.151 22.5589V30.8418L108.438 30.8416V22.5124C108.438 20.1928 109.559 19.0709 111.879 19.0709H116.351V21.375Z" fill="#042F4B"/>
<path d="M46.6644 28.5377L46.6646 30.8418H42.6679C40.3485 30.8418 39.2266 29.7198 39.2266 27.4002V16.5166L41.9236 16.5162V19.0711H46.3388V21.3752H41.9236V27.3538C41.9236 28.1566 42.3047 28.5377 43.1075 28.5377H46.6644Z" fill="#042F4B"/>
<path d="M126.801 28.5377V30.8418H122.805C120.485 30.8418 119.363 29.7198 119.363 27.4002V16.5166L122.06 16.5162V19.0711H126.475V21.3752H122.06V27.3538C122.06 28.1566 122.441 28.5377 123.244 28.5377H126.801Z" fill="#042F4B"/>
<path fill-rule="evenodd" clip-rule="evenodd" d="M88.3672 22.5126C88.3672 20.1931 89.4894 19.0711 91.8086 19.0711H101.123C103.443 19.0711 104.564 20.1931 104.564 22.5126V27.4002C104.564 29.7198 103.443 30.8418 101.123 30.8418H91.8086C89.4894 30.8418 88.3672 29.7198 88.3672 27.4002V22.5126ZM92.248 21.3752C91.4451 21.3752 91.0642 21.7562 91.0642 22.5591V27.3538C91.0642 28.1566 91.4451 28.5377 92.248 28.5377H100.684C101.486 28.5377 101.867 28.1566 101.867 27.3538V22.5591C101.867 21.7562 101.486 21.3752 100.684 21.3752H92.248Z" fill="#042F4B"/>
<path fill-rule="evenodd" clip-rule="evenodd" d="M22.0955 27.3962C22.0955 28.199 22.4766 28.5801 23.2794 28.5801H32.5704V25.5949H23.2794C22.4766 25.5949 22.0955 25.9762 22.0955 26.779V27.3962ZM22.8398 30.8418C20.5205 30.8418 19.3984 29.7198 19.3984 27.4002V26.775C19.3984 24.4555 20.5205 23.3335 22.8398 23.3335H32.5704V22.5166C32.5704 21.7138 32.1893 21.3327 31.3865 21.3327H21.9795L21.9791 19.0711H31.826C34.1454 19.0711 35.2676 20.1931 35.2676 22.5126V30.8418H22.8398Z" fill="#042F4B"/>
<path fill-rule="evenodd" clip-rule="evenodd" d="M51.6188 27.3962C51.6188 28.199 52.0002 28.5801 52.8031 28.5801H62.0938V25.5949H52.8031C52.0002 25.5949 51.6188 25.9762 51.6188 26.779V27.3962ZM52.3632 30.8418C50.0441 30.8418 48.9219 29.7198 48.9219 27.4002V26.775C48.9219 24.4555 50.0441 23.3335 52.3632 23.3335H62.0938V22.5166C62.0938 21.7138 61.7129 21.3327 60.9101 21.3327H51.503V19.0711H61.3495C63.6692 19.0711 64.7909 20.1931 64.7909 22.5126V30.8418H52.3632Z" fill="#042F4B"/>
<path fill-rule="evenodd" clip-rule="evenodd" d="M13.3446 19.0711V14.8132L16.0416 14.8134V30.8418H3.65231C1.33297 30.8418 0.210938 29.7196 0.210938 27.4002V22.5126C0.210938 20.1931 1.33297 19.0711 3.65231 19.0711H13.3446ZM13.3446 28.5377V21.3752H4.09187C3.28905 21.3752 2.90796 21.7562 2.90796 22.5591V27.3538C2.90796 28.1566 3.28905 28.5377 4.09187 28.5377H13.3446Z" fill="#042F4B"/>
<path fill-rule="evenodd" clip-rule="evenodd" d="M71.5994 30.841V35.2988L68.9023 35.2984V19.0702H81.2916C83.6108 19.0702 84.733 20.1922 84.733 22.5118V27.3994C84.733 29.7189 83.6108 30.841 81.2916 30.841H71.5994ZM71.5994 21.3743V28.5369H80.8522C81.6551 28.5369 82.036 28.1557 82.036 27.3529V22.5583C82.036 21.7554 81.6551 21.3743 80.8522 21.3743H71.5994Z" fill="#042F4B"/>
</svg>
