<svg width="135" height="46" viewBox="0 0 135 46" fill="none" xmlns="http://www.w3.org/2000/svg">
<path d="M57.284 23.3515C57.284 29.6711 52.3401 34.328 46.2729 34.328C40.2056 34.328 35.2617 29.6711 35.2617 23.3515C35.2617 16.9873 40.2056 12.375 46.2729 12.375C52.3401 12.375 57.284 16.9873 57.284 23.3515ZM52.4638 23.3515C52.4638 19.4023 49.5985 16.7003 46.2729 16.7003C42.9472 16.7003 40.0819 19.4023 40.0819 23.3515C40.0819 27.2611 42.9472 30.0027 46.2729 30.0027C49.5985 30.0027 52.4638 27.2561 52.4638 23.3515Z" fill="#EA4335"/>
<path d="M81.0379 23.3515C81.0379 29.6711 76.094 34.328 70.0268 34.328C63.9595 34.328 59.0156 29.6711 59.0156 23.3515C59.0156 16.9923 63.9595 12.375 70.0268 12.375C76.094 12.375 81.0379 16.9873 81.0379 23.3515ZM76.2177 23.3515C76.2177 19.4023 73.3524 16.7003 70.0268 16.7003C66.7011 16.7003 63.8358 19.4023 63.8358 23.3515C63.8358 27.2611 66.7011 30.0027 70.0268 30.0027C73.3524 30.0027 76.2177 27.2561 76.2177 23.3515Z" fill="#FBBC05"/>
<path d="M103.804 13.0381V32.7444C103.804 40.8505 99.0236 44.1613 93.372 44.1613C88.052 44.1613 84.8501 40.6031 83.6426 37.6932L87.8392 35.9462C88.5865 37.7328 90.4176 39.841 93.3671 39.841C96.9846 39.841 99.2265 37.6091 99.2265 33.4075V31.8288H99.0582C97.9794 33.1601 95.9008 34.323 93.278 34.323C87.7897 34.323 82.7617 29.5425 82.7617 23.3911C82.7617 17.1952 87.7897 12.375 93.278 12.375C95.8959 12.375 97.9744 13.538 99.0582 14.8296H99.2265V13.0431H103.804V13.0381ZM99.5679 23.3911C99.5679 19.5261 96.9896 16.7003 93.7085 16.7003C90.3829 16.7003 87.5967 19.5261 87.5967 23.3911C87.5967 27.2165 90.3829 30.0027 93.7085 30.0027C96.9896 30.0027 99.5679 27.2165 99.5679 23.3911Z" fill="#4285F4"/>
<path d="M111.35 1.48633V33.6537H106.648V1.48633H111.35Z" fill="#34A853"/>
<path d="M129.668 26.9652L133.409 29.4594C132.201 31.2459 129.291 34.3241 124.263 34.3241C118.028 34.3241 113.371 29.5039 113.371 23.3476C113.371 16.8201 118.068 12.3711 123.724 12.3711C129.42 12.3711 132.206 16.9042 133.117 19.3539L133.617 20.601L118.943 26.6781C120.067 28.8804 121.814 30.0038 124.263 30.0038C126.718 30.0038 128.42 28.7962 129.668 26.9652ZM118.152 23.016L127.96 18.9431C127.421 17.5723 125.798 16.6172 123.887 16.6172C121.438 16.6172 118.028 18.7798 118.152 23.016Z" fill="#EA4335"/>
<path d="M17.4659 20.4929V15.8361H33.1587C33.3121 16.6477 33.3913 17.6077 33.3913 18.647C33.3913 22.1409 32.4361 26.4612 29.358 29.5394C26.3639 32.6571 22.5385 34.3199 17.4709 34.3199C8.07801 34.3199 0.179688 26.669 0.179688 17.2762C0.179688 7.8833 8.07801 0.232422 17.4709 0.232422C22.6671 0.232422 26.3689 2.27134 29.1501 4.92886L25.8641 8.21488C23.8697 6.34422 21.1677 4.88927 17.4659 4.88927C10.6069 4.88927 5.24234 10.4171 5.24234 17.2762C5.24234 24.1352 10.6069 29.6631 17.4659 29.6631C21.9149 29.6631 24.4487 27.8766 26.0719 26.2533C27.3883 24.937 28.2544 23.0564 28.5958 20.488L17.4659 20.4929Z" fill="#4285F4"/>
</svg>
