<svg width="281" height="296" viewBox="0 0 281 296" fill="none" xmlns="http://www.w3.org/2000/svg">
<rect x="0.0820312" y="0.302734" width="172" height="48" rx="10.2938" fill="white" fill-opacity="0.5"/>
<rect x="0.0820312" y="82.3027" width="195" height="47" rx="10.2938" fill="white" fill-opacity="0.5"/>
<rect x="0.0820312" y="166.303" width="162" height="48" rx="10.2938" fill="white" fill-opacity="0.5"/>
<rect y="247.672" width="280.761" height="47.9592" rx="10.2938" fill="white" fill-opacity="0.5"/>
<path d="M33.4205 31.875L32.1605 28.095H26.9405L25.7205 31.875H23.4205L28.1805 17.915H31.0205L35.7805 31.875H33.4205ZM29.6005 19.995H29.5005L27.4805 26.155H31.6005L29.6005 19.995ZM44.3227 30.155H44.2227C43.996 30.7683 43.6227 31.2483 43.1027 31.595C42.596 31.9417 41.996 32.115 41.3027 32.115C39.9827 32.115 38.9627 31.6417 38.2427 30.695C37.5227 29.735 37.1627 28.395 37.1627 26.675C37.1627 24.955 37.5227 23.6217 38.2427 22.675C38.9627 21.715 39.9827 21.235 41.3027 21.235C41.996 21.235 42.596 21.4083 43.1027 21.755C43.6227 22.0883 43.996 22.5683 44.2227 23.195H44.3227V17.075H46.5027V31.875H44.3227V30.155ZM41.9627 30.235C42.6293 30.235 43.1893 30.075 43.6427 29.755C44.096 29.4217 44.3227 28.9883 44.3227 28.455V24.895C44.3227 24.3617 44.096 23.935 43.6427 23.615C43.1893 23.2817 42.6293 23.115 41.9627 23.115C41.2027 23.115 40.596 23.3617 40.1427 23.855C39.6893 24.335 39.4627 24.975 39.4627 25.775V27.575C39.4627 28.375 39.6893 29.0217 40.1427 29.515C40.596 29.995 41.2027 30.235 41.9627 30.235ZM56.1586 30.155H56.0586C55.8319 30.7683 55.4586 31.2483 54.9386 31.595C54.4319 31.9417 53.8319 32.115 53.1386 32.115C51.8186 32.115 50.7986 31.6417 50.0786 30.695C49.3586 29.735 48.9986 28.395 48.9986 26.675C48.9986 24.955 49.3586 23.6217 50.0786 22.675C50.7986 21.715 51.8186 21.235 53.1386 21.235C53.8319 21.235 54.4319 21.4083 54.9386 21.755C55.4586 22.0883 55.8319 22.5683 56.0586 23.195H56.1586V17.075H58.3386V31.875H56.1586V30.155ZM53.7986 30.235C54.4653 30.235 55.0253 30.075 55.4786 29.755C55.9319 29.4217 56.1586 28.9883 56.1586 28.455V24.895C56.1586 24.3617 55.9319 23.935 55.4786 23.615C55.0253 23.2817 54.4653 23.115 53.7986 23.115C53.0386 23.115 52.4319 23.3617 51.9786 23.855C51.5253 24.335 51.2986 24.975 51.2986 25.775V27.575C51.2986 28.375 51.5253 29.0217 51.9786 29.515C52.4319 29.995 53.0386 30.235 53.7986 30.235ZM72.5611 21.475H74.6611L70.2811 33.935C70.1611 34.2817 70.0211 34.575 69.8611 34.815C69.7144 35.0683 69.5344 35.2683 69.3211 35.415C69.1211 35.575 68.8744 35.6883 68.5811 35.755C68.2878 35.835 67.9411 35.875 67.5411 35.875H66.2811V34.095H68.0411L68.6411 32.335L64.8611 21.475H67.0411L69.1211 27.595L69.7211 29.855H69.8211L70.4811 27.595L72.5611 21.475ZM80.4173 32.115C79.6973 32.115 79.0373 31.9883 78.4373 31.735C77.8507 31.4817 77.3507 31.1217 76.9373 30.655C76.524 30.175 76.204 29.6017 75.9773 28.935C75.7507 28.255 75.6373 27.5017 75.6373 26.675C75.6373 25.8483 75.7507 25.1017 75.9773 24.435C76.204 23.755 76.524 23.1817 76.9373 22.715C77.3507 22.235 77.8507 21.8683 78.4373 21.615C79.0373 21.3617 79.6973 21.235 80.4173 21.235C81.1373 21.235 81.7907 21.3617 82.3773 21.615C82.9773 21.8683 83.484 22.235 83.8973 22.715C84.3107 23.1817 84.6307 23.755 84.8573 24.435C85.084 25.1017 85.1973 25.8483 85.1973 26.675C85.1973 27.5017 85.084 28.255 84.8573 28.935C84.6307 29.6017 84.3107 30.175 83.8973 30.655C83.484 31.1217 82.9773 31.4817 82.3773 31.735C81.7907 31.9883 81.1373 32.115 80.4173 32.115ZM80.4173 30.315C81.164 30.315 81.764 30.0883 82.2173 29.635C82.6707 29.1683 82.8973 28.475 82.8973 27.555V25.795C82.8973 24.875 82.6707 24.1883 82.2173 23.735C81.764 23.2683 81.164 23.035 80.4173 23.035C79.6707 23.035 79.0707 23.2683 78.6173 23.735C78.164 24.1883 77.9373 24.875 77.9373 25.795V27.555C77.9373 28.475 78.164 29.1683 78.6173 29.635C79.0707 30.0883 79.6707 30.315 80.4173 30.315ZM93.9264 30.155H93.8464C93.7531 30.4083 93.6264 30.655 93.4664 30.895C93.3197 31.135 93.1264 31.3483 92.8864 31.535C92.6597 31.7083 92.3797 31.8483 92.0464 31.955C91.7264 32.0617 91.3531 32.115 90.9264 32.115C89.8464 32.115 89.0064 31.7683 88.4064 31.075C87.8197 30.3817 87.5264 29.3883 87.5264 28.095V21.475H89.7064V27.815C89.7064 29.4283 90.3731 30.235 91.7064 30.235C91.9864 30.235 92.2597 30.2017 92.5264 30.135C92.7931 30.055 93.0264 29.9417 93.2264 29.795C93.4397 29.6483 93.6064 29.4617 93.7264 29.235C93.8597 29.0083 93.9264 28.7417 93.9264 28.435V21.475H96.1064V31.875H93.9264V30.155ZM99.228 31.875V21.475H101.408V23.475H101.508C101.655 22.9417 101.961 22.475 102.428 22.075C102.895 21.675 103.541 21.475 104.368 21.475H104.948V23.575H104.088C103.221 23.575 102.555 23.715 102.088 23.995C101.635 24.275 101.408 24.6883 101.408 25.235V31.875H99.228ZM113.831 31.875C113.084 31.875 112.524 31.6883 112.151 31.315C111.791 30.9283 111.611 30.395 111.611 29.715V17.075H113.791V30.095H115.231V31.875H113.831ZM121.394 32.115C120.674 32.115 120.014 31.9883 119.414 31.735C118.827 31.4817 118.327 31.1217 117.914 30.655C117.501 30.175 117.181 29.6017 116.954 28.935C116.727 28.255 116.614 27.5017 116.614 26.675C116.614 25.8483 116.727 25.1017 116.954 24.435C117.181 23.755 117.501 23.1817 117.914 22.715C118.327 22.235 118.827 21.8683 119.414 21.615C120.014 21.3617 120.674 21.235 121.394 21.235C122.114 21.235 122.767 21.3617 123.354 21.615C123.954 21.8683 124.461 22.235 124.874 22.715C125.287 23.1817 125.607 23.755 125.834 24.435C126.061 25.1017 126.174 25.8483 126.174 26.675C126.174 27.5017 126.061 28.255 125.834 28.935C125.607 29.6017 125.287 30.175 124.874 30.655C124.461 31.1217 123.954 31.4817 123.354 31.735C122.767 31.9883 122.114 32.115 121.394 32.115ZM121.394 30.315C122.141 30.315 122.741 30.0883 123.194 29.635C123.647 29.1683 123.874 28.475 123.874 27.555V25.795C123.874 24.875 123.647 24.1883 123.194 23.735C122.741 23.2683 122.141 23.035 121.394 23.035C120.647 23.035 120.047 23.2683 119.594 23.735C119.141 24.1883 118.914 24.875 118.914 25.795V27.555C118.914 28.475 119.141 29.1683 119.594 29.635C120.047 30.0883 120.647 30.315 121.394 30.315ZM137.723 32.855C137.723 33.935 137.31 34.7483 136.483 35.295C135.656 35.8417 134.31 36.115 132.443 36.115C131.59 36.115 130.863 36.055 130.263 35.935C129.676 35.8283 129.19 35.6683 128.803 35.455C128.43 35.2417 128.156 34.9817 127.983 34.675C127.81 34.3683 127.723 34.015 127.723 33.615C127.723 33.0417 127.876 32.595 128.183 32.275C128.503 31.955 128.943 31.735 129.503 31.615V31.395C128.716 31.1417 128.323 30.6083 128.323 29.795C128.323 29.2617 128.503 28.855 128.863 28.575C129.223 28.2817 129.656 28.075 130.163 27.955V27.875C129.55 27.5817 129.076 27.175 128.743 26.655C128.423 26.1217 128.263 25.5017 128.263 24.795C128.263 23.7283 128.616 22.8683 129.323 22.215C130.043 21.5617 131.07 21.235 132.403 21.235C133.136 21.235 133.763 21.3417 134.283 21.555V21.275C134.283 20.8083 134.39 20.4483 134.603 20.195C134.83 19.9283 135.176 19.795 135.643 19.795H137.243V21.555H135.123V21.975C135.59 22.2817 135.95 22.6817 136.203 23.175C136.456 23.655 136.583 24.195 136.583 24.795C136.583 25.8483 136.223 26.7017 135.503 27.355C134.783 27.995 133.756 28.315 132.423 28.315C131.916 28.315 131.463 28.2617 131.063 28.155C130.796 28.2483 130.563 28.3817 130.363 28.555C130.163 28.715 130.063 28.9283 130.063 29.195C130.063 29.475 130.19 29.675 130.443 29.795C130.696 29.915 131.056 29.975 131.523 29.975H134.083C135.363 29.975 136.29 30.235 136.863 30.755C137.436 31.2617 137.723 31.9617 137.723 32.855ZM135.683 33.095C135.683 32.735 135.543 32.4483 135.263 32.235C134.996 32.0217 134.503 31.915 133.783 31.915H130.263C129.783 32.195 129.543 32.595 129.543 33.115C129.543 33.5417 129.71 33.8817 130.043 34.135C130.39 34.4017 130.97 34.535 131.783 34.535H133.143C134.836 34.535 135.683 34.055 135.683 33.095ZM132.423 26.735C133.063 26.735 133.556 26.595 133.903 26.315C134.263 26.0217 134.443 25.575 134.443 24.975V24.575C134.443 23.975 134.263 23.535 133.903 23.255C133.556 22.9617 133.063 22.815 132.423 22.815C131.783 22.815 131.283 22.9617 130.923 23.255C130.576 23.535 130.403 23.975 130.403 24.575V24.975C130.403 25.575 130.576 26.0217 130.923 26.315C131.283 26.595 131.783 26.735 132.423 26.735ZM143.308 32.115C142.588 32.115 141.928 31.9883 141.328 31.735C140.741 31.4817 140.241 31.1217 139.828 30.655C139.415 30.175 139.095 29.6017 138.868 28.935C138.641 28.255 138.528 27.5017 138.528 26.675C138.528 25.8483 138.641 25.1017 138.868 24.435C139.095 23.755 139.415 23.1817 139.828 22.715C140.241 22.235 140.741 21.8683 141.328 21.615C141.928 21.3617 142.588 21.235 143.308 21.235C144.028 21.235 144.681 21.3617 145.268 21.615C145.868 21.8683 146.375 22.235 146.788 22.715C147.201 23.1817 147.521 23.755 147.748 24.435C147.975 25.1017 148.088 25.8483 148.088 26.675C148.088 27.5017 147.975 28.255 147.748 28.935C147.521 29.6017 147.201 30.175 146.788 30.655C146.375 31.1217 145.868 31.4817 145.268 31.735C144.681 31.9883 144.028 32.115 143.308 32.115ZM143.308 30.315C144.055 30.315 144.655 30.0883 145.108 29.635C145.561 29.1683 145.788 28.475 145.788 27.555V25.795C145.788 24.875 145.561 24.1883 145.108 23.735C144.655 23.2683 144.055 23.035 143.308 23.035C142.561 23.035 141.961 23.2683 141.508 23.735C141.055 24.1883 140.828 24.875 140.828 25.795V27.555C140.828 28.475 141.055 29.1683 141.508 29.635C141.961 30.0883 142.561 30.315 143.308 30.315Z" fill="#042F4B"/>
<path d="M28.8805 114.045C27.7071 114.045 26.7071 113.831 25.8805 113.405C25.0671 112.978 24.3671 112.405 23.7805 111.685L25.3405 110.225C25.8338 110.825 26.3738 111.278 26.9605 111.585C27.5605 111.891 28.2405 112.045 29.0005 112.045C29.8938 112.045 30.5671 111.845 31.0205 111.445C31.4738 111.045 31.7005 110.505 31.7005 109.825C31.7005 109.278 31.5405 108.845 31.2205 108.525C30.9005 108.205 30.3338 107.965 29.5205 107.805L28.2805 107.585C26.9205 107.331 25.9005 106.885 25.2205 106.245C24.5405 105.605 24.2005 104.725 24.2005 103.605C24.2005 102.991 24.3138 102.438 24.5405 101.945C24.7805 101.438 25.1071 101.018 25.5205 100.685C25.9471 100.338 26.4605 100.071 27.0605 99.8847C27.6605 99.698 28.3338 99.6047 29.0805 99.6047C30.1338 99.6047 31.0471 99.7914 31.8205 100.165C32.5938 100.525 33.2538 101.051 33.8005 101.745L32.2205 103.145C31.8605 102.678 31.4205 102.305 30.9005 102.025C30.3805 101.745 29.7338 101.605 28.9605 101.605C28.1605 101.605 27.5405 101.765 27.1005 102.085C26.6605 102.405 26.4405 102.871 26.4405 103.485C26.4405 104.071 26.6205 104.511 26.9805 104.805C27.3405 105.085 27.9005 105.298 28.6605 105.445L29.9005 105.705C31.3005 105.971 32.3205 106.425 32.9605 107.065C33.6138 107.705 33.9405 108.585 33.9405 109.705C33.9405 110.358 33.8271 110.951 33.6005 111.485C33.3738 112.018 33.0405 112.478 32.6005 112.865C32.1738 113.238 31.6471 113.531 31.0205 113.745C30.3938 113.945 29.6805 114.045 28.8805 114.045ZM40.5736 114.045C39.8269 114.045 39.1603 113.918 38.5736 113.665C37.9869 113.411 37.4869 113.051 37.0736 112.585C36.6603 112.105 36.3403 111.531 36.1136 110.865C35.9003 110.185 35.7936 109.431 35.7936 108.605C35.7936 107.778 35.9003 107.031 36.1136 106.365C36.3403 105.685 36.6603 105.111 37.0736 104.645C37.4869 104.165 37.9869 103.798 38.5736 103.545C39.1603 103.291 39.8269 103.165 40.5736 103.165C41.3336 103.165 42.0003 103.298 42.5736 103.565C43.1603 103.831 43.6469 104.205 44.0336 104.685C44.4203 105.151 44.7069 105.698 44.8936 106.325C45.0936 106.951 45.1936 107.625 45.1936 108.345V109.165H38.0536V109.505C38.0536 110.305 38.2869 110.965 38.7536 111.485C39.2336 111.991 39.9136 112.245 40.7936 112.245C41.4336 112.245 41.9736 112.105 42.4136 111.825C42.8536 111.545 43.2269 111.165 43.5336 110.685L44.8136 111.945C44.4269 112.585 43.8669 113.098 43.1336 113.485C42.4003 113.858 41.5469 114.045 40.5736 114.045ZM40.5736 104.865C40.2003 104.865 39.8536 104.931 39.5336 105.065C39.2269 105.198 38.9603 105.385 38.7336 105.625C38.5203 105.865 38.3536 106.151 38.2336 106.485C38.1136 106.818 38.0536 107.185 38.0536 107.585V107.725H42.8936V107.525C42.8936 106.725 42.6869 106.085 42.2736 105.605C41.8603 105.111 41.2936 104.865 40.5736 104.865ZM50.4869 113.805C49.7269 113.805 49.1535 113.611 48.7669 113.225C48.3802 112.825 48.1869 112.265 48.1869 111.545V105.185H46.5669V103.405H47.4469C47.8069 103.405 48.0535 103.325 48.1869 103.165C48.3335 103.005 48.4069 102.745 48.4069 102.385V100.565H50.3669V103.405H52.5469V105.185H50.3669V112.025H52.3869V113.805H50.4869ZM59.6381 99.0047H61.8181V105.125H61.9181C62.1448 104.498 62.5115 104.018 63.0181 103.685C63.5381 103.338 64.1448 103.165 64.8381 103.165C66.1581 103.165 67.1781 103.645 67.8981 104.605C68.6181 105.551 68.9781 106.885 68.9781 108.605C68.9781 110.325 68.6181 111.665 67.8981 112.625C67.1781 113.571 66.1581 114.045 64.8381 114.045C64.1448 114.045 63.5381 113.871 63.0181 113.525C62.5115 113.178 62.1448 112.698 61.9181 112.085H61.8181V113.805H59.6381V99.0047ZM64.1781 112.165C64.9381 112.165 65.5448 111.925 65.9981 111.445C66.4515 110.951 66.6781 110.305 66.6781 109.505V107.705C66.6781 106.905 66.4515 106.265 65.9981 105.785C65.5448 105.291 64.9381 105.045 64.1781 105.045C63.5115 105.045 62.9515 105.211 62.4981 105.545C62.0448 105.865 61.8181 106.291 61.8181 106.825V110.385C61.8181 110.918 62.0448 111.351 62.4981 111.685C62.9515 112.005 63.5115 112.165 64.1781 112.165ZM71.4741 113.805V103.405H73.6541V105.405H73.7541C73.9007 104.871 74.2074 104.405 74.6741 104.005C75.1407 103.605 75.7874 103.405 76.6141 103.405H77.1941V105.505H76.3341C75.4674 105.505 74.8007 105.645 74.3341 105.925C73.8807 106.205 73.6541 106.618 73.6541 107.165V113.805H71.4741ZM86.5941 113.805C86.0207 113.805 85.5807 113.645 85.2741 113.325C84.9674 112.991 84.7807 112.571 84.7141 112.065H84.6141C84.4141 112.718 84.0474 113.211 83.5141 113.545C82.9807 113.878 82.3341 114.045 81.5741 114.045C80.4941 114.045 79.6607 113.765 79.0741 113.205C78.5007 112.645 78.2141 111.891 78.2141 110.945C78.2141 109.905 78.5874 109.125 79.3341 108.605C80.0941 108.085 81.2007 107.825 82.6541 107.825H84.5341V106.945C84.5341 106.305 84.3607 105.811 84.0141 105.465C83.6674 105.118 83.1274 104.945 82.3941 104.945C81.7807 104.945 81.2807 105.078 80.8941 105.345C80.5074 105.611 80.1807 105.951 79.9141 106.365L78.6141 105.185C78.9607 104.598 79.4474 104.118 80.0741 103.745C80.7007 103.358 81.5207 103.165 82.5341 103.165C83.8807 103.165 84.9141 103.478 85.6341 104.105C86.3541 104.731 86.7141 105.631 86.7141 106.805V112.025H87.8141V113.805H86.5941ZM82.1941 112.385C82.8741 112.385 83.4341 112.238 83.8741 111.945C84.3141 111.638 84.5341 111.231 84.5341 110.725V109.225H82.6941C81.1874 109.225 80.4341 109.691 80.4341 110.625V110.985C80.4341 111.451 80.5874 111.805 80.8941 112.045C81.2141 112.271 81.6474 112.385 82.1941 112.385ZM89.9506 113.805V103.405H92.1306V105.125H92.2306C92.4573 104.565 92.7973 104.098 93.2506 103.725C93.7173 103.351 94.3506 103.165 95.1506 103.165C96.2173 103.165 97.044 103.518 97.6306 104.225C98.2306 104.918 98.5306 105.911 98.5306 107.205V113.805H96.3506V107.485C96.3506 105.858 95.6973 105.045 94.3906 105.045C94.1106 105.045 93.8306 105.085 93.5506 105.165C93.284 105.231 93.044 105.338 92.8306 105.485C92.6173 105.631 92.444 105.818 92.3106 106.045C92.1906 106.271 92.1306 106.538 92.1306 106.845V113.805H89.9506ZM108.092 112.085H107.992C107.766 112.698 107.392 113.178 106.872 113.525C106.366 113.871 105.766 114.045 105.072 114.045C103.752 114.045 102.732 113.571 102.012 112.625C101.292 111.665 100.932 110.325 100.932 108.605C100.932 106.885 101.292 105.551 102.012 104.605C102.732 103.645 103.752 103.165 105.072 103.165C105.766 103.165 106.366 103.338 106.872 103.685C107.392 104.018 107.766 104.498 107.992 105.125H108.092V99.0047H110.272V113.805H108.092V112.085ZM105.732 112.165C106.399 112.165 106.959 112.005 107.412 111.685C107.866 111.351 108.092 110.918 108.092 110.385V106.825C108.092 106.291 107.866 105.865 107.412 105.545C106.959 105.211 106.399 105.045 105.732 105.045C104.972 105.045 104.366 105.291 103.912 105.785C103.459 106.265 103.232 106.905 103.232 107.705V109.505C103.232 110.305 103.459 110.951 103.912 111.445C104.366 111.925 104.972 112.165 105.732 112.165ZM122.135 114.045C121.388 114.045 120.721 113.918 120.135 113.665C119.548 113.411 119.055 113.051 118.655 112.585C118.255 112.105 117.948 111.531 117.735 110.865C117.521 110.185 117.415 109.431 117.415 108.605C117.415 107.778 117.521 107.031 117.735 106.365C117.948 105.685 118.255 105.111 118.655 104.645C119.055 104.165 119.548 103.798 120.135 103.545C120.721 103.291 121.388 103.165 122.135 103.165C123.175 103.165 124.028 103.398 124.695 103.865C125.361 104.331 125.848 104.951 126.155 105.725L124.355 106.565C124.208 106.085 123.948 105.705 123.575 105.425C123.215 105.131 122.735 104.985 122.135 104.985C121.335 104.985 120.728 105.238 120.315 105.745C119.915 106.238 119.715 106.885 119.715 107.685V109.545C119.715 110.345 119.915 110.998 120.315 111.505C120.728 111.998 121.335 112.245 122.135 112.245C122.775 112.245 123.281 112.091 123.655 111.785C124.041 111.465 124.348 111.045 124.575 110.525L126.235 111.405C125.888 112.258 125.368 112.911 124.675 113.365C123.981 113.818 123.135 114.045 122.135 114.045ZM132.273 114.045C131.553 114.045 130.893 113.918 130.293 113.665C129.706 113.411 129.206 113.051 128.793 112.585C128.379 112.105 128.059 111.531 127.833 110.865C127.606 110.185 127.493 109.431 127.493 108.605C127.493 107.778 127.606 107.031 127.833 106.365C128.059 105.685 128.379 105.111 128.793 104.645C129.206 104.165 129.706 103.798 130.293 103.545C130.893 103.291 131.553 103.165 132.273 103.165C132.993 103.165 133.646 103.291 134.233 103.545C134.833 103.798 135.339 104.165 135.753 104.645C136.166 105.111 136.486 105.685 136.713 106.365C136.939 107.031 137.053 107.778 137.053 108.605C137.053 109.431 136.939 110.185 136.713 110.865C136.486 111.531 136.166 112.105 135.753 112.585C135.339 113.051 134.833 113.411 134.233 113.665C133.646 113.918 132.993 114.045 132.273 114.045ZM132.273 112.245C133.019 112.245 133.619 112.018 134.073 111.565C134.526 111.098 134.753 110.405 134.753 109.485V107.725C134.753 106.805 134.526 106.118 134.073 105.665C133.619 105.198 133.019 104.965 132.273 104.965C131.526 104.965 130.926 105.198 130.473 105.665C130.019 106.118 129.793 106.805 129.793 107.725V109.485C129.793 110.405 130.019 111.098 130.473 111.565C130.926 112.018 131.526 112.245 132.273 112.245ZM141.702 113.805C140.955 113.805 140.395 113.618 140.022 113.245C139.662 112.858 139.482 112.325 139.482 111.645V99.0047H141.662V112.025H143.102V113.805H141.702ZM149.265 114.045C148.545 114.045 147.885 113.918 147.285 113.665C146.698 113.411 146.198 113.051 145.785 112.585C145.372 112.105 145.052 111.531 144.825 110.865C144.598 110.185 144.485 109.431 144.485 108.605C144.485 107.778 144.598 107.031 144.825 106.365C145.052 105.685 145.372 105.111 145.785 104.645C146.198 104.165 146.698 103.798 147.285 103.545C147.885 103.291 148.545 103.165 149.265 103.165C149.985 103.165 150.638 103.291 151.225 103.545C151.825 103.798 152.332 104.165 152.745 104.645C153.158 105.111 153.478 105.685 153.705 106.365C153.932 107.031 154.045 107.778 154.045 108.605C154.045 109.431 153.932 110.185 153.705 110.865C153.478 111.531 153.158 112.105 152.745 112.585C152.332 113.051 151.825 113.411 151.225 113.665C150.638 113.918 149.985 114.045 149.265 114.045ZM149.265 112.245C150.012 112.245 150.612 112.018 151.065 111.565C151.518 111.098 151.745 110.405 151.745 109.485V107.725C151.745 106.805 151.518 106.118 151.065 105.665C150.612 105.198 150.012 104.965 149.265 104.965C148.518 104.965 147.918 105.198 147.465 105.665C147.012 106.118 146.785 106.805 146.785 107.725V109.485C146.785 110.405 147.012 111.098 147.465 111.565C147.918 112.018 148.518 112.245 149.265 112.245ZM156.474 113.805V103.405H158.654V105.405H158.754C158.901 104.871 159.207 104.405 159.674 104.005C160.141 103.605 160.787 103.405 161.614 103.405H162.194V105.505H161.334C160.467 105.505 159.801 105.645 159.334 105.925C158.881 106.205 158.654 106.618 158.654 107.165V113.805H156.474ZM167.43 114.045C166.444 114.045 165.617 113.871 164.95 113.525C164.284 113.178 163.704 112.698 163.21 112.085L164.61 110.805C164.997 111.271 165.424 111.638 165.89 111.905C166.37 112.158 166.924 112.285 167.55 112.285C168.19 112.285 168.664 112.165 168.97 111.925C169.29 111.671 169.45 111.325 169.45 110.885C169.45 110.551 169.337 110.271 169.11 110.045C168.897 109.805 168.517 109.651 167.97 109.585L167.01 109.465C165.944 109.331 165.104 109.025 164.49 108.545C163.89 108.051 163.59 107.325 163.59 106.365C163.59 105.858 163.684 105.411 163.87 105.025C164.057 104.625 164.317 104.291 164.65 104.025C164.997 103.745 165.404 103.531 165.87 103.385C166.35 103.238 166.877 103.165 167.45 103.165C168.384 103.165 169.144 103.311 169.73 103.605C170.33 103.898 170.864 104.305 171.33 104.825L169.99 106.105C169.724 105.785 169.37 105.511 168.93 105.285C168.504 105.045 168.01 104.925 167.45 104.925C166.85 104.925 166.404 105.045 166.11 105.285C165.83 105.525 165.69 105.838 165.69 106.225C165.69 106.625 165.817 106.925 166.07 107.125C166.324 107.325 166.73 107.471 167.29 107.565L168.25 107.685C169.397 107.858 170.23 108.198 170.75 108.705C171.284 109.198 171.55 109.865 171.55 110.705C171.55 111.211 171.45 111.671 171.25 112.085C171.064 112.485 170.79 112.831 170.43 113.125C170.07 113.418 169.637 113.645 169.13 113.805C168.624 113.965 168.057 114.045 167.43 114.045Z" fill="#042F4B"/>
<path d="M28.8805 198.972C27.7071 198.972 26.7071 198.759 25.8805 198.332C25.0671 197.906 24.3671 197.332 23.7805 196.612L25.3405 195.152C25.8338 195.752 26.3738 196.206 26.9605 196.512C27.5605 196.819 28.2405 196.972 29.0005 196.972C29.8938 196.972 30.5671 196.772 31.0205 196.372C31.4738 195.972 31.7005 195.432 31.7005 194.752C31.7005 194.206 31.5405 193.772 31.2205 193.452C30.9005 193.132 30.3338 192.892 29.5205 192.732L28.2805 192.512C26.9205 192.259 25.9005 191.812 25.2205 191.172C24.5405 190.532 24.2005 189.652 24.2005 188.532C24.2005 187.919 24.3138 187.366 24.5405 186.872C24.7805 186.366 25.1071 185.946 25.5205 185.612C25.9471 185.266 26.4605 184.999 27.0605 184.812C27.6605 184.626 28.3338 184.532 29.0805 184.532C30.1338 184.532 31.0471 184.719 31.8205 185.092C32.5938 185.452 33.2538 185.979 33.8005 186.672L32.2205 188.072C31.8605 187.606 31.4205 187.232 30.9005 186.952C30.3805 186.672 29.7338 186.532 28.9605 186.532C28.1605 186.532 27.5405 186.692 27.1005 187.012C26.6605 187.332 26.4405 187.799 26.4405 188.412C26.4405 188.999 26.6205 189.439 26.9805 189.732C27.3405 190.012 27.9005 190.226 28.6605 190.372L29.9005 190.632C31.3005 190.899 32.3205 191.352 32.9605 191.992C33.6138 192.632 33.9405 193.512 33.9405 194.632C33.9405 195.286 33.8271 195.879 33.6005 196.412C33.3738 196.946 33.0405 197.406 32.6005 197.792C32.1738 198.166 31.6471 198.459 31.0205 198.672C30.3938 198.872 29.6805 198.972 28.8805 198.972ZM40.5736 198.972C39.8269 198.972 39.1603 198.846 38.5736 198.592C37.9869 198.339 37.4869 197.979 37.0736 197.512C36.6603 197.032 36.3403 196.459 36.1136 195.792C35.9003 195.112 35.7936 194.359 35.7936 193.532C35.7936 192.706 35.9003 191.959 36.1136 191.292C36.3403 190.612 36.6603 190.039 37.0736 189.572C37.4869 189.092 37.9869 188.726 38.5736 188.472C39.1603 188.219 39.8269 188.092 40.5736 188.092C41.3336 188.092 42.0003 188.226 42.5736 188.492C43.1603 188.759 43.6469 189.132 44.0336 189.612C44.4203 190.079 44.7069 190.626 44.8936 191.252C45.0936 191.879 45.1936 192.552 45.1936 193.272V194.092H38.0536V194.432C38.0536 195.232 38.2869 195.892 38.7536 196.412C39.2336 196.919 39.9136 197.172 40.7936 197.172C41.4336 197.172 41.9736 197.032 42.4136 196.752C42.8536 196.472 43.2269 196.092 43.5336 195.612L44.8136 196.872C44.4269 197.512 43.8669 198.026 43.1336 198.412C42.4003 198.786 41.5469 198.972 40.5736 198.972ZM40.5736 189.792C40.2003 189.792 39.8536 189.859 39.5336 189.992C39.2269 190.126 38.9603 190.312 38.7336 190.552C38.5203 190.792 38.3536 191.079 38.2336 191.412C38.1136 191.746 38.0536 192.112 38.0536 192.512V192.652H42.8936V192.452C42.8936 191.652 42.6869 191.012 42.2736 190.532C41.8603 190.039 41.2936 189.792 40.5736 189.792ZM50.4869 198.732C49.7269 198.732 49.1535 198.539 48.7669 198.152C48.3802 197.752 48.1869 197.192 48.1869 196.472V190.112H46.5669V188.332H47.4469C47.8069 188.332 48.0535 188.252 48.1869 188.092C48.3335 187.932 48.4069 187.672 48.4069 187.312V185.492H50.3669V188.332H52.5469V190.112H50.3669V196.952H52.3869V198.732H50.4869ZM62.5181 198.732C61.7581 198.732 61.1848 198.539 60.7981 198.152C60.4115 197.752 60.2181 197.192 60.2181 196.472V190.112H58.5981V188.332H59.4781C59.8381 188.332 60.0848 188.252 60.2181 188.092C60.3648 187.932 60.4381 187.672 60.4381 187.312V185.492H62.3981V188.332H64.5781V190.112H62.3981V196.952H64.4181V198.732H62.5181ZM70.9447 198.972C70.198 198.972 69.5314 198.846 68.9447 198.592C68.358 198.339 67.858 197.979 67.4447 197.512C67.0314 197.032 66.7114 196.459 66.4847 195.792C66.2714 195.112 66.1647 194.359 66.1647 193.532C66.1647 192.706 66.2714 191.959 66.4847 191.292C66.7114 190.612 67.0314 190.039 67.4447 189.572C67.858 189.092 68.358 188.726 68.9447 188.472C69.5314 188.219 70.198 188.092 70.9447 188.092C71.7047 188.092 72.3714 188.226 72.9447 188.492C73.5314 188.759 74.018 189.132 74.4047 189.612C74.7914 190.079 75.078 190.626 75.2647 191.252C75.4647 191.879 75.5647 192.552 75.5647 193.272V194.092H68.4247V194.432C68.4247 195.232 68.658 195.892 69.1247 196.412C69.6047 196.919 70.2847 197.172 71.1647 197.172C71.8047 197.172 72.3447 197.032 72.7847 196.752C73.2247 196.472 73.598 196.092 73.9047 195.612L75.1847 196.872C74.798 197.512 74.238 198.026 73.5047 198.412C72.7714 198.786 71.918 198.972 70.9447 198.972ZM70.9447 189.792C70.5714 189.792 70.2247 189.859 69.9047 189.992C69.598 190.126 69.3314 190.312 69.1047 190.552C68.8914 190.792 68.7247 191.079 68.6047 191.412C68.4847 191.746 68.4247 192.112 68.4247 192.512V192.652H73.2647V192.452C73.2647 191.652 73.058 191.012 72.6447 190.532C72.2314 190.039 71.6647 189.792 70.9447 189.792ZM76.5445 198.732L80.2045 193.472L76.6445 188.332H79.1645L81.5045 191.952H81.5645L83.9645 188.332H86.2845L82.7245 193.452L86.3445 198.732H83.8245L81.4245 194.952H81.3645L78.8645 198.732H76.5445ZM91.19 198.732C90.43 198.732 89.8567 198.539 89.47 198.152C89.0833 197.752 88.89 197.192 88.89 196.472V190.112H87.27V188.332H88.15C88.51 188.332 88.7567 188.252 88.89 188.092C89.0367 187.932 89.11 187.672 89.11 187.312V185.492H91.07V188.332H93.25V190.112H91.07V196.952H93.09V198.732H91.19ZM104.361 198.972C103.615 198.972 102.948 198.846 102.361 198.592C101.775 198.339 101.281 197.979 100.881 197.512C100.481 197.032 100.175 196.459 99.9613 195.792C99.7479 195.112 99.6413 194.359 99.6413 193.532C99.6413 192.706 99.7479 191.959 99.9613 191.292C100.175 190.612 100.481 190.039 100.881 189.572C101.281 189.092 101.775 188.726 102.361 188.472C102.948 188.219 103.615 188.092 104.361 188.092C105.401 188.092 106.255 188.326 106.921 188.792C107.588 189.259 108.075 189.879 108.381 190.652L106.581 191.492C106.435 191.012 106.175 190.632 105.801 190.352C105.441 190.059 104.961 189.912 104.361 189.912C103.561 189.912 102.955 190.166 102.541 190.672C102.141 191.166 101.941 191.812 101.941 192.612V194.472C101.941 195.272 102.141 195.926 102.541 196.432C102.955 196.926 103.561 197.172 104.361 197.172C105.001 197.172 105.508 197.019 105.881 196.712C106.268 196.392 106.575 195.972 106.801 195.452L108.461 196.332C108.115 197.186 107.595 197.839 106.901 198.292C106.208 198.746 105.361 198.972 104.361 198.972ZM114.499 198.972C113.779 198.972 113.119 198.846 112.519 198.592C111.933 198.339 111.433 197.979 111.019 197.512C110.606 197.032 110.286 196.459 110.059 195.792C109.833 195.112 109.719 194.359 109.719 193.532C109.719 192.706 109.833 191.959 110.059 191.292C110.286 190.612 110.606 190.039 111.019 189.572C111.433 189.092 111.933 188.726 112.519 188.472C113.119 188.219 113.779 188.092 114.499 188.092C115.219 188.092 115.873 188.219 116.459 188.472C117.059 188.726 117.566 189.092 117.979 189.572C118.393 190.039 118.713 190.612 118.939 191.292C119.166 191.959 119.279 192.706 119.279 193.532C119.279 194.359 119.166 195.112 118.939 195.792C118.713 196.459 118.393 197.032 117.979 197.512C117.566 197.979 117.059 198.339 116.459 198.592C115.873 198.846 115.219 198.972 114.499 198.972ZM114.499 197.172C115.246 197.172 115.846 196.946 116.299 196.492C116.753 196.026 116.979 195.332 116.979 194.412V192.652C116.979 191.732 116.753 191.046 116.299 190.592C115.846 190.126 115.246 189.892 114.499 189.892C113.753 189.892 113.153 190.126 112.699 190.592C112.246 191.046 112.019 191.732 112.019 192.652V194.412C112.019 195.332 112.246 196.026 112.699 196.492C113.153 196.946 113.753 197.172 114.499 197.172ZM123.928 198.732C123.182 198.732 122.622 198.546 122.248 198.172C121.888 197.786 121.708 197.252 121.708 196.572V183.932H123.888V196.952H125.328V198.732H123.928ZM131.492 198.972C130.772 198.972 130.112 198.846 129.512 198.592C128.925 198.339 128.425 197.979 128.012 197.512C127.598 197.032 127.278 196.459 127.052 195.792C126.825 195.112 126.712 194.359 126.712 193.532C126.712 192.706 126.825 191.959 127.052 191.292C127.278 190.612 127.598 190.039 128.012 189.572C128.425 189.092 128.925 188.726 129.512 188.472C130.112 188.219 130.772 188.092 131.492 188.092C132.212 188.092 132.865 188.219 133.452 188.472C134.052 188.726 134.558 189.092 134.972 189.572C135.385 190.039 135.705 190.612 135.932 191.292C136.158 191.959 136.272 192.706 136.272 193.532C136.272 194.359 136.158 195.112 135.932 195.792C135.705 196.459 135.385 197.032 134.972 197.512C134.558 197.979 134.052 198.339 133.452 198.592C132.865 198.846 132.212 198.972 131.492 198.972ZM131.492 197.172C132.238 197.172 132.838 196.946 133.292 196.492C133.745 196.026 133.972 195.332 133.972 194.412V192.652C133.972 191.732 133.745 191.046 133.292 190.592C132.838 190.126 132.238 189.892 131.492 189.892C130.745 189.892 130.145 190.126 129.692 190.592C129.238 191.046 129.012 191.732 129.012 192.652V194.412C129.012 195.332 129.238 196.026 129.692 196.492C130.145 196.946 130.745 197.172 131.492 197.172ZM138.701 198.732V188.332H140.881V190.332H140.981C141.127 189.799 141.434 189.332 141.901 188.932C142.367 188.532 143.014 188.332 143.841 188.332H144.421V190.432H143.561C142.694 190.432 142.027 190.572 141.561 190.852C141.107 191.132 140.881 191.546 140.881 192.092V198.732H138.701Z" fill="#042F4B"/>
<path d="M29.9405 279.904C28.1138 279.904 26.6805 279.291 25.6405 278.064C24.6005 276.824 24.0805 275.031 24.0805 272.684C24.0805 271.511 24.2138 270.477 24.4805 269.584C24.7471 268.691 25.1338 267.937 25.6405 267.324C26.1471 266.711 26.7605 266.251 27.4805 265.944C28.2138 265.624 29.0338 265.464 29.9405 265.464C31.1538 265.464 32.1671 265.731 32.9805 266.264C33.8071 266.797 34.4538 267.584 34.9205 268.624L33.0205 269.664C32.7805 268.997 32.4071 268.471 31.9005 268.084C31.4071 267.684 30.7538 267.484 29.9405 267.484C28.8605 267.484 28.0138 267.851 27.4005 268.584C26.7871 269.317 26.4805 270.331 26.4805 271.624V273.744C26.4805 275.037 26.7871 276.051 27.4005 276.784C28.0138 277.517 28.8605 277.884 29.9405 277.884C30.7805 277.884 31.4605 277.671 31.9805 277.244C32.5138 276.804 32.9071 276.244 33.1605 275.564L34.9805 276.664C34.5138 277.677 33.8605 278.471 33.0205 279.044C32.1805 279.617 31.1538 279.904 29.9405 279.904ZM37.2163 264.864H39.3963V270.984H39.4963C39.7229 270.424 40.0629 269.957 40.5163 269.584C40.9829 269.211 41.6163 269.024 42.4163 269.024C43.4829 269.024 44.3096 269.377 44.8963 270.084C45.4963 270.777 45.7963 271.771 45.7963 273.064V279.664H43.6163V273.324C43.6163 271.711 42.9629 270.904 41.6563 270.904C41.3763 270.904 41.0963 270.944 40.8163 271.024C40.5496 271.091 40.3096 271.197 40.0963 271.344C39.8829 271.491 39.7096 271.677 39.5763 271.904C39.4563 272.131 39.3963 272.391 39.3963 272.684V279.664H37.2163V264.864ZM56.4378 279.664C55.8645 279.664 55.4245 279.504 55.1178 279.184C54.8111 278.851 54.6245 278.431 54.5578 277.924H54.4578C54.2578 278.577 53.8911 279.071 53.3578 279.404C52.8245 279.737 52.1778 279.904 51.4178 279.904C50.3378 279.904 49.5045 279.624 48.9178 279.064C48.3445 278.504 48.0578 277.751 48.0578 276.804C48.0578 275.764 48.4311 274.984 49.1778 274.464C49.9378 273.944 51.0445 273.684 52.4978 273.684H54.3778V272.804C54.3778 272.164 54.2045 271.671 53.8578 271.324C53.5111 270.977 52.9711 270.804 52.2378 270.804C51.6245 270.804 51.1245 270.937 50.7378 271.204C50.3511 271.471 50.0245 271.811 49.7578 272.224L48.4578 271.044C48.8045 270.457 49.2911 269.977 49.9178 269.604C50.5445 269.217 51.3645 269.024 52.3778 269.024C53.7245 269.024 54.7578 269.337 55.4778 269.964C56.1978 270.591 56.5578 271.491 56.5578 272.664V277.884H57.6578V279.664H56.4378ZM52.0378 278.244C52.7178 278.244 53.2778 278.097 53.7178 277.804C54.1578 277.497 54.3778 277.091 54.3778 276.584V275.084H52.5378C51.0311 275.084 50.2778 275.551 50.2778 276.484V276.844C50.2778 277.311 50.4311 277.664 50.7378 277.904C51.0578 278.131 51.4911 278.244 52.0378 278.244ZM59.7944 279.664V269.264H61.9744V270.984H62.0744C62.301 270.424 62.641 269.957 63.0944 269.584C63.561 269.211 64.1944 269.024 64.9944 269.024C66.061 269.024 66.8877 269.377 67.4744 270.084C68.0744 270.777 68.3744 271.771 68.3744 273.064V279.664H66.1944V273.344C66.1944 271.717 65.541 270.904 64.2344 270.904C63.9544 270.904 63.6744 270.944 63.3944 271.024C63.1277 271.091 62.8877 271.197 62.6744 271.344C62.461 271.491 62.2877 271.677 62.1544 271.904C62.0344 272.131 61.9744 272.397 61.9744 272.704V279.664H59.7944ZM80.5159 280.644C80.5159 281.724 80.1026 282.537 79.2759 283.084C78.4493 283.631 77.1026 283.904 75.2359 283.904C74.3826 283.904 73.6559 283.844 73.0559 283.724C72.4693 283.617 71.9826 283.457 71.5959 283.244C71.2226 283.031 70.9493 282.771 70.7759 282.464C70.6026 282.157 70.5159 281.804 70.5159 281.404C70.5159 280.831 70.6693 280.384 70.9759 280.064C71.2959 279.744 71.7359 279.524 72.2959 279.404V279.184C71.5093 278.931 71.1159 278.397 71.1159 277.584C71.1159 277.051 71.2959 276.644 71.6559 276.364C72.0159 276.071 72.4493 275.864 72.9559 275.744V275.664C72.3426 275.371 71.8693 274.964 71.5359 274.444C71.2159 273.911 71.0559 273.291 71.0559 272.584C71.0559 271.517 71.4093 270.657 72.1159 270.004C72.8359 269.351 73.8626 269.024 75.1959 269.024C75.9293 269.024 76.5559 269.131 77.0759 269.344V269.064C77.0759 268.597 77.1826 268.237 77.3959 267.984C77.6226 267.717 77.9693 267.584 78.4359 267.584H80.0359V269.344H77.9159V269.764C78.3826 270.071 78.7426 270.471 78.9959 270.964C79.2493 271.444 79.3759 271.984 79.3759 272.584C79.3759 273.637 79.0159 274.491 78.2959 275.144C77.5759 275.784 76.5493 276.104 75.2159 276.104C74.7093 276.104 74.2559 276.051 73.8559 275.944C73.5893 276.037 73.3559 276.171 73.1559 276.344C72.9559 276.504 72.8559 276.717 72.8559 276.984C72.8559 277.264 72.9826 277.464 73.2359 277.584C73.4893 277.704 73.8493 277.764 74.3159 277.764H76.8759C78.1559 277.764 79.0826 278.024 79.6559 278.544C80.2293 279.051 80.5159 279.751 80.5159 280.644ZM78.4759 280.884C78.4759 280.524 78.3359 280.237 78.0559 280.024C77.7893 279.811 77.2959 279.704 76.5759 279.704H73.0559C72.5759 279.984 72.3359 280.384 72.3359 280.904C72.3359 281.331 72.5026 281.671 72.8359 281.924C73.1826 282.191 73.7626 282.324 74.5759 282.324H75.9359C77.6293 282.324 78.4759 281.844 78.4759 280.884ZM75.2159 274.524C75.8559 274.524 76.3493 274.384 76.6959 274.104C77.0559 273.811 77.2359 273.364 77.2359 272.764V272.364C77.2359 271.764 77.0559 271.324 76.6959 271.044C76.3493 270.751 75.8559 270.604 75.2159 270.604C74.5759 270.604 74.0759 270.751 73.7159 271.044C73.3693 271.324 73.1959 271.764 73.1959 272.364V272.764C73.1959 273.364 73.3693 273.811 73.7159 274.104C74.0759 274.384 74.5759 274.524 75.2159 274.524ZM86.1009 279.904C85.3543 279.904 84.6876 279.777 84.1009 279.524C83.5143 279.271 83.0143 278.911 82.6009 278.444C82.1876 277.964 81.8676 277.391 81.6409 276.724C81.4276 276.044 81.3209 275.291 81.3209 274.464C81.3209 273.637 81.4276 272.891 81.6409 272.224C81.8676 271.544 82.1876 270.971 82.6009 270.504C83.0143 270.024 83.5143 269.657 84.1009 269.404C84.6876 269.151 85.3543 269.024 86.1009 269.024C86.8609 269.024 87.5276 269.157 88.1009 269.424C88.6876 269.691 89.1743 270.064 89.5609 270.544C89.9476 271.011 90.2343 271.557 90.4209 272.184C90.6209 272.811 90.7209 273.484 90.7209 274.204V275.024H83.5809V275.364C83.5809 276.164 83.8143 276.824 84.2809 277.344C84.7609 277.851 85.4409 278.104 86.3209 278.104C86.9609 278.104 87.5009 277.964 87.9409 277.684C88.3809 277.404 88.7543 277.024 89.0609 276.544L90.3409 277.804C89.9543 278.444 89.3943 278.957 88.6609 279.344C87.9276 279.717 87.0743 279.904 86.1009 279.904ZM86.1009 270.724C85.7276 270.724 85.3809 270.791 85.0609 270.924C84.7543 271.057 84.4876 271.244 84.2609 271.484C84.0476 271.724 83.8809 272.011 83.7609 272.344C83.6409 272.677 83.5809 273.044 83.5809 273.444V273.584H88.4209V273.384C88.4209 272.584 88.2143 271.944 87.8009 271.464C87.3876 270.971 86.8209 270.724 86.1009 270.724ZM100.741 279.664C99.9808 279.664 99.4074 279.471 99.0208 279.084C98.6341 278.684 98.4408 278.124 98.4408 277.404V271.044H96.8208V269.264H97.7008C98.0608 269.264 98.3074 269.184 98.4408 269.024C98.5874 268.864 98.6608 268.604 98.6608 268.244V266.424H100.621V269.264H102.801V271.044H100.621V277.884H102.641V279.664H100.741ZM105.165 264.864H107.345V270.984H107.445C107.672 270.424 108.012 269.957 108.465 269.584C108.932 269.211 109.565 269.024 110.365 269.024C111.432 269.024 112.259 269.377 112.845 270.084C113.445 270.777 113.745 271.771 113.745 273.064V279.664H111.565V273.324C111.565 271.711 110.912 270.904 109.605 270.904C109.325 270.904 109.045 270.944 108.765 271.024C108.499 271.091 108.259 271.197 108.045 271.344C107.832 271.491 107.659 271.677 107.525 271.904C107.405 272.131 107.345 272.391 107.345 272.684V279.664H105.165V264.864ZM120.847 279.904C120.1 279.904 119.434 279.777 118.847 279.524C118.26 279.271 117.76 278.911 117.347 278.444C116.934 277.964 116.614 277.391 116.387 276.724C116.174 276.044 116.067 275.291 116.067 274.464C116.067 273.637 116.174 272.891 116.387 272.224C116.614 271.544 116.934 270.971 117.347 270.504C117.76 270.024 118.26 269.657 118.847 269.404C119.434 269.151 120.1 269.024 120.847 269.024C121.607 269.024 122.274 269.157 122.847 269.424C123.434 269.691 123.92 270.064 124.307 270.544C124.694 271.011 124.98 271.557 125.167 272.184C125.367 272.811 125.467 273.484 125.467 274.204V275.024H118.327V275.364C118.327 276.164 118.56 276.824 119.027 277.344C119.507 277.851 120.187 278.104 121.067 278.104C121.707 278.104 122.247 277.964 122.687 277.684C123.127 277.404 123.5 277.024 123.807 276.544L125.087 277.804C124.7 278.444 124.14 278.957 123.407 279.344C122.674 279.717 121.82 279.904 120.847 279.904ZM120.847 270.724C120.474 270.724 120.127 270.791 119.807 270.924C119.5 271.057 119.234 271.244 119.007 271.484C118.794 271.724 118.627 272.011 118.507 272.344C118.387 272.677 118.327 273.044 118.327 273.444V273.584H123.167V273.384C123.167 272.584 122.96 271.944 122.547 271.464C122.134 270.971 121.567 270.724 120.847 270.724ZM132.607 264.864H134.787V270.984H134.887C135.114 270.357 135.48 269.877 135.987 269.544C136.507 269.197 137.114 269.024 137.807 269.024C139.127 269.024 140.147 269.504 140.867 270.464C141.587 271.411 141.947 272.744 141.947 274.464C141.947 276.184 141.587 277.524 140.867 278.484C140.147 279.431 139.127 279.904 137.807 279.904C137.114 279.904 136.507 279.731 135.987 279.384C135.48 279.037 135.114 278.557 134.887 277.944H134.787V279.664H132.607V264.864ZM137.147 278.024C137.907 278.024 138.514 277.784 138.967 277.304C139.42 276.811 139.647 276.164 139.647 275.364V273.564C139.647 272.764 139.42 272.124 138.967 271.644C138.514 271.151 137.907 270.904 137.147 270.904C136.48 270.904 135.92 271.071 135.467 271.404C135.014 271.724 134.787 272.151 134.787 272.684V276.244C134.787 276.777 135.014 277.211 135.467 277.544C135.92 277.864 136.48 278.024 137.147 278.024ZM148.523 279.904C147.803 279.904 147.143 279.777 146.543 279.524C145.956 279.271 145.456 278.911 145.043 278.444C144.629 277.964 144.309 277.391 144.083 276.724C143.856 276.044 143.743 275.291 143.743 274.464C143.743 273.637 143.856 272.891 144.083 272.224C144.309 271.544 144.629 270.971 145.043 270.504C145.456 270.024 145.956 269.657 146.543 269.404C147.143 269.151 147.803 269.024 148.523 269.024C149.243 269.024 149.896 269.151 150.483 269.404C151.083 269.657 151.589 270.024 152.003 270.504C152.416 270.971 152.736 271.544 152.963 272.224C153.189 272.891 153.303 273.637 153.303 274.464C153.303 275.291 153.189 276.044 152.963 276.724C152.736 277.391 152.416 277.964 152.003 278.444C151.589 278.911 151.083 279.271 150.483 279.524C149.896 279.777 149.243 279.904 148.523 279.904ZM148.523 278.104C149.269 278.104 149.869 277.877 150.323 277.424C150.776 276.957 151.003 276.264 151.003 275.344V273.584C151.003 272.664 150.776 271.977 150.323 271.524C149.869 271.057 149.269 270.824 148.523 270.824C147.776 270.824 147.176 271.057 146.723 271.524C146.269 271.977 146.043 272.664 146.043 273.584V275.344C146.043 276.264 146.269 276.957 146.723 277.424C147.176 277.877 147.776 278.104 148.523 278.104ZM155.732 279.664V269.264H157.912V271.264H158.012C158.159 270.731 158.465 270.264 158.932 269.864C159.399 269.464 160.045 269.264 160.872 269.264H161.452V271.364H160.592C159.725 271.364 159.059 271.504 158.592 271.784C158.139 272.064 157.912 272.477 157.912 273.024V279.664H155.732ZM169.83 277.944H169.73C169.504 278.557 169.13 279.037 168.61 279.384C168.104 279.731 167.504 279.904 166.81 279.904C165.49 279.904 164.47 279.431 163.75 278.484C163.03 277.524 162.67 276.184 162.67 274.464C162.67 272.744 163.03 271.411 163.75 270.464C164.47 269.504 165.49 269.024 166.81 269.024C167.504 269.024 168.104 269.197 168.61 269.544C169.13 269.877 169.504 270.357 169.73 270.984H169.83V264.864H172.01V279.664H169.83V277.944ZM167.47 278.024C168.137 278.024 168.697 277.864 169.15 277.544C169.604 277.211 169.83 276.777 169.83 276.244V272.684C169.83 272.151 169.604 271.724 169.15 271.404C168.697 271.071 168.137 270.904 167.47 270.904C166.71 270.904 166.104 271.151 165.65 271.644C165.197 272.124 164.97 272.764 164.97 273.564V275.364C164.97 276.164 165.197 276.811 165.65 277.304C166.104 277.784 166.71 278.024 167.47 278.024ZM179.206 279.904C178.46 279.904 177.793 279.777 177.206 279.524C176.62 279.271 176.12 278.911 175.706 278.444C175.293 277.964 174.973 277.391 174.746 276.724C174.533 276.044 174.426 275.291 174.426 274.464C174.426 273.637 174.533 272.891 174.746 272.224C174.973 271.544 175.293 270.971 175.706 270.504C176.12 270.024 176.62 269.657 177.206 269.404C177.793 269.151 178.46 269.024 179.206 269.024C179.966 269.024 180.633 269.157 181.206 269.424C181.793 269.691 182.28 270.064 182.666 270.544C183.053 271.011 183.34 271.557 183.526 272.184C183.726 272.811 183.826 273.484 183.826 274.204V275.024H176.686V275.364C176.686 276.164 176.92 276.824 177.386 277.344C177.866 277.851 178.546 278.104 179.426 278.104C180.066 278.104 180.606 277.964 181.046 277.684C181.486 277.404 181.86 277.024 182.166 276.544L183.446 277.804C183.06 278.444 182.5 278.957 181.766 279.344C181.033 279.717 180.18 279.904 179.206 279.904ZM179.206 270.724C178.833 270.724 178.486 270.791 178.166 270.924C177.86 271.057 177.593 271.244 177.366 271.484C177.153 271.724 176.986 272.011 176.866 272.344C176.746 272.677 176.686 273.044 176.686 273.444V273.584H181.526V273.384C181.526 272.584 181.32 271.944 180.906 271.464C180.493 270.971 179.926 270.724 179.206 270.724ZM186.24 279.664V269.264H188.42V271.264H188.52C188.666 270.731 188.973 270.264 189.44 269.864C189.906 269.464 190.553 269.264 191.38 269.264H191.96V271.364H191.1C190.233 271.364 189.566 271.504 189.1 271.784C188.646 272.064 188.42 272.477 188.42 273.024V279.664H186.24ZM198.623 279.664V269.264H200.803V271.264H200.903C201.049 270.731 201.356 270.264 201.823 269.864C202.289 269.464 202.936 269.264 203.763 269.264H204.343V271.364H203.483C202.616 271.364 201.949 271.504 201.483 271.784C201.029 272.064 200.803 272.477 200.803 273.024V279.664H198.623ZM213.743 279.664C213.169 279.664 212.729 279.504 212.423 279.184C212.116 278.851 211.929 278.431 211.863 277.924H211.763C211.563 278.577 211.196 279.071 210.663 279.404C210.129 279.737 209.483 279.904 208.723 279.904C207.643 279.904 206.809 279.624 206.223 279.064C205.649 278.504 205.363 277.751 205.363 276.804C205.363 275.764 205.736 274.984 206.483 274.464C207.243 273.944 208.349 273.684 209.803 273.684H211.683V272.804C211.683 272.164 211.509 271.671 211.163 271.324C210.816 270.977 210.276 270.804 209.543 270.804C208.929 270.804 208.429 270.937 208.043 271.204C207.656 271.471 207.329 271.811 207.062 272.224L205.763 271.044C206.109 270.457 206.596 269.977 207.223 269.604C207.849 269.217 208.669 269.024 209.683 269.024C211.029 269.024 212.063 269.337 212.783 269.964C213.503 270.591 213.863 271.491 213.863 272.664V277.884H214.963V279.664H213.743ZM209.343 278.244C210.023 278.244 210.583 278.097 211.023 277.804C211.463 277.497 211.683 277.091 211.683 276.584V275.084H209.842C208.336 275.084 207.583 275.551 207.583 276.484V276.844C207.583 277.311 207.736 277.664 208.043 277.904C208.363 278.131 208.796 278.244 209.343 278.244ZM223.639 277.944H223.539C223.312 278.557 222.939 279.037 222.419 279.384C221.912 279.731 221.312 279.904 220.619 279.904C219.299 279.904 218.279 279.431 217.559 278.484C216.839 277.524 216.479 276.184 216.479 274.464C216.479 272.744 216.839 271.411 217.559 270.464C218.279 269.504 219.299 269.024 220.619 269.024C221.312 269.024 221.912 269.197 222.419 269.544C222.939 269.877 223.312 270.357 223.539 270.984H223.639V264.864H225.819V279.664H223.639V277.944ZM221.279 278.024C221.946 278.024 222.506 277.864 222.959 277.544C223.412 277.211 223.639 276.777 223.639 276.244V272.684C223.639 272.151 223.412 271.724 222.959 271.404C222.506 271.071 221.946 270.904 221.279 270.904C220.519 270.904 219.912 271.151 219.459 271.644C219.006 272.124 218.779 272.764 218.779 273.564V275.364C218.779 276.164 219.006 276.811 219.459 277.304C219.912 277.784 220.519 278.024 221.279 278.024ZM230.035 267.404C229.582 267.404 229.248 267.297 229.035 267.084C228.835 266.871 228.735 266.597 228.735 266.264V265.924C228.735 265.591 228.835 265.317 229.035 265.104C229.248 264.891 229.582 264.784 230.035 264.784C230.488 264.784 230.815 264.891 231.015 265.104C231.215 265.317 231.315 265.591 231.315 265.924V266.264C231.315 266.597 231.215 266.871 231.015 267.084C230.815 267.297 230.488 267.404 230.035 267.404ZM228.935 269.264H231.115V279.664H228.935V269.264ZM240.528 277.944H240.448C240.355 278.197 240.228 278.444 240.068 278.684C239.921 278.924 239.728 279.137 239.488 279.324C239.261 279.497 238.981 279.637 238.648 279.744C238.328 279.851 237.955 279.904 237.528 279.904C236.448 279.904 235.608 279.557 235.008 278.864C234.421 278.171 234.128 277.177 234.128 275.884V269.264H236.308V275.604C236.308 277.217 236.975 278.024 238.308 278.024C238.588 278.024 238.861 277.991 239.128 277.924C239.395 277.844 239.628 277.731 239.828 277.584C240.041 277.437 240.208 277.251 240.328 277.024C240.461 276.797 240.528 276.531 240.528 276.224V269.264H242.708V279.664H240.528V277.944ZM249.13 279.904C248.143 279.904 247.316 279.731 246.65 279.384C245.983 279.037 245.403 278.557 244.91 277.944L246.31 276.664C246.696 277.131 247.123 277.497 247.59 277.764C248.07 278.017 248.623 278.144 249.25 278.144C249.89 278.144 250.363 278.024 250.67 277.784C250.99 277.531 251.15 277.184 251.15 276.744C251.15 276.411 251.036 276.131 250.81 275.904C250.596 275.664 250.216 275.511 249.67 275.444L248.71 275.324C247.643 275.191 246.803 274.884 246.19 274.404C245.59 273.911 245.29 273.184 245.29 272.224C245.29 271.717 245.383 271.271 245.57 270.884C245.756 270.484 246.016 270.151 246.35 269.884C246.696 269.604 247.103 269.391 247.57 269.244C248.05 269.097 248.576 269.024 249.15 269.024C250.083 269.024 250.843 269.171 251.43 269.464C252.03 269.757 252.563 270.164 253.03 270.684L251.69 271.964C251.423 271.644 251.07 271.371 250.63 271.144C250.203 270.904 249.71 270.784 249.15 270.784C248.55 270.784 248.103 270.904 247.81 271.144C247.53 271.384 247.39 271.697 247.39 272.084C247.39 272.484 247.516 272.784 247.77 272.984C248.023 273.184 248.43 273.331 248.99 273.424L249.95 273.544C251.096 273.717 251.93 274.057 252.45 274.564C252.983 275.057 253.25 275.724 253.25 276.564C253.25 277.071 253.15 277.531 252.95 277.944C252.763 278.344 252.49 278.691 252.13 278.984C251.77 279.277 251.336 279.504 250.83 279.664C250.323 279.824 249.756 279.904 249.13 279.904Z" fill="#042F4B"/>
</svg>
