<svg width="79" height="52" viewBox="0 0 79 52" fill="none" xmlns="http://www.w3.org/2000/svg">
<path fill-rule="evenodd" clip-rule="evenodd" d="M3.88714 0C1.74033 0 0 1.74033 0 3.88714V47.9014C0 50.0482 1.74033 51.7886 3.88714 51.7886H74.1729C76.3197 51.7886 78.06 50.0482 78.06 47.9014V3.88714C78.06 1.74033 76.3197 0 74.1729 0H3.88714ZM3.26 5.96822V47.9014C3.26 48.2478 3.54078 48.5286 3.88714 48.5286H74.1729C74.5192 48.5286 74.8 48.2478 74.8 47.9014V6.38593L39.6745 31.341L38.7053 32.0296L37.7474 31.3253L3.26 5.96822ZM73.5193 3.26H5.13059L38.7383 27.9704L73.5193 3.26Z" fill="#FF2E4C"/>
</svg>
