<svg width="73" height="71" viewBox="0 0 73 71" fill="none" xmlns="http://www.w3.org/2000/svg">
<path d="M36.2774 0L37.5578 3.94077L41.7014 3.94077L38.3491 6.37631L39.6296 10.3171L36.2774 7.88155L32.9251 10.3171L34.2056 6.37631L30.8534 3.94077L34.9969 3.94077L36.2774 0Z" fill="#FF2E4C"/>
<path d="M20.75 4.87305L22.0305 8.81382L26.174 8.81382L22.8218 11.2494L24.1022 15.1901L20.75 12.7546L17.3978 15.1901L18.6782 11.2494L15.326 8.81382L19.4696 8.81382L20.75 4.87305Z" fill="#FF2E4C"/>
<path d="M20.75 56.625L22.0305 60.5658L26.174 60.5658L22.8218 63.0013L24.1022 66.9421L20.75 64.5065L17.3978 66.9421L18.6782 63.0013L15.326 60.5658L19.4696 60.5658L20.75 56.625Z" fill="#FF2E4C"/>
<path d="M9.23439 15.4844L10.5148 19.4251L14.6584 19.4251L11.3062 21.8607L12.5866 25.8015L9.23439 23.3659L5.88217 25.8015L7.1626 21.8607L3.81038 19.4251L7.95396 19.4251L9.23439 15.4844Z" fill="#FF2E4C"/>
<path d="M9.23439 46.0039L10.5148 49.9447L14.6584 49.9447L11.3062 52.3802L12.5866 56.321L9.23439 53.8855L5.88217 56.321L7.1626 52.3802L3.81038 49.9447L7.95396 49.9447L9.23439 46.0039Z" fill="#FF2E4C"/>
<path d="M51.4766 4.87305L52.757 8.81382L56.9006 8.81382L53.5484 11.2494L54.8288 15.1901L51.4766 12.7546L48.1244 15.1901L49.4048 11.2494L46.0526 8.81382L50.1961 8.81382L51.4766 4.87305Z" fill="#FF2E4C"/>
<path d="M51.1016 55.1309L52.382 59.0716L56.5256 59.0716L53.1734 61.5072L54.4538 65.4479L51.1016 63.0124L47.7494 65.4479L49.0298 61.5072L45.6776 59.0716L49.8211 59.0716L51.1016 55.1309Z" fill="#FF2E4C"/>
<path d="M62.8867 15.4844L64.1672 19.4251L68.3107 19.4251L64.9585 21.8607L66.239 25.8015L62.8867 23.3659L59.5345 25.8015L60.8149 21.8607L57.4627 19.4251L61.6063 19.4251L62.8867 15.4844Z" fill="#FF2E4C"/>
<path d="M62.8867 44.793L64.1672 48.7337L68.3107 48.7337L64.9585 51.1693L66.239 55.1101L62.8867 52.6745L59.5345 55.1101L60.8149 51.1693L57.4627 48.7337L61.6063 48.7337L62.8867 44.793Z" fill="#FF2E4C"/>
<path d="M66.6875 30.0527L67.968 33.9935L72.1115 33.9935L68.7593 36.429L70.0397 40.3698L66.6875 37.9343L63.3353 40.3698L64.6157 36.429L61.2635 33.9935L65.4071 33.9935L66.6875 30.0527Z" fill="#FF2E4C"/>
<path d="M5.70314 30.9648L6.98358 34.9056L11.1272 34.9056L7.77493 37.3412L9.05537 41.2819L5.70314 38.8464L2.35092 41.2819L3.63135 37.3412L0.279132 34.9056L4.42271 34.9056L5.70314 30.9648Z" fill="#FF2E4C"/>
<path d="M36.2774 58.9336L37.5578 62.8744L41.7014 62.8744L38.3491 65.3099L39.6296 69.2507L36.2774 66.8151L32.9251 69.2507L34.2056 65.3099L30.8534 62.8744L34.9969 62.8744L36.2774 58.9336Z" fill="#FF2E4C"/>
<path d="M19.0083 33.0376H21.3772C21.8228 33.0277 22.2139 33.1292 22.5505 33.3421C22.7733 33.4708 22.9466 33.6466 23.0703 33.8693C23.1891 34.1169 23.2486 34.4213 23.2486 34.7827C23.2486 35.2184 23.1025 35.6144 22.8104 35.9709C22.5035 36.3372 22.0455 36.5254 21.4366 36.5353H19.0083V33.0376ZM17.3672 42.3127H19.0083V38.0873H21.5035C22.6173 38.0675 23.4639 37.711 24.0431 37.0179C24.6075 36.3595 24.8897 35.6293 24.8897 34.8273C24.8897 34.2332 24.7783 33.7183 24.5555 33.2827C24.3426 32.8322 24.0654 32.4856 23.7238 32.243C23.3179 31.9213 22.9169 31.7084 22.5208 31.6044C22.1248 31.5252 21.7139 31.4856 21.2881 31.4856H17.3672V42.3127Z" fill="#FF2E4C"/>
<path d="M28.341 39.6839L27.2642 40.9166C28.4177 41.9067 29.7965 42.4018 31.4005 42.4018C33.8808 42.3721 35.1481 41.3225 35.2026 39.2532C35.2026 38.4858 34.9625 37.8125 34.4823 37.2333C33.9971 36.6442 33.2471 36.2803 32.2322 36.1417C31.7173 36.0773 31.3114 36.0204 31.0143 35.9709C30.4797 35.8719 30.091 35.6936 29.8485 35.4362C29.6059 35.1837 29.4846 34.9015 29.4846 34.5896C29.4945 34.0698 29.6752 33.6787 30.0267 33.4163C30.3633 33.1639 30.7841 33.0376 31.2891 33.0376C32.2644 33.0574 33.158 33.3347 33.9699 33.8693L34.8833 32.5178C33.8882 31.8 32.7174 31.4262 31.3708 31.3965C30.2519 31.4064 29.388 31.6985 28.7791 32.2727C28.1504 32.852 27.836 33.6144 27.836 34.5599C27.836 35.3471 28.086 36.0154 28.586 36.565C29.0712 37.0996 29.7791 37.4437 30.7099 37.5972C31.2297 37.6714 31.7074 37.7383 32.1431 37.7977C33.0936 37.961 33.5639 38.4462 33.554 39.2532C33.5342 40.2383 32.8213 40.7408 31.4153 40.7606C30.2272 40.7507 29.2024 40.3918 28.341 39.6839Z" fill="#FF2E4C"/>
<path d="M38.7653 42.3127H42.4411C43.253 42.3127 43.9387 42.1344 44.4981 41.778C45.0625 41.4463 45.5031 41.0255 45.8199 40.5156C45.9387 40.3225 46.0402 40.1368 46.1244 39.9586C46.2036 39.7754 46.263 39.5675 46.3026 39.3348C46.3868 38.8744 46.4289 38.0625 46.4289 36.8991C46.4289 35.805 46.4016 35.0352 46.3472 34.5896C46.2779 34.1441 46.112 33.7183 45.8496 33.3124C45.1169 32.1044 44.0179 31.4955 42.5525 31.4856H38.7653V42.3127ZM40.4064 33.0376H42.3668C43.1986 33.0178 43.8421 33.3223 44.2976 33.951C44.5204 34.2035 44.6615 34.5327 44.7209 34.9387C44.7654 35.3446 44.7877 36.0179 44.7877 36.9585C44.7877 37.9239 44.7654 38.5823 44.7209 38.9338C44.6714 39.2903 44.555 39.5848 44.3719 39.8175C43.956 40.4463 43.2877 40.7606 42.3668 40.7606H40.4064V33.0376Z" fill="#FF2E4C"/>
<path d="M49.5163 42.3127H55.6872V40.7606H51.551L55.0338 36.3942C55.4694 35.8397 55.6872 35.206 55.6872 34.4931C55.6773 33.602 55.3778 32.8668 54.7887 32.2876C54.2095 31.7034 53.4545 31.4064 52.5238 31.3965C51.6921 31.4064 50.9916 31.6985 50.4222 32.2727C49.8579 32.8619 49.5559 33.6069 49.5163 34.508H51.0609C51.1153 34.0129 51.2886 33.6292 51.5807 33.3569C51.8629 33.0847 52.2168 32.9485 52.6426 32.9485C53.1228 32.9584 53.4941 33.1144 53.7565 33.4163C54.009 33.7183 54.1352 34.0723 54.1352 34.4783C54.1352 34.6317 54.1154 34.7951 54.0758 34.9684C54.0164 35.1515 53.905 35.3496 53.7416 35.5625L49.5163 40.8497V42.3127Z" fill="#FF2E4C"/>
</svg>
