<svg width="56" height="62" viewBox="0 0 56 62" fill="none" xmlns="http://www.w3.org/2000/svg">
<path d="M45.7214 7.62375C45.4744 7.62375 45.2275 7.56202 45.0115 7.43855C39.0853 4.38288 33.9617 3.08654 27.8194 3.08654C21.7081 3.08654 15.9054 4.53721 10.6274 7.43855C9.88667 7.8398 8.96071 7.56202 8.52859 6.82125C8.12734 6.08048 8.40513 5.12365 9.1459 4.7224C14.8869 1.605 21.1834 0 27.8194 0C34.3938 0 40.1347 1.45067 46.4313 4.69154C47.2029 5.09279 47.4807 6.01875 47.0794 6.75952C46.8016 7.31509 46.2769 7.62375 45.7214 7.62375ZM1.55302 23.8281C1.24436 23.8281 0.935711 23.7355 0.657923 23.5503C-0.0519808 23.0564 -0.206308 22.0996 0.287538 21.3897C3.34321 17.0686 7.23225 13.6734 11.8621 11.2967C21.5538 6.29653 33.9617 6.26567 43.6842 11.2659C48.314 13.6425 52.2031 17.0068 55.2588 21.2971C55.7526 21.9761 55.5983 22.9638 54.8884 23.4577C54.1785 23.9515 53.2216 23.7972 52.7278 23.0873C49.9499 19.1983 46.4313 16.1426 42.2644 14.0129C33.4061 9.47567 22.0785 9.47567 13.251 14.0437C9.0533 16.2043 5.53465 19.2909 2.75677 23.1799C2.50985 23.612 2.04686 23.8281 1.55302 23.8281ZM20.8439 61.0826C20.4426 61.0826 20.0414 60.9282 19.7636 60.6196C17.0783 57.9343 15.6276 56.2058 13.5596 52.4711C11.4299 48.6747 10.3188 44.0449 10.3188 39.0756C10.3188 29.9085 18.1586 22.4391 27.7886 22.4391C37.4186 22.4391 45.2584 29.9085 45.2584 39.0756C45.2584 39.9398 44.5793 40.6188 43.7151 40.6188C42.8509 40.6188 42.1718 39.9398 42.1718 39.0756C42.1718 31.6061 35.721 25.5257 27.7886 25.5257C19.8562 25.5257 13.4053 31.6061 13.4053 39.0756C13.4053 43.5202 14.393 47.6253 16.2758 50.9587C18.2512 54.5082 19.6093 56.0206 21.9859 58.4281C22.5723 59.0455 22.5723 60.0023 21.9859 60.6196C21.6464 60.9282 21.2451 61.0826 20.8439 61.0826ZM42.9743 55.3725C39.3014 55.3725 36.0605 54.4465 33.4061 52.6255C28.8071 49.508 26.0601 44.4461 26.0601 39.0756C26.0601 38.2113 26.7392 37.5323 27.6034 37.5323C28.4676 37.5323 29.1467 38.2113 29.1467 39.0756C29.1467 43.4276 31.369 47.5327 35.1345 50.0636C37.326 51.5452 39.8878 52.2551 42.9743 52.2551C43.7151 52.2551 44.9497 52.1625 46.1843 51.9464C47.0177 51.7921 47.8202 52.3477 47.9745 53.2119C48.1289 54.0453 47.5733 54.8478 46.709 55.0021C44.9497 55.3416 43.4065 55.3725 42.9743 55.3725ZM36.7704 61.7307C36.6469 61.7307 36.4926 61.6999 36.3692 61.669C31.4616 60.3109 28.2516 58.4899 24.8872 55.1873C20.5661 50.897 18.1895 45.1869 18.1895 39.0756C18.1895 34.0754 22.4489 30.0011 27.696 30.0011C32.9431 30.0011 37.2025 34.0754 37.2025 39.0756C37.2025 42.3782 40.073 45.0634 43.6225 45.0634C47.172 45.0634 50.0425 42.3782 50.0425 39.0756C50.0425 27.4393 40.0113 17.9945 27.6651 17.9945C18.8994 17.9945 10.8744 22.8712 7.26311 30.4333C6.05936 32.9333 5.44206 35.8656 5.44206 39.0756C5.44206 41.4831 5.65811 45.2795 7.51003 50.218C7.81869 51.0205 7.41744 51.9156 6.61494 52.1933C5.81244 52.502 4.91734 52.0699 4.63955 51.2982C3.12715 47.2549 2.38638 43.2424 2.38638 39.0756C2.38638 35.3717 3.09629 32.0074 4.48523 29.0752C8.59032 20.4637 17.6956 14.8771 27.6651 14.8771C41.7089 14.8771 53.129 25.7108 53.129 39.0447C53.129 44.0449 48.8696 48.1191 43.6225 48.1191C38.3754 48.1191 34.116 44.0449 34.116 39.0447C34.116 35.7421 31.2455 33.0568 27.696 33.0568C24.1465 33.0568 21.276 35.7421 21.276 39.0447C21.276 44.3227 23.3131 49.2611 27.0478 52.965C29.98 55.8663 32.7888 57.4713 37.1408 58.6751C37.9742 58.8911 38.4371 59.7554 38.2211 60.5579C38.0667 61.2678 37.4186 61.7307 36.7704 61.7307Z" fill="#FF2E4C"/>
</svg>
