<svg width="368" height="430" viewBox="0 0 368 430" fill="none" xmlns="http://www.w3.org/2000/svg">
<g filter="url(#filter0_d_1810_2742)">
<ellipse cx="172.838" cy="183.709" rx="74.9321" ry="23.0955" fill="white"/>
</g>
<g filter="url(#filter1_d_1810_2742)">
<ellipse cx="76.0438" cy="275.049" rx="63.0438" ry="19.4313" fill="white"/>
</g>
<g filter="url(#filter2_d_1810_2742)">
<path d="M97.9062 34.6094H247.77V184.225H97.9062V34.6094Z" fill="white"/>
</g>
<g filter="url(#filter3_d_1810_2742)">
<ellipse cx="172.838" cy="34.0955" rx="74.9321" ry="23.0955" fill="white"/>
</g>
<ellipse cx="172.838" cy="183.709" rx="74.9321" ry="23.0955" fill="white"/>
<g filter="url(#filter4_d_1810_2742)">
<rect x="172.48" y="136.248" width="176.523" height="241.812" fill="white"/>
</g>
<g filter="url(#filter5_d_1810_2742)">
<path d="M13 172.352H139.088V275.478H13V172.352Z" fill="white"/>
</g>
<g filter="url(#filter6_i_1810_2742)">
<ellipse cx="260.742" cy="135.641" rx="88.2614" ry="27.2038" fill="white"/>
</g>
<g filter="url(#filter7_d_1810_2742)">
<ellipse cx="76.0438" cy="171.92" rx="63.0438" ry="19.4313" fill="white"/>
</g>
<ellipse cx="76.0438" cy="275.049" rx="63.0438" ry="19.4313" fill="white"/>
<g filter="url(#filter8_d_1810_2742)">
<ellipse cx="260.742" cy="377.45" rx="88.2614" ry="27.2038" fill="white"/>
</g>
<path d="M222.683 202.267C221.718 202.267 220.879 202.089 220.166 201.733C219.454 201.361 218.867 200.834 218.407 200.151C217.947 199.468 217.605 198.63 217.383 197.635C217.16 196.64 217.048 195.504 217.048 194.227C217.048 192.965 217.16 191.837 217.383 190.842C217.605 189.833 217.947 188.986 218.407 188.303C218.867 187.62 219.454 187.101 220.166 186.744C220.879 186.373 221.718 186.188 222.683 186.188C224.613 186.188 226.031 186.893 226.937 188.303C227.857 189.714 228.318 191.688 228.318 194.227C228.318 196.766 227.857 198.741 226.937 200.151C226.031 201.562 224.613 202.267 222.683 202.267ZM222.683 200.129C223.218 200.129 223.67 200.025 224.042 199.817C224.428 199.595 224.739 199.283 224.977 198.882C225.214 198.481 225.385 198.006 225.489 197.457C225.593 196.892 225.645 196.269 225.645 195.586V192.869C225.645 192.186 225.593 191.57 225.489 191.02C225.385 190.456 225.214 189.974 224.977 189.573C224.739 189.172 224.428 188.867 224.042 188.66C223.67 188.437 223.218 188.326 222.683 188.326C222.148 188.326 221.688 188.437 221.302 188.66C220.931 188.867 220.627 189.172 220.389 189.573C220.152 189.974 219.981 190.456 219.877 191.02C219.773 191.57 219.721 192.186 219.721 192.869V195.586C219.721 196.269 219.773 196.892 219.877 197.457C219.981 198.006 220.152 198.481 220.389 198.882C220.627 199.283 220.931 199.595 221.302 199.817C221.688 200.025 222.148 200.129 222.683 200.129Z" fill="#FF2E4C"/>
<path d="M231.315 202V199.906H235.681V188.281H235.502L231.894 192.134L230.358 190.753L234.322 186.455H238.153V199.906H241.939V202H231.315Z" fill="#FF2E4C"/>
<path d="M244.669 202V199.906H249.034V188.281H248.856L245.248 192.134L243.712 190.753L247.676 186.455H251.506V199.906H255.293V202H244.669Z" fill="#FF2E4C"/>
<path d="M262.745 202.267C261.78 202.267 260.941 202.089 260.228 201.733C259.515 201.361 258.929 200.834 258.469 200.151C258.008 199.468 257.667 198.63 257.444 197.635C257.221 196.64 257.11 195.504 257.11 194.227C257.11 192.965 257.221 191.837 257.444 190.842C257.667 189.833 258.008 188.986 258.469 188.303C258.929 187.62 259.515 187.101 260.228 186.744C260.941 186.373 261.78 186.188 262.745 186.188C264.675 186.188 266.093 186.893 266.998 188.303C267.919 189.714 268.379 191.688 268.379 194.227C268.379 196.766 267.919 198.741 266.998 200.151C266.093 201.562 264.675 202.267 262.745 202.267ZM262.745 200.129C263.279 200.129 263.732 200.025 264.103 199.817C264.489 199.595 264.801 199.283 265.039 198.882C265.276 198.481 265.447 198.006 265.551 197.457C265.655 196.892 265.707 196.269 265.707 195.586V192.869C265.707 192.186 265.655 191.57 265.551 191.02C265.447 190.456 265.276 189.974 265.039 189.573C264.801 189.172 264.489 188.867 264.103 188.66C263.732 188.437 263.279 188.326 262.745 188.326C262.21 188.326 261.75 188.437 261.364 188.66C260.993 188.867 260.688 189.172 260.451 189.573C260.213 189.974 260.042 190.456 259.938 191.02C259.835 191.57 259.783 192.186 259.783 192.869V195.586C259.783 196.269 259.835 196.892 259.938 197.457C260.042 198.006 260.213 198.481 260.451 198.882C260.688 199.283 260.993 199.595 261.364 199.817C261.75 200.025 262.21 200.129 262.745 200.129Z" fill="#FF2E4C"/>
<path d="M271.377 202V199.906H275.742V188.281H275.564L271.956 192.134L270.419 190.753L274.384 186.455H278.214V199.906H282V202H271.377Z" fill="#FF2E4C"/>
<path d="M289.452 202.267C288.487 202.267 287.648 202.089 286.936 201.733C286.223 201.361 285.637 200.834 285.176 200.151C284.716 199.468 284.375 198.63 284.152 197.635C283.929 196.64 283.818 195.504 283.818 194.227C283.818 192.965 283.929 191.837 284.152 190.842C284.375 189.833 284.716 188.986 285.176 188.303C285.637 187.62 286.223 187.101 286.936 186.744C287.648 186.373 288.487 186.188 289.452 186.188C291.383 186.188 292.8 186.893 293.706 188.303C294.627 189.714 295.087 191.688 295.087 194.227C295.087 196.766 294.627 198.741 293.706 200.151C292.8 201.562 291.383 202.267 289.452 202.267ZM289.452 200.129C289.987 200.129 290.44 200.025 290.811 199.817C291.197 199.595 291.509 199.283 291.746 198.882C291.984 198.481 292.155 198.006 292.259 197.457C292.362 196.892 292.414 196.269 292.414 195.586V192.869C292.414 192.186 292.362 191.57 292.259 191.02C292.155 190.456 291.984 189.974 291.746 189.573C291.509 189.172 291.197 188.867 290.811 188.66C290.44 188.437 289.987 188.326 289.452 188.326C288.918 188.326 288.458 188.437 288.072 188.66C287.7 188.867 287.396 189.172 287.158 189.573C286.921 189.974 286.75 190.456 286.646 191.02C286.542 191.57 286.49 192.186 286.49 192.869V195.586C286.49 196.269 286.542 196.892 286.646 197.457C286.75 198.006 286.921 198.481 287.158 198.882C287.396 199.283 287.7 199.595 288.072 199.817C288.458 200.025 288.918 200.129 289.452 200.129Z" fill="#FF2E4C"/>
<path d="M302.806 202.267C301.841 202.267 301.002 202.089 300.29 201.733C299.577 201.361 298.99 200.834 298.53 200.151C298.07 199.468 297.728 198.63 297.506 197.635C297.283 196.64 297.172 195.504 297.172 194.227C297.172 192.965 297.283 191.837 297.506 190.842C297.728 189.833 298.07 188.986 298.53 188.303C298.99 187.62 299.577 187.101 300.29 186.744C301.002 186.373 301.841 186.188 302.806 186.188C304.736 186.188 306.154 186.893 307.06 188.303C307.981 189.714 308.441 191.688 308.441 194.227C308.441 196.766 307.981 198.741 307.06 200.151C306.154 201.562 304.736 202.267 302.806 202.267ZM302.806 200.129C303.341 200.129 303.794 200.025 304.165 199.817C304.551 199.595 304.863 199.283 305.1 198.882C305.338 198.481 305.508 198.006 305.612 197.457C305.716 196.892 305.768 196.269 305.768 195.586V192.869C305.768 192.186 305.716 191.57 305.612 191.02C305.508 190.456 305.338 189.974 305.1 189.573C304.863 189.172 304.551 188.867 304.165 188.66C303.794 188.437 303.341 188.326 302.806 188.326C302.272 188.326 301.811 188.437 301.425 188.66C301.054 188.867 300.75 189.172 300.512 189.573C300.275 189.974 300.104 190.456 300 191.02C299.896 191.57 299.844 192.186 299.844 192.869V195.586C299.844 196.269 299.896 196.892 300 197.457C300.104 198.006 300.275 198.481 300.512 198.882C300.75 199.283 301.054 199.595 301.425 199.817C301.811 200.025 302.272 200.129 302.806 200.129Z" fill="#FF2E4C"/>
<path d="M222.683 234.267C221.718 234.267 220.879 234.089 220.166 233.733C219.454 233.361 218.867 232.834 218.407 232.151C217.947 231.468 217.605 230.63 217.383 229.635C217.16 228.64 217.048 227.504 217.048 226.227C217.048 224.965 217.16 223.837 217.383 222.842C217.605 221.833 217.947 220.986 218.407 220.303C218.867 219.62 219.454 219.101 220.166 218.744C220.879 218.373 221.718 218.188 222.683 218.188C224.613 218.188 226.031 218.893 226.937 220.303C227.857 221.714 228.318 223.688 228.318 226.227C228.318 228.766 227.857 230.741 226.937 232.151C226.031 233.562 224.613 234.267 222.683 234.267ZM222.683 232.129C223.218 232.129 223.67 232.025 224.042 231.817C224.428 231.595 224.739 231.283 224.977 230.882C225.214 230.481 225.385 230.006 225.489 229.457C225.593 228.892 225.645 228.269 225.645 227.586V224.869C225.645 224.186 225.593 223.57 225.489 223.02C225.385 222.456 225.214 221.974 224.977 221.573C224.739 221.172 224.428 220.867 224.042 220.66C223.67 220.437 223.218 220.326 222.683 220.326C222.148 220.326 221.688 220.437 221.302 220.66C220.931 220.867 220.627 221.172 220.389 221.573C220.152 221.974 219.981 222.456 219.877 223.02C219.773 223.57 219.721 224.186 219.721 224.869V227.586C219.721 228.269 219.773 228.892 219.877 229.457C219.981 230.006 220.152 230.481 220.389 230.882C220.627 231.283 220.931 231.595 221.302 231.817C221.688 232.025 222.148 232.129 222.683 232.129Z" fill="#FF2E4C"/>
<path d="M236.037 234.267C235.072 234.267 234.233 234.089 233.52 233.733C232.808 233.361 232.221 232.834 231.761 232.151C231.301 231.468 230.959 230.63 230.736 229.635C230.514 228.64 230.402 227.504 230.402 226.227C230.402 224.965 230.514 223.837 230.736 222.842C230.959 221.833 231.301 220.986 231.761 220.303C232.221 219.62 232.808 219.101 233.52 218.744C234.233 218.373 235.072 218.188 236.037 218.188C237.967 218.188 239.385 218.893 240.291 220.303C241.211 221.714 241.671 223.688 241.671 226.227C241.671 228.766 241.211 230.741 240.291 232.151C239.385 233.562 237.967 234.267 236.037 234.267ZM236.037 232.129C236.571 232.129 237.024 232.025 237.395 231.817C237.781 231.595 238.093 231.283 238.331 230.882C238.568 230.481 238.739 230.006 238.843 229.457C238.947 228.892 238.999 228.269 238.999 227.586V224.869C238.999 224.186 238.947 223.57 238.843 223.02C238.739 222.456 238.568 221.974 238.331 221.573C238.093 221.172 237.781 220.867 237.395 220.66C237.024 220.437 236.571 220.326 236.037 220.326C235.502 220.326 235.042 220.437 234.656 220.66C234.285 220.867 233.981 221.172 233.743 221.573C233.505 221.974 233.335 222.456 233.231 223.02C233.127 223.57 233.075 224.186 233.075 224.869V227.586C233.075 228.269 233.127 228.892 233.231 229.457C233.335 230.006 233.505 230.481 233.743 230.882C233.981 231.283 234.285 231.595 234.656 231.817C235.042 232.025 235.502 232.129 236.037 232.129Z" fill="#FF2E4C"/>
<path d="M244.669 234V231.906H249.034V220.281H248.856L245.248 224.134L243.712 222.753L247.676 218.455H251.506V231.906H255.293V234H244.669Z" fill="#FF2E4C"/>
<path d="M258.023 234V231.906H262.388V220.281H262.21L258.602 224.134L257.066 222.753L261.03 218.455H264.86V231.906H268.646V234H258.023Z" fill="#FF2E4C"/>
<path d="M276.098 234.267C275.133 234.267 274.295 234.089 273.582 233.733C272.869 233.361 272.283 232.834 271.822 232.151C271.362 231.468 271.021 230.63 270.798 229.635C270.575 228.64 270.464 227.504 270.464 226.227C270.464 224.965 270.575 223.837 270.798 222.842C271.021 221.833 271.362 220.986 271.822 220.303C272.283 219.62 272.869 219.101 273.582 218.744C274.295 218.373 275.133 218.188 276.098 218.188C278.029 218.188 279.447 218.893 280.352 220.303C281.273 221.714 281.733 223.688 281.733 226.227C281.733 228.766 281.273 230.741 280.352 232.151C279.447 233.562 278.029 234.267 276.098 234.267ZM276.098 232.129C276.633 232.129 277.086 232.025 277.457 231.817C277.843 231.595 278.155 231.283 278.392 230.882C278.63 230.481 278.801 230.006 278.905 229.457C279.009 228.892 279.061 228.269 279.061 227.586V224.869C279.061 224.186 279.009 223.57 278.905 223.02C278.801 222.456 278.63 221.974 278.392 221.573C278.155 221.172 277.843 220.867 277.457 220.66C277.086 220.437 276.633 220.326 276.098 220.326C275.564 220.326 275.104 220.437 274.718 220.66C274.347 220.867 274.042 221.172 273.805 221.573C273.567 221.974 273.396 222.456 273.292 223.02C273.188 223.57 273.136 224.186 273.136 224.869V227.586C273.136 228.269 273.188 228.892 273.292 229.457C273.396 230.006 273.567 230.481 273.805 230.882C274.042 231.283 274.347 231.595 274.718 231.817C275.104 232.025 275.564 232.129 276.098 232.129Z" fill="#FF2E4C"/>
<path d="M289.452 234.267C288.487 234.267 287.648 234.089 286.936 233.733C286.223 233.361 285.637 232.834 285.176 232.151C284.716 231.468 284.375 230.63 284.152 229.635C283.929 228.64 283.818 227.504 283.818 226.227C283.818 224.965 283.929 223.837 284.152 222.842C284.375 221.833 284.716 220.986 285.176 220.303C285.637 219.62 286.223 219.101 286.936 218.744C287.648 218.373 288.487 218.188 289.452 218.188C291.383 218.188 292.8 218.893 293.706 220.303C294.627 221.714 295.087 223.688 295.087 226.227C295.087 228.766 294.627 230.741 293.706 232.151C292.8 233.562 291.383 234.267 289.452 234.267ZM289.452 232.129C289.987 232.129 290.44 232.025 290.811 231.817C291.197 231.595 291.509 231.283 291.746 230.882C291.984 230.481 292.155 230.006 292.259 229.457C292.362 228.892 292.414 228.269 292.414 227.586V224.869C292.414 224.186 292.362 223.57 292.259 223.02C292.155 222.456 291.984 221.974 291.746 221.573C291.509 221.172 291.197 220.867 290.811 220.66C290.44 220.437 289.987 220.326 289.452 220.326C288.918 220.326 288.458 220.437 288.072 220.66C287.7 220.867 287.396 221.172 287.158 221.573C286.921 221.974 286.75 222.456 286.646 223.02C286.542 223.57 286.49 224.186 286.49 224.869V227.586C286.49 228.269 286.542 228.892 286.646 229.457C286.75 230.006 286.921 230.481 287.158 230.882C287.396 231.283 287.7 231.595 288.072 231.817C288.458 232.025 288.918 232.129 289.452 232.129Z" fill="#FF2E4C"/>
<path d="M302.806 234.267C301.841 234.267 301.002 234.089 300.29 233.733C299.577 233.361 298.99 232.834 298.53 232.151C298.07 231.468 297.728 230.63 297.506 229.635C297.283 228.64 297.172 227.504 297.172 226.227C297.172 224.965 297.283 223.837 297.506 222.842C297.728 221.833 298.07 220.986 298.53 220.303C298.99 219.62 299.577 219.101 300.29 218.744C301.002 218.373 301.841 218.188 302.806 218.188C304.736 218.188 306.154 218.893 307.06 220.303C307.981 221.714 308.441 223.688 308.441 226.227C308.441 228.766 307.981 230.741 307.06 232.151C306.154 233.562 304.736 234.267 302.806 234.267ZM302.806 232.129C303.341 232.129 303.794 232.025 304.165 231.817C304.551 231.595 304.863 231.283 305.1 230.882C305.338 230.481 305.508 230.006 305.612 229.457C305.716 228.892 305.768 228.269 305.768 227.586V224.869C305.768 224.186 305.716 223.57 305.612 223.02C305.508 222.456 305.338 221.974 305.1 221.573C304.863 221.172 304.551 220.867 304.165 220.66C303.794 220.437 303.341 220.326 302.806 220.326C302.272 220.326 301.811 220.437 301.425 220.66C301.054 220.867 300.75 221.172 300.512 221.573C300.275 221.974 300.104 222.456 300 223.02C299.896 223.57 299.844 224.186 299.844 224.869V227.586C299.844 228.269 299.896 228.892 300 229.457C300.104 230.006 300.275 230.481 300.512 230.882C300.75 231.283 301.054 231.595 301.425 231.817C301.811 232.025 302.272 232.129 302.806 232.129Z" fill="#FF2E4C"/>
<path d="M222.683 266.267C221.718 266.267 220.879 266.089 220.166 265.733C219.454 265.361 218.867 264.834 218.407 264.151C217.947 263.468 217.605 262.63 217.383 261.635C217.16 260.64 217.048 259.504 217.048 258.227C217.048 256.965 217.16 255.837 217.383 254.842C217.605 253.833 217.947 252.986 218.407 252.303C218.867 251.62 219.454 251.101 220.166 250.744C220.879 250.373 221.718 250.188 222.683 250.188C224.613 250.188 226.031 250.893 226.937 252.303C227.857 253.714 228.318 255.688 228.318 258.227C228.318 260.766 227.857 262.741 226.937 264.151C226.031 265.562 224.613 266.267 222.683 266.267ZM222.683 264.129C223.218 264.129 223.67 264.025 224.042 263.817C224.428 263.595 224.739 263.283 224.977 262.882C225.214 262.481 225.385 262.006 225.489 261.457C225.593 260.892 225.645 260.269 225.645 259.586V256.869C225.645 256.186 225.593 255.57 225.489 255.02C225.385 254.456 225.214 253.974 224.977 253.573C224.739 253.172 224.428 252.867 224.042 252.66C223.67 252.437 223.218 252.326 222.683 252.326C222.148 252.326 221.688 252.437 221.302 252.66C220.931 252.867 220.627 253.172 220.389 253.573C220.152 253.974 219.981 254.456 219.877 255.02C219.773 255.57 219.721 256.186 219.721 256.869V259.586C219.721 260.269 219.773 260.892 219.877 261.457C219.981 262.006 220.152 262.481 220.389 262.882C220.627 263.283 220.931 263.595 221.302 263.817C221.688 264.025 222.148 264.129 222.683 264.129Z" fill="#FF2E4C"/>
<path d="M231.315 266V263.906H235.681V252.281H235.502L231.894 256.134L230.358 254.753L234.322 250.455H238.153V263.906H241.939V266H231.315Z" fill="#FF2E4C"/>
<path d="M249.391 266.267C248.426 266.267 247.587 266.089 246.874 265.733C246.161 265.361 245.575 264.834 245.115 264.151C244.654 263.468 244.313 262.63 244.09 261.635C243.868 260.64 243.756 259.504 243.756 258.227C243.756 256.965 243.868 255.837 244.09 254.842C244.313 253.833 244.654 252.986 245.115 252.303C245.575 251.62 246.161 251.101 246.874 250.744C247.587 250.373 248.426 250.188 249.391 250.188C251.321 250.188 252.739 250.893 253.645 252.303C254.565 253.714 255.025 255.688 255.025 258.227C255.025 260.766 254.565 262.741 253.645 264.151C252.739 265.562 251.321 266.267 249.391 266.267ZM249.391 264.129C249.925 264.129 250.378 264.025 250.749 263.817C251.135 263.595 251.447 263.283 251.685 262.882C251.922 262.481 252.093 262.006 252.197 261.457C252.301 260.892 252.353 260.269 252.353 259.586V256.869C252.353 256.186 252.301 255.57 252.197 255.02C252.093 254.456 251.922 253.974 251.685 253.573C251.447 253.172 251.135 252.867 250.749 252.66C250.378 252.437 249.925 252.326 249.391 252.326C248.856 252.326 248.396 252.437 248.01 252.66C247.639 252.867 247.334 253.172 247.097 253.573C246.859 253.974 246.689 254.456 246.585 255.02C246.481 255.57 246.429 256.186 246.429 256.869V259.586C246.429 260.269 246.481 260.892 246.585 261.457C246.689 262.006 246.859 262.481 247.097 262.882C247.334 263.283 247.639 263.595 248.01 263.817C248.396 264.025 248.856 264.129 249.391 264.129Z" fill="#FF2E4C"/>
<path d="M258.023 266V263.906H262.388V252.281H262.21L258.602 256.134L257.066 254.753L261.03 250.455H264.86V263.906H268.646V266H258.023Z" fill="#FF2E4C"/>
<path d="M271.377 266V263.906H275.742V252.281H275.564L271.956 256.134L270.419 254.753L274.384 250.455H278.214V263.906H282V266H271.377Z" fill="#FF2E4C"/>
<path d="M289.452 266.267C288.487 266.267 287.648 266.089 286.936 265.733C286.223 265.361 285.637 264.834 285.176 264.151C284.716 263.468 284.375 262.63 284.152 261.635C283.929 260.64 283.818 259.504 283.818 258.227C283.818 256.965 283.929 255.837 284.152 254.842C284.375 253.833 284.716 252.986 285.176 252.303C285.637 251.62 286.223 251.101 286.936 250.744C287.648 250.373 288.487 250.188 289.452 250.188C291.383 250.188 292.8 250.893 293.706 252.303C294.627 253.714 295.087 255.688 295.087 258.227C295.087 260.766 294.627 262.741 293.706 264.151C292.8 265.562 291.383 266.267 289.452 266.267ZM289.452 264.129C289.987 264.129 290.44 264.025 290.811 263.817C291.197 263.595 291.509 263.283 291.746 262.882C291.984 262.481 292.155 262.006 292.259 261.457C292.362 260.892 292.414 260.269 292.414 259.586V256.869C292.414 256.186 292.362 255.57 292.259 255.02C292.155 254.456 291.984 253.974 291.746 253.573C291.509 253.172 291.197 252.867 290.811 252.66C290.44 252.437 289.987 252.326 289.452 252.326C288.918 252.326 288.458 252.437 288.072 252.66C287.7 252.867 287.396 253.172 287.158 253.573C286.921 253.974 286.75 254.456 286.646 255.02C286.542 255.57 286.49 256.186 286.49 256.869V259.586C286.49 260.269 286.542 260.892 286.646 261.457C286.75 262.006 286.921 262.481 287.158 262.882C287.396 263.283 287.7 263.595 288.072 263.817C288.458 264.025 288.918 264.129 289.452 264.129Z" fill="#FF2E4C"/>
<path d="M298.085 266V263.906H302.45V252.281H302.272L298.664 256.134L297.127 254.753L301.091 250.455H304.922V263.906H308.708V266H298.085Z" fill="#FF2E4C"/>
<path d="M217.962 298V295.906H222.327V284.281H222.148L218.541 288.134L217.004 286.753L220.968 282.455H224.799V295.906H228.585V298H217.962Z" fill="#FF2E4C"/>
<path d="M231.315 298V295.906H235.681V284.281H235.502L231.894 288.134L230.358 286.753L234.322 282.455H238.153V295.906H241.939V298H231.315Z" fill="#FF2E4C"/>
<path d="M249.391 298.267C248.426 298.267 247.587 298.089 246.874 297.733C246.161 297.361 245.575 296.834 245.115 296.151C244.654 295.468 244.313 294.63 244.09 293.635C243.868 292.64 243.756 291.504 243.756 290.227C243.756 288.965 243.868 287.837 244.09 286.842C244.313 285.833 244.654 284.986 245.115 284.303C245.575 283.62 246.161 283.101 246.874 282.744C247.587 282.373 248.426 282.188 249.391 282.188C251.321 282.188 252.739 282.893 253.645 284.303C254.565 285.714 255.025 287.688 255.025 290.227C255.025 292.766 254.565 294.741 253.645 296.151C252.739 297.562 251.321 298.267 249.391 298.267ZM249.391 296.129C249.925 296.129 250.378 296.025 250.749 295.817C251.135 295.595 251.447 295.283 251.685 294.882C251.922 294.481 252.093 294.006 252.197 293.457C252.301 292.892 252.353 292.269 252.353 291.586V288.869C252.353 288.186 252.301 287.57 252.197 287.02C252.093 286.456 251.922 285.974 251.685 285.573C251.447 285.172 251.135 284.867 250.749 284.66C250.378 284.437 249.925 284.326 249.391 284.326C248.856 284.326 248.396 284.437 248.01 284.66C247.639 284.867 247.334 285.172 247.097 285.573C246.859 285.974 246.689 286.456 246.585 287.02C246.481 287.57 246.429 288.186 246.429 288.869V291.586C246.429 292.269 246.481 292.892 246.585 293.457C246.689 294.006 246.859 294.481 247.097 294.882C247.334 295.283 247.639 295.595 248.01 295.817C248.396 296.025 248.856 296.129 249.391 296.129Z" fill="#FF2E4C"/>
<path d="M262.745 298.267C261.78 298.267 260.941 298.089 260.228 297.733C259.515 297.361 258.929 296.834 258.469 296.151C258.008 295.468 257.667 294.63 257.444 293.635C257.221 292.64 257.11 291.504 257.11 290.227C257.11 288.965 257.221 287.837 257.444 286.842C257.667 285.833 258.008 284.986 258.469 284.303C258.929 283.62 259.515 283.101 260.228 282.744C260.941 282.373 261.78 282.188 262.745 282.188C264.675 282.188 266.093 282.893 266.998 284.303C267.919 285.714 268.379 287.688 268.379 290.227C268.379 292.766 267.919 294.741 266.998 296.151C266.093 297.562 264.675 298.267 262.745 298.267ZM262.745 296.129C263.279 296.129 263.732 296.025 264.103 295.817C264.489 295.595 264.801 295.283 265.039 294.882C265.276 294.481 265.447 294.006 265.551 293.457C265.655 292.892 265.707 292.269 265.707 291.586V288.869C265.707 288.186 265.655 287.57 265.551 287.02C265.447 286.456 265.276 285.974 265.039 285.573C264.801 285.172 264.489 284.867 264.103 284.66C263.732 284.437 263.279 284.326 262.745 284.326C262.21 284.326 261.75 284.437 261.364 284.66C260.993 284.867 260.688 285.172 260.451 285.573C260.213 285.974 260.042 286.456 259.938 287.02C259.835 287.57 259.783 288.186 259.783 288.869V291.586C259.783 292.269 259.835 292.892 259.938 293.457C260.042 294.006 260.213 294.481 260.451 294.882C260.688 295.283 260.993 295.595 261.364 295.817C261.75 296.025 262.21 296.129 262.745 296.129Z" fill="#FF2E4C"/>
<path d="M271.377 298V295.906H275.742V284.281H275.564L271.956 288.134L270.419 286.753L274.384 282.455H278.214V295.906H282V298H271.377Z" fill="#FF2E4C"/>
<path d="M284.731 298V295.906H289.096V284.281H288.918L285.31 288.134L283.773 286.753L287.738 282.455H291.568V295.906H295.354V298H284.731Z" fill="#FF2E4C"/>
<path d="M302.806 298.267C301.841 298.267 301.002 298.089 300.29 297.733C299.577 297.361 298.99 296.834 298.53 296.151C298.07 295.468 297.728 294.63 297.506 293.635C297.283 292.64 297.172 291.504 297.172 290.227C297.172 288.965 297.283 287.837 297.506 286.842C297.728 285.833 298.07 284.986 298.53 284.303C298.99 283.62 299.577 283.101 300.29 282.744C301.002 282.373 301.841 282.188 302.806 282.188C304.736 282.188 306.154 282.893 307.06 284.303C307.981 285.714 308.441 287.688 308.441 290.227C308.441 292.766 307.981 294.741 307.06 296.151C306.154 297.562 304.736 298.267 302.806 298.267ZM302.806 296.129C303.341 296.129 303.794 296.025 304.165 295.817C304.551 295.595 304.863 295.283 305.1 294.882C305.338 294.481 305.508 294.006 305.612 293.457C305.716 292.892 305.768 292.269 305.768 291.586V288.869C305.768 288.186 305.716 287.57 305.612 287.02C305.508 286.456 305.338 285.974 305.1 285.573C304.863 285.172 304.551 284.867 304.165 284.66C303.794 284.437 303.341 284.326 302.806 284.326C302.272 284.326 301.811 284.437 301.425 284.66C301.054 284.867 300.75 285.172 300.512 285.573C300.275 285.974 300.104 286.456 300 287.02C299.896 287.57 299.844 288.186 299.844 288.869V291.586C299.844 292.269 299.896 292.892 300 293.457C300.104 294.006 300.275 294.481 300.512 294.882C300.75 295.283 301.054 295.595 301.425 295.817C301.811 296.025 302.272 296.129 302.806 296.129Z" fill="#FF2E4C"/>
<path d="M217.962 330V327.906H222.327V316.281H222.148L218.541 320.134L217.004 318.753L220.968 314.455H224.799V327.906H228.585V330H217.962Z" fill="#FF2E4C"/>
<path d="M236.037 330.267C235.072 330.267 234.233 330.089 233.52 329.733C232.808 329.361 232.221 328.834 231.761 328.151C231.301 327.468 230.959 326.63 230.736 325.635C230.514 324.64 230.402 323.504 230.402 322.227C230.402 320.965 230.514 319.837 230.736 318.842C230.959 317.833 231.301 316.986 231.761 316.303C232.221 315.62 232.808 315.101 233.52 314.744C234.233 314.373 235.072 314.188 236.037 314.188C237.967 314.188 239.385 314.893 240.291 316.303C241.211 317.714 241.671 319.688 241.671 322.227C241.671 324.766 241.211 326.741 240.291 328.151C239.385 329.562 237.967 330.267 236.037 330.267ZM236.037 328.129C236.571 328.129 237.024 328.025 237.395 327.817C237.781 327.595 238.093 327.283 238.331 326.882C238.568 326.481 238.739 326.006 238.843 325.457C238.947 324.892 238.999 324.269 238.999 323.586V320.869C238.999 320.186 238.947 319.57 238.843 319.02C238.739 318.456 238.568 317.974 238.331 317.573C238.093 317.172 237.781 316.867 237.395 316.66C237.024 316.437 236.571 316.326 236.037 316.326C235.502 316.326 235.042 316.437 234.656 316.66C234.285 316.867 233.981 317.172 233.743 317.573C233.505 317.974 233.335 318.456 233.231 319.02C233.127 319.57 233.075 320.186 233.075 320.869V323.586C233.075 324.269 233.127 324.892 233.231 325.457C233.335 326.006 233.505 326.481 233.743 326.882C233.981 327.283 234.285 327.595 234.656 327.817C235.042 328.025 235.502 328.129 236.037 328.129Z" fill="#FF2E4C"/>
<path d="M244.669 330V327.906H249.034V316.281H248.856L245.248 320.134L243.712 318.753L247.676 314.455H251.506V327.906H255.293V330H244.669Z" fill="#FF2E4C"/>
<path d="M258.023 330V327.906H262.388V316.281H262.21L258.602 320.134L257.066 318.753L261.03 314.455H264.86V327.906H268.646V330H258.023Z" fill="#FF2E4C"/>
<path d="M276.098 330.267C275.133 330.267 274.295 330.089 273.582 329.733C272.869 329.361 272.283 328.834 271.822 328.151C271.362 327.468 271.021 326.63 270.798 325.635C270.575 324.64 270.464 323.504 270.464 322.227C270.464 320.965 270.575 319.837 270.798 318.842C271.021 317.833 271.362 316.986 271.822 316.303C272.283 315.62 272.869 315.101 273.582 314.744C274.295 314.373 275.133 314.188 276.098 314.188C278.029 314.188 279.447 314.893 280.352 316.303C281.273 317.714 281.733 319.688 281.733 322.227C281.733 324.766 281.273 326.741 280.352 328.151C279.447 329.562 278.029 330.267 276.098 330.267ZM276.098 328.129C276.633 328.129 277.086 328.025 277.457 327.817C277.843 327.595 278.155 327.283 278.392 326.882C278.63 326.481 278.801 326.006 278.905 325.457C279.009 324.892 279.061 324.269 279.061 323.586V320.869C279.061 320.186 279.009 319.57 278.905 319.02C278.801 318.456 278.63 317.974 278.392 317.573C278.155 317.172 277.843 316.867 277.457 316.66C277.086 316.437 276.633 316.326 276.098 316.326C275.564 316.326 275.104 316.437 274.718 316.66C274.347 316.867 274.042 317.172 273.805 317.573C273.567 317.974 273.396 318.456 273.292 319.02C273.188 319.57 273.136 320.186 273.136 320.869V323.586C273.136 324.269 273.188 324.892 273.292 325.457C273.396 326.006 273.567 326.481 273.805 326.882C274.042 327.283 274.347 327.595 274.718 327.817C275.104 328.025 275.564 328.129 276.098 328.129Z" fill="#FF2E4C"/>
<path d="M284.731 330V327.906H289.096V316.281H288.918L285.31 320.134L283.773 318.753L287.738 314.455H291.568V327.906H295.354V330H284.731Z" fill="#FF2E4C"/>
<path d="M298.085 330V327.906H302.45V316.281H302.272L298.664 320.134L297.127 318.753L301.091 314.455H304.922V327.906H308.708V330H298.085Z" fill="#FF2E4C"/>
<path d="M222.683 362.267C221.718 362.267 220.879 362.089 220.166 361.733C219.454 361.361 218.867 360.834 218.407 360.151C217.947 359.468 217.605 358.63 217.383 357.635C217.16 356.64 217.048 355.504 217.048 354.227C217.048 352.965 217.16 351.837 217.383 350.842C217.605 349.833 217.947 348.986 218.407 348.303C218.867 347.62 219.454 347.101 220.166 346.744C220.879 346.373 221.718 346.188 222.683 346.188C224.613 346.188 226.031 346.893 226.937 348.303C227.857 349.714 228.318 351.688 228.318 354.227C228.318 356.766 227.857 358.741 226.937 360.151C226.031 361.562 224.613 362.267 222.683 362.267ZM222.683 360.129C223.218 360.129 223.67 360.025 224.042 359.817C224.428 359.595 224.739 359.283 224.977 358.882C225.214 358.481 225.385 358.006 225.489 357.457C225.593 356.892 225.645 356.269 225.645 355.586V352.869C225.645 352.186 225.593 351.57 225.489 351.02C225.385 350.456 225.214 349.974 224.977 349.573C224.739 349.172 224.428 348.867 224.042 348.66C223.67 348.437 223.218 348.326 222.683 348.326C222.148 348.326 221.688 348.437 221.302 348.66C220.931 348.867 220.627 349.172 220.389 349.573C220.152 349.974 219.981 350.456 219.877 351.02C219.773 351.57 219.721 352.186 219.721 352.869V355.586C219.721 356.269 219.773 356.892 219.877 357.457C219.981 358.006 220.152 358.481 220.389 358.882C220.627 359.283 220.931 359.595 221.302 359.817C221.688 360.025 222.148 360.129 222.683 360.129Z" fill="#FF2E4C"/>
<path d="M231.315 362V359.906H235.681V348.281H235.502L231.894 352.134L230.358 350.753L234.322 346.455H238.153V359.906H241.939V362H231.315Z" fill="#FF2E4C"/>
<path d="M244.669 362V359.906H249.034V348.281H248.856L245.248 352.134L243.712 350.753L247.676 346.455H251.506V359.906H255.293V362H244.669Z" fill="#FF2E4C"/>
<path d="M258.023 362V359.906H262.388V348.281H262.21L258.602 352.134L257.066 350.753L261.03 346.455H264.86V359.906H268.646V362H258.023Z" fill="#FF2E4C"/>
<path d="M271.377 362V359.906H275.742V348.281H275.564L271.956 352.134L270.419 350.753L274.384 346.455H278.214V359.906H282V362H271.377Z" fill="#FF2E4C"/>
<defs>
<filter id="filter0_d_1810_2742" x="82.8543" y="150.417" width="180.938" height="77.2663" filterUnits="userSpaceOnUse" color-interpolation-filters="sRGB">
<feFlood flood-opacity="0" result="BackgroundImageFix"/>
<feColorMatrix in="SourceAlpha" type="matrix" values="0 0 0 0 0 0 0 0 0 0 0 0 0 0 0 0 0 0 127 0" result="hardAlpha"/>
<feOffset dx="0.485546" dy="5.341"/>
<feGaussianBlur stdDeviation="7.76873"/>
<feColorMatrix type="matrix" values="0 0 0 0 0.313726 0 0 0 0 0.42353 0 0 0 0 0.941176 0 0 0 0.31 0"/>
<feBlend mode="normal" in2="BackgroundImageFix" result="effect1_dropShadow_1810_2742"/>
<feBlend mode="normal" in="SourceGraphic" in2="effect1_dropShadow_1810_2742" result="shape"/>
</filter>
<filter id="filter1_d_1810_2742" x="0.33613" y="247.038" width="152.231" height="65.008" filterUnits="userSpaceOnUse" color-interpolation-filters="sRGB">
<feFlood flood-opacity="0" result="BackgroundImageFix"/>
<feColorMatrix in="SourceAlpha" type="matrix" values="0 0 0 0 0 0 0 0 0 0 0 0 0 0 0 0 0 0 127 0" result="hardAlpha"/>
<feOffset dx="0.408512" dy="4.49363"/>
<feGaussianBlur stdDeviation="6.53619"/>
<feColorMatrix type="matrix" values="0 0 0 0 0.313726 0 0 0 0 0.42353 0 0 0 0 0.941176 0 0 0 0.31 0"/>
<feBlend mode="normal" in2="BackgroundImageFix" result="effect1_dropShadow_1810_2742"/>
<feBlend mode="normal" in="SourceGraphic" in2="effect1_dropShadow_1810_2742" result="shape"/>
</filter>
<filter id="filter2_d_1810_2742" x="82.8543" y="24.4129" width="180.938" height="180.69" filterUnits="userSpaceOnUse" color-interpolation-filters="sRGB">
<feFlood flood-opacity="0" result="BackgroundImageFix"/>
<feColorMatrix in="SourceAlpha" type="matrix" values="0 0 0 0 0 0 0 0 0 0 0 0 0 0 0 0 0 0 127 0" result="hardAlpha"/>
<feOffset dx="0.485546" dy="5.341"/>
<feGaussianBlur stdDeviation="7.76873"/>
<feColorMatrix type="matrix" values="0 0 0 0 0.313726 0 0 0 0 0.42353 0 0 0 0 0.941176 0 0 0 0.31 0"/>
<feBlend mode="normal" in2="BackgroundImageFix" result="effect1_dropShadow_1810_2742"/>
<feBlend mode="normal" in="SourceGraphic" in2="effect1_dropShadow_1810_2742" result="shape"/>
</filter>
<filter id="filter3_d_1810_2742" x="82.8543" y="0.803544" width="180.938" height="77.2663" filterUnits="userSpaceOnUse" color-interpolation-filters="sRGB">
<feFlood flood-opacity="0" result="BackgroundImageFix"/>
<feColorMatrix in="SourceAlpha" type="matrix" values="0 0 0 0 0 0 0 0 0 0 0 0 0 0 0 0 0 0 127 0" result="hardAlpha"/>
<feOffset dx="0.485546" dy="5.341"/>
<feGaussianBlur stdDeviation="7.76873"/>
<feColorMatrix type="matrix" values="0 0 0 0 0.313726 0 0 0 0 0.42353 0 0 0 0 0.941176 0 0 0 0.31 0"/>
<feBlend mode="normal" in2="BackgroundImageFix" result="effect1_dropShadow_1810_2742"/>
<feBlend mode="normal" in="SourceGraphic" in2="effect1_dropShadow_1810_2742" result="shape"/>
</filter>
<filter id="filter4_d_1810_2742" x="154.751" y="124.238" width="213.126" height="278.415" filterUnits="userSpaceOnUse" color-interpolation-filters="sRGB">
<feFlood flood-opacity="0" result="BackgroundImageFix"/>
<feColorMatrix in="SourceAlpha" type="matrix" values="0 0 0 0 0 0 0 0 0 0 0 0 0 0 0 0 0 0 127 0" result="hardAlpha"/>
<feOffset dx="0.571917" dy="6.29108"/>
<feGaussianBlur stdDeviation="9.15067"/>
<feColorMatrix type="matrix" values="0 0 0 0 0.313726 0 0 0 0 0.42353 0 0 0 0 0.941176 0 0 0 0.31 0"/>
<feBlend mode="normal" in2="BackgroundImageFix" result="effect1_dropShadow_1810_2742"/>
<feBlend mode="normal" in="SourceGraphic" in2="effect1_dropShadow_1810_2742" result="shape"/>
</filter>
<filter id="filter5_d_1810_2742" x="0.33613" y="163.773" width="152.231" height="129.272" filterUnits="userSpaceOnUse" color-interpolation-filters="sRGB">
<feFlood flood-opacity="0" result="BackgroundImageFix"/>
<feColorMatrix in="SourceAlpha" type="matrix" values="0 0 0 0 0 0 0 0 0 0 0 0 0 0 0 0 0 0 127 0" result="hardAlpha"/>
<feOffset dx="0.408512" dy="4.49363"/>
<feGaussianBlur stdDeviation="6.53619"/>
<feColorMatrix type="matrix" values="0 0 0 0 0.313726 0 0 0 0 0.42353 0 0 0 0 0.941176 0 0 0 0.31 0"/>
<feBlend mode="normal" in2="BackgroundImageFix" result="effect1_dropShadow_1810_2742"/>
<feBlend mode="normal" in="SourceGraphic" in2="effect1_dropShadow_1810_2742" result="shape"/>
</filter>
<filter id="filter6_i_1810_2742" x="172.48" y="108.438" width="177.095" height="60.6993" filterUnits="userSpaceOnUse" color-interpolation-filters="sRGB">
<feFlood flood-opacity="0" result="BackgroundImageFix"/>
<feBlend mode="normal" in="SourceGraphic" in2="BackgroundImageFix" result="shape"/>
<feColorMatrix in="SourceAlpha" type="matrix" values="0 0 0 0 0 0 0 0 0 0 0 0 0 0 0 0 0 0 127 0" result="hardAlpha"/>
<feOffset dx="0.571917" dy="6.29108"/>
<feGaussianBlur stdDeviation="9.15067"/>
<feComposite in2="hardAlpha" operator="arithmetic" k2="-1" k3="1"/>
<feColorMatrix type="matrix" values="0 0 0 0 0.313726 0 0 0 0 0.42353 0 0 0 0 0.941176 0 0 0 0.31 0"/>
<feBlend mode="normal" in2="shape" result="effect1_innerShadow_1810_2742"/>
</filter>
<filter id="filter7_d_1810_2742" x="0.33613" y="143.91" width="152.231" height="65.008" filterUnits="userSpaceOnUse" color-interpolation-filters="sRGB">
<feFlood flood-opacity="0" result="BackgroundImageFix"/>
<feColorMatrix in="SourceAlpha" type="matrix" values="0 0 0 0 0 0 0 0 0 0 0 0 0 0 0 0 0 0 127 0" result="hardAlpha"/>
<feOffset dx="0.408512" dy="4.49363"/>
<feGaussianBlur stdDeviation="6.53619"/>
<feColorMatrix type="matrix" values="0 0 0 0 0.313726 0 0 0 0 0.42353 0 0 0 0 0.941176 0 0 0 0.31 0"/>
<feBlend mode="normal" in2="BackgroundImageFix" result="effect1_dropShadow_1810_2742"/>
<feBlend mode="normal" in="SourceGraphic" in2="effect1_dropShadow_1810_2742" result="shape"/>
</filter>
<filter id="filter8_d_1810_2742" x="154.751" y="338.236" width="213.126" height="91.0109" filterUnits="userSpaceOnUse" color-interpolation-filters="sRGB">
<feFlood flood-opacity="0" result="BackgroundImageFix"/>
<feColorMatrix in="SourceAlpha" type="matrix" values="0 0 0 0 0 0 0 0 0 0 0 0 0 0 0 0 0 0 127 0" result="hardAlpha"/>
<feOffset dx="0.571917" dy="6.29108"/>
<feGaussianBlur stdDeviation="9.15067"/>
<feColorMatrix type="matrix" values="0 0 0 0 0.313726 0 0 0 0 0.42353 0 0 0 0 0.941176 0 0 0 0.31 0"/>
<feBlend mode="normal" in2="BackgroundImageFix" result="effect1_dropShadow_1810_2742"/>
<feBlend mode="normal" in="SourceGraphic" in2="effect1_dropShadow_1810_2742" result="shape"/>
</filter>
</defs>
</svg>
