<svg width="157" height="49" viewBox="0 0 157 49" fill="none" xmlns="http://www.w3.org/2000/svg">
<path d="M23.4844 4.20899V43.3347V48.2422L31.3125 44.5578V0.384705L23.4844 4.20899Z" fill="#F8931E"/>
<path d="M50.593 17.1241L51.6735 28.3438L36.5352 25.0501" fill="#B3B3B3"/>
<path d="M7.82812 31.4832C7.82812 25.9364 13.8722 21.2652 22.1103 19.8393V14.8672C9.50946 16.3903 0 23.2499 0 31.4832C0 40.0131 10.2071 47.0682 23.4844 48.2422V43.3347C14.5515 42.2148 7.82812 37.3344 7.82812 31.4832ZM32.6866 14.8692V19.8393C35.9644 20.4066 38.8965 21.4849 41.2366 22.9314L46.7718 19.5105C42.9996 17.179 38.131 15.5272 32.6866 14.8692Z" fill="#B3B3B3"/>
<path d="M63.1274 32.4141C63.41 33.4748 63.8547 34.4293 64.4609 35.2779C65.0669 36.1265 65.8443 36.8083 66.7942 37.3233C67.7436 37.8385 68.8748 38.0961 70.1882 38.0961C71.5013 38.0961 72.6323 37.8385 73.5824 37.3233C74.5318 36.8083 75.3097 36.1265 75.9154 35.2779C76.5219 34.4293 76.9659 33.4748 77.2491 32.4141C77.5319 31.3536 77.6733 30.2777 77.6733 29.1869C77.6733 28.0961 77.5319 27.02 77.2491 25.9593C76.9659 24.8986 76.5219 23.944 75.9154 23.0956C75.3097 22.247 74.5318 21.5653 73.5824 21.0501C72.6323 20.5349 71.5013 20.2773 70.1882 20.2773C68.8748 20.2773 67.7436 20.5349 66.7942 21.0501C65.8443 21.5653 65.0669 22.247 64.4609 23.0956C63.8547 23.944 63.41 24.8986 63.1274 25.9593C62.8442 27.02 62.7033 28.0961 62.7033 29.1869C62.7033 30.2777 62.8442 31.3536 63.1274 32.4141ZM60.4759 24.9289C60.9101 23.5653 61.5616 22.3583 62.4305 21.3077C63.2989 20.2575 64.3799 19.4189 65.6731 18.7924C66.9657 18.1666 68.4709 17.853 70.1882 17.853C71.9052 17.853 73.4104 18.1666 74.7033 18.7924C75.9961 19.4189 77.0772 20.2575 77.9461 21.3077C78.8145 22.3583 79.466 23.5653 79.9007 24.9289C80.3349 26.2929 80.5521 27.7123 80.5521 29.1869C80.5521 30.6618 80.3349 32.0809 79.9007 33.4444C79.466 34.8082 78.8145 36.0157 77.9461 37.0659C77.0772 38.1166 75.9961 38.9498 74.7033 39.5655C73.4104 40.182 71.9052 40.4902 70.1882 40.4902C68.4709 40.4902 66.9657 40.182 65.6731 39.5655C64.3799 38.9498 63.2989 38.1166 62.4305 37.0659C61.5616 36.0157 60.9101 34.8082 60.4759 33.4444C60.0412 32.0809 59.8242 30.6618 59.8242 29.1869C59.8242 27.7123 60.0412 26.2929 60.4759 24.9289Z" fill="black"/>
<path d="M94.6618 29.8981C94.4695 29.2011 94.1772 28.5798 93.7829 28.0347C93.389 27.489 92.8836 27.0548 92.2679 26.7316C91.6512 26.4085 90.929 26.2468 90.1009 26.2468C89.2325 26.2468 88.495 26.4182 87.8888 26.7619C87.2828 27.1054 86.7877 27.555 86.4039 28.1101C86.02 28.6664 85.7419 29.2973 85.5707 30.0043C85.3987 30.7117 85.3131 31.4285 85.3131 32.1558C85.3131 32.9237 85.4038 33.6661 85.5856 34.3834C85.7676 35.1006 86.0555 35.7318 86.4494 36.2773C86.8435 36.8226 87.3533 37.2621 87.9798 37.5956C88.6055 37.9285 89.3634 38.0954 90.2526 38.0954C91.1411 38.0954 91.8838 37.9239 92.48 37.5802C93.0756 37.2367 93.5558 36.7824 93.9194 36.2166C94.2831 35.651 94.5454 35.0045 94.7073 34.2772C94.8688 33.5502 94.9497 32.8028 94.9497 32.0344C94.9497 31.3074 94.8536 30.5953 94.6618 29.8981ZM85.4038 24.3374V26.4586H85.4645C85.8889 25.5904 86.5553 24.9588 87.4646 24.5644C88.3739 24.1708 89.3739 23.9739 90.4647 23.9739C91.6768 23.9739 92.7322 24.1963 93.6314 24.6405C94.5302 25.085 95.278 25.6858 95.8739 26.4437C96.4696 27.2013 96.9195 28.0754 97.2226 29.0649C97.5254 30.0549 97.6771 31.1056 97.6771 32.2167C97.6771 33.328 97.5303 34.3785 97.2377 35.368C96.9444 36.358 96.4999 37.2218 95.9043 37.9591C95.3081 38.6969 94.5603 39.2774 93.6618 39.7016C92.7625 40.126 91.717 40.3381 90.5254 40.3381C90.1413 40.3381 89.7117 40.2975 89.2374 40.2168C88.7623 40.1356 88.2926 40.0044 87.8281 39.8224C87.3633 39.6409 86.9239 39.3938 86.51 39.0805C86.0956 38.7671 85.7475 38.3786 85.4645 37.9138H85.4038V45.9746H82.8281V24.3374H85.4038Z" fill="black"/>
<path d="M110.568 28.9436C110.336 28.3983 110.023 27.9284 109.629 27.5343C109.235 27.1404 108.77 26.8275 108.235 26.5949C107.699 26.3627 107.109 26.2468 106.462 26.2468C105.796 26.2468 105.194 26.3627 104.66 26.5949C104.124 26.8275 103.664 27.1458 103.28 27.5497C102.896 27.9538 102.593 28.4235 102.371 28.9587C102.149 29.4942 102.017 30.0647 101.977 30.6711H110.978C110.937 30.0647 110.801 29.4888 110.568 28.9436ZM111.19 39.0044C110.018 39.8936 108.543 40.3379 106.765 40.3379C105.512 40.3379 104.427 40.1353 103.508 39.7317C102.588 39.3278 101.815 38.7622 101.189 38.0345C100.563 37.3072 100.093 36.4392 99.7804 35.4287C99.4667 34.4186 99.2901 33.3178 99.25 32.1255C99.25 30.9339 99.4318 29.8428 99.7953 28.8526C100.159 27.863 100.669 27.0039 101.326 26.2769C101.982 25.5496 102.76 24.9842 103.659 24.5796C104.558 24.1757 105.543 23.9737 106.614 23.9737C108.007 23.9737 109.164 24.2614 110.084 24.8375C111.002 25.4131 111.74 26.1455 112.296 27.0345C112.851 27.9237 113.235 28.8934 113.448 29.9434C113.659 30.9943 113.745 31.9943 113.705 32.9437H101.977C101.957 33.6307 102.038 34.2823 102.22 34.8983C102.402 35.5145 102.694 36.0603 103.099 36.5346C103.502 37.0097 104.018 37.3884 104.644 37.6709C105.27 37.9542 106.008 38.0951 106.856 38.0951C107.947 38.0951 108.841 37.8429 109.538 37.3378C110.235 36.8328 110.694 36.065 110.917 35.0343H113.462C113.119 36.7922 112.361 38.1157 111.19 39.0044Z" fill="black"/>
<path d="M117.885 24.3388V26.824H117.945C119.016 24.9252 120.713 23.9753 123.037 23.9753C124.067 23.9753 124.925 24.117 125.613 24.3998C126.299 24.6826 126.855 25.0766 127.279 25.5813C127.703 26.0867 128.002 26.6873 128.173 27.3845C128.345 28.0814 128.43 28.8542 128.43 29.7026V40.0059H125.855V29.3997C125.855 28.4298 125.572 27.6624 125.007 27.0965C124.441 26.531 123.663 26.2482 122.673 26.2482C121.885 26.2482 121.203 26.369 120.627 26.6117C120.051 26.8541 119.571 27.1978 119.188 27.6418C118.804 28.0866 118.516 28.6071 118.324 29.2026C118.132 29.7987 118.037 30.4504 118.037 31.1571V40.0059H115.461V24.3388H117.885Z" fill="black"/>
<path d="M135.128 40.0059H131.945V18.369H135.128V40.0059Z" fill="black"/>
<path d="M146.128 37.5816C146.451 37.5816 146.856 37.5561 147.34 37.5055C147.825 37.4554 148.341 37.3345 148.886 37.142C149.432 36.9504 149.972 36.6723 150.507 36.3088C151.042 35.9453 151.523 35.4501 151.946 34.8239C152.371 34.1979 152.719 33.4148 152.992 32.4754C153.265 31.5358 153.401 30.3998 153.401 29.0661C153.401 27.7734 153.274 26.6171 153.023 25.5965C152.77 24.5764 152.356 23.7077 151.78 22.9905C151.204 22.2734 150.462 21.7279 149.553 21.3539C148.644 20.9803 147.522 20.7932 146.189 20.7932H141.34V37.5816H146.128ZM145.885 18.3689C149.219 18.3689 151.785 19.2173 153.583 20.9145C155.381 22.6115 156.28 25.1977 156.28 28.6724C156.28 30.4905 156.078 32.1019 155.674 33.5056C155.27 34.9102 154.644 36.0918 153.795 37.0512C152.947 38.0112 151.866 38.7436 150.552 39.2482C149.239 39.7536 147.684 40.0059 145.885 40.0059H138.461V18.3689H145.885Z" fill="black"/>
</svg>
