<svg width="109" height="37" viewBox="0 0 109 37" fill="none" xmlns="http://www.w3.org/2000/svg">
<g clip-path="url(#clip0_1476_2917)">
<path d="M13.6088 9.14453C6.08742 9.14453 0 15.232 0 22.7533C0 30.2746 6.08742 36.3621 13.6088 36.3621C21.1301 36.3621 27.2175 30.2746 27.2175 22.7533C27.2175 15.232 21.1301 9.14453 13.6088 9.14453ZM13.6088 29.5712C9.84809 29.5712 6.79086 26.514 6.79086 22.7533C6.79086 18.9926 9.84809 15.9354 13.6088 15.9354C17.3694 15.9354 20.4267 18.9926 20.4267 22.7533C20.4267 26.514 17.3694 29.5712 13.6088 29.5712Z" fill="#007DC1"/>
<path d="M37.5238 27.3258C37.5238 26.2436 38.8224 25.7295 39.58 26.487C42.9889 29.9501 48.6164 35.9023 48.6435 35.9293C48.7246 36.0105 48.8058 36.1458 49.1305 36.254C49.2657 36.3081 49.4822 36.3081 49.7257 36.3081H55.8672C56.9765 36.3081 57.3011 35.0365 56.7871 34.3872L46.6143 23.9709L46.0732 23.4298C44.9099 22.05 45.0451 21.5089 46.3708 20.102L54.4333 11.0926C54.9473 10.4433 54.6227 9.19877 53.4864 9.19877H47.913C47.6965 9.19877 47.5342 9.19877 47.3719 9.25288C47.0472 9.3611 46.9119 9.46932 46.8308 9.57754C46.8037 9.6046 42.3396 14.4204 39.58 17.3694C38.8224 18.1811 37.4697 17.64 37.4697 16.5307V1.08221C37.4697 0.297607 36.8204 0 36.3063 0H31.761C30.9764 0 30.5977 0.514049 30.5977 0.973987V35.2259C30.5977 36.0105 31.247 36.2269 31.7881 36.2269H36.3334C37.0368 36.2269 37.4967 35.7129 37.4967 35.1988V34.8471V27.3258H37.5238Z" fill="#007DC1"/>
<path d="M74.6452 35.0635L74.1582 30.5183C74.1041 29.896 73.5088 29.4631 72.8866 29.5713C72.5349 29.6254 72.1831 29.6525 71.8314 29.6525C68.206 29.6525 65.257 26.8117 65.0406 23.2134C65.0406 23.1051 65.0406 22.9699 65.0406 22.8346V17.2612C65.0406 16.5307 65.5817 15.9355 66.3122 15.9355H72.3996C72.8325 15.9355 73.4818 15.5567 73.4818 14.7721V10.4704C73.4818 9.63165 72.9407 9.19877 72.4537 9.19877H66.3122C65.6087 9.19877 65.0406 8.68472 65.0135 7.98129V1.08221C65.0135 0.649325 64.6889 0 63.8501 0H59.3319C58.7638 0 58.2227 0.351718 58.2227 1.05515C58.2227 1.05515 58.2227 23.1051 58.2227 23.2134C58.412 30.5724 64.4454 36.4434 71.8314 36.4434C72.4537 36.4434 73.0489 36.3892 73.6441 36.3081C74.2935 36.2269 74.7263 35.6858 74.6452 35.0635Z" fill="#007DC1"/>
<path d="M107.439 29.3525C103.598 29.3525 103.002 27.9727 103.002 22.8052C103.002 22.7781 103.002 22.7781 103.002 22.7511V10.3327C103.002 9.89984 102.678 9.16934 101.812 9.16934H97.2667C96.6985 9.16934 96.0763 9.62928 96.0763 10.3327V10.9009C94.1012 9.76456 91.8015 9.11523 89.3666 9.11523C81.8452 9.11523 75.7578 15.2027 75.7578 22.724C75.7578 30.2453 81.8452 36.3328 89.3666 36.3328C92.7485 36.3328 95.8328 35.0882 98.2136 33.0591C99.4852 35.0071 101.541 36.3057 104.761 36.3328C105.302 36.3328 108.224 36.441 108.224 35.0612V30.2183C108.224 29.8125 107.899 29.3525 107.439 29.3525ZM89.3936 29.569C85.633 29.569 82.5757 26.5117 82.5757 22.7511C82.5757 18.9904 85.633 15.9331 89.3936 15.9331C93.1543 15.9331 96.2115 18.9904 96.2115 22.7511C96.1845 26.5117 93.1273 29.569 89.3936 29.569Z" fill="#007DC1"/>
</g>
<defs>
<clipPath id="clip0_1476_2917">
<rect width="108.221" height="36.4434" fill="white"/>
</clipPath>
</defs>
</svg>
