<svg width="132" height="39" viewBox="0 0 132 39" fill="none" xmlns="http://www.w3.org/2000/svg">
<g clip-path="url(#clip0_1476_2913)">
<path d="M22.7134 35.9994C29.0212 34.8851 34.2311 33.963 34.2909 33.9503L34.3997 33.9273L28.4445 26.8438C25.1692 22.9478 22.4893 19.7451 22.4893 19.7267C22.4893 19.6917 28.6386 2.75808 28.6731 2.69784C28.6847 2.67769 32.8694 9.90253 38.8172 20.2113C44.3856 29.8626 48.9765 37.8201 49.0192 37.8947L49.0968 38.0302L30.1707 38.0278L11.2447 38.0254L22.7134 35.9994V35.9994ZM95.2926 34.2863C92.4117 34.1016 90.7362 32.4611 90.2922 29.3905C90.174 28.5737 90.1736 28.5525 90.1615 23.2497L90.1498 18.1175H91.4248H92.6998L92.7099 23.0817C92.7189 27.5558 92.7246 28.0803 92.7674 28.3951C92.941 29.6724 93.2866 30.5314 93.875 31.148C94.3459 31.6414 94.8972 31.9303 95.6603 32.0836C96.0203 32.156 97.0444 32.1561 97.3726 32.0839C98.1463 31.9137 98.7663 31.577 99.3133 31.0302C99.9368 30.407 100.398 29.5228 100.621 28.5229L100.696 28.186L100.705 23.1798L100.713 18.1736H102.015H103.317V26.0434V33.9133H102.028H100.74V32.6647C100.74 31.8163 100.731 31.4192 100.711 31.4257C100.695 31.431 100.629 31.5323 100.564 31.6507C100.12 32.4603 99.3803 33.2008 98.5698 33.6468C97.5982 34.1816 96.6239 34.3717 95.2926 34.2863L95.2926 34.2863ZM124.534 34.2736C123.517 34.1971 122.446 33.8475 121.571 33.3061C119.727 32.165 118.635 30.2842 118.315 27.6958C118.205 26.8001 118.192 25.597 118.284 24.8359C118.49 23.1353 119.158 21.4658 120.11 20.274C120.354 19.9685 120.907 19.4151 121.213 19.1711C122.038 18.5124 123.003 18.0518 124.027 17.8277C124.624 17.6971 125.676 17.6357 126.31 17.6945C127.903 17.8422 129.364 18.5924 130.356 19.7731C131.365 20.9727 131.919 22.649 131.99 24.7131C132.001 25.0365 132.003 25.6037 131.996 25.9734L131.981 26.6455L126.401 26.6526L120.821 26.6597V26.9087C120.821 27.6668 121.005 28.5302 121.324 29.2648C121.598 29.8983 122.071 30.5901 122.459 30.9248C123.253 31.6112 124.224 32.0221 125.288 32.121C125.682 32.1576 126.687 32.119 127.136 32.05C128.418 31.853 129.637 31.3502 130.621 30.6123C130.737 30.5255 130.848 30.4443 130.867 30.432C130.896 30.414 130.903 30.6408 130.902 31.5943L130.901 32.779L130.638 32.9421C129.524 33.6307 128.249 34.0729 126.898 34.2384C126.495 34.2878 125.016 34.3098 124.534 34.2735L124.534 34.2736ZM129.391 24.2819C129.391 23.0121 128.856 21.6015 128.098 20.8751C127.558 20.3567 126.905 20.0399 126.128 19.9196C125.761 19.8627 124.986 19.8846 124.599 19.9629C123.78 20.1284 123.102 20.4884 122.512 21.0722C121.89 21.6866 121.424 22.4329 121.131 23.2831C121.025 23.5888 120.902 24.0908 120.864 24.37L120.845 24.503H125.118H129.391V24.2819ZM53.6946 33.8782C53.7012 33.859 55.5961 28.8808 57.9056 22.8157L62.1048 11.7882L63.454 11.7881L64.8031 11.788L64.9151 12.0751C65.2572 12.9523 73.3214 33.8893 73.3214 33.9002C73.3214 33.9074 72.6755 33.9132 71.8861 33.913L70.4507 33.9127L69.2885 30.8183L68.1262 27.7238L63.4463 27.7238L58.7665 27.7237L58.7258 27.8287C58.7034 27.8865 58.2068 29.2789 57.6223 30.923L56.5594 33.9122L55.1211 33.9127C53.9826 33.9131 53.6852 33.9059 53.6946 33.8782V33.8782ZM67.272 25.3623C67.272 25.3574 66.4898 23.2369 65.5338 20.6502C63.7454 15.8108 63.6453 15.5196 63.504 14.7427C63.4377 14.3784 63.4042 14.3683 63.3649 14.7007C63.3368 14.9383 63.2149 15.47 63.1209 15.7649C63.0743 15.9113 62.2689 18.1218 61.3311 20.6772C60.3934 23.2325 59.6262 25.3341 59.6262 25.3473C59.6262 25.3604 61.3465 25.3712 63.4491 25.3712C65.5517 25.3712 67.272 25.3672 67.272 25.3623V25.3623ZM74.1896 33.5102V33.1072L78.8522 26.6976L83.5148 20.288L79.2933 20.274L75.0718 20.26L75.0645 19.1888L75.0572 18.1175H81.163H87.2687V18.4793V18.8411L82.6056 25.2857C80.0409 28.8302 77.9425 31.7362 77.9425 31.7435C77.9425 31.7508 80.0157 31.7567 82.5496 31.7567H87.1567V32.835V33.9133H80.6732H74.1896V33.5102ZM108.404 33.8946C108.394 33.8843 108.386 30.3303 108.386 25.9967V18.1175H109.66H110.934V19.7419C110.934 20.6353 110.945 21.3663 110.958 21.3663C110.972 21.3663 111.034 21.22 111.096 21.0413C111.383 20.2222 111.88 19.4569 112.52 18.8487C113.096 18.3007 113.756 17.973 114.533 17.8476C114.752 17.8124 114.937 17.8057 115.373 17.8171C115.922 17.8314 116.209 17.8715 116.543 17.9805L116.648 18.0149V19.3376V20.6603L116.347 20.5096C115.815 20.2434 115.29 20.138 114.659 20.1708C114.249 20.1922 113.979 20.2449 113.651 20.3681C112.976 20.6215 112.428 21.0689 112.045 21.6795C111.491 22.5635 111.096 23.6998 110.979 24.7442C110.958 24.9316 110.946 26.4581 110.941 29.4672L110.934 33.9133H109.678C108.988 33.9133 108.415 33.9049 108.404 33.8946ZM0 33.8392C0 33.8293 2.80606 28.9582 6.23568 23.0146L12.4714 12.2081L19.7383 6.10965C23.7351 2.7555 27.016 0.00710332 27.0292 0.0020909C27.0423 -0.00292052 26.9898 0.12941 26.9123 0.296161C26.8349 0.462911 23.284 8.07922 19.0215 17.2213L11.2713 33.8432L5.63566 33.8503C2.53605 33.8542 0 33.8492 0 33.8392V33.8392Z" fill="#0089D6"/>
</g>
<defs>
<clipPath id="clip0_1476_2913">
<rect width="132" height="38.0283" fill="white"/>
</clipPath>
</defs>
</svg>
