<svg width="16" height="17" viewBox="0 0 16 17" fill="none" xmlns="http://www.w3.org/2000/svg">
<path d="M15.6759 8.47542C15.6753 8.25279 15.6276 8.03281 15.5359 7.82995C15.4441 7.62709 15.3105 7.44597 15.1437 7.2985L7.83437 0.865327C7.64556 0.710764 7.40411 0.635538 7.16093 0.655503C6.91774 0.675467 6.6918 0.789063 6.53072 0.972349C6.36965 1.15564 6.28602 1.3943 6.29746 1.63803C6.3089 1.88177 6.41452 2.11155 6.59206 2.27894L12.2393 7.24816C12.2641 7.27013 12.2816 7.29911 12.2895 7.33125C12.2975 7.3634 12.2954 7.39719 12.2838 7.42817C12.2721 7.45914 12.2512 7.48584 12.224 7.50471C12.1968 7.52359 12.1645 7.53377 12.1314 7.53389H0.941536C0.691825 7.53389 0.452342 7.63309 0.27577 7.80966C0.0991973 7.98623 0 8.22571 0 8.47542C0 8.72513 0.0991973 8.96462 0.27577 9.14119C0.452342 9.31776 0.691825 9.41696 0.941536 9.41696H12.1295C12.1626 9.41728 12.1948 9.4276 12.2219 9.44656C12.249 9.46552 12.2698 9.49224 12.2815 9.52321C12.2931 9.55418 12.2952 9.58796 12.2873 9.62011C12.2794 9.65225 12.262 9.68127 12.2374 9.70334L6.5901 14.6726C6.49134 14.7523 6.40973 14.8513 6.35018 14.9634C6.29063 15.0755 6.25437 15.1985 6.24358 15.325C6.23279 15.4515 6.2477 15.5789 6.2874 15.6995C6.3271 15.8201 6.39078 15.9314 6.47461 16.0267C6.55844 16.1221 6.66069 16.1995 6.7752 16.2543C6.88971 16.3091 7.01413 16.3402 7.14097 16.3457C7.2678 16.3512 7.39444 16.3309 7.51327 16.2862C7.63209 16.2415 7.74065 16.1733 7.8324 16.0855L15.143 9.65234C15.31 9.50499 15.4438 9.3239 15.5357 9.12103C15.6276 8.91816 15.6753 8.69812 15.6759 8.47542Z" fill="white"/>
</svg>
