<svg width="105" height="31" viewBox="0 0 105 31" fill="none" xmlns="http://www.w3.org/2000/svg">
<path d="M0 15.3158C0 6.85711 6.85712 0 15.3158 0H89.6842C98.1429 0 105 6.85711 105 15.3158V15.3158C105 23.7745 98.1429 30.6316 89.6842 30.6316H15.3158C6.85712 30.6316 0 23.7745 0 15.3158V15.3158Z" fill="#E2E6FD"/>
<path d="M19.3958 20.468C18.2421 20.468 17.3368 20.0806 16.68 19.3059C16.0232 18.5227 15.6947 17.3901 15.6947 15.908C15.6947 15.1669 15.7789 14.5143 15.9474 13.9501C16.1158 13.3859 16.36 12.9101 16.68 12.5227C17 12.1354 17.3874 11.8448 17.8421 11.6511C18.3053 11.449 18.8232 11.348 19.3958 11.348C20.1621 11.348 20.8021 11.5164 21.3158 11.8532C21.8379 12.1901 22.2463 12.6869 22.5411 13.3438L21.3411 14.0006C21.1895 13.5796 20.9537 13.2469 20.6337 13.0027C20.3221 12.7501 19.9095 12.6238 19.3958 12.6238C18.7137 12.6238 18.1789 12.8554 17.7916 13.3185C17.4042 13.7817 17.2105 14.4217 17.2105 15.2385V16.5775C17.2105 17.3943 17.4042 18.0343 17.7916 18.4975C18.1789 18.9606 18.7137 19.1922 19.3958 19.1922C19.9263 19.1922 20.3558 19.0575 20.6842 18.788C21.0211 18.5101 21.2695 18.1564 21.4295 17.7269L22.5789 18.4217C22.2842 19.0617 21.8716 19.5627 21.3411 19.9248C20.8105 20.2869 20.1621 20.468 19.3958 20.468ZM26.5679 20.468C26.1131 20.468 25.6963 20.388 25.3173 20.228C24.9468 20.068 24.631 19.8406 24.37 19.5459C24.1089 19.2427 23.9068 18.8806 23.7637 18.4596C23.6205 18.0301 23.5489 17.5543 23.5489 17.0322C23.5489 16.5101 23.6205 16.0385 23.7637 15.6175C23.9068 15.188 24.1089 14.8259 24.37 14.5311C24.631 14.228 24.9468 13.9964 25.3173 13.8364C25.6963 13.6764 26.1131 13.5964 26.5679 13.5964C27.0226 13.5964 27.4352 13.6764 27.8058 13.8364C28.1847 13.9964 28.5047 14.228 28.7658 14.5311C29.0268 14.8259 29.2289 15.188 29.3721 15.6175C29.5152 16.0385 29.5868 16.5101 29.5868 17.0322C29.5868 17.5543 29.5152 18.0301 29.3721 18.4596C29.2289 18.8806 29.0268 19.2427 28.7658 19.5459C28.5047 19.8406 28.1847 20.068 27.8058 20.228C27.4352 20.388 27.0226 20.468 26.5679 20.468ZM26.5679 19.3311C27.0394 19.3311 27.4184 19.188 27.7047 18.9017C27.991 18.6069 28.1342 18.169 28.1342 17.588V16.4764C28.1342 15.8954 27.991 15.4617 27.7047 15.1754C27.4184 14.8806 27.0394 14.7332 26.5679 14.7332C26.0963 14.7332 25.7173 14.8806 25.431 15.1754C25.1447 15.4617 25.0015 15.8954 25.0015 16.4764V17.588C25.0015 18.169 25.1447 18.6069 25.431 18.9017C25.7173 19.188 26.0963 19.3311 26.5679 19.3311ZM31.121 20.3164V13.748H32.4978V14.8343H32.561C32.6283 14.6659 32.7083 14.5059 32.801 14.3543C32.902 14.2027 33.0199 14.0722 33.1546 13.9627C33.2978 13.8448 33.462 13.7564 33.6473 13.6975C33.841 13.6301 34.0641 13.5964 34.3167 13.5964C34.7631 13.5964 35.1588 13.7059 35.5041 13.9248C35.8494 14.1438 36.102 14.4806 36.262 14.9354H36.2999C36.4178 14.5648 36.6452 14.249 36.982 13.988C37.3189 13.7269 37.7525 13.5964 38.2831 13.5964C38.9399 13.5964 39.4494 13.8196 39.8115 14.2659C40.1736 14.7038 40.3546 15.3311 40.3546 16.148V20.3164H38.9778V16.3122C38.9778 15.8069 38.881 15.428 38.6873 15.1754C38.4936 14.9143 38.1862 14.7838 37.7652 14.7838C37.5883 14.7838 37.4199 14.809 37.2599 14.8596C37.0999 14.9017 36.9567 14.969 36.8304 15.0617C36.7125 15.1543 36.6157 15.2722 36.5399 15.4154C36.4641 15.5585 36.4262 15.7227 36.4262 15.908V20.3164H35.0494V16.3122C35.0494 15.2932 34.6494 14.7838 33.8494 14.7838C33.681 14.7838 33.5125 14.809 33.3441 14.8596C33.1841 14.9017 33.041 14.969 32.9146 15.0617C32.7883 15.1543 32.6873 15.2722 32.6115 15.4154C32.5357 15.5585 32.4978 15.7227 32.4978 15.908V20.3164H31.121ZM42.9547 12.5732C42.6684 12.5732 42.4578 12.5059 42.3231 12.3711C42.1968 12.2364 42.1336 12.0638 42.1336 11.8532V11.6385C42.1336 11.428 42.1968 11.2554 42.3231 11.1206C42.4578 10.9859 42.6684 10.9185 42.9547 10.9185C43.241 10.9185 43.4473 10.9859 43.5736 11.1206C43.6999 11.2554 43.7631 11.428 43.7631 11.6385V11.8532C43.7631 12.0638 43.6999 12.2364 43.5736 12.3711C43.4473 12.5059 43.241 12.5732 42.9547 12.5732ZM42.2599 13.748H43.6368V20.3164H42.2599V13.748ZM45.6029 20.3164V13.748H46.9797V14.8343H47.0429C47.186 14.4806 47.4008 14.1859 47.6871 13.9501C47.9818 13.7143 48.3818 13.5964 48.8871 13.5964C49.5608 13.5964 50.0829 13.8196 50.4534 14.2659C50.8323 14.7038 51.0218 15.3311 51.0218 16.148V20.3164H49.645V16.3248C49.645 15.2975 49.2323 14.7838 48.4071 14.7838C48.2302 14.7838 48.0534 14.809 47.8765 14.8596C47.7081 14.9017 47.5565 14.969 47.4218 15.0617C47.2871 15.1543 47.1776 15.2722 47.0934 15.4154C47.0176 15.5585 46.9797 15.7269 46.9797 15.9206V20.3164H45.6029ZM58.6902 20.9354C58.6902 21.6175 58.4291 22.1311 57.907 22.4764C57.3849 22.8217 56.5344 22.9943 55.3554 22.9943C54.8165 22.9943 54.3575 22.9564 53.9786 22.8806C53.6081 22.8132 53.3007 22.7122 53.0565 22.5775C52.8207 22.4427 52.6481 22.2785 52.5386 22.0848C52.4291 21.8911 52.3744 21.668 52.3744 21.4154C52.3744 21.0532 52.4712 20.7711 52.6649 20.569C52.867 20.3669 53.1449 20.228 53.4986 20.1522V20.0132C53.0017 19.8532 52.7533 19.5164 52.7533 19.0027C52.7533 18.6659 52.867 18.409 53.0944 18.2322C53.3217 18.0469 53.5954 17.9164 53.9154 17.8406V17.7901C53.5281 17.6048 53.2291 17.348 53.0186 17.0196C52.8165 16.6827 52.7154 16.2911 52.7154 15.8448C52.7154 15.1711 52.9386 14.628 53.3849 14.2154C53.8396 13.8027 54.4881 13.5964 55.3302 13.5964C55.7933 13.5964 56.1891 13.6638 56.5175 13.7985V13.6217C56.5175 13.3269 56.5849 13.0996 56.7196 12.9396C56.8628 12.7711 57.0817 12.6869 57.3765 12.6869H58.387V13.7985H57.0481V14.0638C57.3428 14.2575 57.5702 14.5101 57.7302 14.8217C57.8902 15.1248 57.9702 15.4659 57.9702 15.8448C57.9702 16.5101 57.7428 17.049 57.2881 17.4617C56.8333 17.8659 56.1849 18.068 55.3428 18.068C55.0228 18.068 54.7365 18.0343 54.4839 17.9669C54.3154 18.0259 54.1681 18.1101 54.0417 18.2196C53.9154 18.3206 53.8523 18.4554 53.8523 18.6238C53.8523 18.8006 53.9323 18.9269 54.0923 19.0027C54.2523 19.0785 54.4796 19.1164 54.7744 19.1164H56.3912C57.1996 19.1164 57.7849 19.2806 58.147 19.609C58.5091 19.929 58.6902 20.3711 58.6902 20.9354ZM57.4017 21.0869C57.4017 20.8596 57.3133 20.6785 57.1365 20.5438C56.9681 20.409 56.6565 20.3417 56.2017 20.3417H53.9786C53.6754 20.5185 53.5239 20.7711 53.5239 21.0996C53.5239 21.369 53.6291 21.5838 53.8396 21.7438C54.0586 21.9122 54.4249 21.9964 54.9386 21.9964H55.7975C56.867 21.9964 57.4017 21.6932 57.4017 21.0869ZM55.3428 17.0701C55.747 17.0701 56.0586 16.9817 56.2775 16.8048C56.5049 16.6196 56.6186 16.3375 56.6186 15.9585V15.7059C56.6186 15.3269 56.5049 15.049 56.2775 14.8722C56.0586 14.6869 55.747 14.5943 55.3428 14.5943C54.9386 14.5943 54.6228 14.6869 54.3954 14.8722C54.1765 15.049 54.067 15.3269 54.067 15.7059V15.9585C54.067 16.3375 54.1765 16.6196 54.3954 16.8048C54.6228 16.9817 54.9386 17.0701 55.3428 17.0701ZM64.7841 20.468C64.161 20.468 63.6389 20.3585 63.2178 20.1396C62.7967 19.9206 62.4304 19.6175 62.1189 19.2301L63.0031 18.4217C63.2473 18.7164 63.5167 18.948 63.8115 19.1164C64.1146 19.2764 64.4641 19.3564 64.8599 19.3564C65.2641 19.3564 65.5631 19.2806 65.7567 19.129C65.9589 18.969 66.0599 18.7501 66.0599 18.4722C66.0599 18.2617 65.9883 18.0848 65.8452 17.9417C65.7104 17.7901 65.4704 17.6932 65.1252 17.6511L64.5189 17.5754C63.8452 17.4911 63.3146 17.2975 62.9273 16.9943C62.5483 16.6827 62.3589 16.2238 62.3589 15.6175C62.3589 15.2975 62.4178 15.0154 62.5357 14.7711C62.6536 14.5185 62.8178 14.308 63.0283 14.1396C63.2473 13.9627 63.5041 13.828 63.7989 13.7354C64.102 13.6427 64.4346 13.5964 64.7967 13.5964C65.3862 13.5964 65.8662 13.689 66.2367 13.8743C66.6157 14.0596 66.9525 14.3164 67.2473 14.6448L66.401 15.4532C66.2325 15.2511 66.0094 15.0785 65.7315 14.9354C65.462 14.7838 65.1504 14.708 64.7967 14.708C64.4178 14.708 64.1357 14.7838 63.9504 14.9354C63.7736 15.0869 63.6852 15.2848 63.6852 15.529C63.6852 15.7817 63.7652 15.9711 63.9252 16.0975C64.0852 16.2238 64.342 16.3164 64.6957 16.3754L65.302 16.4511C66.0262 16.5606 66.5525 16.7754 66.881 17.0954C67.2178 17.4069 67.3862 17.828 67.3862 18.3585C67.3862 18.6785 67.3231 18.969 67.1967 19.2301C67.0789 19.4827 66.9062 19.7017 66.6789 19.8869C66.4515 20.0722 66.1778 20.2154 65.8578 20.3164C65.5378 20.4175 65.1799 20.468 64.7841 20.468ZM71.5185 20.468C71.0638 20.468 70.6469 20.388 70.268 20.228C69.8975 20.068 69.5817 19.8406 69.3206 19.5459C69.0596 19.2427 68.8575 18.8806 68.7143 18.4596C68.5712 18.0301 68.4996 17.5543 68.4996 17.0322C68.4996 16.5101 68.5712 16.0385 68.7143 15.6175C68.8575 15.188 69.0596 14.8259 69.3206 14.5311C69.5817 14.228 69.8975 13.9964 70.268 13.8364C70.6469 13.6764 71.0638 13.5964 71.5185 13.5964C71.9733 13.5964 72.3859 13.6764 72.7564 13.8364C73.1354 13.9964 73.4554 14.228 73.7164 14.5311C73.9775 14.8259 74.1796 15.188 74.3227 15.6175C74.4659 16.0385 74.5375 16.5101 74.5375 17.0322C74.5375 17.5543 74.4659 18.0301 74.3227 18.4596C74.1796 18.8806 73.9775 19.2427 73.7164 19.5459C73.4554 19.8406 73.1354 20.068 72.7564 20.228C72.3859 20.388 71.9733 20.468 71.5185 20.468ZM71.5185 19.3311C71.9901 19.3311 72.369 19.188 72.6554 18.9017C72.9417 18.6069 73.0848 18.169 73.0848 17.588V16.4764C73.0848 15.8954 72.9417 15.4617 72.6554 15.1754C72.369 14.8806 71.9901 14.7332 71.5185 14.7332C71.0469 14.7332 70.668 14.8806 70.3817 15.1754C70.0954 15.4617 69.9522 15.8954 69.9522 16.4764V17.588C69.9522 18.169 70.0954 18.6069 70.3817 18.9017C70.668 19.188 71.0469 19.3311 71.5185 19.3311ZM78.6485 20.468C78.1937 20.468 77.7769 20.388 77.3979 20.228C77.0274 20.068 76.7116 19.8406 76.4506 19.5459C76.1895 19.2427 75.9874 18.8806 75.8442 18.4596C75.7011 18.0301 75.6295 17.5543 75.6295 17.0322C75.6295 16.5101 75.7011 16.0385 75.8442 15.6175C75.9874 15.188 76.1895 14.8259 76.4506 14.5311C76.7116 14.228 77.0274 13.9964 77.3979 13.8364C77.7769 13.6764 78.1937 13.5964 78.6485 13.5964C79.1032 13.5964 79.5158 13.6764 79.8863 13.8364C80.2653 13.9964 80.5853 14.228 80.8464 14.5311C81.1074 14.8259 81.3095 15.188 81.4527 15.6175C81.5958 16.0385 81.6674 16.5101 81.6674 17.0322C81.6674 17.5543 81.5958 18.0301 81.4527 18.4596C81.3095 18.8806 81.1074 19.2427 80.8464 19.5459C80.5853 19.8406 80.2653 20.068 79.8863 20.228C79.5158 20.388 79.1032 20.468 78.6485 20.468ZM78.6485 19.3311C79.12 19.3311 79.499 19.188 79.7853 18.9017C80.0716 18.6069 80.2148 18.169 80.2148 17.588V16.4764C80.2148 15.8954 80.0716 15.4617 79.7853 15.1754C79.499 14.8806 79.12 14.7332 78.6485 14.7332C78.1769 14.7332 77.7979 14.8806 77.5116 15.1754C77.2253 15.4617 77.0821 15.8954 77.0821 16.4764V17.588C77.0821 18.169 77.2253 18.6069 77.5116 18.9017C77.7979 19.188 78.1769 19.3311 78.6485 19.3311ZM83.2015 20.3164V13.748H84.5784V14.8343H84.6415C84.7847 14.4806 84.9994 14.1859 85.2858 13.9501C85.5805 13.7143 85.9805 13.5964 86.4858 13.5964C87.1594 13.5964 87.6815 13.8196 88.0521 14.2659C88.431 14.7038 88.6205 15.3311 88.6205 16.148V20.3164H87.2437V16.3248C87.2437 15.2975 86.831 14.7838 86.0058 14.7838C85.8289 14.7838 85.6521 14.809 85.4752 14.8596C85.3068 14.9017 85.1552 14.969 85.0205 15.0617C84.8858 15.1543 84.7763 15.2722 84.6921 15.4154C84.6163 15.5585 84.5784 15.7269 84.5784 15.9206V20.3164H83.2015Z" fill="#042F4B"/>
</svg>
