<svg width="190" height="58" viewBox="0 0 190 58" fill="none" xmlns="http://www.w3.org/2000/svg">
<g opacity="0.5">
<path d="M28.6865 4.68211V52.0091V57.9453L38.1555 53.4887V0.0561981L28.6865 4.68211Z" fill="white"/>
<path d="M61.4763 20.3035L62.7833 33.875L44.4717 29.8909" fill="white"/>
<path d="M9.74929 37.6733C9.74929 30.9639 17.0603 25.3136 27.0252 23.5888V17.5745C11.7831 19.4168 0.280273 27.7143 0.280273 37.6733C0.280273 47.9913 12.627 56.5253 28.6873 57.9453V52.0091C17.882 50.6545 9.74929 44.7511 9.74929 37.6733ZM39.8184 17.5768V23.5888C43.7833 24.275 47.33 25.5793 50.1607 27.329L56.8562 23.1911C52.2933 20.3708 46.4041 18.3728 39.8184 17.5768Z" fill="white"/>
<path d="M76.6353 38.8012C76.977 40.0843 77.515 41.2389 78.2483 42.2654C78.9812 43.2919 79.9216 44.1166 81.0706 44.7395C82.219 45.3627 83.5873 45.6743 85.176 45.6743C86.7645 45.6743 88.1324 45.3627 89.2817 44.7395C90.4301 44.1166 91.3711 43.2919 92.1038 42.2654C92.8374 41.2389 93.3744 40.0843 93.7171 38.8012C94.0592 37.5185 94.2302 36.2171 94.2302 34.8976C94.2302 33.5782 94.0592 32.2765 93.7171 30.9935C93.3744 29.7104 92.8374 28.5558 92.1038 27.5296C91.3711 26.5031 90.4301 25.6784 89.2817 25.0552C88.1324 24.432 86.7645 24.1204 85.176 24.1204C83.5873 24.1204 82.219 24.432 81.0706 25.0552C79.9216 25.6784 78.9812 26.5031 78.2483 27.5296C77.515 28.5558 76.977 29.7104 76.6353 30.9935C76.2926 32.2765 76.1222 33.5782 76.1222 34.8976C76.1222 36.2171 76.2926 37.5185 76.6353 38.8012ZM73.4279 29.7471C73.9532 28.0977 74.7412 26.6377 75.7922 25.3668C76.8427 24.0965 78.1503 23.0821 79.7145 22.3243C81.2781 21.5673 83.0988 21.188 85.176 21.188C87.253 21.188 89.0737 21.5673 90.6376 22.3243C92.2014 23.0821 93.5091 24.0965 94.5601 25.3668C95.6106 26.6377 96.3986 28.0977 96.9244 29.7471C97.4496 31.3971 97.7124 33.1139 97.7124 34.8976C97.7124 36.6817 97.4496 38.3982 96.9244 40.0476C96.3986 41.6973 95.6106 43.1579 94.5601 44.4282C93.5091 45.6991 92.2014 46.707 90.6376 47.4518C89.0737 48.1975 87.253 48.5703 85.176 48.5703C83.0988 48.5703 81.2781 48.1975 79.7145 47.4518C78.1503 46.707 76.8427 45.6991 75.7922 44.4282C74.7412 43.1579 73.9532 41.6973 73.4279 40.0476C72.9021 38.3982 72.6396 36.6817 72.6396 34.8976C72.6396 33.1139 72.9021 31.3971 73.4279 29.7471Z" fill="white"/>
<path d="M114.782 35.7567C114.549 34.9137 114.196 34.1621 113.719 33.5028C113.242 32.8426 112.631 32.3174 111.886 31.9265C111.14 31.5356 110.267 31.34 109.265 31.34C108.215 31.34 107.322 31.5475 106.589 31.9632C105.856 32.3787 105.257 32.9225 104.793 33.5939C104.329 34.2668 103.992 35.03 103.785 35.8851C103.577 36.7409 103.474 37.6079 103.474 38.4876C103.474 39.4165 103.583 40.3146 103.803 41.1822C104.023 42.0498 104.372 42.8132 104.848 43.4731C105.325 44.1327 105.941 44.6644 106.699 45.0677C107.456 45.4705 108.373 45.6723 109.449 45.6723C110.523 45.6723 111.422 45.4648 112.143 45.0491C112.863 44.6336 113.444 44.0841 113.884 43.3997C114.324 42.7156 114.641 41.9335 114.837 41.0538C115.032 40.1743 115.13 39.2703 115.13 38.3409C115.13 37.4614 115.014 36.6001 114.782 35.7567ZM103.583 29.0305V31.5963H103.657C104.17 30.5461 104.976 29.7821 106.076 29.3051C107.176 28.829 108.386 28.5908 109.705 28.5908C111.171 28.5908 112.448 28.8597 113.536 29.3971C114.623 29.9348 115.527 30.6615 116.248 31.5782C116.969 32.4946 117.513 33.5519 117.88 34.7489C118.246 35.9464 118.429 37.2173 118.429 38.5613C118.429 39.9056 118.252 41.1763 117.898 42.3732C117.543 43.5707 117.005 44.6156 116.285 45.5074C115.564 46.3999 114.659 47.1021 113.572 47.6152C112.485 48.1286 111.22 48.3851 109.778 48.3851C109.314 48.3851 108.794 48.336 108.221 48.2384C107.646 48.1401 107.078 47.9815 106.516 47.7614C105.954 47.5418 105.422 47.2429 104.921 46.8639C104.42 46.4848 103.999 46.0149 103.657 45.4527H103.583V55.2031H100.468V29.0305H103.583Z" fill="white"/>
<path d="M134.015 34.602C133.734 33.9424 133.355 33.374 132.878 32.8973C132.402 32.4209 131.84 32.0424 131.193 31.761C130.545 31.4802 129.83 31.3399 129.048 31.3399C128.242 31.3399 127.514 31.4802 126.868 31.761C126.22 32.0424 125.663 32.4274 125.199 32.9159C124.735 33.4048 124.368 33.9729 124.099 34.6204C123.831 35.2681 123.672 35.9582 123.623 36.6917H134.51C134.461 35.9582 134.296 35.2616 134.015 34.602ZM134.767 46.7718C133.349 47.8474 131.565 48.3848 129.415 48.3848C127.899 48.3848 126.586 48.1398 125.474 47.6515C124.362 47.163 123.427 46.4788 122.67 45.5985C121.913 44.7188 121.345 43.6689 120.966 42.4465C120.586 41.2247 120.373 39.8931 120.324 38.4509C120.324 37.0095 120.544 35.6898 120.984 34.4919C121.424 33.295 122.041 32.2558 122.835 31.3763C123.629 30.4966 124.57 29.8128 125.658 29.3233C126.745 28.8348 127.936 28.5904 129.232 28.5904C130.917 28.5904 132.317 28.9384 133.429 29.6352C134.54 30.3315 135.432 31.2174 136.105 32.2928C136.776 33.3684 137.241 34.5414 137.498 35.8114C137.754 37.0826 137.858 38.2923 137.809 39.4407H123.623C123.598 40.2716 123.697 41.0599 123.916 41.805C124.136 42.5504 124.491 43.2105 124.98 43.7843C125.468 44.359 126.092 44.817 126.849 45.1588C127.606 45.5015 128.499 45.6719 129.525 45.6719C130.845 45.6719 131.925 45.3668 132.769 44.7558C133.612 44.145 134.167 43.2162 134.437 41.9695H137.516C137.1 44.0959 136.183 45.6967 134.767 46.7718Z" fill="white"/>
<path d="M142.868 29.0294V32.0355H142.941C144.236 29.7387 146.289 28.5897 149.099 28.5897C150.346 28.5897 151.384 28.761 152.215 29.1031C153.046 29.4452 153.718 29.9219 154.231 30.5323C154.744 31.1437 155.105 31.8701 155.312 32.7135C155.52 33.5565 155.624 34.4913 155.624 35.5175V47.9805H152.508V35.1511C152.508 33.9779 152.166 33.0496 151.482 32.3652C150.798 31.681 149.856 31.339 148.659 31.339C147.707 31.339 146.881 31.4852 146.185 31.7787C145.488 32.0719 144.908 32.4877 144.444 33.0248C143.979 33.5627 143.631 34.1924 143.399 34.9126C143.167 35.6338 143.051 36.4221 143.051 37.2769V47.9805H139.936V29.0294H142.868Z" fill="white"/>
<path d="M163.727 47.9844H159.878V21.8121H163.727V47.9844Z" fill="white"/>
<path d="M177.036 45.0519C177.427 45.0519 177.916 45.0212 178.502 44.9599C179.089 44.8993 179.713 44.7531 180.372 44.5202C181.032 44.2885 181.686 43.9521 182.333 43.5123C182.98 43.0726 183.562 42.4737 184.074 41.7162C184.588 40.959 185.009 40.0118 185.339 38.8755C185.669 37.7389 185.833 36.3647 185.833 34.7514C185.833 33.1879 185.68 31.7891 185.376 30.5546C185.07 29.3207 184.57 28.2699 183.873 27.4023C183.176 26.535 182.279 25.8751 181.179 25.4227C180.079 24.9708 178.722 24.7445 177.109 24.7445H171.245V45.0519H177.036ZM176.742 21.812C180.775 21.812 183.878 22.8382 186.054 24.8912C188.228 26.9439 189.316 30.0723 189.316 34.2753C189.316 36.4745 189.071 38.4236 188.583 40.1215C188.094 41.8206 187.337 43.2499 186.31 44.4104C185.284 45.5716 183.977 46.4575 182.388 47.068C180.799 47.6793 178.918 47.9844 176.742 47.9844H167.762V21.812H176.742Z" fill="white"/>
</g>
</svg>
