<svg width="103" height="56" viewBox="0 0 103 56" fill="none" xmlns="http://www.w3.org/2000/svg">
<g opacity="0.5" clip-path="url(#clip0_1872_3510)">
<path d="M27.6892 1.28125L37.1353 33.3979L46.5817 1.28125H53.422H72.1944V4.47318L62.5525 21.0856C65.9393 22.173 68.5031 24.1497 70.2399 27.0164C71.9768 29.8832 72.8462 33.2483 72.8462 37.1123C72.8462 41.893 71.5744 45.9094 69.0357 49.1674C66.4927 52.424 63.2043 54.0509 59.1642 54.0509C56.1242 54.0509 53.4746 53.084 51.2167 51.1513C48.9574 49.2205 47.2861 46.6032 46.2001 43.3022L51.5419 41.0868C52.3239 43.0866 53.3564 44.6603 54.6378 45.811C55.9197 46.9612 57.4283 47.5358 59.1647 47.5358C60.9879 47.5358 62.5308 46.5159 63.7914 44.4751C65.0511 42.4348 65.6812 39.9805 65.6812 37.1118C65.6812 33.9426 65.0067 31.4873 63.6617 29.75C62.0961 27.7102 59.6418 26.6879 56.2984 26.6879H53.6927V23.5616L62.8135 7.79537H51.8029L51.1771 8.86305L37.7866 54.0504H37.1357L27.3626 21.3461L17.5909 54.0504H16.9396L1.30371 1.28125H8.14398L17.5914 33.3979L23.9753 11.7703L20.8485 1.28125H27.6892Z" fill="white"/>
<path d="M99.3549 0.982422L95.4914 8.68628C95.4914 8.68628 93.8318 5.62413 92.1919 4.2226C90.6311 2.88909 88.6096 1.65545 86.0517 1.9208C83.5791 2.17602 80.7919 4.35093 78.9161 7.97562C76.7851 12.0977 76.0619 16.2748 76.047 20.8808C76.0253 27.3347 78.4062 31.739 78.4062 31.739C78.4062 31.739 77.8596 29.6924 77.9507 26.225C78.0096 24.0622 78.0226 21.7087 79.6553 16.8446C81.0225 12.7804 84.1479 9.4833 86.9047 8.914C89.053 8.47159 90.4256 8.79339 92.5344 10.2789C95.035 12.0418 96.5417 15.225 96.5417 15.225L100.463 7.7204L99.3549 0.982422ZM99.8383 39.1013C99.8383 39.1013 98.1049 42.2001 97.0232 43.3932C95.9449 44.5863 94.0103 46.6908 91.6236 47.7435C89.2364 48.7953 87.9858 48.9936 85.6257 48.7668C83.2679 48.5386 81.0775 47.1742 80.3104 46.6054C79.5409 46.0361 77.5812 44.3596 76.4725 42.7974C75.3638 41.2337 73.6289 38.1069 73.6289 38.1069C73.6289 38.1069 74.5957 41.241 75.1998 42.5706C75.5476 43.3363 76.6177 45.6767 78.1355 47.7141C79.552 49.615 82.2996 52.8879 86.4777 53.6285C90.6553 54.3662 93.5283 52.4894 94.2375 52.0354C94.9477 51.581 96.4452 50.3285 97.3928 49.3129C98.3832 48.2554 99.3182 46.9055 99.8378 46.0935C100.215 45.503 100.834 44.3031 100.834 44.3031L99.8383 39.1013Z" fill="white"/>
</g>
<defs>
<clipPath id="clip0_1872_3510">
<rect width="102.281" height="55" fill="white" transform="translate(0 0.5)"/>
</clipPath>
</defs>
</svg>
