<svg width="127" height="73" viewBox="0 0 127 73" fill="none" xmlns="http://www.w3.org/2000/svg">
<g clip-path="url(#clip0_1872_3482)">
<path d="M86.8937 0.583984V23.8827H83.8457V0.583984H86.8937Z" fill="#1D1719" stroke="#9D9D9C" stroke-width="0.0468929" stroke-miterlimit="10"/>
<path d="M86.8937 23.8203V47.18H83.8457V23.8203H86.8937Z" fill="#E84D3E"/>
<path d="M86.8937 47.1777V70.4741H83.8457V47.1777H86.8937Z" fill="#FFD30D"/>
<path d="M1.07394 20.9658C2.45963 21.8427 4.07978 22.3492 6.27436 22.3492C9.17703 22.3492 11.5756 20.865 11.5756 17.5215C11.5756 12.8956 0.771484 12.3235 0.771484 6.14298C0.771484 2.36341 4.07978 1.15158e-05 8.23214 1.15158e-05C9.8067 -0.00200312 11.3704 0.260335 12.8581 0.776088L12.49 2.90268C11.442 2.32824 9.78899 2.02578 8.20166 2.02578C5.77027 2.02578 3.10206 3.03867 3.10206 6.07733C3.11144 10.8041 13.8968 10.837 13.8968 17.7255C13.8968 22.4852 9.81243 24.3749 6.15948 24.3749C4.33102 24.4042 2.51587 24.0595 0.82541 23.362L1.07394 20.9658Z" fill="#042F4B"/>
<path d="M29.9119 23.428C28.3169 24.0403 26.624 24.3581 24.9155 24.3659C19.2086 24.3659 17.082 20.5183 17.082 15.353C17.082 10.0846 19.9847 6.33789 24.3504 6.33789C29.2132 6.33789 31.2038 10.2534 31.2038 14.8794V15.9603H19.4126C19.4126 19.6062 21.3704 22.5441 25.0843 22.5441C26.6365 22.5441 28.899 21.9016 29.9119 21.2615V23.428ZM28.8662 14.1432C28.8662 11.1397 27.6493 8.16671 24.477 8.16671C21.3047 8.16671 19.4126 11.3085 19.4126 14.1432H28.8662Z" fill="#042F4B"/>
<path d="M46.4581 9.05072C45.3 8.52074 44.0496 8.22206 42.777 8.17147C38.6246 8.17147 36.2964 11.1773 36.2964 15.3648C36.2964 19.2804 38.6598 22.5559 42.5425 22.5559C43.8731 22.5325 45.1885 22.2688 46.4253 21.7774L46.6269 23.7704C45.1756 24.2768 43.825 24.3777 42.2049 24.3777C36.6668 24.3777 33.9658 20.1573 33.9658 15.3648C33.9658 10.0636 37.3749 6.34969 42.4745 6.34969C43.8864 6.34477 45.2894 6.57292 46.6269 7.02494L46.4581 9.05072Z" fill="#042F4B"/>
<path d="M63.6725 19.9195C63.6725 21.2348 63.6725 22.5853 63.8061 23.9687H61.7475V20.8972H61.6796C60.9762 22.4493 59.6866 24.3743 56.1087 24.3743C51.8555 24.3743 50.2471 21.5396 50.2471 17.7577V6.75195H52.3737V17.2184C52.3737 20.4587 53.5202 22.5525 56.458 22.5525C60.3408 22.5525 61.5553 19.1411 61.5553 16.2712V6.75195H63.6842L63.6725 19.9195Z" fill="#042F4B"/>
<path d="M69.0022 10.6028C69.0022 8.71301 69.0022 8.00258 68.8662 6.75523H70.9951V10.0635H71.0608C71.8369 8.13857 73.2906 6.34961 75.4851 6.34961C75.9861 6.35785 76.4843 6.42554 76.9693 6.55125V8.781C76.4642 8.63989 75.9416 8.57121 75.4171 8.57702C72.0409 8.57702 71.1288 12.3589 71.1288 15.4656V23.972H69.0022V10.6028Z" fill="#042F4B"/>
<path d="M120.112 26.5361C119.301 28.8995 118.086 31.2629 115.688 31.2629C114.915 31.2605 114.145 31.17 113.392 30.9932L113.594 29.1691C114.102 29.3574 114.64 29.4488 115.181 29.4387C117.006 29.4387 117.613 27.9194 118.288 25.6873L118.727 24.168L112.609 6.75195H114.954L119.782 21.134L119.749 21.0988H119.817L124.78 6.75195H127.008L120.112 26.5361Z" fill="#042F4B"/>
<path d="M98.1567 3.37926H90.832V0.40625H108.855V3.37926H101.533V23.9723H98.1567V3.37926Z" fill="#042F4B"/>
<path d="M96.4946 47.8812V44.0664C96.4946 43.2552 96.2391 42.6151 95.4677 42.6151C94.8088 42.6151 94.1617 43.2786 94.1617 44.7088V47.8812H93.5615V44.0664C93.5615 43.2552 93.3059 42.6151 92.5322 42.6151C91.8757 42.6151 91.2286 43.2786 91.2286 44.7088V47.8812H90.6283V43.492C90.6283 43.0535 90.6283 42.6034 90.5908 42.1415H91.1699V43.1098L91.191 43.1215C91.381 42.7276 91.66 42.0078 92.7057 42.0078C93.1324 42.0078 93.8382 42.2212 93.9906 43.2223H94.0093C94.104 42.8805 94.3059 42.578 94.5853 42.3594C94.8647 42.1407 95.2068 42.0175 95.5615 42.0078C96.5439 42.0078 97.0949 42.8167 97.0949 43.9328V47.8812H96.4946Z" fill="#042F4B"/>
<path d="M101.355 46.9566H101.336C101.212 47.2655 100.999 47.5307 100.725 47.7189C100.45 47.9071 100.126 48.0097 99.7934 48.014C98.4124 48.014 98.1943 46.9097 98.1943 46.3939C98.1943 44.4689 99.927 44.3798 101.184 44.3798H101.299V44.0961C101.299 43.116 101.003 42.6213 100.194 42.6213C99.6785 42.6134 99.175 42.7785 98.7641 43.0903V42.4056C99.2052 42.1685 99.694 42.0339 100.194 42.0117C101.395 42.0117 101.899 42.6518 101.899 44.15V46.6752C101.89 47.0767 101.905 47.4784 101.946 47.878H101.355V46.9566ZM101.299 44.9871H101.12C100.082 44.9871 98.8438 45.1113 98.8438 46.3704C98.8438 47.1254 99.3127 47.4067 99.8543 47.4067C101.261 47.4067 101.292 45.9531 101.292 45.3364L101.299 44.9871Z" fill="#042F4B"/>
<path d="M107.17 47.8821H106.57V46.9724H106.551C106.225 47.7039 105.731 48.0181 105.037 48.0181C103.702 48.0181 103.034 46.7122 103.034 45.0123C103.034 43.2679 103.606 42.0088 105.037 42.0088C105.37 42.0193 105.693 42.13 105.964 42.3265C106.234 42.5231 106.438 42.7963 106.551 43.1108H106.57V39.4414H107.17V47.8821ZM105.13 47.4132C106.197 47.4132 106.57 46.0627 106.57 45.0146C106.57 43.9666 106.197 42.6184 105.13 42.6184C103.988 42.6184 103.693 43.9009 103.693 45.0146C103.693 46.1283 103.988 47.4109 105.13 47.4109V47.4132Z" fill="#042F4B"/>
<path d="M111.881 47.703C111.439 47.9049 110.96 48.012 110.474 48.0171C108.866 48.0171 108.266 46.7346 108.266 45.0113C108.266 43.288 109.084 42.0078 110.313 42.0078C111.684 42.0078 112.247 43.3114 112.247 44.8542V45.2153H108.917C108.917 46.4298 109.471 47.4099 110.519 47.4099C111.003 47.3895 111.473 47.2415 111.881 46.9808V47.703ZM111.586 44.608C111.586 43.6045 111.243 42.6151 110.348 42.6151C109.452 42.6151 108.917 43.6608 108.917 44.608H111.586Z" fill="#042F4B"/>
<path d="M91.2301 51.8617H90.6299V50.9238H91.2301V51.8617ZM90.6299 53.3927H91.2301V59.1324H90.6299V53.3927Z" fill="#042F4B"/>
<path d="M92.743 54.7467C92.743 54.3082 92.743 53.858 92.7031 53.3961H93.2846V54.4161H93.3034C93.505 53.8979 93.8661 53.2578 94.8766 53.2578C96.0771 53.2578 96.5343 54.1957 96.5343 55.4618V59.1311H95.9341V55.647C95.9341 54.5661 95.6105 53.8698 94.7805 53.8698C93.6855 53.8698 93.3432 55.0069 93.3432 55.9635V59.1358H92.743V54.7467Z" fill="#042F4B"/>
<path d="M95.2561 66.8126H93.7133V66.1397H95.915V70.0435C95.2767 70.3747 94.5659 70.5415 93.847 70.5289C91.7509 70.5289 90.4941 68.8876 90.4941 66.4656C90.4941 64.0811 91.7884 62.4023 93.847 62.4023C94.3511 62.4023 95.1811 62.5032 95.6289 62.7751L95.5515 63.4949C95.0366 63.1917 94.4438 63.0466 93.847 63.0776C92.1237 63.0776 91.1506 64.5196 91.1506 66.4656C91.1506 68.4117 92.0885 69.8536 93.847 69.8536C94.2573 69.8536 94.9419 69.7974 95.2538 69.5723L95.2561 66.8126Z" fill="#042F4B"/>
<path d="M100.759 70.2108C100.317 70.4133 99.838 70.5203 99.3522 70.525C97.7438 70.525 97.1436 69.2424 97.1436 67.5191C97.1436 65.7958 97.9618 64.5156 99.1904 64.5156C100.562 64.5156 101.125 65.8193 101.125 67.362V67.7231H97.7977C97.7977 68.9376 98.351 69.9177 99.3991 69.9177C99.8824 69.8974 100.352 69.7493 100.759 69.4886V70.2108ZM100.466 67.1158C100.466 66.1123 100.121 65.1229 99.2256 65.1229C98.3299 65.1229 97.7977 66.1686 97.7977 67.1158H100.466Z" fill="#042F4B"/>
<path d="M102.267 65.9318C102.277 65.5039 102.264 65.0758 102.229 64.6493H102.83V65.7536H102.848C103.069 65.1112 103.477 64.5156 104.096 64.5156C104.238 64.5183 104.379 64.5403 104.516 64.5813V65.3245C104.374 65.2789 104.226 65.2568 104.077 65.2589C103.125 65.2589 102.867 66.518 102.867 67.5543V70.389H102.267V65.9318Z" fill="#042F4B"/>
<path d="M111.304 70.389V66.5742C111.304 65.763 111.046 65.1229 110.274 65.1229C109.618 65.1229 108.971 65.7864 108.971 67.2167V70.389H108.37V66.5742C108.37 65.763 108.113 65.1229 107.341 65.1229C106.682 65.1229 106.035 65.7864 106.035 67.2167V70.389H105.435V65.9998C105.435 65.5613 105.435 65.1112 105.397 64.6493H105.979V65.6176L105.998 65.6293C106.188 65.2354 106.467 64.5156 107.512 64.5156C107.941 64.5156 108.645 64.729 108.797 65.7302H108.816C108.911 65.3881 109.113 65.0855 109.393 64.8669C109.673 64.6483 110.016 64.5252 110.37 64.5156C111.351 64.5156 111.904 65.3245 111.904 66.4406V70.389H111.304Z" fill="#042F4B"/>
<path d="M116.168 69.4683H116.149C116.024 69.7772 115.811 70.0423 115.536 70.2305C115.261 70.4186 114.937 70.5213 114.604 70.5257C113.223 70.5257 113.005 69.4214 113.005 68.9056C113.005 66.9806 114.738 66.8915 115.997 66.8915H116.109V66.6078C116.109 65.6278 115.816 65.133 115.005 65.133C114.49 65.1254 113.987 65.2905 113.577 65.602V64.9173C114.017 64.68 114.505 64.5453 115.005 64.5234C116.205 64.5234 116.709 65.1635 116.709 66.6618V69.1869C116.7 69.5885 116.716 69.9903 116.759 70.3897H116.168V69.4683ZM116.109 67.4988H115.938C114.899 67.4988 113.661 67.6231 113.661 68.8821C113.661 69.6371 114.119 69.9185 114.672 69.9185C116.079 69.9185 116.109 68.4648 116.109 67.8481V67.4988Z" fill="#042F4B"/>
<path d="M118.138 66.0006C118.138 65.5621 118.138 65.1119 118.101 64.6501H118.68V65.67H118.706C118.907 65.1518 119.268 64.5117 120.279 64.5117C121.479 64.5117 121.936 65.4496 121.936 66.7157V70.385H121.336V66.9009C121.336 65.82 121.013 65.1237 120.183 65.1237C119.088 65.1237 118.745 66.2608 118.745 67.2174V70.3897H118.145L118.138 66.0006Z" fill="#042F4B"/>
<path d="M124.882 71.2439C124.648 72.0317 124.31 72.8195 123.635 72.8195C123.416 72.819 123.199 72.789 122.988 72.7304L123.044 72.1208C123.185 72.1842 123.338 72.2155 123.492 72.2123C124.006 72.2123 124.177 71.7058 124.369 70.9626L124.493 70.4561L122.768 64.6484H123.426L124.789 69.4432L124.777 69.4315H124.803L126.21 64.6484H126.838L124.882 71.2439Z" fill="#042F4B"/>
</g>
<defs>
<clipPath id="clip0_1872_3482">
<rect width="127" height="72.82" fill="white"/>
</clipPath>
</defs>
</svg>
