<svg xmlns="http://www.w3.org/2000/svg" xmlns:xlink="http://www.w3.org/1999/xlink" width="72.863" height="72.9" viewBox="0 0 72.863 72.9">
  <defs>
    <linearGradient id="linear-gradient" x1="0.69" y1="0.787" x2="0.326" y2="0.328" gradientUnits="objectBoundingBox">
      <stop offset="0" stop-color="#a93bfe"/>
      <stop offset="1" stop-color="#c961ff"/>
    </linearGradient>
    <filter id="appearance" x="0" y="0" width="72.863" height="72.9" filterUnits="userSpaceOnUse">
      <feOffset dy="4" input="SourceAlpha"/>
      <feGaussianBlur stdDeviation="4" result="blur"/>
      <feFlood flood-color="#a93bfe" flood-opacity="0.302"/>
      <feComposite operator="in" in2="blur"/>
      <feComposite in="SourceGraphic"/>
    </filter>
  </defs>
  <g id="search_for" data-name="search for" transform="translate(5.774 1.952)">
    <rect id="range" width="60" height="60" opacity="0"/>
    <g transform="matrix(1, 0, 0, 1, -5.77, -1.95)" filter="url(#appearance)">
      <path id="appearance-2" data-name="appearance" d="M39.179,6.7a22.991,22.991,0,1,0-5.771,36.645,2.426,2.426,0,0,1,2.836.434L40.6,48.134a2.628,2.628,0,0,0,3.715-.006l3.773-3.773A2.628,2.628,0,0,0,48.1,40.64L43.737,36.28a2.427,2.427,0,0,1-.434-2.836A22.921,22.921,0,0,0,39.179,6.7Z" transform="translate(12 8)" fill="url(#linear-gradient)"/>
    </g>
    <path id="section" d="M7.5,0A7.5,7.5,0,1,1,0,7.5,7.5,7.5,0,0,1,7.5,0Z" transform="translate(21.516 21.58)" fill="#fff"/>
    <path id="highlight" d="M.576,11.1A1.046,1.046,0,0,1,.119,9.687l.3-.586a1.053,1.053,0,0,1,1.875.96l-.3.586a1.056,1.056,0,0,1-.937.574A1,1,0,0,1,.576,11.1ZM2.539,7.419a1.059,1.059,0,0,1-.264-1.471A26.893,26.893,0,0,1,7.665.206a1.056,1.056,0,1,1,1.255,1.7A24.887,24.887,0,0,0,4,7.155a1.038,1.038,0,0,1-.861.452A1.09,1.09,0,0,1,2.539,7.419Z" transform="translate(9.965 12.087)" fill="#fff"/>
  </g>
</svg>
