<svg xmlns="http://www.w3.org/2000/svg" xmlns:xlink="http://www.w3.org/1999/xlink" width="70.881" height="65.277" viewBox="0 0 70.881 65.277">
  <defs>
    <linearGradient id="linear-gradient" x1="0.808" y1="1" x2="0.294" y2="0.147" gradientUnits="objectBoundingBox">
      <stop offset="0" stop-color="#2692ff"/>
      <stop offset="1" stop-color="#00beff"/>
    </linearGradient>
    <filter id="appearance" x="0" y="1.533" width="70.881" height="63.744" filterUnits="userSpaceOnUse">
      <feOffset dy="4" input="SourceAlpha"/>
      <feGaussianBlur stdDeviation="4" result="blur"/>
      <feFlood flood-color="#2594ff" flood-opacity="0.302"/>
      <feComposite operator="in" in2="blur"/>
      <feComposite in="SourceGraphic"/>
    </filter>
  </defs>
  <g id="Orders" transform="translate(5.262)">
    <rect id="range" width="60" height="60" opacity="0"/>
    <g transform="matrix(1, 0, 0, 1, -5.26, 0)" filter="url(#appearance)">
      <path id="appearance-2" data-name="appearance" d="M4.078,0H32.613A14.266,14.266,0,0,1,46.881,14.268v21.4A4.077,4.077,0,0,1,42.8,39.744H14.268A14.275,14.275,0,0,1,0,25.471V4.072A4.076,4.076,0,0,1,4.078,0Z" transform="translate(12 9.53)" fill="url(#linear-gradient)"/>
    </g>
    <path id="section" d="M2.039,20.579C.914,20.579,0,20.414,0,19.289S.914,18,2.039,18H14.268c1.125,0,2.033.158,2.038,1.289s-.913,1.29-2.038,1.29Zm0-7.5C.914,13.078,0,12.914,0,11.789S.914,10.5,2.039,10.5H14.268c1.125,0,2.033.164,2.038,1.289s-.913,1.289-2.038,1.289Zm0-6.421A2.041,2.041,0,0,1,0,4.617V2.039A2.041,2.041,0,0,1,2.039,0H22.418a2.04,2.04,0,0,1,2.038,2.039V4.617a2.04,2.04,0,0,1-2.038,2.039Z" transform="translate(15.938 17.9)" fill="#fff"/>
    <path id="highlight" d="M0,7.588V6.972a1.055,1.055,0,0,1,2.11,0v.616a1.055,1.055,0,0,1-2.11,0ZM0,3.51V2.795A2.8,2.8,0,0,1,2.795,0H8.25a1.055,1.055,0,0,1,0,2.11H2.795a.686.686,0,0,0-.685.685V3.51A1.055,1.055,0,1,1,0,3.51Z" transform="translate(9.211 11.918)" fill="#fff"/>
  </g>
</svg>
