<svg xmlns="http://www.w3.org/2000/svg" xmlns:xlink="http://www.w3.org/1999/xlink" width="74.918" height="74.956" viewBox="0 0 74.918 74.956">
  <defs>
    <linearGradient id="linear-gradient" x1="0.703" y1="0.875" x2="0.615" y2="0.212" gradientUnits="objectBoundingBox">
      <stop offset="0" stop-color="#a93bfe"/>
      <stop offset="1" stop-color="#c961ff"/>
    </linearGradient>
    <filter id="appearance" x="0" y="0" width="74.918" height="74.956" filterUnits="userSpaceOnUse">
      <feOffset dy="4" input="SourceAlpha"/>
      <feGaussianBlur stdDeviation="4" result="blur"/>
      <feFlood flood-color="#a93bfe" flood-opacity="0.302"/>
      <feComposite operator="in" in2="blur"/>
      <feComposite in="SourceGraphic"/>
    </filter>
  </defs>
  <g id="label" transform="translate(8.315 2.51)">
    <rect id="range" width="60" height="60" opacity="0"/>
    <g transform="matrix(1, 0, 0, 1, -8.31, -2.51)" filter="url(#appearance)">
      <path id="appearance-2" data-name="appearance" d="M30.258,49.436,48.334,31.348a8.363,8.363,0,0,0,2.455-5.859L50.918,5.08A5.033,5.033,0,0,0,45.844,0l-20.4.135A8.349,8.349,0,0,0,19.594,2.59L1.518,20.678a5.121,5.121,0,0,0-.047,7.23L23.033,49.483A5.109,5.109,0,0,0,30.258,49.436Z" transform="translate(12 8)" fill="url(#linear-gradient)"/>
    </g>
    <path id="section" d="M6.75,0A6.75,6.75,0,1,1,0,6.75,6.749,6.749,0,0,1,6.75,0Z" transform="translate(31.875 13.875)" fill="#fff"/>
    <path id="highlight" d="M.308,9.829a1.06,1.06,0,0,1,0-1.494L.747,7.9A1.056,1.056,0,1,1,2.241,9.39L1.8,9.829a1.075,1.075,0,0,1-.75.311A1.051,1.051,0,0,1,.308,9.829ZM3.191,6.946a1.06,1.06,0,0,1,0-1.494L8.335.308A1.056,1.056,0,0,1,9.829,1.8L4.679,6.946a1.047,1.047,0,0,1-1.489,0Z" transform="translate(8.423 18.249)" fill="#fff"/>
  </g>
</svg>
