<svg xmlns="http://www.w3.org/2000/svg" xmlns:xlink="http://www.w3.org/1999/xlink" width="78.489" height="68.972" viewBox="0 0 78.489 68.972">
  <defs>
    <linearGradient id="linear-gradient" x1="0.578" y1="0.797" x2="0.284" y2="0.248" gradientUnits="objectBoundingBox">
      <stop offset="0" stop-color="#ffa900"/>
      <stop offset="1" stop-color="#ffd325"/>
    </linearGradient>
    <filter id="appearance" x="0" y="0.631" width="78.489" height="68.341" filterUnits="userSpaceOnUse">
      <feOffset dy="4" input="SourceAlpha"/>
      <feGaussianBlur stdDeviation="4" result="blur"/>
      <feFlood flood-color="#ffa900" flood-opacity="0.302"/>
      <feComposite operator="in" in2="blur"/>
      <feComposite in="SourceGraphic"/>
    </filter>
  </defs>
  <g id="member" transform="translate(9.186)">
    <rect id="range" width="60" height="60" opacity="0"/>
    <g transform="matrix(1, 0, 0, 1, -9.19, 0)" filter="url(#appearance)">
      <path id="appearance-2" data-name="appearance" d="M36.086,0H18.4a7.531,7.531,0,0,0-5.379,2.279L.848,14.748a3.025,3.025,0,0,0,0,4.2l23.678,24.24a3.786,3.786,0,0,0,5.438,0l23.678-24.24a3.025,3.025,0,0,0,0-4.2L41.459,2.279A7.508,7.508,0,0,0,36.086,0Z" transform="translate(12 8.63)" fill="url(#linear-gradient)"/>
    </g>
    <path id="section" d="M11.528,0H5.881A2.412,2.412,0,0,0,4.163.724L.272,4.682a.952.952,0,0,0,0,1.332l7.564,7.7a1.216,1.216,0,0,0,1.737,0l7.564-7.7a.952.952,0,0,0,0-1.332L13.246.724A2.412,2.412,0,0,0,11.528,0Z" transform="translate(21.354 21.092)" fill="#fff"/>
    <path id="highlight" d="M.312,9.9A1.057,1.057,0,0,1,.307,8.4l.434-.439a1.056,1.056,0,0,1,1.5,1.489l-.433.439A1.063,1.063,0,0,1,.312,9.9Zm2.907-2.93a1.055,1.055,0,0,1-.006-1.494L8.334.312A1.057,1.057,0,0,1,9.834,1.8L4.713,6.963a1.066,1.066,0,0,1-.751.311A1.045,1.045,0,0,1,3.219,6.969Z" transform="translate(9.045 13.047)" fill="#fff"/>
  </g>
</svg>
