<svg xmlns="http://www.w3.org/2000/svg" xmlns:xlink="http://www.w3.org/1999/xlink" width="70.875" height="75.346" viewBox="0 0 70.875 75.346">
  <defs>
    <linearGradient id="linear-gradient" x1="0.711" y1="0.794" x2="0.329" y2="0.316" gradientUnits="objectBoundingBox">
      <stop offset="0" stop-color="#00c8d5"/>
      <stop offset="1" stop-color="#12ebde"/>
    </linearGradient>
    <filter id="appearance" x="0" y="0" width="70.875" height="75.346" filterUnits="userSpaceOnUse">
      <feOffset dy="4" input="SourceAlpha"/>
      <feGaussianBlur stdDeviation="4" result="blur"/>
      <feFlood flood-color="#02cdd6" flood-opacity="0.302"/>
      <feComposite operator="in" in2="blur"/>
      <feComposite in="SourceGraphic"/>
    </filter>
  </defs>
  <g id="Settings" transform="translate(5.25 3.5)">
    <rect id="range" width="60" height="60" opacity="0"/>
    <g transform="matrix(1, 0, 0, 1, -5.25, -3.5)" filter="url(#appearance)">
      <path id="appearance-2" data-name="appearance" d="M19.793,50.379,3.656,41.156A7.235,7.235,0,0,1,0,34.881V16.465a7.235,7.235,0,0,1,3.656-6.275L19.793.967a7.342,7.342,0,0,1,7.283,0l16.137,9.223a7.229,7.229,0,0,1,3.662,6.275v18.41a7.235,7.235,0,0,1-3.656,6.275L27.082,50.379A7.353,7.353,0,0,1,19.793,50.379Z" transform="translate(12 8)" fill="url(#linear-gradient)"/>
    </g>
    <path id="section" d="M6.335,14.718,1.169,12.023A2.084,2.084,0,0,1,0,10.191V4.809A2.087,2.087,0,0,1,1.169,2.977L6.335.283a2.54,2.54,0,0,1,2.33,0l5.166,2.694A2.084,2.084,0,0,1,15,4.809v5.378a2.087,2.087,0,0,1-1.169,1.832L8.665,14.714A2.53,2.53,0,0,1,6.335,14.718Z" transform="translate(22.5 22.5)" fill="#fff"/>
    <path id="highlight" d="M0,11.929v-.616a1.055,1.055,0,0,1,2.11,0v.616a1.055,1.055,0,0,1-2.11,0ZM0,7.851V5.594A4.883,4.883,0,0,1,2.326,1.417L4.353.157A1.056,1.056,0,1,1,5.467,1.95L3.44,3.209A2.789,2.789,0,0,0,2.11,5.594V7.851a1.055,1.055,0,0,1-2.11,0Z" transform="translate(9.035 15.558)" fill="#fff"/>
  </g>
</svg>
