<svg xmlns="http://www.w3.org/2000/svg" xmlns:xlink="http://www.w3.org/1999/xlink" width="74.917" height="72.892" viewBox="0 0 74.917 72.892">
  <defs>
    <linearGradient id="linear-gradient" x1="0.396" y1="0.182" x2="0.784" y2="0.827" gradientUnits="objectBoundingBox">
      <stop offset="0" stop-color="#ff9313"/>
      <stop offset="1" stop-color="#f60"/>
    </linearGradient>
    <filter id="appearance" x="0" y="0" width="74.917" height="72.892" filterUnits="userSpaceOnUse">
      <feOffset dy="4" input="SourceAlpha"/>
      <feGaussianBlur stdDeviation="4" result="blur"/>
      <feFlood flood-color="#f60" flood-opacity="0.302"/>
      <feComposite operator="in" in2="blur"/>
      <feComposite in="SourceGraphic"/>
    </filter>
  </defs>
  <g id="Collection" transform="translate(7.28 3.378)">
    <rect id="range" width="60" height="60" opacity="0"/>
    <g transform="matrix(1, 0, 0, 1, -7.28, -3.38)" filter="url(#appearance)">
      <path id="appearance-2" data-name="appearance" d="M20.335,4.179A22.857,22.857,0,0,1,5.7,14.832q-9.51,2.3-3.164,9.762A22.907,22.907,0,0,1,8.13,41.826q-.756,9.773,8.285,6.029a22.782,22.782,0,0,1,18.088,0q9.044,3.744,8.285-6.029a22.907,22.907,0,0,1,5.59-17.232q6.346-7.462-3.164-9.762A22.869,22.869,0,0,1,30.577,4.179Q25.462-4.179,20.335,4.179Z" transform="translate(12 8)" fill="url(#linear-gradient)"/>
    </g>
    <path id="section" d="M5.989,1.281A6.77,6.77,0,0,1,1.68,4.549q-2.8.7-.931,2.995A7.205,7.205,0,0,1,2.4,12.832q-.221,3,2.44,1.85a6.471,6.471,0,0,1,5.33,0q2.663,1.148,2.44-1.85a7.221,7.221,0,0,1,1.646-5.288q1.871-2.291-.931-2.995A6.74,6.74,0,0,1,9.012,1.281q-1.52-2.561-3.022,0Z" transform="translate(22.5 23.25)" fill="#fff"/>
    <path id="highlight" d="M.068,7.554A1.049,1.049,0,0,1,.688,6.2L1.3,5.971a1.053,1.053,0,0,1,.733,1.975l-.616.229a1.111,1.111,0,0,1-.363.064A1.06,1.06,0,0,1,.068,7.554Zm3.9-1.524A1.055,1.055,0,0,1,4.4,4.6,24.76,24.76,0,0,0,10.186.335,1.053,1.053,0,1,1,11.727,1.77,26.481,26.481,0,0,1,5.394,6.452a.968.968,0,0,1-.5.134A1.056,1.056,0,0,1,3.964,6.03Z" transform="translate(13.632 15.017)" fill="#fff"/>
  </g>
</svg>
