<svg width="18" height="19" viewBox="0 0 18 19" fill="none" xmlns="http://www.w3.org/2000/svg">
<path d="M14.5266 2.41241C14.4513 2.41241 14.3761 2.39359 14.3102 2.35595C12.5033 1.42426 10.941 1.02899 9.06824 1.02899C7.20486 1.02899 5.43559 1.47131 3.8263 2.35595C3.60044 2.47829 3.31811 2.39359 3.18635 2.16773C3.06401 1.94186 3.14871 1.65012 3.37457 1.52778C5.12502 0.577264 7.04487 0.0878906 9.06824 0.0878906C11.0728 0.0878906 12.8232 0.530209 14.7431 1.51837C14.9784 1.64071 15.0631 1.92304 14.9407 2.1489C14.856 2.3183 14.696 2.41241 14.5266 2.41241V2.41241ZM1.05946 7.3532C0.965351 7.3532 0.871241 7.32497 0.786542 7.2685C0.570088 7.11793 0.523033 6.82618 0.673609 6.60973C1.6053 5.29219 2.79109 4.25697 4.20274 3.53232C7.15781 2.00774 10.941 1.99833 13.9055 3.52291C15.3172 4.24756 16.503 5.27336 17.4346 6.5815C17.5852 6.78854 17.5382 7.08969 17.3217 7.24027C17.1053 7.39085 16.8135 7.34379 16.6629 7.12734C15.8159 5.94155 14.7431 5.00986 13.4726 4.3605C10.7716 2.97707 7.31779 2.97707 4.62624 4.36991C3.34634 5.02868 2.27348 5.96978 1.42649 7.15557C1.3512 7.28732 1.21004 7.3532 1.05946 7.3532V7.3532ZM6.94135 18.7123C6.81901 18.7123 6.69666 18.6652 6.61197 18.5711C5.79321 17.7524 5.35089 17.2254 4.72035 16.0866C4.07099 14.9291 3.73219 13.5174 3.73219 12.0022C3.73219 9.20717 6.12259 6.9297 9.05883 6.9297C11.9951 6.9297 14.3855 9.20717 14.3855 12.0022C14.3855 12.2658 14.1784 12.4728 13.9149 12.4728C13.6514 12.4728 13.4444 12.2658 13.4444 12.0022C13.4444 9.72478 11.4775 7.87081 9.05883 7.87081C6.6402 7.87081 4.67329 9.72478 4.67329 12.0022C4.67329 13.3574 4.97445 14.6091 5.54852 15.6255C6.15083 16.7078 6.56491 17.1689 7.28956 17.903C7.46837 18.0912 7.46837 18.3829 7.28956 18.5711C7.18604 18.6652 7.06369 18.7123 6.94135 18.7123ZM13.6891 16.9713C12.5691 16.9713 11.581 16.6889 10.7716 16.1337C9.36939 15.1832 8.53181 13.6398 8.53181 12.0022C8.53181 11.7387 8.73886 11.5317 9.00236 11.5317C9.26587 11.5317 9.47292 11.7387 9.47292 12.0022C9.47292 13.3292 10.1505 14.5809 11.2987 15.3526C11.9668 15.8043 12.748 16.0208 13.6891 16.0208C13.9149 16.0208 14.2914 15.9925 14.6678 15.9266C14.9219 15.8796 15.1666 16.049 15.2136 16.3125C15.2607 16.5666 15.0913 16.8113 14.8278 16.8583C14.2914 16.9619 13.8208 16.9713 13.6891 16.9713V16.9713ZM11.7974 18.9099C11.7598 18.9099 11.7127 18.9005 11.6751 18.8911C10.1787 18.477 9.2 17.9218 8.1742 16.9148C6.85665 15.6067 6.132 13.8656 6.132 12.0022C6.132 10.4777 7.43072 9.23541 9.0306 9.23541C10.6305 9.23541 11.9292 10.4777 11.9292 12.0022C11.9292 13.0092 12.8044 13.828 13.8867 13.828C14.969 13.828 15.8442 13.0092 15.8442 12.0022C15.8442 8.45429 12.7856 5.57452 9.02119 5.57452C6.34846 5.57452 3.90159 7.06146 2.8005 9.36716C2.43347 10.1295 2.24525 11.0235 2.24525 12.0022C2.24525 12.7363 2.31113 13.8939 2.87579 15.3996C2.9699 15.6443 2.84756 15.9172 2.60287 16.0019C2.35818 16.096 2.08526 15.9643 2.00056 15.729C1.53942 14.4962 1.31356 13.2727 1.31356 12.0022C1.31356 10.8729 1.53001 9.84712 1.95351 8.95307C3.20517 6.3274 5.98143 4.624 9.02119 4.624C13.3032 4.624 16.7853 7.92727 16.7853 11.9928C16.7853 13.5174 15.4866 14.7597 13.8867 14.7597C12.2868 14.7597 10.9881 13.5174 10.9881 11.9928C10.9881 10.9859 10.1129 10.1671 9.0306 10.1671C7.94833 10.1671 7.07311 10.9859 7.07311 11.9928C7.07311 13.6021 7.69423 15.1079 8.83297 16.2372C9.72701 17.1218 10.5834 17.6112 11.9104 17.9782C12.1645 18.0441 12.3056 18.3076 12.2398 18.5523C12.1927 18.7688 11.9951 18.9099 11.7974 18.9099V18.9099Z" fill="#7099FF"/>
</svg>
