<svg width="17" height="27" viewBox="0 0 17 27" fill="none" xmlns="http://www.w3.org/2000/svg">
<path fill-rule="evenodd" clip-rule="evenodd" d="M3.52567 0.552734H13.1078C14.7607 0.552734 16.1022 1.89423 16.1022 3.54715V23.9092C16.1022 25.5621 14.7607 26.9036 13.1078 26.9036H3.52567C1.87275 26.9036 0.53125 25.5621 0.53125 23.9092V3.54715C0.53125 1.89423 1.87275 0.552734 3.52567 0.552734ZM2.41345 21.8559H14.1772V3.20493H2.41345V21.8559ZM8.53062 25.9625C9.31025 25.9625 9.94227 25.3305 9.94227 24.5508C9.94227 23.7712 9.31025 23.1392 8.53062 23.1392C7.75099 23.1392 7.11897 23.7712 7.11897 24.5508C7.11897 25.3305 7.75099 25.9625 8.53062 25.9625Z" fill="#7099FF"/>
</svg>
