<svg width="16" height="29" viewBox="0 0 16 29" fill="none" xmlns="http://www.w3.org/2000/svg">
<mask id="path-1-inside-1_2035_2484" fill="white">
<rect x="5.13672" y="0.498047" width="5.54907" height="4.28792" rx="0.376441"/>
</mask>
<rect x="5.13672" y="0.498047" width="5.54907" height="4.28792" rx="0.376441" stroke="#7099FF" stroke-width="1.8822" mask="url(#path-1-inside-1_2035_2484)"/>
<path fill-rule="evenodd" clip-rule="evenodd" d="M2.36439 5.98273H3.94273C4.15063 5.98273 4.31917 5.81419 4.31917 5.60629V4.52097C4.31917 4.31307 4.48771 4.14453 4.69561 4.14453L11.1313 4.14453C11.3392 4.14453 11.5077 4.31307 11.5077 4.52097V5.60629C11.5077 5.81419 11.6763 5.98273 11.8842 5.98273H13.2734H14.3501C14.8699 5.98273 15.2912 6.40407 15.2912 6.92383L15.2912 27.9319C15.2912 28.4516 14.87 28.8728 14.3504 28.873L1.41406 28.8771C0.894184 28.8773 0.472656 28.4559 0.472656 27.936L0.472656 6.92383C0.472656 6.40407 0.894002 5.98273 1.41376 5.98273H2.36439ZM8.00147 23.0842C10.0805 23.0842 11.7659 21.3988 11.7659 19.3198C11.7659 17.2408 10.0805 15.5554 8.00147 15.5554C5.92245 15.5554 4.23707 17.2408 4.23707 19.3198C4.23707 21.3988 5.92245 23.0842 8.00147 23.0842Z" fill="#7099FF"/>
</svg>
