<svg width="19" height="15" viewBox="0 0 19 15" fill="none" xmlns="http://www.w3.org/2000/svg">
<path d="M1.52734 13.4316H0.586241L2.25603 14.0272L1.52734 13.4316ZM4.69885 9.55116L3.97016 8.95561L4.69885 9.55116ZM0.586241 1.76193V13.4316H2.46845V1.76193H0.586241ZM2.25603 14.0272L5.42754 10.1467L3.97016 8.95561L0.798659 12.836L2.25603 14.0272ZM4.77172 10.4577H16.9614V8.57551H4.77172V10.4577ZM18.4672 8.95195V1.76193H16.585V8.95195H18.4672ZM16.9614 0.256163H2.092V2.13837H16.9614V0.256163ZM18.4672 1.76193C18.4672 0.930316 17.793 0.256163 16.9614 0.256163V2.13837C16.7535 2.13837 16.585 1.96983 16.585 1.76193H18.4672ZM16.9614 10.4577C17.793 10.4577 18.4672 9.78356 18.4672 8.95195H16.585C16.585 8.74405 16.7535 8.57551 16.9614 8.57551V10.4577ZM5.42754 10.1467C5.26667 10.3435 5.02592 10.4577 4.77172 10.4577V8.57551C4.46103 8.57551 4.16677 8.71505 3.97016 8.95561L5.42754 10.1467ZM2.46845 1.76193C2.46845 1.96983 2.29991 2.13837 2.092 2.13837V0.256163C1.26039 0.256163 0.586241 0.930319 0.586241 1.76193H2.46845Z" fill="#7099FF"/>
</svg>
