<svg width="392" height="527" viewBox="0 0 392 527" fill="none" xmlns="http://www.w3.org/2000/svg">
<g filter="url(#filter0_d_2113_2882)">
<path d="M293.74 270.12C296.371 270.174 299.069 270.046 301.921 269.725C304.686 269.414 307.432 268.93 309.976 268.207L325.602 284.213C326.986 285.632 329.368 285.802 330.989 284.657L357.813 264.839C359.597 263.589 359.959 261.36 359.14 259.527L348.522 239.808C351.32 235.118 353.57 230.227 355.07 224.895L376.669 219.316C378.704 218.737 379.979 216.844 379.746 214.77L376.014 181.587C375.781 179.513 374.127 178.037 372.014 177.924L349.715 177.282C347.068 172.417 343.692 168.071 340.018 164.197L345.991 142.611C346.469 140.632 345.534 138.55 343.517 137.726L312.972 124.448C311.04 123.615 308.832 124.214 307.817 126.078L296.137 145.155C293.496 145.015 290.605 144.99 287.926 145.291C285.248 145.592 282.415 146.086 279.872 146.809L264.246 130.803C262.861 129.384 260.479 129.214 258.858 130.359L232.035 150.177C230.25 151.428 229.888 153.656 230.707 155.489L241.325 175.209C238.528 179.899 236.278 184.789 234.777 190.121L213.178 195.7C211.153 196.366 209.868 198.173 210.102 200.247L213.833 233.429C214.067 235.503 215.73 237.066 217.833 237.092L240.132 237.734C242.779 242.599 246.069 246.955 249.829 250.82L243.856 272.405C243.379 274.384 244.313 276.467 246.331 277.29L276.885 290.654C278.903 291.478 281.015 290.803 282.04 289.025L293.74 270.12Z" fill="white"/>
</g>
<g filter="url(#filter1_i_2113_2882)">
<circle cx="294.807" cy="207.281" r="39.7882" transform="rotate(65.8895 294.807 207.281)" fill="white"/>
</g>
<g filter="url(#filter2_d_2113_2882)">
<path d="M241.658 409.761C243.448 406.214 245.033 402.457 246.457 398.366C247.837 394.398 248.97 390.345 249.644 386.41L281.628 375.578C284.464 374.618 286.249 371.486 285.748 368.532L276.265 319.088C275.726 315.842 272.929 313.896 269.899 313.815L236.126 315.407C231.566 308.539 226.376 302.285 220.096 296.764L226.59 263.72C227.129 260.571 225.383 257.601 222.407 256.566L174.798 240C171.823 238.965 168.734 240.253 167.202 243.056L151.782 272.995C143.431 273.425 135.313 275.187 127.642 277.66L102.151 255.448C99.7686 253.507 96.3239 253.42 93.8871 255.63L55.8844 288.553C53.4907 290.639 52.865 294.035 54.7407 296.634L73.0932 324.98C71.1791 328.484 69.2596 332.403 67.9223 336.246C66.585 340.09 65.4094 344.267 64.7352 348.202L32.7508 359.034C29.9152 359.994 28.1305 363.126 28.6316 366.08L38.1141 415.524C38.6528 418.77 41.4504 420.716 44.48 420.797L78.2531 419.205C82.8129 426.073 88.0036 432.327 94.2832 437.848L87.7893 470.892C87.3739 474.084 88.9962 477.011 91.9718 478.046L139.581 494.612C142.557 495.647 145.77 494.402 147.177 491.556L162.597 461.617C170.948 461.187 179.023 459.549 186.738 456.952L212.228 479.164C214.611 481.105 218.055 481.192 220.492 478.982L258.619 446.102C261.056 443.892 261.514 440.577 259.762 438.022L241.658 409.761Z" fill="white"/>
</g>
<g filter="url(#filter3_i_2113_2882)">
<circle cx="155.783" cy="367.121" r="68.0444" fill="white"/>
</g>
<g filter="url(#filter4_d_2113_2882)">
<path d="M142.221 182.557C145.291 182.456 148.427 182.138 151.731 181.587C154.934 181.052 158.104 180.317 161.023 179.315L180.231 196.995C181.933 198.563 184.719 198.613 186.538 197.177L216.562 172.41C218.564 170.842 218.847 168.222 217.779 166.137L204.175 143.817C207.144 138.177 209.461 132.337 210.878 126.03L235.702 118.182C238.037 117.381 239.405 115.095 239.004 112.692L232.587 74.254C232.186 71.8516 230.167 70.2338 227.697 70.2345L201.671 70.8752C198.282 65.3704 194.077 60.5164 189.554 56.2298L195.17 30.7018C195.603 28.3659 194.385 25.9971 191.982 25.1635L155.557 11.5922C153.255 10.7419 150.719 11.5767 149.652 13.8127L137.228 36.7731C134.141 36.7739 130.771 36.9249 127.668 37.443C124.565 37.961 121.295 38.7126 118.376 39.7144L99.1679 22.0343C97.4657 20.4665 94.6795 20.4171 92.8613 21.8524L62.8365 46.6193C60.8348 48.1881 60.5518 50.8076 61.6202 52.8928L75.2234 75.2125C72.2552 80.8525 69.9376 86.6925 68.5211 92.9994L43.6973 100.847C41.3784 101.749 39.9942 103.935 40.3953 106.337L46.8119 144.776C47.213 147.178 49.2489 148.896 51.7014 148.795L77.7283 148.154C81.1166 153.659 85.2221 158.53 89.8447 162.8L84.2288 188.328C83.7956 190.664 85.0142 193.033 87.4169 193.866L123.858 207.538C126.261 208.371 128.68 207.453 129.764 205.317L142.221 182.557Z" fill="white"/>
</g>
<g filter="url(#filter5_i_2113_2882)">
<circle cx="139.869" cy="109.556" r="50.1266" transform="rotate(50.8657 139.869 109.556)" fill="white"/>
</g>
<path d="M123.328 353.734V377.241V380.189L128.031 377.976V351.437L123.328 353.734Z" fill="#042F4B"/>
<path d="M139.618 361.49L140.267 368.23L131.172 366.252" fill="#042F4B"/>
<path d="M113.922 370.121C113.922 366.788 117.553 363.982 122.503 363.125V360.138C114.932 361.053 109.219 365.174 109.219 370.121C109.219 375.245 115.351 379.484 123.328 380.189V377.241C117.961 376.568 113.922 373.636 113.922 370.121ZM128.857 360.139V363.125C130.826 363.466 132.588 364.114 133.994 364.983L137.319 362.928C135.053 361.527 132.128 360.534 128.857 360.139Z" fill="#042F4B"/>
<path d="M147.141 370.677C147.311 371.314 147.578 371.888 147.942 372.398C148.306 372.908 148.773 373.317 149.344 373.627C149.914 373.936 150.594 374.091 151.383 374.091C152.172 374.091 152.851 373.936 153.422 373.627C153.993 373.317 154.46 372.908 154.824 372.398C155.188 371.888 155.455 371.314 155.625 370.677C155.795 370.04 155.88 369.394 155.88 368.738C155.88 368.083 155.795 367.436 155.625 366.799C155.455 366.162 155.188 365.588 154.824 365.079C154.46 364.569 153.993 364.159 153.422 363.85C152.851 363.54 152.172 363.385 151.383 363.385C150.594 363.385 149.914 363.54 149.344 363.85C148.773 364.159 148.306 364.569 147.942 365.079C147.578 365.588 147.311 366.162 147.141 366.799C146.971 367.436 146.886 368.083 146.886 368.738C146.886 369.394 146.971 370.04 147.141 370.677ZM145.548 366.18C145.809 365.361 146.2 364.636 146.722 364.004C147.244 363.373 147.893 362.87 148.67 362.493C149.447 362.117 150.351 361.929 151.383 361.929C152.414 361.929 153.319 362.117 154.096 362.493C154.872 362.87 155.522 363.373 156.044 364.004C156.566 364.636 156.957 365.361 157.218 366.18C157.479 367 157.61 367.852 157.61 368.738C157.61 369.624 157.479 370.477 157.218 371.296C156.957 372.116 156.566 372.841 156.044 373.472C155.522 374.103 154.872 374.604 154.096 374.974C153.319 375.344 152.414 375.529 151.383 375.529C150.351 375.529 149.447 375.344 148.67 374.974C147.893 374.604 147.244 374.103 146.722 373.472C146.2 372.841 145.809 372.116 145.548 371.296C145.287 370.477 145.156 369.624 145.156 368.738C145.156 367.852 145.287 367 145.548 366.18Z" fill="#042F4B"/>
<path d="M166.086 369.165C165.971 368.747 165.795 368.373 165.558 368.046C165.322 367.718 165.018 367.457 164.648 367.263C164.277 367.069 163.844 366.972 163.346 366.972C162.824 366.972 162.381 367.075 162.017 367.281C161.653 367.488 161.355 367.758 161.125 368.091C160.894 368.425 160.727 368.805 160.624 369.229C160.521 369.654 160.47 370.085 160.47 370.522C160.47 370.983 160.524 371.429 160.633 371.86C160.743 372.291 160.916 372.67 161.152 372.998C161.389 373.326 161.695 373.59 162.072 373.79C162.448 373.99 162.903 374.09 163.437 374.09C163.971 374.09 164.417 373.987 164.775 373.781C165.133 373.575 165.422 373.302 165.64 372.962C165.859 372.622 166.016 372.233 166.114 371.796C166.211 371.36 166.259 370.911 166.259 370.449C166.259 370.012 166.201 369.584 166.086 369.165ZM160.524 365.825V367.099H160.56C160.815 366.577 161.216 366.198 161.762 365.961C162.308 365.725 162.909 365.606 163.565 365.606C164.293 365.606 164.927 365.74 165.467 366.007C166.007 366.274 166.456 366.635 166.814 367.09C167.172 367.545 167.443 368.07 167.625 368.665C167.807 369.26 167.898 369.891 167.898 370.558C167.898 371.226 167.81 371.857 167.634 372.452C167.458 373.047 167.191 373.566 166.833 374.009C166.475 374.452 166.025 374.801 165.485 375.055C164.945 375.31 164.317 375.438 163.601 375.438C163.37 375.438 163.112 375.413 162.827 375.365C162.542 375.316 162.26 375.237 161.981 375.128C161.701 375.019 161.437 374.871 161.189 374.682C160.94 374.494 160.731 374.261 160.56 373.981H160.524V378.824H158.977V365.825H160.524Z" fill="#042F4B"/>
<path d="M175.648 368.59C175.508 368.262 175.32 367.98 175.083 367.743C174.847 367.507 174.567 367.319 174.246 367.179C173.924 367.039 173.569 366.97 173.181 366.97C172.78 366.97 172.419 367.039 172.098 367.179C171.776 367.319 171.499 367.51 171.269 367.752C171.038 367.995 170.856 368.277 170.723 368.599C170.589 368.921 170.51 369.263 170.486 369.628H175.894C175.869 369.263 175.787 368.917 175.648 368.59ZM176.021 374.634C175.317 375.169 174.431 375.436 173.363 375.436C172.61 375.436 171.958 375.314 171.406 375.071C170.853 374.829 170.389 374.489 170.013 374.052C169.637 373.615 169.354 373.093 169.166 372.486C168.978 371.879 168.872 371.218 168.848 370.502C168.848 369.786 168.957 369.13 169.175 368.535C169.394 367.941 169.7 367.425 170.095 366.988C170.489 366.551 170.956 366.211 171.497 365.968C172.037 365.725 172.628 365.604 173.272 365.604C174.109 365.604 174.804 365.777 175.356 366.123C175.908 366.469 176.352 366.909 176.686 367.443C177.019 367.977 177.25 368.56 177.378 369.191C177.505 369.822 177.556 370.423 177.532 370.993H170.486C170.474 371.406 170.523 371.797 170.632 372.167C170.741 372.538 170.917 372.866 171.16 373.151C171.402 373.436 171.712 373.663 172.088 373.833C172.465 374.003 172.908 374.088 173.418 374.088C174.073 374.088 174.61 373.937 175.029 373.633C175.447 373.33 175.723 372.868 175.857 372.249H177.386C177.18 373.305 176.725 374.1 176.021 374.634Z" fill="#042F4B"/>
<path d="M180.042 365.826V367.319H180.079C180.722 366.178 181.742 365.607 183.138 365.607C183.756 365.607 184.272 365.692 184.685 365.862C185.098 366.032 185.431 366.269 185.686 366.572C185.941 366.876 186.12 367.237 186.223 367.655C186.326 368.074 186.378 368.538 186.378 369.048V375.238H184.831V368.866C184.831 368.283 184.661 367.822 184.321 367.482C183.981 367.143 183.513 366.973 182.919 366.973C182.446 366.973 182.036 367.045 181.69 367.191C181.344 367.337 181.056 367.543 180.825 367.81C180.594 368.077 180.421 368.39 180.306 368.748C180.191 369.106 180.133 369.497 180.133 369.922V375.238H178.586V365.826H180.042Z" fill="#042F4B"/>
<path d="M190.404 375.236H188.492V362.237H190.404V375.236Z" fill="#042F4B"/>
<path d="M197.005 373.782C197.199 373.782 197.442 373.766 197.733 373.736C198.025 373.706 198.334 373.633 198.662 373.518C198.99 373.403 199.314 373.235 199.636 373.017C199.957 372.799 200.246 372.501 200.5 372.125C200.756 371.749 200.965 371.278 201.129 370.714C201.293 370.15 201.374 369.467 201.374 368.666C201.374 367.889 201.298 367.194 201.147 366.581C200.995 365.968 200.747 365.446 200.401 365.015C200.055 364.585 199.609 364.257 199.062 364.032C198.516 363.808 197.842 363.695 197.041 363.695H194.128V373.782H197.005ZM196.859 362.239C198.862 362.239 200.403 362.749 201.484 363.768C202.564 364.788 203.104 366.342 203.104 368.429C203.104 369.521 202.983 370.49 202.74 371.333C202.497 372.177 202.121 372.887 201.611 373.463C201.101 374.04 200.452 374.48 199.663 374.783C198.874 375.087 197.939 375.238 196.859 375.238H192.398V362.239H196.859Z" fill="#042F4B"/>
<path d="M292.524 165.912C310.941 164.635 323.152 173.647 330.134 184.628C333.635 190.133 337.07 198.495 337.086 207.087C337.103 216.422 334.079 224.505 330.134 230.437C326.08 236.533 320.836 241.569 314.27 244.875C303.294 250.402 287.955 250.553 277.908 245.231C266.719 239.305 258.116 230.846 254.914 216.177C253.633 210.307 253.486 202.722 255.271 196.214C255.69 194.687 256.451 193.08 257.053 191.579C259.949 184.366 264.877 178.093 270.956 173.755C273.399 172.011 276.363 170.278 278.978 169.12C282.231 167.68 287.708 166.246 292.524 165.912Z" fill="white"/>
<path d="M327.46 208.127C327.46 225.532 313.35 239.641 295.945 239.641C278.539 239.641 264.43 225.532 264.43 208.127C264.43 190.721 278.539 176.611 295.945 176.611C313.35 176.611 327.46 190.721 327.46 208.127Z" fill="#042F4B"/>
<path d="M292.524 165.912C310.941 164.635 323.152 173.647 330.134 184.628C333.635 190.133 337.07 198.495 337.086 207.087C337.103 216.422 334.079 224.505 330.134 230.437C326.08 236.533 320.836 241.569 314.27 244.875C303.294 250.402 287.955 250.553 277.908 245.231C266.719 239.305 258.116 230.846 254.914 216.177C253.633 210.307 253.486 202.722 255.271 196.214C255.69 194.687 256.451 193.08 257.053 191.579C259.949 184.366 264.877 178.093 270.956 173.755C273.399 172.011 276.363 170.278 278.978 169.12C282.231 167.68 287.708 166.246 292.524 165.912ZM286.286 168.942C279.445 170.716 274.429 173.893 270.065 177.32C263.772 182.261 259.76 189.157 257.41 197.461C254.795 206.701 256.475 217.882 260.084 224.911C263.826 232.201 268.851 237.859 275.947 241.845C282.851 245.722 292.561 248.211 302.684 246.301C311.678 244.603 318.509 240.685 324.074 234.893C331.519 227.143 337.503 212.869 333.521 197.818C332.457 193.795 331.065 189.603 328.886 186.054C327.71 184.136 325.982 182.25 324.252 180.35C317.722 173.178 307.167 166.999 293.594 167.873C291.011 168.039 288.74 168.306 286.286 168.942Z" fill="#042F4B"/>
<path d="M297.844 245.922L334.261 209.506" stroke="white" stroke-width="0.277849"/>
<path d="M294.66 243.038L331.236 206.463" stroke="white" stroke-width="0.277849"/>
<path d="M291.473 240.157L328.208 203.422" stroke="white" stroke-width="0.277849"/>
<path d="M288.289 237.272L325.183 200.379" stroke="white" stroke-width="0.277849"/>
<path d="M285.109 234.385L322.163 197.332" stroke="white" stroke-width="0.277849"/>
<path d="M281.918 231.503L319.13 194.291" stroke="white" stroke-width="0.277849"/>
<path d="M278.738 228.62L316.109 191.25" stroke="white" stroke-width="0.277849"/>
<path d="M275.566 225.735L313.096 188.205" stroke="white" stroke-width="0.277849"/>
<path d="M272.367 222.851L310.055 185.162" stroke="white" stroke-width="0.277849"/>
<path d="M269.188 219.97L307.035 182.123" stroke="white" stroke-width="0.277849"/>
<path d="M266.004 217.084L304.01 179.078" stroke="white" stroke-width="0.277849"/>
<path d="M262.82 214.199L300.986 176.033" stroke="white" stroke-width="0.277849"/>
<path d="M259.637 211.318L297.961 172.994" stroke="white" stroke-width="0.277849"/>
<path d="M256.453 208.432L294.937 169.949" stroke="white" stroke-width="0.277849"/>
<path d="M256.441 208.799L293.587 245.946" stroke="white" stroke-width="0.277849"/>
<path d="M259.457 205.744L296.674 242.963" stroke="white" stroke-width="0.277849"/>
<path d="M262.465 202.688L299.754 239.979" stroke="white" stroke-width="0.277849"/>
<path d="M265.484 199.631L302.846 236.994" stroke="white" stroke-width="0.277849"/>
<path d="M268.5 196.574L305.934 234.01" stroke="white" stroke-width="0.277849"/>
<path d="M271.508 193.523L309.015 231.031" stroke="white" stroke-width="0.277849"/>
<path d="M274.508 190.469L312.087 228.049" stroke="white" stroke-width="0.277849"/>
<path d="M277.531 187.41L315.183 225.062" stroke="white" stroke-width="0.277849"/>
<path d="M280.535 184.355L318.259 222.08" stroke="white" stroke-width="0.277849"/>
<path d="M283.551 181.305L321.347 219.101" stroke="white" stroke-width="0.277849"/>
<path d="M286.57 178.244L324.439 216.113" stroke="white" stroke-width="0.277849"/>
<path d="M289.574 175.193L327.515 213.135" stroke="white" stroke-width="0.277849"/>
<path d="M292.586 172.137L330.599 210.15" stroke="white" stroke-width="0.277849"/>
<path d="M295.602 169.08L333.687 207.166" stroke="white" stroke-width="0.277849"/>
<path d="M322.115 180.526C318.837 177.249 314.807 174.295 309.994 172.505C305.005 170.65 299.361 169.086 292.704 169.653C282.101 170.557 274.656 175.314 268.997 180.883C265.034 184.783 262.053 189.562 260.085 195.142C257.196 203.336 257.371 213.008 260.62 221.344C263.391 228.456 267.927 234.191 274.345 238.634C280.378 242.811 289.038 246.051 298.764 245.23C310.611 244.229 319.279 238.151 324.966 231.148C326.422 229.357 327.869 227.331 328.71 224.91C329.533 223.165 329.936 221.978 330.314 221.345C331.894 217.805 332.731 214.069 332.987 209.937C333.777 197.226 328.887 187.298 322.115 180.526ZM318.623 219.251C318.601 219.3 318.581 219.345 318.557 219.394C317.969 221.076 316.957 222.482 315.939 223.726C311.961 228.589 305.9 232.81 297.616 233.505C290.814 234.075 284.758 231.825 280.539 228.925C276.872 226.404 274.085 223.284 272.131 219.535C272.012 219.309 270.877 216.694 270.873 216.579C269.325 211.777 269.191 204.054 270.78 199.42C271.84 196.328 273.608 192.981 275.949 190.33C279.181 186.669 282.416 184.323 287.535 182.665C289.872 181.908 291.965 181.137 294.843 181.061C301.862 180.874 309.009 184.025 312.846 187.478C316.372 190.65 320.391 196.831 321.402 202.629C322.442 208.596 321.332 214.423 318.623 219.251Z" fill="#042F4B"/>
<path d="M306.422 224.975C304.693 224.975 303.177 223.881 302.648 222.252L300.723 216.386H291.093L289.305 222.198C288.765 223.859 287.236 224.97 285.499 224.97C285.082 224.97 284.668 224.904 284.268 224.775C282.192 224.151 281.013 221.916 281.649 219.796L289.777 194.05C290.305 192.412 291.859 191.27 293.556 191.27H297.878C299.585 191.27 301.138 192.392 301.656 194L310.204 219.737C310.887 221.841 309.755 224.1 307.682 224.775C307.272 224.908 306.848 224.975 306.422 224.975Z" fill="white" stroke="#042F4B" stroke-width="0.833548"/>
<path d="M274.495 183.07L274.485 183.056C273.472 181.667 273.769 179.724 275.262 178.634C276.755 177.545 278.672 177.851 279.686 179.24L279.696 179.254C280.709 180.643 280.412 182.586 278.919 183.675C277.427 184.765 275.509 184.459 274.495 183.07ZM278.338 180.266L278.327 180.252C277.818 179.554 276.87 179.314 276.13 179.854C275.398 180.388 275.341 181.341 275.85 182.039L275.86 182.053C276.37 182.751 277.318 182.991 278.051 182.456C278.79 181.916 278.847 180.964 278.338 180.266Z" fill="white"/>
<path d="M284.265 173.963L285.788 173.475L290.058 178.439L288.364 178.983L287.622 178.098L285.422 178.803L285.342 179.952L283.68 180.486L284.265 173.963ZM286.771 177.014L285.615 175.597L285.492 177.424L286.771 177.014Z" fill="white"/>
<path d="M292.801 175.458L292.814 172.096L294.5 172.102L294.486 175.431C294.483 176.295 294.918 176.707 295.585 176.71C296.252 176.712 296.69 176.321 296.693 175.482L296.707 172.111L298.392 172.118L298.379 175.438C298.372 177.371 297.265 178.214 295.562 178.207C293.859 178.2 292.793 177.332 292.801 175.458Z" fill="white"/>
<path d="M304.484 174.873L302.766 174.348L303.19 172.957L308.214 174.49L307.79 175.881L306.071 175.357L304.748 179.694L303.16 179.209L304.484 174.873Z" fill="white"/>
<path d="M312.701 176.432L314.082 177.351L312.841 179.217L314.614 180.398L315.856 178.531L317.238 179.451L313.92 184.437L312.538 183.517L313.799 181.623L312.025 180.442L310.765 182.337L309.383 181.417L312.701 176.432Z" fill="white"/>
<path d="M317.568 230.93L317.579 230.944C318.645 232.293 318.422 234.246 316.972 235.392C315.522 236.538 313.594 236.305 312.528 234.956L312.517 234.942C311.451 233.593 311.674 231.64 313.124 230.494C314.574 229.349 316.502 229.581 317.568 230.93ZM313.836 233.879L313.846 233.892C314.382 234.571 315.339 234.774 316.057 234.207C316.769 233.645 316.789 232.691 316.254 232.013L316.243 231.999C315.707 231.321 314.751 231.117 314.039 231.68C313.321 232.247 313.3 233.201 313.836 233.879Z" fill="white"/>
<path d="M308.2 240.418L306.7 240.974L302.215 236.202L303.884 235.584L304.664 236.436L306.831 235.634L306.86 234.483L308.497 233.877L308.2 240.418ZM305.562 237.481L306.779 238.846L306.822 237.015L305.562 237.481Z" fill="white"/>
<path d="M299.619 239.28L299.767 242.639L298.083 242.713L297.936 239.388C297.898 238.525 297.444 238.134 296.778 238.163C296.111 238.193 295.692 238.605 295.729 239.443L295.878 242.81L294.194 242.885L294.048 239.568C293.962 237.637 295.028 236.742 296.729 236.667C298.43 236.592 299.536 237.408 299.619 239.28Z" fill="white"/>
<path d="M287.924 240.383L289.658 240.852L289.279 242.256L284.207 240.887L284.586 239.482L286.321 239.951L287.503 235.572L289.105 236.005L287.924 240.383Z" fill="white"/>
<path d="M279.718 239.156L278.294 238.303L279.446 236.38L277.619 235.285L276.467 237.207L275.043 236.354L278.122 231.217L279.546 232.07L278.376 234.022L280.203 235.118L281.373 233.165L282.797 234.019L279.718 239.156Z" fill="white"/>
<g clip-path="url(#clip0_2113_2882)">
<path d="M182.677 123.774C182.677 127.152 179.892 129.937 176.515 129.937H124.698C121.32 129.937 118.535 127.152 118.535 123.774V94.9768C118.535 91.5994 121.29 88.8145 124.698 88.8145H176.515C179.892 88.8145 182.677 91.5994 182.677 94.9768V123.774Z" fill="#45A041"/>
<path d="M161.494 123.774C161.494 127.152 158.709 129.937 155.331 129.937H103.514C100.136 129.937 97.3516 127.152 97.3516 123.774V94.9768C97.3516 91.5994 100.136 88.8145 103.514 88.8145H155.331C158.709 88.8145 161.494 91.5994 161.494 94.9768V123.774Z" fill="black"/>
<path d="M110.243 122.8C110.154 123.393 109.739 124.785 107.339 124.785C105.68 124.785 104.406 123.867 104.406 121.971C104.406 120.46 105.354 119.334 107.428 119.334C109.739 119.334 110.095 120.845 110.183 121.112H109.176C109.117 120.934 108.732 120.193 107.487 120.193C106.036 120.193 105.443 120.993 105.443 122.089C105.443 123.274 106.302 123.926 107.428 123.926C108.613 123.926 109.147 123.215 109.235 122.83H110.243V122.8Z" fill="white"/>
<path d="M111.844 119.447H116.495V120.306H112.851V121.521H115.992V122.38H112.851V123.743H116.584V124.602H111.844V119.447Z" fill="white"/>
<path d="M118.125 119.447H121.265C122.51 119.447 123.369 119.714 123.369 120.988C123.369 121.936 122.688 122.469 121.917 122.528L123.517 124.632H122.273L120.762 122.588H119.162V124.632H118.155V119.447H118.125ZM121.117 121.758C121.947 121.758 122.362 121.64 122.362 121.017C122.362 120.395 121.947 120.277 121.117 120.277H119.162V121.758H121.117Z" fill="white"/>
<path d="M126.928 120.34H124.617V119.48H130.246V120.34H127.935V124.665H126.928V120.34Z" fill="white"/>
<path d="M131.785 119.447H132.792V124.662H131.785V119.447Z" fill="white"/>
<path d="M134.688 119.447H139.487V120.306H135.724V121.521H138.954V122.38H135.724V124.632H134.688V119.447Z" fill="white"/>
<path d="M141.172 119.447H142.179V124.662H141.172V119.447Z" fill="white"/>
<path d="M143.902 119.447H148.554V120.306H144.91V121.521H148.05V122.38H144.91V123.743H148.643V124.602H143.902V119.447Z" fill="white"/>
<path d="M150.18 119.447H152.698C154.357 119.447 155.661 120.129 155.661 122.025C155.661 123.802 154.446 124.662 152.728 124.662H150.18V119.447ZM152.224 123.802C153.942 123.802 154.624 123.269 154.624 122.054C154.624 120.78 153.913 120.336 152.224 120.336H151.187V123.802H152.224Z" fill="white"/>
<path d="M119.926 94.918C118.563 94.918 117.438 96.0438 117.438 97.4066C117.438 98.7695 118.563 99.8953 119.926 99.8953C121.289 99.8953 122.415 98.7695 122.415 97.4066C122.415 96.0142 121.289 94.918 119.926 94.918Z" fill="#FEBD3B"/>
<path d="M113.262 101.881V104.784V105.11H117.735V116.102H119.335V109.85H120.491V116.102H122.12V101.881H119.394H113.262Z" fill="#FEBD3B"/>
<path d="M134.297 103.096H134.238C133.586 102.148 132.253 101.496 130.475 101.496C127.068 101.496 124.076 104.31 124.106 109.11C124.106 113.554 126.802 116.457 130.209 116.457C132.046 116.457 133.794 115.628 134.653 114.058L134.92 116.102H138.741V95.2148H134.297V103.096ZM134.297 109.762C134.297 110.117 134.268 110.443 134.208 110.799C133.942 112.043 132.905 112.932 131.601 112.932C129.764 112.932 128.579 111.421 128.579 108.991C128.579 106.74 129.616 104.932 131.631 104.932C133.023 104.932 133.971 105.94 134.238 107.095C134.297 107.362 134.297 107.688 134.297 107.895V109.762Z" fill="#FEBD3B"/>
<path d="M112.937 98.0579L114.033 94.3842C113.737 94.2953 113.411 94.2064 113.115 94.1472C111.189 93.7324 109.678 93.999 108.789 94.2953C108.256 94.473 107.93 94.6212 107.93 94.6212C107.397 94.8878 106.863 95.2433 106.419 95.7174C105.264 96.8432 104.701 98.3542 104.701 100.25V101.88H101.945V105.139H104.701V116.13H109.115V105.109H111.87V101.85H109.115V100.132C109.115 99.4207 109.293 98.8875 109.648 98.5023C109.708 98.4431 109.737 98.4134 109.796 98.3542C109.767 98.3838 110.715 97.4357 112.937 98.0579Z" fill="white"/>
<path d="M148.458 101.496C143.866 101.496 140.844 104.459 140.844 109.081C140.844 113.673 144.043 116.428 148.191 116.428C151.983 116.428 155.687 114.028 155.687 108.814C155.687 104.518 152.783 101.496 148.458 101.496ZM148.31 113.228C146.414 113.228 145.377 111.391 145.377 108.932C145.377 106.829 146.206 104.666 148.31 104.666C150.295 104.666 151.124 106.799 151.124 108.903C151.124 111.54 150.028 113.228 148.31 113.228Z" fill="white"/>
<path d="M153.465 100.044H153.998V101.407H154.324V100.044H154.857V99.7773H153.465V100.044Z" fill="white"/>
<path d="M156.456 99.7773L156.041 100.933L155.626 99.7773H155.152V101.407H155.449V100.103L155.923 101.407H156.16L156.634 100.103V101.407H156.93V99.7773H156.456Z" fill="white"/>
<path d="M175.302 93.7637V99.1854H173.88V95.3339H172.369V98.7114H170.947V95.3339H168.191V93.7637H175.302Z" fill="white"/>
<path d="M175.302 100.43V102H168.191V100.43H175.302Z" fill="white"/>
<path d="M175.302 103.746V106.531C175.302 108.753 173.761 110.294 171.776 110.294H171.747C169.762 110.294 168.191 108.753 168.191 106.531V103.746H175.302ZM173.909 105.316H169.613V106.531C169.613 107.805 170.473 108.664 171.747 108.664H171.776C173.021 108.664 173.909 107.805 173.909 106.531V105.316Z" fill="white"/>
<path d="M171.746 111.273C173.79 111.273 175.449 112.873 175.449 115.066C175.449 117.258 173.82 118.828 171.805 118.828H171.775C169.761 118.828 168.102 117.228 168.102 115.036C168.102 112.844 169.731 111.273 171.746 111.273ZM171.746 117.199C172.99 117.199 173.997 116.31 173.997 115.036C173.997 113.792 172.99 112.903 171.775 112.903H171.746C170.531 112.903 169.524 113.792 169.524 115.066C169.524 116.34 170.531 117.199 171.746 117.199Z" fill="white"/>
<path d="M169.436 119.566L171.361 121.937C172.102 122.825 172.487 123.151 173.08 123.151C173.672 123.151 173.998 122.766 173.998 122.203C173.998 121.67 173.702 121.285 173.05 120.751L173.939 119.655C174.887 120.366 175.42 121.048 175.42 122.292C175.42 123.773 174.561 124.751 173.228 124.751H173.198C172.013 124.751 171.421 124.129 170.443 122.885L169.554 121.729V124.81H168.191V119.566H169.436Z" fill="white"/>
</g>
<defs>
<filter id="filter0_d_2113_2882" x="199.371" y="119.219" width="192.273" height="189.496" filterUnits="userSpaceOnUse" color-interpolation-filters="sRGB">
<feFlood flood-opacity="0" result="BackgroundImageFix"/>
<feColorMatrix in="SourceAlpha" type="matrix" values="0 0 0 0 0 0 0 0 0 0 0 0 0 0 0 0 0 0 127 0" result="hardAlpha"/>
<feOffset dx="0.584139" dy="6.42552"/>
<feGaussianBlur stdDeviation="5.64348"/>
<feColorMatrix type="matrix" values="0 0 0 0 0.313726 0 0 0 0 0.42353 0 0 0 0 0.941176 0 0 0 0.31 0"/>
<feBlend mode="normal" in2="BackgroundImageFix" result="effect1_dropShadow_2113_2882"/>
<feBlend mode="normal" in="SourceGraphic" in2="effect1_dropShadow_2113_2882" result="shape"/>
</filter>
<filter id="filter1_i_2113_2882" x="255.008" y="167.482" width="80.1133" height="85.2697" filterUnits="userSpaceOnUse" color-interpolation-filters="sRGB">
<feFlood flood-opacity="0" result="BackgroundImageFix"/>
<feBlend mode="normal" in="SourceGraphic" in2="BackgroundImageFix" result="shape"/>
<feColorMatrix in="SourceAlpha" type="matrix" values="0 0 0 0 0 0 0 0 0 0 0 0 0 0 0 0 0 0 127 0" result="hardAlpha"/>
<feOffset dx="0.51564" dy="5.67204"/>
<feGaussianBlur stdDeviation="8.25023"/>
<feComposite in2="hardAlpha" operator="arithmetic" k2="-1" k3="1"/>
<feColorMatrix type="matrix" values="0 0 0 0 0.313726 0 0 0 0 0.42353 0 0 0 0 0.941176 0 0 0 0.31 0"/>
<feBlend mode="normal" in2="shape" result="effect1_innerShadow_2113_2882"/>
</filter>
<filter id="filter2_d_2113_2882" x="12.3896" y="232.306" width="291.363" height="289.406" filterUnits="userSpaceOnUse" color-interpolation-filters="sRGB">
<feFlood flood-opacity="0" result="BackgroundImageFix"/>
<feColorMatrix in="SourceAlpha" type="matrix" values="0 0 0 0 0 0 0 0 0 0 0 0 0 0 0 0 0 0 127 0" result="hardAlpha"/>
<feOffset dx="0.881829" dy="9.70012"/>
<feGaussianBlur stdDeviation="8.51953"/>
<feColorMatrix type="matrix" values="0 0 0 0 0.313726 0 0 0 0 0.42353 0 0 0 0 0.941176 0 0 0 0.31 0"/>
<feBlend mode="normal" in2="BackgroundImageFix" result="effect1_dropShadow_2113_2882"/>
<feBlend mode="normal" in="SourceGraphic" in2="effect1_dropShadow_2113_2882" result="shape"/>
</filter>
<filter id="filter3_i_2113_2882" x="87.7383" y="299.076" width="136.972" height="145.788" filterUnits="userSpaceOnUse" color-interpolation-filters="sRGB">
<feFlood flood-opacity="0" result="BackgroundImageFix"/>
<feBlend mode="normal" in="SourceGraphic" in2="BackgroundImageFix" result="shape"/>
<feColorMatrix in="SourceAlpha" type="matrix" values="0 0 0 0 0 0 0 0 0 0 0 0 0 0 0 0 0 0 127 0" result="hardAlpha"/>
<feOffset dx="0.881829" dy="9.70012"/>
<feGaussianBlur stdDeviation="14.1093"/>
<feComposite in2="hardAlpha" operator="arithmetic" k2="-1" k3="1"/>
<feColorMatrix type="matrix" values="0 0 0 0 0.313726 0 0 0 0 0.42353 0 0 0 0 0.941176 0 0 0 0.31 0"/>
<feBlend mode="normal" in2="shape" result="effect1_innerShadow_2113_2882"/>
</filter>
<filter id="filter4_d_2113_2882" x="27.8372" y="5.59201" width="225.091" height="222.921" filterUnits="userSpaceOnUse" color-interpolation-filters="sRGB">
<feFlood flood-opacity="0" result="BackgroundImageFix"/>
<feColorMatrix in="SourceAlpha" type="matrix" values="0 0 0 0 0 0 0 0 0 0 0 0 0 0 0 0 0 0 127 0" result="hardAlpha"/>
<feOffset dx="0.681728" dy="7.49901"/>
<feGaussianBlur stdDeviation="6.58631"/>
<feColorMatrix type="matrix" values="0 0 0 0 0.313726 0 0 0 0 0.42353 0 0 0 0 0.941176 0 0 0 0.31 0"/>
<feBlend mode="normal" in2="BackgroundImageFix" result="effect1_dropShadow_2113_2882"/>
<feBlend mode="normal" in="SourceGraphic" in2="effect1_dropShadow_2113_2882" result="shape"/>
</filter>
<filter id="filter5_i_2113_2882" x="89.7422" y="59.4277" width="100.904" height="107.402" filterUnits="userSpaceOnUse" color-interpolation-filters="sRGB">
<feFlood flood-opacity="0" result="BackgroundImageFix"/>
<feBlend mode="normal" in="SourceGraphic" in2="BackgroundImageFix" result="shape"/>
<feColorMatrix in="SourceAlpha" type="matrix" values="0 0 0 0 0 0 0 0 0 0 0 0 0 0 0 0 0 0 127 0" result="hardAlpha"/>
<feOffset dx="0.649622" dy="7.14584"/>
<feGaussianBlur stdDeviation="10.394"/>
<feComposite in2="hardAlpha" operator="arithmetic" k2="-1" k3="1"/>
<feColorMatrix type="matrix" values="0 0 0 0 0.313726 0 0 0 0 0.42353 0 0 0 0 0.941176 0 0 0 0.31 0"/>
<feBlend mode="normal" in2="shape" result="effect1_innerShadow_2113_2882"/>
</filter>
<clipPath id="clip0_2113_2882">
<rect width="85.3255" height="41.1221" fill="white" transform="translate(97.3477 88.8145)"/>
</clipPath>
</defs>
</svg>
