<svg id="Layer_1" data-name="Layer 1" xmlns="http://www.w3.org/2000/svg" viewBox="0 0 215.82 155.65"><defs><style>.cls-1{fill:#fff;}</style></defs><path class="cls-1" d="M312.76,349.11h4.68l10.18,21h-4.33l-2.19-4.82H309l-2.22,4.82h-4.36Zm6.72,12.64-4.38-9.35-4.39,9.35Z" transform="translate(-292.54 -248.97)"/><path class="cls-1" d="M333.22,349.11h4.1v17.34h15.2v3.64h-19.3Z" transform="translate(-292.54 -248.97)"/><path class="cls-1" d="M358.56,349.11h4.09v17.34h15.21v3.64h-19.3Z" transform="translate(-292.54 -248.97)"/><path class="cls-1" d="M384.15,349.11h4.1v21h-4.1Z" transform="translate(-292.54 -248.97)"/><path class="cls-1" d="M404.44,349.11h4.67l10.18,21H415l-2.2-4.82H400.69l-2.23,4.82h-4.35Zm6.72,12.64-4.39-9.35-4.38,9.35Z" transform="translate(-292.54 -248.97)"/><path class="cls-1" d="M424.9,349.11h4.32l14,15.15V349.11h3.93v21h-3.75l-14.6-15.7v15.7H424.9Z" transform="translate(-292.54 -248.97)"/><path class="cls-1" d="M476.49,362.62c-.41,2.33-2.08,8-11.72,8-6.63,0-11.86-3.69-11.86-11.34,0-6.12,3.84-10.67,12.18-10.67,9.38,0,10.76,6.08,11.08,7.21h-4.1c-.23-.72-1.84-3.69-6.75-3.69-5.8,0-8.22,3.26-8.22,7.61,0,4.82,3.49,7.36,8,7.36,4.79,0,6.9-2.86,7.3-4.47Z" transform="translate(-292.54 -248.97)"/><path class="cls-1" d="M482.4,349.11h18.82v3.52H486.5v4.88h12.67V361H486.5v5.54h15.06v3.52H482.4Z" transform="translate(-292.54 -248.97)"/><path class="cls-1" d="M363.11,252.74a9.76,9.76,0,1,0,9.76,9.76A9.75,9.75,0,0,0,363.11,252.74Z" transform="translate(-292.54 -248.97)"/><polygon class="cls-1" points="44.44 31.1 44.44 42.56 44.44 43.86 61.96 43.86 61.96 86.96 68.29 86.96 68.29 62.46 72.87 62.46 72.87 86.96 79.25 86.96 79.25 31.1 68.52 31.1 44.44 31.1"/><path class="cls-1" d="M419.52,284.89h-.2c-2.57-3.72-7.74-6.31-14.72-6.31-13.39,0-25.15,11-25.06,29.85,0,17.4,10.62,28.78,23.91,28.78,7.17,0,14.06-3.25,17.41-9.37l1.05,8h15V254h-17.4Zm0,26.12a28.72,28.72,0,0,1-.29,4A10.35,10.35,0,0,1,409,323.34c-7.18,0-11.86-5.93-11.86-15.49,0-8.8,4-15.88,11.95-15.88,5.46,0,9.19,3.93,10.23,8.52a17.7,17.7,0,0,1,.2,3.15Z" transform="translate(-292.54 -248.97)"/><path class="cls-1" d="M335.71,265.12,340,250.73a27.32,27.32,0,0,0-3.63-.94,33.64,33.64,0,0,0-17,.53h0a17.83,17.83,0,0,0-3.32,1.33h0a23.19,23.19,0,0,0-6,4.27c-4.49,4.4-6.77,10.39-6.77,17.78v6.36H292.54v12.76h10.78v43.1h17.27v-43.1h10.78V280.07H320.59v-6.73a9.24,9.24,0,0,1,2.06-6.4,6.11,6.11,0,0,1,.58-.56h0S327,262.69,335.71,265.12Z" transform="translate(-292.54 -248.97)"/><path class="cls-1" d="M307,384.79H307v19.83h-4.54V378.46h6.88l8.17,19.39,8.31-19.39h6.73v26.16H328V384.79h-.07l-8.38,19.83h-4.07Z" transform="translate(-292.54 -248.97)"/><path class="cls-1" d="M340.71,378.46h23.46v4.39H345.82v6.08h15.79v4.39H345.82v6.91H364.6v4.39H340.71Z" transform="translate(-292.54 -248.97)"/><path class="cls-1" d="M376.75,384.79h-.07v19.83h-4.54V378.46H379l8.17,19.39,8.31-19.39h6.73v26.16h-4.54V384.79h-.07l-8.38,19.83h-4.07Z" transform="translate(-292.54 -248.97)"/><path class="cls-1" d="M410.42,378.46h15.76c6.15,0,10.26,1.72,10.26,6.69a5.68,5.68,0,0,1-3,5.43,7,7,0,0,1,4,6.44c0,4.93-3.92,7.6-10.29,7.6H410.42Zm16.08,10.32c3.35,0,4.83-.82,4.83-3s-1.48-3.06-4.83-3.06h-11v6.08Zm.15,11.59c3.24,0,5.68-.65,5.68-3.74,0-2.74-2.23-3.6-5.68-3.6H415.53v7.34Z" transform="translate(-292.54 -248.97)"/><path class="cls-1" d="M444.55,378.46H468v4.39H449.66v6.08h15.8v4.39h-15.8v6.91h18.79v4.39h-23.9Z" transform="translate(-292.54 -248.97)"/><path class="cls-1" d="M475.42,378.46h15.72c6.19,0,10.66,1.4,10.66,7.8a7.4,7.4,0,0,1-7.31,7.7l8,10.66h-6.29l-7.6-10.3h-8.09v10.3h-5.11Zm15,11.62c4.17,0,6.3-.61,6.3-3.71s-2.13-3.67-6.3-3.67h-9.86v7.38Z" transform="translate(-292.54 -248.97)"/><path class="cls-1" d="M475.14,278.59c-18.08,0-29.94,11.57-29.94,29.74s12.53,28.88,28.89,28.88c14.92,0,29.46-9.37,29.46-29.93C503.55,290.45,492.17,278.59,475.14,278.59Zm-.57,46.09c-7.46,0-11.48-7.17-11.48-16.82,0-8.24,3.25-16.75,11.48-16.75,7.83,0,11.09,8.42,11.09,16.65C485.66,318,481.36,324.68,474.57,324.68Z" transform="translate(-292.54 -248.97)"/><polygon class="cls-1" points="202.28 23.98 204.36 23.98 204.36 29.28 205.62 29.28 205.62 23.98 207.7 23.98 207.7 22.92 202.28 22.92 202.28 23.98"/><polygon class="cls-1" points="214.01 22.92 212.38 27.47 210.75 22.92 208.93 22.92 208.93 29.28 210.1 29.28 210.1 24.15 211.88 29.28 212.89 29.28 214.65 24.15 214.65 29.28 215.82 29.28 215.82 22.92 214.01 22.92"/></svg>