<svg width="617" height="391" fill="none" xmlns="http://www.w3.org/2000/svg"><g filter="url(#a)"><rect x="16" y="8" width="585" height="360" rx="10.277" fill="#fff"/><path d="M260.706 134.186c-.953 0-1.76-.16-2.423-.481a5.635 5.635 0 0 1-1.693-1.274l1.553-1.568c.736.828 1.642 1.242 2.718 1.242.58 0 1.01-.119 1.289-.357.28-.238.42-.554.42-.948 0-.3-.083-.548-.249-.745-.165-.207-.502-.347-1.009-.419l-1.072-.14c-1.149-.145-1.993-.492-2.532-1.041-.528-.549-.792-1.279-.792-2.19 0-.486.094-.932.28-1.335.186-.404.45-.751.792-1.041.352-.29.777-.513 1.274-.668.507-.166 1.082-.248 1.724-.248.818 0 1.537.129 2.159.388a4.384 4.384 0 0 1 1.599 1.134l-1.568 1.584a3.014 3.014 0 0 0-.948-.73c-.362-.197-.823-.295-1.382-.295-.528 0-.922.093-1.181.279a.907.907 0 0 0-.388.777c0 .373.099.642.295.808.207.165.539.284.994.357l1.072.171c1.118.176 1.947.523 2.485 1.04.538.508.808 1.232.808 2.175a3.6 3.6 0 0 1-.28 1.429 3.025 3.025 0 0 1-.823 1.118c-.352.311-.792.554-1.32.73-.528.166-1.129.248-1.802.248zm7.207-9.21c-.466 0-.808-.103-1.025-.31a1.148 1.148 0 0 1-.311-.824v-.341c0-.332.104-.601.311-.808.217-.217.559-.326 1.025-.326.466 0 .803.109 1.01.326.217.207.326.476.326.808v.341c0 .332-.109.606-.326.824-.207.207-.544.31-1.01.31zm-1.149.87h2.298V134h-2.298v-8.154zm11.992 8.744c0 .435-.078.818-.233 1.15-.145.331-.388.61-.73.838-.341.238-.797.414-1.367.528-.559.125-1.252.187-2.081.187-.704 0-1.304-.047-1.801-.14-.487-.083-.886-.207-1.196-.373-.301-.155-.523-.352-.668-.59a1.525 1.525 0 0 1-.202-.792c0-.456.134-.813.404-1.072.269-.259.642-.419 1.118-.481v-.171c-.394-.073-.689-.238-.885-.497a1.536 1.536 0 0 1-.295-.932c0-.218.041-.404.124-.559.093-.166.207-.306.341-.42a1.73 1.73 0 0 1 .497-.295c.187-.072.373-.129.56-.171v-.062c-.497-.227-.865-.538-1.103-.932-.238-.403-.357-.869-.357-1.397 0-.829.284-1.491.854-1.988.58-.508 1.46-.761 2.64-.761.539 0 .999.051 1.383.155v-.311c0-.435.103-.745.31-.932.218-.196.523-.295.917-.295h1.289v1.709h-1.802v.093c.476.228.828.544 1.056.947.228.394.342.855.342 1.383 0 .818-.29 1.475-.87 1.972-.569.487-1.444.73-2.625.73a5.691 5.691 0 0 1-1.444-.171.738.738 0 0 0-.357.653c0 .196.072.352.217.466.155.103.409.155.761.155h2.361c.994 0 1.714.207 2.159.621.455.414.683.999.683 1.755zm-2.159.311a.613.613 0 0 0-.279-.544c-.187-.124-.513-.186-.979-.186h-2.795a1.026 1.026 0 0 0-.233.342 1.299 1.299 0 0 0-.063.388c0 .3.13.518.389.652.259.145.699.218 1.32.218h.932c.621 0 1.061-.073 1.32-.218.259-.134.388-.352.388-.652zm-2.221-5.296c.456 0 .792-.094 1.01-.28.228-.197.341-.476.341-.839v-.186c0-.362-.113-.637-.341-.823-.218-.197-.554-.295-1.01-.295-.455 0-.797.098-1.025.295-.217.186-.326.461-.326.823v.186c0 .363.109.642.326.839.228.186.57.28 1.025.28zm5.401 4.395v-8.154h2.299v1.382h.093c.145-.424.399-.792.761-1.102.363-.311.865-.466 1.507-.466.839 0 1.47.279 1.895.838.435.559.652 1.357.652 2.392V134h-2.299v-4.924c0-.528-.082-.916-.248-1.164-.166-.259-.461-.389-.885-.389-.187 0-.368.026-.544.078a1.353 1.353 0 0 0-.481.217 1.189 1.189 0 0 0-.327.389 1.024 1.024 0 0 0-.124.512V134h-2.299zm14.073-9.024c-.466 0-.808-.103-1.026-.31a1.148 1.148 0 0 1-.31-.824v-.341c0-.332.103-.601.31-.808.218-.217.56-.326 1.026-.326.465 0 .802.109 1.009.326.218.207.326.476.326.808v.341c0 .332-.108.606-.326.824-.207.207-.544.31-1.009.31zm-1.15.87h2.299V134H292.7v-8.154zm4.444 8.154v-8.154h2.299v1.382h.093c.145-.424.399-.792.761-1.102.363-.311.865-.466 1.507-.466.838 0 1.47.279 1.895.838.434.559.652 1.357.652 2.392V134h-2.299v-4.924c0-.528-.083-.916-.248-1.164-.166-.259-.461-.389-.886-.389-.186 0-.367.026-.543.078a1.358 1.358 0 0 0-.482.217 1.198 1.198 0 0 0-.326.389 1.014 1.014 0 0 0-.124.512V134h-2.299z" fill="#042F4B"/><rect x="256" y="185.406" width="167.319" height="23.903" rx="1.434" fill="#506CF0"/><path d="M327.454 201.52c-.557 0-1.032-.101-1.425-.304a3.178 3.178 0 0 1-.997-.817l.741-.693c.234.285.491.5.769.646.285.145.608.218.969.218.425 0 .745-.095.96-.285.215-.19.323-.446.323-.769 0-.26-.076-.466-.228-.618-.152-.152-.421-.266-.808-.342l-.589-.104c-.646-.121-1.13-.333-1.453-.637-.323-.304-.485-.722-.485-1.254 0-.291.054-.554.162-.788.114-.241.269-.44.465-.599a2.19 2.19 0 0 1 .732-.38c.285-.088.605-.133.959-.133.501 0 .935.089 1.302.266.367.171.681.421.94.751l-.75.665a1.948 1.948 0 0 0-.627-.532c-.247-.133-.554-.2-.922-.2-.38 0-.674.076-.883.228-.209.152-.314.374-.314.665 0 .279.086.488.257.627.171.133.437.235.798.304l.589.124c.665.126 1.149.342 1.453.646.311.304.466.722.466 1.254 0 .31-.054.592-.162.845a1.791 1.791 0 0 1-.475.656 2.207 2.207 0 0 1-.75.418 3.346 3.346 0 0 1-1.017.142zm4.187-5.937c-.216 0-.374-.051-.475-.152a.548.548 0 0 1-.143-.39v-.161c0-.159.048-.288.143-.39.101-.101.259-.152.475-.152.215 0 .37.051.465.152a.548.548 0 0 1 .143.39v.161a.548.548 0 0 1-.143.39c-.095.101-.25.152-.465.152zm-.523.883h1.036v4.94h-1.036v-4.94zm6.894 5.406c0 .513-.197.899-.589 1.159-.393.259-1.033.389-1.919.389-.406 0-.751-.028-1.036-.085a2.3 2.3 0 0 1-.693-.228 1.008 1.008 0 0 1-.39-.371 1.005 1.005 0 0 1-.123-.503c0-.273.073-.485.218-.637.152-.152.361-.256.627-.313v-.105c-.373-.12-.56-.373-.56-.76 0-.253.085-.446.256-.579.171-.14.377-.238.618-.295v-.038a1.595 1.595 0 0 1-.675-.579 1.687 1.687 0 0 1-.228-.884c0-.506.168-.915.504-1.225.342-.311.829-.466 1.463-.466.348 0 .646.051.893.152v-.133c0-.221.05-.392.152-.513.107-.126.272-.19.494-.19h.76v.836h-1.007v.2c.221.145.392.335.513.57.12.228.18.484.18.769 0 .501-.171.906-.513 1.216-.342.304-.829.456-1.463.456a2.5 2.5 0 0 1-.646-.076 1.035 1.035 0 0 0-.332.19.37.37 0 0 0-.143.304c0 .133.06.228.181.285.12.057.291.086.513.086h1.216c.608 0 1.048.123 1.32.37.273.241.409.573.409.998zm-.969.114a.49.49 0 0 0-.2-.409c-.126-.101-.361-.152-.703-.152h-1.672c-.228.133-.342.323-.342.57 0 .203.079.364.238.485.164.126.44.19.826.19h.646c.805 0 1.207-.228 1.207-.684zm-1.549-3.021c.304 0 .539-.067.703-.2.171-.139.257-.351.257-.636v-.19c0-.285-.086-.494-.257-.627-.164-.14-.399-.209-.703-.209-.304 0-.541.069-.712.209-.165.133-.247.342-.247.627v.19c0 .285.082.497.247.636.171.133.408.2.712.2zm3.336 2.441v-4.94h1.035v.817h.048c.108-.266.269-.487.484-.665.222-.177.523-.266.903-.266.507 0 .899.168 1.178.504.285.329.427.801.427 1.415v3.135h-1.035v-3.002c0-.772-.31-1.159-.931-1.159-.133 0-.266.019-.399.057a1.06 1.06 0 0 0-.342.152.838.838 0 0 0-.247.266.804.804 0 0 0-.086.38v3.306h-1.035zm8.373-5.823c-.215 0-.373-.051-.475-.152a.548.548 0 0 1-.142-.39v-.161c0-.159.047-.288.142-.39.102-.101.26-.152.475-.152.216 0 .371.051.466.152a.548.548 0 0 1 .142.39v.161a.548.548 0 0 1-.142.39c-.095.101-.25.152-.466.152zm-.522.883h1.035v4.94h-1.035v-4.94zm2.561 4.94v-4.94h1.036v.817h.047c.108-.266.27-.487.485-.665.222-.177.522-.266.902-.266.507 0 .9.168 1.178.504.285.329.428.801.428 1.415v3.135h-1.036v-3.002c0-.772-.31-1.159-.931-1.159-.133 0-.266.019-.399.057a1.08 1.08 0 0 0-.342.152.85.85 0 0 0-.247.266.804.804 0 0 0-.085.38v3.306h-1.036z" fill="#fff"/><path fill-rule="evenodd" clip-rule="evenodd" d="M256 153.76c0-.792.642-1.434 1.434-1.434h164.451c.792 0 1.434.642 1.434 1.434v21.035c0 .792-.642 1.434-1.434 1.434H257.434a1.434 1.434 0 0 1-1.434-1.434V153.76z" fill="#fff" stroke="#36596F" stroke-width=".717" stroke-linejoin="round"/><path d="M266.213 163.26h.612v4.559c0 .275-.069.497-.207.665-.138.169-.354.253-.65.253h-.398v-.536h.643v-4.941zm.306-.925c-.133 0-.23-.031-.291-.092a.378.378 0 0 1-.084-.252v-.1c0-.102.028-.184.084-.245.061-.066.158-.099.291-.099.132 0 .227.033.283.099a.331.331 0 0 1 .091.245v.1c0 .101-.03.186-.091.252-.056.061-.151.092-.283.092zm3.136 4.964c-.266 0-.508-.049-.727-.146a1.608 1.608 0 0 1-.566-.413 2.056 2.056 0 0 1-.36-.65 2.666 2.666 0 0 1-.13-.856c0-.311.044-.594.13-.849.087-.255.207-.472.36-.651a1.59 1.59 0 0 1 .566-.42c.219-.097.461-.146.727-.146.265 0 .504.049.719.146.219.097.408.237.566.42.158.179.28.396.367.651.086.255.13.538.13.849 0 .316-.044.601-.13.856-.087.25-.209.467-.367.65a1.608 1.608 0 0 1-.566.413 1.727 1.727 0 0 1-.719.146zm0-.543c.331 0 .601-.102.81-.306.209-.204.314-.515.314-.933v-.566c0-.419-.105-.73-.314-.934-.209-.204-.479-.305-.81-.305-.332 0-.602.101-.811.305-.209.204-.314.515-.314.934v.566c0 .418.105.729.314.933.209.204.479.306.811.306zm2.826-5.209h.612v2.356h.031c.097-.225.232-.403.405-.536.179-.132.416-.199.712-.199.408 0 .729.133.963.398.24.26.36.63.36 1.109v2.532h-.612v-2.425c0-.708-.298-1.063-.895-1.063-.122 0-.242.015-.359.046a1.039 1.039 0 0 0-.306.138.7.7 0 0 0-.222.237.667.667 0 0 0-.077.329v2.738h-.612v-5.66zm4.386 5.66v-3.947h.612v.643h.03c.097-.225.233-.403.406-.536.178-.132.415-.199.711-.199.408 0 .729.133.964.398.24.26.359.63.359 1.109v2.532h-.611v-2.425c0-.708-.299-1.063-.895-1.063a1.4 1.4 0 0 0-.36.046 1.062 1.062 0 0 0-.306.138.7.7 0 0 0-.222.237.667.667 0 0 0-.076.329v2.738h-.612zm4.776.092c-.164 0-.283-.041-.36-.123a.47.47 0 0 1-.107-.321v-.099c0-.133.036-.24.107-.322.077-.081.196-.122.36-.122.163 0 .28.041.351.122a.45.45 0 0 1 .115.322v.099c0 .133-.038.24-.115.321-.071.082-.188.123-.351.123zm4.107-.734h-.031c-.24.489-.625.734-1.155.734a1.5 1.5 0 0 1-.666-.146 1.473 1.473 0 0 1-.512-.413 1.967 1.967 0 0 1-.321-.65 3.148 3.148 0 0 1-.107-.856c0-.317.035-.602.107-.857.076-.255.183-.472.321-.65.143-.179.314-.316.512-.413a1.5 1.5 0 0 1 .666-.146c.275 0 .51.062.704.184.199.117.349.301.451.551h.031v-2.356h.611v5.66h-.611v-.642zm-1.018.183c.138 0 .268-.018.39-.053.128-.036.237-.087.329-.153a.78.78 0 0 0 .214-.253.704.704 0 0 0 .085-.344v-1.469a.563.563 0 0 0-.085-.298.706.706 0 0 0-.214-.245 1.042 1.042 0 0 0-.329-.153 1.244 1.244 0 0 0-.39-.061c-.347 0-.619.11-.818.329-.199.214-.299.497-.299.849v.673c0 .352.1.638.299.857.199.214.471.321.818.321zm4.46.551c-.265 0-.507-.049-.727-.146a1.617 1.617 0 0 1-.566-.413 2.054 2.054 0 0 1-.359-.65 2.639 2.639 0 0 1-.13-.856c0-.311.043-.594.13-.849.087-.255.206-.472.359-.651a1.6 1.6 0 0 1 .566-.42c.22-.097.462-.146.727-.146.265 0 .505.049.719.146.219.097.408.237.566.42.158.179.281.396.367.651.087.255.13.538.13.849 0 .316-.043.601-.13.856-.086.25-.209.467-.367.65a1.608 1.608 0 0 1-.566.413 1.724 1.724 0 0 1-.719.146zm0-.543c.332 0 .602-.102.811-.306.209-.204.313-.515.313-.933v-.566c0-.419-.104-.73-.313-.934-.209-.204-.479-.305-.811-.305-.331 0-.602.101-.811.305-.209.204-.313.515-.313.934v.566c0 .418.104.729.313.933.209.204.48.306.811.306zm4.311.543c-.27 0-.515-.049-.735-.146a1.625 1.625 0 0 1-.558-.413 2.034 2.034 0 0 1-.359-.65 2.787 2.787 0 0 1-.123-.856c0-.311.041-.594.123-.849.086-.255.206-.472.359-.651.158-.183.344-.323.558-.42.22-.097.465-.146.735-.146.265 0 .502.049.711.146.209.097.388.232.536.405.147.168.26.37.336.604.082.235.122.492.122.773v.291h-2.837v.183c0 .168.025.327.076.474.056.143.133.268.23.375.102.107.224.191.367.253.148.061.313.091.497.091a1.141 1.141 0 0 0 1.086-.68l.436.313c-.127.271-.326.49-.596.658a1.834 1.834 0 0 1-.964.245zm0-3.618c-.168 0-.321.031-.459.092a1.022 1.022 0 0 0-.36.244 1.29 1.29 0 0 0-.313.857v.054h2.18v-.084c0-.352-.097-.633-.291-.842-.189-.214-.441-.321-.757-.321zm7.295 4.452h-1.774c-.439 0-.839-.074-1.201-.222a2.587 2.587 0 0 1-.918-.635 2.857 2.857 0 0 1-.596-.979 3.837 3.837 0 0 1-.207-1.293c0-.474.071-.908.214-1.3.143-.393.344-.729.605-1.01.26-.285.573-.507.94-.665a3.087 3.087 0 0 1 1.232-.237c.357 0 .706.056 1.048.168.341.107.642.278.902.512.265.235.477.541.635.918.163.372.245.821.245 1.346 0 .266-.026.515-.077.75a1.912 1.912 0 0 1-.229.62 1.305 1.305 0 0 1-.413.42 1.158 1.158 0 0 1-.612.153c-.245 0-.428-.061-.551-.183a.804.804 0 0 1-.222-.475h-.03a1.399 1.399 0 0 1-.375.482c-.148.118-.339.176-.574.176-.178 0-.349-.033-.512-.099a1.259 1.259 0 0 1-.421-.314 1.496 1.496 0 0 1-.29-.52 2.352 2.352 0 0 1-.108-.749c0-.286.036-.533.108-.742.071-.215.168-.391.29-.528a1.254 1.254 0 0 1 .933-.413c.235 0 .421.058.559.176.137.112.242.25.313.413h.031v-.52h.528v2.325c0 .199.033.334.099.405.072.067.179.1.321.1.24 0 .421-.123.543-.367.123-.245.184-.582.184-1.01v-.352c0-.337-.061-.642-.184-.918a2.034 2.034 0 0 0-.489-.704 2.235 2.235 0 0 0-.742-.451 2.598 2.598 0 0 0-.918-.16c-.367 0-.701.063-1.002.191a2.31 2.31 0 0 0-.78.535c-.219.225-.39.49-.513.796a2.678 2.678 0 0 0-.175.979v.451c0 .362.058.694.175.994.118.301.281.561.49.781.214.219.469.387.765.504.296.123.625.184.987.184h1.766v.467zm-1.851-1.959c.271 0 .47-.063.597-.191.133-.127.199-.308.199-.543v-.933a.682.682 0 0 0-.191-.49c-.128-.132-.329-.198-.605-.198-.275 0-.476.079-.604.237-.127.158-.191.369-.191.635v.611c0 .266.064.477.191.635.128.158.329.237.604.237zm4.159-4.627h.611v2.356h.031c.097-.225.232-.403.405-.536.179-.132.416-.199.712-.199.408 0 .729.133.964.398.239.26.359.63.359 1.109v2.532h-.612v-2.425c0-.708-.298-1.063-.895-1.063-.122 0-.242.015-.359.046a1.062 1.062 0 0 0-.306.138.7.7 0 0 0-.222.237.667.667 0 0 0-.077.329v2.738h-.611v-5.66zm7.253 5.66c-.229 0-.395-.061-.497-.184a.921.921 0 0 1-.183-.458h-.039a1.017 1.017 0 0 1-.428.55 1.325 1.325 0 0 1-.711.184c-.418 0-.745-.107-.979-.321-.23-.215-.344-.505-.344-.872 0-.373.135-.658.405-.857.275-.199.701-.298 1.277-.298h.78v-.39c0-.281-.076-.495-.229-.643-.153-.148-.388-.222-.704-.222a1.08 1.08 0 0 0-.604.161c-.158.107-.291.25-.398.428l-.367-.344c.107-.214.278-.395.513-.543.234-.153.53-.23.887-.23.479 0 .851.118 1.117.352.265.235.397.561.397.979v2.173h.452v.535h-.345zm-1.759-.428c.153 0 .293-.018.421-.054.127-.036.237-.087.329-.153a.758.758 0 0 0 .214-.229.549.549 0 0 0 .076-.283v-.65h-.81c-.352 0-.61.051-.773.153a.495.495 0 0 0-.237.443v.161c0 .194.069.344.207.451.142.107.334.161.573.161zm3.015.428v-3.947h.612v.643h.031c.097-.225.232-.403.405-.536.179-.132.416-.199.711-.199.408 0 .73.133.964.398.24.26.36.63.36 1.109v2.532h-.612v-2.425c0-.708-.298-1.063-.895-1.063a1.41 1.41 0 0 0-.36.046 1.062 1.062 0 0 0-.306.138.707.707 0 0 0-.221.237.667.667 0 0 0-.077.329v2.738h-.612zm4.386-5.66h.612v3.587h.03l.605-.673 1.116-1.201h.742l-1.461 1.561 1.607 2.386h-.742l-1.308-2.012-.589.605v1.407h-.612v-5.66zm5.436 5.752c-.265 0-.507-.049-.727-.146a1.617 1.617 0 0 1-.566-.413 2.074 2.074 0 0 1-.359-.65 2.639 2.639 0 0 1-.13-.856c0-.311.043-.594.13-.849.087-.255.207-.472.359-.651a1.6 1.6 0 0 1 .566-.42c.22-.097.462-.146.727-.146.265 0 .505.049.719.146.219.097.408.237.566.42.158.179.281.396.367.651.087.255.13.538.13.849 0 .316-.043.601-.13.856-.086.25-.209.467-.367.65a1.608 1.608 0 0 1-.566.413 1.724 1.724 0 0 1-.719.146zm0-.543c.332 0 .602-.102.811-.306.209-.204.314-.515.314-.933v-.566c0-.419-.105-.73-.314-.934-.209-.204-.479-.305-.811-.305-.331 0-.602.101-.811.305-.209.204-.313.515-.313.934v.566c0 .418.104.729.313.933.209.204.48.306.811.306zm3.068.543c-.164 0-.283-.041-.36-.123a.47.47 0 0 1-.107-.321v-.099c0-.133.036-.24.107-.322.077-.081.196-.122.36-.122.163 0 .28.041.351.122a.45.45 0 0 1 .115.322v.099c0 .133-.038.24-.115.321-.071.082-.188.123-.351.123zm2.038-4.964c-.133 0-.23-.031-.291-.092a.378.378 0 0 1-.084-.252v-.1c0-.102.028-.184.084-.245.061-.066.158-.099.291-.099.132 0 .227.033.283.099a.332.332 0 0 1 .092.245v.1a.359.359 0 0 1-.092.252c-.056.061-.151.092-.283.092zm-.306.925h.612v3.947h-.612v-3.947zm3.442 4.039c-.265 0-.508-.049-.727-.146a1.608 1.608 0 0 1-.566-.413 2.034 2.034 0 0 1-.359-.65 2.639 2.639 0 0 1-.13-.856c0-.311.043-.594.13-.849.086-.255.206-.472.359-.651a1.59 1.59 0 0 1 .566-.42c.219-.097.462-.146.727-.146.265 0 .505.049.719.146.219.097.408.237.566.42.158.179.28.396.367.651.087.255.13.538.13.849 0 .316-.043.601-.13.856-.087.25-.209.467-.367.65a1.608 1.608 0 0 1-.566.413 1.724 1.724 0 0 1-.719.146zm0-.543c.331 0 .602-.102.811-.306.209-.204.313-.515.313-.933v-.566c0-.419-.104-.73-.313-.934-.209-.204-.48-.305-.811-.305-.332 0-.602.101-.811.305-.209.204-.314.515-.314.934v.566c0 .418.105.729.314.933.209.204.479.306.811.306zM415.332 161.56a.477.477 0 0 0-.674-.674l-2.335 2.335-2.335-2.335a.477.477 0 0 0-.674.674l2.335 2.335-2.335 2.335a.476.476 0 1 0 .674.675l2.335-2.336 2.335 2.336a.477.477 0 1 0 .674-.675l-2.335-2.335 2.335-2.335zM541.048 31.08c-.611 0-1.091-.205-1.439-.615-.348-.415-.522-1.015-.522-1.8 0-.393.044-.74.134-1.038.089-.3.218-.551.388-.756a1.6 1.6 0 0 1 .616-.462c.245-.107.519-.16.823-.16.406 0 .745.088 1.017.267.277.178.493.442.649.79l-.635.348a1.134 1.134 0 0 0-.375-.53c-.165-.133-.384-.2-.656-.2-.362 0-.645.123-.85.368-.205.246-.308.585-.308 1.017v.71c0 .433.103.772.308 1.017.205.246.488.368.85.368.281 0 .508-.071.682-.214.179-.147.311-.335.395-.562l.609.368c-.156.34-.374.605-.655.797-.282.191-.625.287-1.031.287zm2.468-.08v-3.48h.73v.669h.033a.94.94 0 0 1 .308-.468c.156-.134.372-.201.649-.201h.194v.703h-.288c-.29 0-.513.046-.669.14a.456.456 0 0 0-.227.415V31h-.73zm3.928.08c-.25 0-.473-.042-.669-.127a1.406 1.406 0 0 1-.502-.361 1.726 1.726 0 0 1-.321-.576 2.5 2.5 0 0 1-.107-.756c0-.277.035-.527.107-.75.076-.227.183-.42.321-.575.138-.16.306-.284.502-.368a1.67 1.67 0 0 1 .669-.128c.255 0 .478.045.669.134.197.09.36.215.489.375.129.156.225.34.288.549.067.21.1.435.1.676v.274h-2.389v.114c0 .268.078.489.234.663.161.17.388.254.683.254a.99.99 0 0 0 .542-.14c.147-.094.272-.221.375-.382l.428.422a1.402 1.402 0 0 1-.562.515 1.867 1.867 0 0 1-.857.187zm0-3.072a.816.816 0 0 0-.616.254.875.875 0 0 0-.167.288c-.04.112-.06.235-.06.369v.046h1.62v-.067c0-.267-.07-.481-.208-.642a.702.702 0 0 0-.569-.248zM552.381 31c-.192 0-.339-.053-.441-.16a.746.746 0 0 1-.188-.422h-.033a.858.858 0 0 1-.368.495 1.204 1.204 0 0 1-.65.167c-.361 0-.64-.093-.836-.28-.192-.188-.288-.44-.288-.757 0-.348.125-.61.375-.783.254-.174.624-.261 1.111-.261h.629v-.295c0-.214-.058-.379-.174-.495-.116-.116-.297-.174-.542-.174a.865.865 0 0 0-.502.134c-.13.09-.239.203-.328.341l-.435-.395c.116-.196.279-.356.488-.481.21-.13.484-.195.824-.195.45 0 .796.105 1.037.315.241.21.361.51.361.903v1.747h.368V31h-.408zm-1.472-.475c.227 0 .415-.05.562-.147a.476.476 0 0 0 .221-.409v-.502h-.616c-.504 0-.756.157-.756.469v.12c0 .156.051.275.154.355.107.076.252.114.435.114zm3.573.475c-.254 0-.446-.065-.576-.194-.129-.134-.194-.321-.194-.562v-2.129h-.542v-.595h.295c.12 0 .203-.027.247-.08.049-.054.074-.141.074-.262v-.609h.656v.95h.729v.596h-.729v2.29h.676V31h-.636zm2.853.08c-.249 0-.473-.042-.669-.127a1.406 1.406 0 0 1-.502-.361 1.726 1.726 0 0 1-.321-.576 2.531 2.531 0 0 1-.107-.756c0-.277.036-.527.107-.75.076-.227.183-.42.321-.575.138-.16.306-.284.502-.368.196-.085.42-.128.669-.128.255 0 .478.045.67.134.196.09.359.215.488.375.13.156.226.34.288.549.067.21.1.435.1.676v.274h-2.389v.114c0 .268.078.489.234.663.161.17.389.254.683.254a.99.99 0 0 0 .542-.14c.147-.094.272-.221.375-.382l.428.422a1.402 1.402 0 0 1-.562.515 1.864 1.864 0 0 1-.857.187zm0-3.072a.801.801 0 0 0-.615.254.86.86 0 0 0-.168.288c-.04.112-.06.235-.06.369v.046h1.62v-.067c0-.267-.069-.481-.208-.642a.702.702 0 0 0-.569-.248zM563.888 31c-.192 0-.34-.053-.442-.16a.752.752 0 0 1-.188-.422h-.033a.858.858 0 0 1-.368.495 1.203 1.203 0 0 1-.649.167c-.362 0-.641-.093-.837-.28-.192-.188-.288-.44-.288-.757 0-.348.125-.61.375-.783.254-.174.625-.261 1.111-.261h.629v-.295c0-.214-.058-.379-.174-.495-.116-.116-.297-.174-.542-.174a.865.865 0 0 0-.502.134 1.2 1.2 0 0 0-.328.341l-.435-.395c.116-.196.279-.356.489-.481.209-.13.484-.195.823-.195.451 0 .796.105 1.037.315.241.21.362.51.362.903v1.747h.368V31h-.408zm-1.473-.475c.228 0 .415-.05.562-.147a.474.474 0 0 0 .221-.409v-.502h-.616c-.504 0-.756.157-.756.469v.12c0 .156.051.275.154.355.107.076.252.114.435.114zm3.974.555c-.249 0-.472-.042-.669-.127a1.347 1.347 0 0 1-.495-.361 1.685 1.685 0 0 1-.308-.576 2.531 2.531 0 0 1-.107-.756c0-.277.036-.527.107-.75.071-.227.174-.42.308-.575.134-.16.299-.284.495-.368.197-.085.42-.128.669-.128.348 0 .634.078.857.235.223.156.386.363.489.622l-.603.281a.727.727 0 0 0-.743-.529c-.267 0-.47.085-.609.255-.133.165-.2.381-.2.649v.622c0 .268.067.487.2.656.139.165.342.248.609.248.215 0 .384-.051.509-.154.13-.107.232-.248.308-.422l.555.295c-.116.285-.29.504-.522.656-.232.151-.515.227-.85.227zm3.406 0c-.249 0-.472-.042-.669-.127a1.347 1.347 0 0 1-.495-.361 1.685 1.685 0 0 1-.308-.576 2.531 2.531 0 0 1-.107-.756c0-.277.036-.527.107-.75.071-.227.174-.42.308-.575.134-.16.299-.284.495-.368.197-.085.42-.128.669-.128.348 0 .634.078.857.235.223.156.386.363.489.622l-.603.281a.727.727 0 0 0-.743-.529c-.267 0-.47.085-.609.255-.133.165-.2.381-.2.649v.622c0 .268.067.487.2.656.139.165.342.248.609.248.215 0 .384-.051.509-.154.13-.107.232-.248.308-.422l.555.295c-.116.285-.29.504-.522.656-.232.151-.515.227-.85.227zm3.427 0a1.69 1.69 0 0 1-.663-.127 1.406 1.406 0 0 1-.502-.361 1.726 1.726 0 0 1-.321-.576 2.377 2.377 0 0 1-.114-.756c0-.277.038-.527.114-.75.076-.227.183-.42.321-.575.138-.16.306-.284.502-.368.201-.085.422-.128.663-.128.24 0 .459.043.655.128.201.084.371.207.509.368.138.156.245.348.321.575.076.223.114.473.114.75 0 .276-.038.529-.114.756a1.726 1.726 0 0 1-.321.576 1.39 1.39 0 0 1-.509.361 1.637 1.637 0 0 1-.655.127zm0-.602c.249 0 .45-.076.602-.228.152-.156.227-.388.227-.696v-.589c0-.308-.075-.537-.227-.689a.803.803 0 0 0-.602-.234c-.25 0-.451.078-.603.234-.152.152-.227.381-.227.69v.588c0 .308.075.54.227.696.152.152.353.228.603.228zm4.554-.054h-.027a1.2 1.2 0 0 1-.127.248.801.801 0 0 1-.475.355 1.195 1.195 0 0 1-.375.053c-.362 0-.643-.116-.844-.348-.196-.232-.294-.564-.294-.997V27.52h.729v2.121c0 .54.224.81.67.81.093 0 .185-.011.274-.033a.765.765 0 0 0 .234-.114.515.515 0 0 0 .168-.187.525.525 0 0 0 .067-.268v-2.33h.729V31h-.729v-.576zm1.807.576v-3.48h.73v.575h.033a1.16 1.16 0 0 1 .342-.468c.156-.125.368-.188.635-.188.357 0 .634.119.83.355.201.232.301.565.301.997V31h-.729v-2.115c0-.544-.219-.816-.656-.816a1.02 1.02 0 0 0-.522.147.593.593 0 0 0-.174.187.566.566 0 0 0-.06.268V31h-.73zm4.88 0c-.255 0-.446-.065-.576-.194-.129-.134-.194-.321-.194-.562v-2.129h-.542v-.595h.294c.121 0 .203-.027.248-.08.049-.054.074-.141.074-.262v-.609h.656v.95h.729v.596h-.729v2.29h.676V31h-.636zM538.719 31.81h46.701v.515h-46.701v-.515zM465.72 26.328h1.566c.29 0 .553.05.79.148.236.098.437.245.602.441.17.192.299.435.388.73.09.29.134.629.134 1.017 0 .388-.044.73-.134 1.024-.089.29-.218.533-.388.73a1.587 1.587 0 0 1-.602.435c-.237.098-.5.147-.79.147h-1.566v-4.672zm1.566 4.177c.192 0 .368-.031.529-.094.161-.067.299-.163.415-.288.116-.125.205-.276.268-.455.067-.183.1-.39.1-.622v-.763c0-.232-.033-.438-.1-.616a1.28 1.28 0 0 0-.268-.462 1.103 1.103 0 0 0-.415-.28 1.364 1.364 0 0 0-.529-.101h-1.004v3.68h1.004zm4.209.575c-.232 0-.444-.042-.636-.127a1.425 1.425 0 0 1-.495-.361 1.78 1.78 0 0 1-.314-.57 2.316 2.316 0 0 1-.114-.749c0-.272.038-.52.114-.743a1.69 1.69 0 0 1 .314-.569 1.39 1.39 0 0 1 .495-.368c.192-.084.404-.127.636-.127.232 0 .442.043.629.127.192.085.357.208.496.369.138.156.245.345.321.568.076.223.114.471.114.743 0 .277-.038.527-.114.75a1.738 1.738 0 0 1-.321.569 1.429 1.429 0 0 1-.496.361 1.509 1.509 0 0 1-.629.127zm0-.475c.29 0 .527-.09.71-.268.183-.178.274-.45.274-.816v-.495c0-.366-.091-.638-.274-.817-.183-.178-.42-.268-.71-.268s-.526.09-.709.268c-.183.179-.275.45-.275.817v.495c0 .366.092.638.275.816.183.179.419.268.709.268zm2.474.395v-3.453h.535v.562h.027c.085-.197.203-.353.355-.469.156-.116.363-.174.622-.174.357 0 .638.116.843.348.21.228.315.551.315.97V31h-.536v-2.122c0-.62-.261-.93-.783-.93-.107 0-.212.014-.314.04a.91.91 0 0 0-.268.12.62.62 0 0 0-.194.208.58.58 0 0 0-.067.288V31h-.535zm4.6 0c-.187 0-.33-.051-.428-.154a.606.606 0 0 1-.141-.415v-2.416h-.569v-.468h.322c.116 0 .194-.023.234-.067.044-.05.067-.132.067-.248v-.642h.482v.957h.756v.468h-.756v2.517h.702V31h-.669zm3.232-4.953h.535v2.062h.027c.085-.197.203-.353.355-.469.156-.116.364-.174.622-.174.357 0 .638.116.844.348.209.228.314.551.314.97V31h-.535v-2.122c0-.62-.261-.93-.783-.93-.107 0-.212.014-.315.04a.922.922 0 0 0-.268.12.62.62 0 0 0-.194.208.59.59 0 0 0-.067.288V31h-.535v-4.953zM488.148 31c-.201 0-.346-.053-.435-.16a.808.808 0 0 1-.16-.402h-.034a.895.895 0 0 1-.375.482c-.174.107-.381.16-.622.16-.366 0-.652-.093-.857-.28-.201-.188-.301-.442-.301-.764 0-.326.118-.575.355-.75.241-.173.613-.26 1.117-.26h.683v-.342c0-.245-.067-.433-.201-.562-.134-.13-.339-.194-.615-.194a.944.944 0 0 0-.529.14 1.168 1.168 0 0 0-.348.375l-.321-.3c.093-.188.243-.347.448-.476.205-.134.464-.2.776-.2.42 0 .745.102.977.307.232.205.348.49.348.857v1.9h.395V31h-.301zm-1.539-.375c.134 0 .256-.015.368-.047a.918.918 0 0 0 .288-.133.658.658 0 0 0 .187-.201.476.476 0 0 0 .067-.248v-.569h-.709c-.308 0-.534.045-.676.134a.433.433 0 0 0-.208.388v.14c0 .17.06.302.181.396.125.093.292.14.502.14zm3.349.375-1.212-3.453h.536l.602 1.713.375 1.178h.033l.375-1.178.616-1.713h.515L490.58 31h-.622zm3.81.08c-.236 0-.45-.042-.642-.127a1.44 1.44 0 0 1-.489-.361 1.8 1.8 0 0 1-.314-.57 2.435 2.435 0 0 1-.107-.749c0-.272.035-.52.107-.743.076-.223.18-.412.314-.569.139-.16.301-.283.489-.368.192-.084.406-.127.642-.127.232 0 .44.043.623.127.183.085.339.203.468.355.13.147.228.324.295.529.071.205.107.43.107.676v.254h-2.483v.16c0 .148.022.286.067.416.049.125.116.234.201.328a.955.955 0 0 0 .321.22c.129.054.274.08.435.08.218 0 .408-.05.569-.153a1 1 0 0 0 .381-.442l.382.275a1.354 1.354 0 0 1-.522.575 1.604 1.604 0 0 1-.844.214zm0-3.165a.974.974 0 0 0-.401.08.89.89 0 0 0-.315.214 1.127 1.127 0 0 0-.274.75v.047h1.907v-.074c0-.308-.084-.553-.254-.736-.165-.188-.386-.281-.663-.281zM500.302 31c-.201 0-.346-.053-.435-.16a.81.81 0 0 1-.161-.402h-.034a.888.888 0 0 1-.374.482c-.174.107-.382.16-.623.16-.366 0-.651-.093-.856-.28-.201-.188-.302-.442-.302-.764 0-.326.119-.575.355-.75.241-.173.614-.26 1.118-.26h.682v-.342c0-.245-.067-.433-.2-.562-.134-.13-.339-.194-.616-.194a.944.944 0 0 0-.529.14 1.18 1.18 0 0 0-.348.375l-.321-.3a1.2 1.2 0 0 1 .448-.476c.206-.134.464-.2.777-.2.419 0 .745.102.977.307.232.205.348.49.348.857v1.9h.395V31h-.301zm-1.54-.375c.134 0 .257-.015.368-.047a.897.897 0 0 0 .288-.133.658.658 0 0 0 .187-.201.476.476 0 0 0 .067-.248v-.569h-.709c-.308 0-.533.045-.676.134a.434.434 0 0 0-.207.388v.14c0 .17.06.302.18.396.125.093.293.14.502.14zM501.4 31v-3.453h.536v.562h.027c.084-.197.203-.353.354-.469.156-.116.364-.174.623-.174.357 0 .638.116.843.348.21.228.315.551.315.97V31h-.536v-2.122c0-.62-.261-.93-.783-.93-.107 0-.212.014-.314.04a.898.898 0 0 0-.268.12.61.61 0 0 0-.194.208.58.58 0 0 0-.067.288V31h-.536zm7.963 0c-.201 0-.346-.053-.435-.16a.81.81 0 0 1-.161-.402h-.033a.895.895 0 0 1-.375.482c-.174.107-.382.16-.623.16-.366 0-.651-.093-.856-.28-.201-.188-.302-.442-.302-.764 0-.326.119-.575.355-.75.241-.173.614-.26 1.118-.26h.683v-.342c0-.245-.067-.433-.201-.562-.134-.13-.339-.194-.616-.194a.944.944 0 0 0-.529.14 1.18 1.18 0 0 0-.348.375l-.321-.3a1.2 1.2 0 0 1 .448-.476c.206-.134.464-.2.777-.2.419 0 .745.102.977.307.232.205.348.49.348.857v1.9h.395V31h-.301zm-1.54-.375c.134 0 .257-.015.368-.047a.897.897 0 0 0 .288-.133.661.661 0 0 0 .188-.201.486.486 0 0 0 .067-.248v-.569h-.71c-.308 0-.533.045-.676.134a.434.434 0 0 0-.207.388v.14c0 .17.06.302.18.396.125.093.293.14.502.14zm3.923.455c-.24 0-.457-.042-.649-.127a1.355 1.355 0 0 1-.488-.361 1.668 1.668 0 0 1-.301-.57 2.602 2.602 0 0 1-.101-.749c0-.276.034-.526.101-.75.071-.222.171-.412.301-.568.134-.156.296-.277.488-.362.192-.084.409-.127.649-.127.344 0 .618.076.824.228.209.147.366.341.468.582l-.448.228a.814.814 0 0 0-.308-.415.924.924 0 0 0-.536-.148c-.16 0-.301.027-.421.08a.768.768 0 0 0-.301.215.855.855 0 0 0-.181.328c-.04.125-.06.263-.06.415v.589c0 .303.08.553.241.75.165.191.406.287.722.287.433 0 .746-.2.937-.602l.389.26c-.112.25-.279.45-.502.596-.219.148-.493.221-.824.221zm3.361 0c-.241 0-.458-.042-.649-.127a1.359 1.359 0 0 1-.489-.361 1.685 1.685 0 0 1-.301-.57 2.602 2.602 0 0 1-.101-.749c0-.276.034-.526.101-.75.071-.222.172-.412.301-.568.134-.156.297-.277.489-.362.191-.084.408-.127.649-.127.343 0 .618.076.823.228.21.147.366.341.468.582l-.448.228a.809.809 0 0 0-.308-.415.923.923 0 0 0-.535-.148c-.161 0-.301.027-.422.08a.775.775 0 0 0-.301.215.868.868 0 0 0-.181.328c-.04.125-.06.263-.06.415v.589c0 .303.08.553.241.75.165.191.406.287.723.287.433 0 .745-.2.937-.602l.388.26c-.112.25-.279.45-.502.596-.219.148-.493.221-.823.221zm3.38 0c-.232 0-.444-.042-.636-.127a1.416 1.416 0 0 1-.495-.361 1.801 1.801 0 0 1-.315-.57 2.344 2.344 0 0 1-.113-.749c0-.272.038-.52.113-.743.076-.223.181-.412.315-.569a1.38 1.38 0 0 1 .495-.368c.192-.084.404-.127.636-.127.232 0 .442.043.629.127.192.085.357.208.495.369.139.156.246.345.322.568.076.223.113.471.113.743 0 .277-.037.527-.113.75a1.722 1.722 0 0 1-.322.569 1.416 1.416 0 0 1-.495.361 1.509 1.509 0 0 1-.629.127zm0-.475c.29 0 .527-.09.709-.268.183-.178.275-.45.275-.816v-.495c0-.366-.092-.638-.275-.817-.182-.178-.419-.268-.709-.268s-.526.09-.709.268c-.183.179-.275.45-.275.817v.495c0 .366.092.638.275.816.183.179.419.268.709.268zm4.602-.167h-.027c-.036.08-.08.16-.134.24a.899.899 0 0 1-.187.208.94.94 0 0 1-.275.14 1.184 1.184 0 0 1-.374.054c-.357 0-.641-.113-.85-.341-.21-.232-.315-.558-.315-.977v-2.215h.535v2.121c0 .62.264.93.79.93.107 0 .21-.013.308-.04a.816.816 0 0 0 .268-.12.591.591 0 0 0 .261-.502v-2.39h.535V31h-.535v-.562zm1.709.562v-3.453h.535v.562h.027c.085-.197.203-.353.355-.469.156-.116.363-.174.622-.174.357 0 .638.116.843.348.21.228.315.551.315.97V31h-.535v-2.122c0-.62-.261-.93-.783-.93a1.24 1.24 0 0 0-.315.04.922.922 0 0 0-.268.12.62.62 0 0 0-.194.208.59.59 0 0 0-.067.288V31h-.535zm4.6 0c-.187 0-.33-.051-.428-.154a.606.606 0 0 1-.141-.415v-2.416h-.569v-.468h.322c.116 0 .194-.023.234-.067.044-.05.067-.132.067-.248v-.642h.482v.957h.756v.468h-.756v2.517h.702V31h-.669zm2.246-1.392V28.51c.366-.018.652-.107.857-.267a.787.787 0 0 0 .314-.663v-.094c0-.227-.071-.408-.214-.542-.143-.138-.334-.207-.575-.207-.259 0-.467.073-.623.22a1.122 1.122 0 0 0-.308.563l-.495-.188c.04-.142.098-.279.174-.408a1.352 1.352 0 0 1 .716-.589c.161-.058.346-.087.556-.087.415 0 .743.114.984.341.24.228.361.536.361.924a1.302 1.302 0 0 1-.395.964c-.116.111-.248.2-.395.267a1.864 1.864 0 0 1-.442.141v.723h-.515zm.261 1.472c-.143 0-.247-.035-.314-.107a.409.409 0 0 1-.094-.28v-.088c0-.116.031-.21.094-.281.067-.071.171-.107.314-.107s.246.036.308.107c.067.071.1.165.1.281v.087c0 .116-.033.21-.1.281-.062.072-.165.107-.308.107z" fill="#042F4B"/><path d="M16 18c0-5.523 4.477-10 10-10h65.038v359.811H26c-5.523 0-10-4.477-10-10V18z" fill="#1B304F"/><circle cx="37.77" cy="29" r="8" fill="url(#b)"/></g><defs><linearGradient id="b" x1="45.131" y1="26.238" x2="33.77" y2="35.88" gradientUnits="userSpaceOnUse"><stop offset=".073" stop-color="#CBD3FF"/><stop offset="1" stop-color="#506CF0"/></linearGradient><filter id="a" x=".798" y=".399" width="615.403" height="390.403" filterUnits="userSpaceOnUse" color-interpolation-filters="sRGB"><feFlood flood-opacity="0" result="BackgroundImageFix"/><feColorMatrix in="SourceAlpha" values="0 0 0 0 0 0 0 0 0 0 0 0 0 0 0 0 0 0 127 0" result="hardAlpha"/><feOffset dy="7.601"/><feGaussianBlur stdDeviation="7.601"/><feColorMatrix values="0 0 0 0 0 0 0 0 0 0 0 0 0 0 0 0 0 0 0.15 0"/><feBlend in2="BackgroundImageFix" result="effect1_dropShadow_1312_3116"/><feBlend in="SourceGraphic" in2="effect1_dropShadow_1312_3116" result="shape"/></filter></defs></svg>