<svg width="892" height="653" fill="none" xmlns="http://www.w3.org/2000/svg"><path d="M0 4.996A4.996 4.996 0 0 1 4.996 0h837.287a4.996 4.996 0 0 1 4.996 4.996V539.54a4.996 4.996 0 0 1-4.996 4.996H4.996A4.996 4.996 0 0 1 0 539.541V4.996z" fill="#1D384A"/><g clip-path="url(#a)"><rect x="511.566" y="54.953" width="379.677" height="597.492" rx="7.469" fill="#fff"/><path d="M552.59 315.574c-1.536 0-2.839-.259-3.907-.776a9.107 9.107 0 0 1-2.73-2.054l2.505-2.529c1.185 1.335 2.646 2.003 4.382 2.003.935 0 1.628-.192 2.079-.576.451-.384.676-.893.676-1.528 0-.484-.134-.884-.401-1.202-.267-.334-.809-.559-1.628-.676l-1.728-.225c-1.853-.234-3.214-.793-4.082-1.678-.851-.885-1.277-2.062-1.277-3.531 0-.785.15-1.503.451-2.154.3-.651.726-1.211 1.277-1.678.568-.468 1.252-.827 2.054-1.077.818-.267 1.744-.401 2.78-.401 1.319 0 2.479.209 3.481.626a7.076 7.076 0 0 1 2.579 1.829l-2.529 2.554a4.879 4.879 0 0 0-1.528-1.177c-.584-.317-1.327-.476-2.229-.476-.851 0-1.486.15-1.903.451-.418.301-.626.718-.626 1.252 0 .601.158 1.035.476 1.302.333.268.868.46 1.602.576l1.728.276c1.804.284 3.139.843 4.007 1.678.869.818 1.303 1.987 1.303 3.506 0 .835-.151 1.603-.451 2.304a4.887 4.887 0 0 1-1.327 1.803c-.568.501-1.278.893-2.129 1.177-.852.267-1.82.401-2.905.401zM564.211 300.723c-.752 0-1.303-.167-1.653-.501-.334-.35-.501-.793-.501-1.327v-.551c0-.534.167-.969.501-1.302.35-.351.901-.526 1.653-.526.751 0 1.294.175 1.628.526.35.333.525.768.525 1.302v.551c0 .534-.175.977-.525 1.327-.334.334-.877.501-1.628.501zm-1.854 1.402h3.707v13.148h-3.707v-13.148zM581.695 316.225c0 .701-.126 1.319-.376 1.853-.234.535-.626.985-1.177 1.353-.551.384-1.286.668-2.204.851-.902.201-2.02.301-3.356.301-1.135 0-2.103-.075-2.905-.226-.785-.133-1.427-.334-1.928-.601-.484-.25-.843-.567-1.077-.951-.217-.368-.326-.793-.326-1.278 0-.734.217-1.31.651-1.728.434-.417 1.036-.676 1.804-.776v-.275c-.635-.117-1.111-.384-1.428-.802a2.48 2.48 0 0 1-.476-1.502c0-.351.067-.652.201-.902.15-.267.333-.493.551-.676.233-.201.5-.359.801-.476.3-.117.601-.209.902-.276v-.1c-.802-.367-1.395-.868-1.779-1.502-.384-.651-.576-1.403-.576-2.254 0-1.336.46-2.405 1.378-3.206.935-.818 2.354-1.227 4.257-1.227.868 0 1.611.083 2.229.25v-.501c0-.701.167-1.202.501-1.502.351-.317.843-.476 1.478-.476h2.078v2.755h-2.905v.15c.768.367 1.336.877 1.703 1.528.367.634.551 1.377.551 2.229 0 1.319-.467 2.379-1.402 3.18-.919.785-2.329 1.177-4.233 1.177a9.174 9.174 0 0 1-2.329-.275c-.384.25-.576.601-.576 1.052 0 .317.117.567.351.751.25.167.659.25 1.227.25h3.807c1.602 0 2.763.334 3.481 1.002.734.668 1.102 1.611 1.102 2.83zm-3.481.501c0-.384-.151-.676-.451-.876-.301-.201-.827-.301-1.578-.301h-4.508a1.717 1.717 0 0 0-.376.551c-.066.217-.1.426-.1.626 0 .484.209.835.626 1.052.418.234 1.127.35 2.129.35h1.503c1.001 0 1.711-.116 2.128-.35.418-.217.627-.568.627-1.052zm-3.582-8.54c.735 0 1.278-.15 1.628-.451.367-.317.551-.768.551-1.352v-.301c0-.584-.184-1.026-.551-1.327-.35-.317-.893-.476-1.628-.476-.734 0-1.285.159-1.653.476-.35.301-.526.743-.526 1.327v.301c0 .584.176 1.035.526 1.352.368.301.919.451 1.653.451zM583.341 315.273v-13.148h3.707v2.229h.15a4.04 4.04 0 0 1 1.227-1.778c.585-.501 1.395-.751 2.43-.751 1.352 0 2.37.451 3.055 1.352.701.902 1.052 2.187 1.052 3.857v8.239h-3.707v-7.938c0-.852-.133-1.478-.4-1.879-.267-.417-.743-.626-1.428-.626-.3 0-.593.042-.876.125a2.19 2.19 0 0 0-.777.351 1.927 1.927 0 0 0-.526.626c-.133.234-.2.509-.2.827v8.514h-3.707zM606.032 300.723c-.751 0-1.302-.167-1.653-.501-.334-.35-.501-.793-.501-1.327v-.551c0-.534.167-.969.501-1.302.351-.351.902-.526 1.653-.526s1.294.175 1.628.526c.35.333.526.768.526 1.302v.551c0 .534-.176.977-.526 1.327-.334.334-.877.501-1.628.501zm-1.853 1.402h3.706v13.148h-3.706v-13.148zM611.345 315.273v-13.148h3.706v2.229h.15a4.035 4.035 0 0 1 1.228-1.778c.584-.501 1.394-.751 2.429-.751 1.352 0 2.371.451 3.055 1.352.701.902 1.052 2.187 1.052 3.857v8.239h-3.706v-7.938c0-.852-.134-1.478-.401-1.879-.267-.417-.743-.626-1.428-.626-.3 0-.592.042-.876.125a2.19 2.19 0 0 0-.777.351 1.927 1.927 0 0 0-.526.626c-.133.234-.2.509-.2.827v8.514h-3.706zM636.79 315.273c-1.286 0-2.262-.325-2.93-.976-.651-.651-.977-1.603-.977-2.855v-6.437h-1.853v-2.88h.927c.5 0 .843-.116 1.026-.35.184-.251.276-.601.276-1.052v-2.154h3.331v3.556h2.604v2.88h-2.604v7.388h2.404v2.88h-2.204zM647.006 315.574c-.969 0-1.837-.159-2.605-.476a5.305 5.305 0 0 1-1.928-1.377c-.518-.601-.919-1.328-1.202-2.179-.284-.852-.426-1.803-.426-2.855s.142-2.004.426-2.855c.283-.852.684-1.569 1.202-2.154a5.305 5.305 0 0 1 1.928-1.377c.768-.317 1.636-.476 2.605-.476.968 0 1.828.159 2.579.476a5.033 5.033 0 0 1 1.928 1.377c.535.585.944 1.302 1.228 2.154.283.851.425 1.803.425 2.855s-.142 2.003-.425 2.855c-.284.851-.693 1.578-1.228 2.179a5.033 5.033 0 0 1-1.928 1.377c-.751.317-1.611.476-2.579.476zm0-2.93c.734 0 1.302-.226 1.703-.676.4-.451.601-1.094.601-1.929v-2.679c0-.835-.201-1.478-.601-1.929-.401-.451-.969-.676-1.703-.676-.735 0-1.303.225-1.703.676-.401.451-.601 1.094-.601 1.929v2.679c0 .835.2 1.478.601 1.929.4.45.968.676 1.703.676zM667.261 307.009l-1.678-3.506h-.075v11.77h-3.582v-17.48h4.158l4.783 8.264 1.678 3.506h.075v-11.77h3.581v17.48h-4.157l-4.783-8.264zM685.333 315.574c-1.002 0-1.895-.159-2.68-.476a5.888 5.888 0 0 1-2.003-1.377c-.534-.601-.943-1.328-1.227-2.179-.267-.852-.401-1.803-.401-2.855 0-1.035.134-1.97.401-2.805.267-.851.659-1.578 1.177-2.179a5.256 5.256 0 0 1 1.953-1.377c.768-.334 1.645-.501 2.63-.501 1.085 0 2.012.184 2.78.551.784.367 1.419.86 1.903 1.477.501.618.86 1.336 1.077 2.154.234.802.351 1.645.351 2.53v1.102h-8.44v.2c0 .868.233 1.561.701 2.079.467.5 1.202.751 2.204.751.768 0 1.394-.15 1.878-.451a7.802 7.802 0 0 0 1.352-1.127l1.854 2.304c-.585.685-1.353 1.219-2.304 1.603-.935.384-2.004.576-3.206.576zm-.075-11.019c-.751 0-1.344.25-1.778.751-.418.484-.626 1.135-.626 1.953v.201h4.608v-.226c0-.801-.184-1.444-.551-1.928-.351-.501-.902-.751-1.653-.751zM692.243 315.273l4.332-6.686-4.282-6.462h4.207l2.454 4.133h.101l2.379-4.133h3.907l-4.358 6.587 4.383 6.561h-4.208l-2.529-4.282h-.1l-2.43 4.282h-3.856zM712.142 315.273c-1.286 0-2.263-.325-2.93-.976-.652-.651-.977-1.603-.977-2.855v-6.437h-1.853v-2.88h.926c.501 0 .843-.116 1.027-.35.184-.251.276-.601.276-1.052v-2.154h3.33v3.556h2.605v2.88h-2.605v7.388h2.405v2.88h-2.204zM726.846 297.793v10.719c0 1.235.242 2.162.726 2.78.484.601 1.294.901 2.43.901 1.135 0 1.945-.3 2.429-.901.484-.618.726-1.545.726-2.78v-10.719h3.707v10.318c0 1.286-.126 2.404-.376 3.356-.234.935-.626 1.711-1.177 2.329-.551.601-1.261 1.052-2.129 1.352-.868.284-1.928.426-3.18.426-1.253 0-2.313-.142-3.181-.426-.868-.3-1.578-.751-2.129-1.352-.551-.618-.951-1.394-1.202-2.329-.234-.952-.35-2.07-.35-3.356v-10.318h3.706zM740.428 315.273v-13.148h3.707v2.229h.15a4.04 4.04 0 0 1 1.227-1.778c.585-.501 1.394-.751 2.429-.751 1.353 0 2.371.451 3.056 1.352.701.902 1.052 2.187 1.052 3.857v8.239h-3.707v-7.938c0-.852-.133-1.478-.401-1.879-.267-.417-.743-.626-1.427-.626-.301 0-.593.042-.877.125a2.193 2.193 0 0 0-.776.351 1.927 1.927 0 0 0-.526.626c-.133.234-.2.509-.2.827v8.514h-3.707zM757.2 300.723c-.751 0-1.302-.167-1.653-.501-.334-.35-.501-.793-.501-1.327v-.551c0-.534.167-.969.501-1.302.351-.351.902-.526 1.653-.526.752 0 1.294.175 1.628.526.351.333.526.768.526 1.302v.551c0 .534-.175.977-.526 1.327-.334.334-.876.501-1.628.501zm-1.853 1.402h3.706v13.148h-3.706v-13.148zM767.822 315.574c-.985 0-1.861-.159-2.629-.476a5.433 5.433 0 0 1-1.929-1.377c-.517-.601-.91-1.328-1.177-2.179-.267-.852-.401-1.803-.401-2.855s.134-1.995.401-2.83c.267-.851.66-1.578 1.177-2.179a5.044 5.044 0 0 1 1.929-1.377c.768-.317 1.644-.476 2.629-.476 1.336 0 2.446.3 3.331.902.902.601 1.544 1.444 1.928 2.529l-3.005 1.302a2.522 2.522 0 0 0-.726-1.277c-.368-.351-.877-.526-1.528-.526-.751 0-1.319.251-1.703.751-.384.485-.576 1.144-.576 1.979v2.454c0 .835.192 1.494.576 1.979.384.484.952.726 1.703.726.668 0 1.194-.175 1.578-.526.401-.367.693-.843.876-1.428l2.88 1.253c-.434 1.252-1.11 2.17-2.028 2.754-.902.585-2.004.877-3.306.877zM780.663 315.574c-.969 0-1.837-.159-2.605-.476a5.305 5.305 0 0 1-1.928-1.377c-.518-.601-.919-1.328-1.202-2.179-.284-.852-.426-1.803-.426-2.855s.142-2.004.426-2.855c.283-.852.684-1.569 1.202-2.154a5.305 5.305 0 0 1 1.928-1.377c.768-.317 1.636-.476 2.605-.476.968 0 1.828.159 2.579.476a5.033 5.033 0 0 1 1.928 1.377c.535.585.944 1.302 1.228 2.154.283.851.425 1.803.425 2.855s-.142 2.003-.425 2.855c-.284.851-.693 1.578-1.228 2.179a5.033 5.033 0 0 1-1.928 1.377c-.751.317-1.611.476-2.579.476zm0-2.93c.734 0 1.302-.226 1.703-.676.4-.451.601-1.094.601-1.929v-2.679c0-.835-.201-1.478-.601-1.929-.401-.451-.969-.676-1.703-.676-.735 0-1.303.225-1.703.676-.401.451-.601 1.094-.601 1.929v2.679c0 .835.2 1.478.601 1.929.4.45.968.676 1.703.676zM789.464 315.273v-13.148h3.707v2.855h.125c.067-.367.184-.717.351-1.051.167-.351.384-.66.651-.927a3.085 3.085 0 0 1 1.002-.626c.384-.167.834-.251 1.352-.251h.651v3.457h-.927c-1.085 0-1.895.141-2.429.425-.517.284-.776.81-.776 1.578v7.688h-3.707zM799.59 315.273v-13.148h3.706v2.229h.15a4.04 4.04 0 0 1 1.227-1.778c.585-.501 1.395-.751 2.43-.751 1.352 0 2.37.451 3.055 1.352.701.902 1.052 2.187 1.052 3.857v8.239h-3.707v-7.938c0-.852-.133-1.478-.4-1.879-.267-.417-.743-.626-1.428-.626-.3 0-.593.042-.876.125a2.19 2.19 0 0 0-.777.351 1.927 1.927 0 0 0-.526.626c-.133.234-.2.509-.2.827v8.514h-3.706z" fill="#042F4B"/><path d="M545 415.709c0-.944.765-1.709 1.709-1.709h307.582c.944 0 1.709.765 1.709 1.709v39.251c0 .944-.765 1.709-1.709 1.709H546.709A1.709 1.709 0 0 1 545 454.96v-39.251z" fill="#506CF0"/><path d="M683.744 440.024c-.843 0-1.561-.153-2.154-.459a4.815 4.815 0 0 1-1.508-1.235l1.12-1.049c.354.431.742.757 1.163.977.431.22.919.33 1.465.33.641 0 1.125-.143 1.45-.431.326-.287.489-.675.489-1.163 0-.392-.115-.703-.345-.933-.23-.23-.637-.402-1.221-.517l-.89-.158c-.976-.182-1.709-.503-2.197-.962-.488-.46-.732-1.092-.732-1.896 0-.44.081-.837.244-1.192.172-.363.407-.665.703-.904a3.279 3.279 0 0 1 1.106-.575 4.873 4.873 0 0 1 1.45-.201c.757 0 1.412.134 1.968.402a3.876 3.876 0 0 1 1.421 1.135l-1.134 1.005a2.95 2.95 0 0 0-.948-.804c-.373-.201-.837-.302-1.393-.302-.574 0-1.019.115-1.335.345-.316.23-.474.565-.474 1.005 0 .421.129.737.388.948.258.201.66.354 1.206.459l.89.187c1.005.191 1.738.517 2.197.976.469.46.704 1.092.704 1.896 0 .469-.081.895-.244 1.278a2.726 2.726 0 0 1-.718.991 3.335 3.335 0 0 1-1.135.632c-.45.143-.962.215-1.536.215zM690.072 431.049c-.326 0-.565-.076-.718-.23a.823.823 0 0 1-.216-.588v-.245c0-.239.072-.435.216-.588.153-.153.392-.23.718-.23.325 0 .56.077.703.23a.823.823 0 0 1 .216.588v.245a.823.823 0 0 1-.216.588c-.143.154-.378.23-.703.23zm-.79 1.336h1.565v7.467h-1.565v-7.467zM699.702 440.555c0 .776-.297 1.36-.89 1.752-.594.393-1.561.589-2.901.589a8.128 8.128 0 0 1-1.565-.129c-.421-.077-.771-.192-1.048-.345a1.513 1.513 0 0 1-.589-.56 1.514 1.514 0 0 1-.187-.761c0-.412.11-.732.33-.962.23-.23.546-.388.948-.474v-.158c-.565-.182-.847-.565-.847-1.149 0-.383.129-.675.388-.876.258-.21.569-.359.933-.445v-.057a2.417 2.417 0 0 1-1.019-.876c-.23-.383-.345-.828-.345-1.336 0-.765.254-1.383.761-1.852.517-.469 1.254-.704 2.211-.704.527 0 .977.077 1.35.23v-.201c0-.335.077-.594.23-.775.163-.192.412-.288.747-.288h1.149v1.264h-1.523v.302c.335.22.594.507.776.861.182.345.273.733.273 1.163 0 .757-.259 1.369-.776 1.838-.517.46-1.254.69-2.211.69-.364 0-.69-.039-.977-.115a1.534 1.534 0 0 0-.502.287.558.558 0 0 0-.216.46c0 .201.091.344.273.43.182.087.44.13.776.13h1.838c.919 0 1.584.186 1.996.56.411.363.617.866.617 1.507zm-1.465.173c0-.259-.1-.465-.301-.618-.192-.153-.546-.229-1.063-.229h-2.527c-.345.201-.517.488-.517.861 0 .306.12.551.359.732.249.192.665.288 1.249.288h.977c1.216 0 1.823-.345 1.823-1.034zm-2.34-4.567c.459 0 .813-.1 1.062-.301.259-.211.388-.532.388-.962v-.288c0-.43-.129-.746-.388-.947-.249-.211-.603-.316-1.062-.316-.46 0-.819.105-1.077.316-.249.201-.374.517-.374.947v.288c0 .43.125.751.374.962.258.201.617.301 1.077.301zM700.939 439.852v-7.467h1.565v1.235h.072c.162-.403.407-.738.732-1.006.335-.268.79-.402 1.364-.402.766 0 1.36.254 1.781.761.431.498.646 1.211.646 2.14v4.739h-1.565v-4.538c0-1.168-.469-1.752-1.407-1.752-.201 0-.402.029-.604.086a1.588 1.588 0 0 0-.516.23 1.241 1.241 0 0 0-.374.402 1.214 1.214 0 0 0-.129.575v4.997h-1.565zM713.596 431.049c-.326 0-.565-.076-.718-.23a.823.823 0 0 1-.216-.588v-.245c0-.239.072-.435.216-.588.153-.153.392-.23.718-.23.325 0 .56.077.703.23a.823.823 0 0 1 .216.588v.245a.823.823 0 0 1-.216.588c-.143.154-.378.23-.703.23zm-.79 1.336h1.565v7.467h-1.565v-7.467zM716.678 439.852v-7.467h1.565v1.235h.072c.163-.403.407-.738.732-1.006.336-.268.79-.402 1.365-.402.766 0 1.359.254 1.78.761.431.498.646 1.211.646 2.14v4.739h-1.565v-4.538c0-1.168-.469-1.752-1.407-1.752-.201 0-.402.029-.603.086a1.583 1.583 0 0 0-.517.23 1.238 1.238 0 0 0-.373.402c-.087.163-.13.354-.13.575v4.997h-1.565z" fill="#EFF3F5"/><path fill-rule="evenodd" clip-rule="evenodd" d="M545 352.709c0-.944.765-1.709 1.709-1.709h307.128c.944 0 1.709.765 1.709 1.709v38.808c0 .944-.765 1.709-1.709 1.709H546.709a1.709 1.709 0 0 1-1.709-1.709v-38.808z" fill="#fff"/><path fill-rule="evenodd" clip-rule="evenodd" d="M544.375 352.708a2.334 2.334 0 0 1 2.335-2.335h307.128a2.334 2.334 0 0 1 2.335 2.335v38.808a2.334 2.334 0 0 1-2.335 2.335H546.71a2.334 2.334 0 0 1-2.335-2.335v-38.808zm2.335-1.083c-.598 0-1.083.485-1.083 1.083v38.808c0 .598.485 1.083 1.083 1.083h307.128c.598 0 1.083-.485 1.083-1.083v-38.808c0-.598-.485-1.083-1.083-1.083H546.71z" fill="#36596F"/><path d="M562.917 369.443h1.149v8.559c0 .517-.129.933-.388 1.249-.258.316-.665.474-1.22.474h-.747v-1.005h1.206v-9.277zm.575-1.737c-.249 0-.431-.058-.546-.173a.708.708 0 0 1-.158-.474v-.186c0-.192.053-.345.158-.46.115-.124.297-.186.546-.186.248 0 .426.062.531.186a.62.62 0 0 1 .172.46v.186a.67.67 0 0 1-.172.474c-.105.115-.283.173-.531.173zM571.964 376.853c-.431 0-.742-.115-.933-.345a1.743 1.743 0 0 1-.345-.861h-.072c-.163.459-.431.804-.804 1.034-.373.229-.819.344-1.336.344-.785 0-1.397-.201-1.838-.603-.43-.402-.646-.948-.646-1.637 0-.699.254-1.235.761-1.608.517-.374 1.317-.56 2.398-.56h1.465v-.733c0-.526-.143-.928-.431-1.206-.287-.277-.727-.416-1.321-.416-.45 0-.828.1-1.134.301a2.514 2.514 0 0 0-.747.804l-.689-.646c.201-.402.522-.742.962-1.019.44-.288.996-.431 1.666-.431.9 0 1.598.22 2.096.66.498.441.747 1.054.747 1.839v4.078h.847v1.005h-.646zm-3.303-.804c.287 0 .551-.034.79-.101s.445-.162.617-.287c.173-.124.307-.268.403-.431.095-.162.143-.34.143-.531v-1.221h-1.522c-.661 0-1.144.096-1.45.288a.93.93 0 0 0-.446.832v.302c0 .364.13.646.388.847.268.201.627.302 1.077.302zM574.322 376.853v-7.41h1.148v1.206h.058c.182-.421.435-.756.761-1.005.335-.249.78-.373 1.335-.373.766 0 1.369.249 1.81.747.45.488.675 1.182.675 2.082v4.753h-1.149v-4.552c0-1.331-.56-1.996-1.68-1.996-.23 0-.455.029-.675.086a1.972 1.972 0 0 0-.575.258 1.327 1.327 0 0 0-.416.446 1.248 1.248 0 0 0-.144.617v5.141h-1.148zM585.341 377.025c-.508 0-.967-.091-1.379-.273a3.075 3.075 0 0 1-1.048-.775 3.88 3.88 0 0 1-.675-1.221 5.26 5.26 0 0 1-.23-1.608c0-.584.077-1.115.23-1.594.163-.479.388-.885.675-1.22a3.005 3.005 0 0 1 1.048-.79 3.375 3.375 0 0 1 1.379-.273c.498 0 .943.091 1.335.273.393.182.728.435 1.006.761.277.316.488.694.631 1.134.154.441.23.924.23 1.451v.545h-5.327v.345c0 .316.047.613.143.89.106.268.249.503.431.704.191.201.421.359.689.474.278.115.589.172.934.172.469 0 .876-.11 1.22-.33.354-.22.627-.536.819-.948l.818.589a2.89 2.89 0 0 1-1.12 1.235c-.507.306-1.11.459-1.809.459zm0-6.792a2.1 2.1 0 0 0-.862.172 1.944 1.944 0 0 0-.675.46 2.23 2.23 0 0 0-.43.718 2.401 2.401 0 0 0-.158.89v.101h4.092v-.158c0-.661-.182-1.187-.545-1.58-.355-.402-.829-.603-1.422-.603zM590.96 377.025c-.306 0-.531-.076-.675-.229-.134-.154-.201-.355-.201-.604v-.186c0-.249.067-.45.201-.603.144-.154.369-.23.675-.23.306 0 .526.076.66.23.144.153.216.354.216.603v.186c0 .249-.072.45-.216.604-.134.153-.354.229-.66.229zM598.67 375.647h-.057c-.45.919-1.173 1.378-2.169 1.378-.459 0-.876-.091-1.249-.273a2.772 2.772 0 0 1-.962-.775 3.71 3.71 0 0 1-.603-1.221 5.956 5.956 0 0 1-.201-1.608c0-.593.067-1.13.201-1.608a3.71 3.71 0 0 1 .603-1.221c.268-.335.589-.593.962-.775.373-.182.79-.273 1.249-.273.517 0 .958.115 1.322.345.373.22.655.564.847 1.033h.057v-4.422h1.149v10.626h-1.149v-1.206zm-1.91.344c.259 0 .503-.033.733-.1.239-.067.445-.163.617-.287a1.45 1.45 0 0 0 .402-.474c.106-.192.158-.407.158-.646v-2.758a1.05 1.05 0 0 0-.158-.56 1.317 1.317 0 0 0-.402-.459 1.921 1.921 0 0 0-.617-.287 2.292 2.292 0 0 0-.733-.115c-.651 0-1.163.206-1.536.617-.374.402-.56.934-.56 1.594v1.264c0 .66.186 1.197.56 1.608.373.402.885.603 1.536.603zM605.133 377.025a3.34 3.34 0 0 1-1.364-.273 3.038 3.038 0 0 1-1.063-.775 3.858 3.858 0 0 1-.674-1.221 4.963 4.963 0 0 1-.245-1.608c0-.584.082-1.115.245-1.594.162-.479.387-.885.674-1.22a2.97 2.97 0 0 1 1.063-.79 3.34 3.34 0 0 1 1.364-.273c.498 0 .948.091 1.35.273a2.97 2.97 0 0 1 1.063.79c.297.335.526.741.689 1.22.163.479.244 1.01.244 1.594 0 .594-.081 1.13-.244 1.608a3.72 3.72 0 0 1-.689 1.221 3.038 3.038 0 0 1-1.063.775 3.237 3.237 0 0 1-1.35.273zm0-1.019c.623 0 1.13-.192 1.522-.575.393-.383.589-.967.589-1.752v-1.062c0-.785-.196-1.369-.589-1.752-.392-.383-.899-.575-1.522-.575-.622 0-1.129.192-1.522.575-.392.383-.589.967-.589 1.752v1.062c0 .785.197 1.369.589 1.752.393.383.9.575 1.522.575zM613.226 377.025a3.37 3.37 0 0 1-1.378-.273 3.08 3.08 0 0 1-1.049-.775 3.88 3.88 0 0 1-.675-1.221 5.262 5.262 0 0 1-.229-1.608c0-.584.076-1.115.229-1.594.163-.479.388-.885.675-1.22a3.009 3.009 0 0 1 1.049-.79 3.37 3.37 0 0 1 1.378-.273c.498 0 .943.091 1.336.273a2.92 2.92 0 0 1 1.005.761c.278.316.488.694.632 1.134.153.441.229.924.229 1.451v.545h-5.327v.345c0 .316.048.613.144.89.105.268.248.503.43.704.192.201.422.359.69.474.277.115.588.172.933.172.469 0 .876-.11 1.221-.33.354-.22.627-.536.818-.948l.819.589c-.24.507-.613.919-1.12 1.235-.508.306-1.111.459-1.81.459zm0-6.792c-.316 0-.603.057-.861.172a1.926 1.926 0 0 0-.675.46c-.182.201-.326.44-.431.718a2.422 2.422 0 0 0-.158.89v.101h4.093v-.158c0-.661-.182-1.187-.546-1.58-.354-.402-.828-.603-1.422-.603zM626.923 378.591h-3.331c-.824 0-1.575-.139-2.255-.417a4.85 4.85 0 0 1-1.723-1.192 5.377 5.377 0 0 1-1.12-1.838c-.259-.727-.388-1.536-.388-2.427 0-.89.134-1.704.402-2.441a5.51 5.51 0 0 1 1.135-1.895 5.06 5.06 0 0 1 1.766-1.25c.689-.297 1.46-.445 2.312-.445.67 0 1.326.105 1.967.316a4.521 4.521 0 0 1 1.695.962c.498.44.895 1.015 1.192 1.723.306.699.459 1.542.459 2.528 0 .497-.048.967-.144 1.407-.086.44-.229.828-.43 1.163-.201.326-.46.589-.776.79-.316.191-.699.287-1.149.287-.459 0-.804-.115-1.033-.345-.23-.229-.369-.526-.417-.89h-.057c-.192.383-.426.685-.704.905-.278.22-.637.33-1.077.33a2.52 2.52 0 0 1-.962-.187 2.343 2.343 0 0 1-.79-.588 2.821 2.821 0 0 1-.546-.977c-.134-.402-.201-.871-.201-1.407s.067-1 .201-1.393c.134-.402.316-.732.546-.991.23-.258.493-.45.79-.574.306-.134.627-.201.962-.201.44 0 .79.11 1.048.33.259.211.455.469.589.775h.057v-.976h.991v4.365c0 .374.063.627.187.761.134.125.335.187.603.187.45 0 .79-.23 1.02-.689.229-.46.344-1.091.344-1.896v-.66c0-.632-.115-1.206-.344-1.723a3.823 3.823 0 0 0-.919-1.322 4.204 4.204 0 0 0-1.393-.847 4.87 4.87 0 0 0-1.723-.301c-.69 0-1.317.119-1.882.359a4.338 4.338 0 0 0-1.464 1.005 4.486 4.486 0 0 0-.962 1.493 5.003 5.003 0 0 0-.331 1.838v.848c0 .679.11 1.302.331 1.866.22.565.526 1.054.919 1.465.402.412.88.728 1.436.948.555.23 1.172.345 1.852.345h3.317v.876zm-3.475-3.677c.507 0 .881-.119 1.12-.359.249-.239.373-.579.373-1.019v-1.752c0-.364-.119-.67-.359-.919-.239-.249-.617-.374-1.134-.374-.517 0-.895.149-1.134.446-.24.296-.359.694-.359 1.192v1.148c0 .498.119.895.359 1.192.239.297.617.445 1.134.445zM637.501 377.671c0 .766-.301 1.326-.905 1.681-.593.363-1.488.545-2.685.545-1.158 0-1.991-.158-2.499-.474-.507-.316-.761-.765-.761-1.349 0-.403.106-.718.316-.948.211-.22.498-.383.862-.488v-.158c-.44-.211-.661-.556-.661-1.034 0-.374.12-.656.359-.848.24-.201.546-.349.919-.445v-.057a2.444 2.444 0 0 1-1.034-.905c-.239-.392-.359-.847-.359-1.364 0-.373.067-.718.202-1.034.134-.316.32-.584.56-.804.248-.23.54-.407.876-.531a3.343 3.343 0 0 1 1.148-.187c.527 0 .996.096 1.408.287v-.129c0-.287.067-.522.201-.704.134-.191.354-.287.66-.287h1.106v1.005h-1.407v.474c.268.23.474.507.617.833.153.316.23.675.23 1.077 0 .373-.067.718-.201 1.034a2.34 2.34 0 0 1-.575.818 2.533 2.533 0 0 1-.876.517 3.343 3.343 0 0 1-1.148.187c-.24 0-.479-.024-.718-.072a2.272 2.272 0 0 0-.675.302.59.59 0 0 0-.302.531c0 .22.105.369.316.445.211.077.484.115.819.115h1.579c.919 0 1.585.177 1.996.531.421.345.632.824.632 1.436zm-1.077.087a.87.87 0 0 0-.345-.718c-.22-.173-.617-.259-1.191-.259h-2.47c-.46.211-.69.546-.69 1.005 0 .326.12.603.359.833.249.23.666.345 1.25.345h1.062c.642 0 1.14-.101 1.494-.302.354-.201.531-.502.531-.904zm-2.57-4.294c.488 0 .876-.115 1.163-.345.287-.239.431-.603.431-1.091v-.402c0-.488-.144-.847-.431-1.077-.287-.239-.675-.359-1.163-.359-.489 0-.876.12-1.163.359-.288.23-.431.589-.431 1.077v.402c0 .488.143.852.431 1.091.287.23.674.345 1.163.345zM638.913 376.853v-7.41h1.149v1.206h.057c.086-.191.182-.368.287-.531.115-.172.249-.321.403-.445a1.82 1.82 0 0 1 .56-.287 2.17 2.17 0 0 1 .746-.115c.489 0 .938.12 1.35.359.412.23.718.613.919 1.149h.029c.134-.402.383-.752.747-1.049.373-.306.876-.459 1.507-.459.757 0 1.345.249 1.767.747.43.488.646 1.182.646 2.082v4.753h-1.149v-4.552c0-.661-.129-1.159-.388-1.494-.258-.335-.67-.502-1.235-.502-.229 0-.45.029-.66.086a1.806 1.806 0 0 0-.546.258 1.259 1.259 0 0 0-.531 1.063v5.141h-1.149v-4.552c0-.661-.129-1.159-.388-1.494-.258-.335-.66-.502-1.206-.502-.23 0-.45.029-.66.086a1.782 1.782 0 0 0-.561.258 1.406 1.406 0 0 0-.402.446 1.259 1.259 0 0 0-.143.617v5.141h-1.149zM656.907 376.853c-.431 0-.742-.115-.934-.345a1.743 1.743 0 0 1-.344-.861h-.072c-.163.459-.431.804-.804 1.034-.374.229-.819.344-1.336.344-.785 0-1.397-.201-1.838-.603-.431-.402-.646-.948-.646-1.637 0-.699.254-1.235.761-1.608.517-.374 1.316-.56 2.398-.56h1.465v-.733c0-.526-.144-.928-.431-1.206-.287-.277-.727-.416-1.321-.416-.45 0-.828.1-1.134.301a2.514 2.514 0 0 0-.747.804l-.689-.646c.201-.402.521-.742.962-1.019.44-.288.995-.431 1.665-.431.9 0 1.599.22 2.097.66.498.441.747 1.054.747 1.839v4.078h.847v1.005h-.646zm-3.303-.804c.287 0 .55-.034.79-.101.239-.067.445-.162.617-.287.173-.124.307-.268.402-.431.096-.162.144-.34.144-.531v-1.221h-1.522c-.661 0-1.144.096-1.451.288a.931.931 0 0 0-.445.832v.302c0 .364.129.646.388.847.268.201.627.302 1.077.302zM659.839 367.706c-.249 0-.431-.058-.546-.173a.708.708 0 0 1-.158-.474v-.186c0-.192.053-.345.158-.46.115-.124.297-.186.546-.186.249 0 .426.062.531.186a.62.62 0 0 1 .172.46v.186a.67.67 0 0 1-.172.474c-.105.115-.282.173-.531.173zm-.575 1.737h1.149v7.41h-1.149v-7.41zM664.147 376.853c-.402 0-.709-.11-.919-.33-.201-.23-.302-.517-.302-.862v-9.434h1.149v9.621h1.091v1.005h-1.019zM667.783 377.025c-.306 0-.531-.076-.675-.229-.134-.154-.201-.355-.201-.604v-.186c0-.249.067-.45.201-.603.144-.154.369-.23.675-.23.306 0 .527.076.661.23.143.153.215.354.215.603v.186c0 .249-.072.45-.215.604-.134.153-.355.229-.661.229zM673.652 377.025c-.517 0-.981-.091-1.393-.273a2.895 2.895 0 0 1-1.048-.775 3.605 3.605 0 0 1-.646-1.221 5.567 5.567 0 0 1-.216-1.608c0-.593.072-1.13.216-1.608.153-.479.368-.886.646-1.221a2.907 2.907 0 0 1 1.048-.775 3.412 3.412 0 0 1 1.393-.273c.737 0 1.326.163 1.766.488.45.316.785.732 1.005 1.249l-.962.489a1.748 1.748 0 0 0-.66-.891c-.307-.21-.69-.316-1.149-.316a2.21 2.21 0 0 0-.905.173 1.658 1.658 0 0 0-.646.459 1.877 1.877 0 0 0-.388.704 2.903 2.903 0 0 0-.129.89v1.264c0 .651.172 1.187.517 1.608.354.412.871.618 1.551.618.929 0 1.599-.431 2.01-1.293l.833.56a2.923 2.923 0 0 1-1.077 1.278c-.469.316-1.058.474-1.766.474zM680.905 377.025c-.498 0-.953-.091-1.364-.273a3.038 3.038 0 0 1-1.063-.775 3.88 3.88 0 0 1-.675-1.221 4.963 4.963 0 0 1-.244-1.608c0-.584.081-1.115.244-1.594.163-.479.388-.885.675-1.22a2.97 2.97 0 0 1 1.063-.79 3.333 3.333 0 0 1 1.364-.273c.498 0 .948.091 1.35.273.411.182.765.445 1.062.79.297.335.527.741.69 1.22a4.95 4.95 0 0 1 .244 1.594 4.99 4.99 0 0 1-.244 1.608 3.722 3.722 0 0 1-.69 1.221 3.043 3.043 0 0 1-1.062.775 3.237 3.237 0 0 1-1.35.273zm0-1.019c.622 0 1.129-.192 1.522-.575.392-.383.589-.967.589-1.752v-1.062c0-.785-.197-1.369-.589-1.752-.393-.383-.9-.575-1.522-.575s-1.13.192-1.522.575c-.393.383-.589.967-.589 1.752v1.062c0 .785.196 1.369.589 1.752.392.383.9.575 1.522.575zM686.212 376.853v-7.41h1.149v1.206h.057c.086-.191.182-.368.287-.531.115-.172.249-.321.402-.445.163-.124.35-.22.56-.287a2.18 2.18 0 0 1 .747-.115c.488 0 .938.12 1.35.359.412.23.718.613.919 1.149h.029c.134-.402.383-.752.746-1.049.374-.306.876-.459 1.508-.459.756 0 1.345.249 1.766.747.431.488.647 1.182.647 2.082v4.753h-1.149v-4.552c0-.661-.129-1.159-.388-1.494-.258-.335-.67-.502-1.235-.502-.23 0-.45.029-.66.086a1.806 1.806 0 0 0-.546.258 1.259 1.259 0 0 0-.531 1.063v5.141h-1.149v-4.552c0-.661-.129-1.159-.388-1.494-.258-.335-.66-.502-1.206-.502-.23 0-.45.029-.661.086-.21.057-.397.144-.56.258a1.406 1.406 0 0 0-.402.446 1.248 1.248 0 0 0-.143.617v5.141h-1.149zM840.613 367.792a.832.832 0 0 0-1.177-1.177l-4.078 4.078-4.078-4.078a.832.832 0 0 0-1.177 1.177l4.078 4.078-4.078 4.078a.832.832 0 0 0 1.177 1.177l4.078-4.078 4.078 4.078a.832.832 0 0 0 1.177-1.177l-4.078-4.078 4.078-4.078z" fill="#042F4B"/><path d="M511.566 54.953h379.677v67.942H511.566V54.953z" fill="#1B304F"/><path d="M572.969 88.985c0 9.932-8.052 17.984-17.984 17.984-9.933 0-17.985-8.052-17.985-17.984C537 79.052 545.052 71 554.985 71c9.932 0 17.984 8.052 17.984 17.985z" fill="url(#b)"/></g><path d="M285.758 203.805c0-1.104.894-1.998 1.998-1.998h165.859c1.104 0 1.998.894 1.998 1.998v40.965a1.997 1.997 0 0 1-1.998 1.998H287.756a1.997 1.997 0 0 1-1.998-1.998v-40.965z" fill="#031F32"/><path d="M288.754 206.803c0-1.104.895-1.998 1.998-1.998h69.941c1.103 0 1.998.894 1.998 1.998v34.97a1.999 1.999 0 0 1-1.998 1.999h-69.941a1.999 1.999 0 0 1-1.998-1.999v-34.97z" fill="#506CF0"/><path d="M286.906 183.062h4.518c.401 0 .76.061 1.077.182.327.121.602.289.826.504.224.214.391.48.503.797.122.308.182.648.182 1.021 0 .373-.051.69-.154.951a1.715 1.715 0 0 1-.391.63 1.536 1.536 0 0 1-.56.377 1.881 1.881 0 0 1-.643.14v.084c.214 0 .443.042.685.126.252.084.48.219.686.406.214.177.391.41.531.699.14.28.21.63.21 1.049 0 .392-.065.76-.196 1.105a2.68 2.68 0 0 1-.517.881c-.224.252-.49.453-.798.602-.308.14-.643.21-1.007.21h-4.952v-9.764zm1.847 8.197h2.573c.355 0 .63-.088.826-.266.196-.186.294-.452.294-.797v-.476c0-.345-.098-.61-.294-.797-.196-.186-.471-.28-.826-.28h-2.573v2.616zm0-4.126h2.28c.335 0 .597-.089.783-.266.187-.187.28-.443.28-.769v-.434c0-.326-.093-.578-.28-.755-.186-.187-.448-.28-.783-.28h-2.28v2.504zM296.07 192.826v-7.302h1.79v1.511h.07c.047-.196.117-.383.21-.56a1.801 1.801 0 0 1 .951-.825 2.18 2.18 0 0 1 .769-.126h.392v1.693h-.559c-.607 0-1.064.088-1.371.265-.308.178-.462.467-.462.868v4.476h-1.79zM306.782 192.826c-.391 0-.704-.112-.937-.336-.224-.233-.364-.541-.42-.923h-.084c-.121.475-.368.834-.741 1.077-.373.233-.835.35-1.385.35-.746 0-1.319-.196-1.72-.588-.401-.392-.602-.914-.602-1.567 0-.755.271-1.314.812-1.678.54-.373 1.31-.56 2.308-.56h1.245v-.531c0-.41-.108-.728-.322-.951-.215-.224-.56-.336-1.035-.336-.42 0-.76.093-1.021.28a2.623 2.623 0 0 0-.644.643l-1.063-.951c.27-.42.629-.755 1.077-1.007.448-.261 1.04-.392 1.777-.392.988 0 1.739.224 2.252.672.513.447.769 1.091.769 1.93v3.441h.727v1.427h-.993zm-2.965-1.133c.401 0 .741-.089 1.021-.266.28-.177.42-.438.42-.783v-.966h-1.147c-.933 0-1.399.299-1.399.896v.238c0 .298.093.522.279.671.196.14.471.21.826.21zM309.224 192.826v-7.302h1.791v1.217h.07c.149-.392.382-.718.699-.979.327-.271.774-.406 1.343-.406.756 0 1.334.247 1.735.742.401.494.601 1.198.601 2.112v4.616h-1.79v-4.434c0-.523-.094-.914-.28-1.175-.187-.262-.494-.392-.923-.392a1.8 1.8 0 0 0-.546.084 1.381 1.381 0 0 0-.461.224 1.098 1.098 0 0 0-.322.363.962.962 0 0 0-.126.504v4.826h-1.791zM321.98 191.609h-.07c-.13.419-.378.755-.741 1.007a2.18 2.18 0 0 1-1.273.378c-.923 0-1.632-.331-2.126-.993-.485-.663-.728-1.609-.728-2.84 0-1.222.243-2.159.728-2.812.494-.662 1.203-.993 2.126-.993.485 0 .909.126 1.273.378a1.8 1.8 0 0 1 .741.993h.07v-4.252h1.791v10.351h-1.791v-1.217zm-1.511-.098c.429 0 .788-.103 1.077-.308.29-.205.434-.499.434-.881V188c0-.354-.144-.639-.434-.853-.289-.215-.648-.322-1.077-.322-.466 0-.844.158-1.133.476-.279.307-.419.722-.419 1.244v1.259c0 .523.14.938.419 1.245.289.308.667.462 1.133.462zM332.023 192.994c-.541 0-1.021-.089-1.441-.266a2.84 2.84 0 0 1-1.063-.769 3.557 3.557 0 0 1-.644-1.203 5.328 5.328 0 0 1-.223-1.595c0-.588.074-1.114.223-1.581.15-.466.364-.862.644-1.189a2.84 2.84 0 0 1 1.063-.769c.42-.177.9-.266 1.441-.266.736 0 1.343.163 1.818.49.485.326.835.778 1.049 1.357l-1.469.657a1.456 1.456 0 0 0-.475-.755c-.224-.205-.532-.308-.923-.308-.504 0-.882.158-1.133.476-.243.317-.364.732-.364 1.244v1.329c0 .513.121.928.364 1.245.251.308.629.462 1.133.462.429 0 .76-.107.993-.322.233-.224.415-.499.545-.825l1.371.657c-.242.644-.611 1.129-1.105 1.455-.494.317-1.096.476-1.804.476zM339.14 192.994c-.522 0-.993-.089-1.413-.266a3.008 3.008 0 0 1-1.063-.769 3.59 3.59 0 0 1-.671-1.203 5.017 5.017 0 0 1-.238-1.595c0-.588.079-1.114.238-1.581.158-.466.382-.862.671-1.189a3.008 3.008 0 0 1 1.063-.769c.42-.177.891-.266 1.413-.266s.993.089 1.413.266c.419.177.774.434 1.063.769.298.327.527.723.685 1.189.159.467.238.993.238 1.581 0 .587-.079 1.119-.238 1.595a3.468 3.468 0 0 1-.685 1.203 2.848 2.848 0 0 1-1.063.769c-.42.177-.891.266-1.413.266zm0-1.441c.476 0 .849-.145 1.119-.434.27-.289.406-.713.406-1.273v-1.357c0-.55-.136-.969-.406-1.258-.27-.29-.643-.434-1.119-.434-.466 0-.835.144-1.105.434-.271.289-.406.708-.406 1.258v1.357c0 .56.135.984.406 1.273.27.289.639.434 1.105.434zM345.917 192.826c-.616 0-1.068-.154-1.357-.462-.289-.308-.434-.741-.434-1.301v-8.588h1.791v8.924h.965v1.427h-.965zM351.134 192.994c-.523 0-.993-.089-1.413-.266a3 3 0 0 1-1.063-.769 3.609 3.609 0 0 1-.672-1.203 5.046 5.046 0 0 1-.237-1.595c0-.588.079-1.114.237-1.581.159-.466.383-.862.672-1.189a3 3 0 0 1 1.063-.769c.42-.177.89-.266 1.413-.266.522 0 .993.089 1.412.266.42.177.774.434 1.064.769.298.327.526.723.685 1.189.159.467.238.993.238 1.581 0 .587-.079 1.119-.238 1.595a3.484 3.484 0 0 1-.685 1.203c-.29.335-.644.592-1.064.769-.419.177-.89.266-1.412.266zm0-1.441c.475 0 .848-.145 1.119-.434.27-.289.405-.713.405-1.273v-1.357c0-.55-.135-.969-.405-1.258-.271-.29-.644-.434-1.119-.434-.467 0-.835.144-1.105.434-.271.289-.406.708-.406 1.258v1.357c0 .56.135.984.406 1.273.27.289.638.434 1.105.434zM356.12 192.826v-7.302h1.791v1.511h.07a2.36 2.36 0 0 1 .209-.56 1.82 1.82 0 0 1 .952-.825c.223-.084.48-.126.769-.126h.392v1.693h-.56c-.606 0-1.063.088-1.371.265-.308.178-.461.467-.461.868v4.476h-1.791zM386.143 221.066h-4.28l-.28 3.721h.098c.233-.326.494-.587.783-.783.298-.196.704-.294 1.217-.294.42 0 .807.07 1.161.21.354.14.662.34.923.601.261.252.462.565.602.938.149.373.224.797.224 1.272 0 .476-.075.914-.224 1.315-.15.392-.369.732-.658 1.021-.279.28-.625.499-1.035.658a3.717 3.717 0 0 1-1.371.238c-.41 0-.774-.047-1.091-.14a3.167 3.167 0 0 1-.825-.378 3.63 3.63 0 0 1-.644-.531 6.117 6.117 0 0 1-.489-.616l.881-.671c.121.196.247.373.378.531a2.6 2.6 0 0 0 .447.406c.168.112.359.2.574.266.214.056.471.084.769.084.672 0 1.18-.178 1.525-.532.345-.354.518-.853.518-1.497v-.14c0-.643-.173-1.142-.518-1.496-.345-.355-.853-.532-1.525-.532-.447 0-.802.084-1.063.252-.252.158-.48.35-.685.573l-.993-.139.349-5.372h5.232v1.035zM391.938 229.963c-1.165 0-2.019-.443-2.56-1.329-.531-.886-.797-2.126-.797-3.721 0-1.595.266-2.835.797-3.721.541-.886 1.395-1.329 2.56-1.329 1.166 0 2.015.443 2.546 1.329.541.886.811 2.126.811 3.721 0 1.595-.27 2.835-.811 3.721-.531.886-1.38 1.329-2.546 1.329zm0-1.021c.383 0 .709-.08.979-.238.271-.159.49-.383.658-.672.168-.289.289-.629.364-1.021a6.28 6.28 0 0 0 .125-1.301v-1.594c0-.476-.042-.91-.125-1.301a3.222 3.222 0 0 0-.364-1.021 1.822 1.822 0 0 0-.658-.672c-.27-.158-.596-.238-.979-.238-.382 0-.708.08-.979.238-.27.159-.489.383-.657.672a3.464 3.464 0 0 0-.378 1.021 6.932 6.932 0 0 0-.112 1.301v1.594c0 .476.037.91.112 1.301.084.392.21.732.378 1.021.168.289.387.513.657.672.271.158.597.238.979.238zM400.517 229.963c-.503 0-.96-.084-1.371-.252a3.05 3.05 0 0 1-1.035-.741 3.405 3.405 0 0 1-.643-1.189 5.14 5.14 0 0 1-.224-1.567c0-.728.107-1.408.322-2.042a7.703 7.703 0 0 1 .825-1.749 8.183 8.183 0 0 1 1.133-1.399c.41-.41.811-.741 1.203-.993h1.511c-.522.382-.989.755-1.399 1.119-.41.364-.769.746-1.077 1.147a6.545 6.545 0 0 0-.783 1.273 7.31 7.31 0 0 0-.518 1.525l.07.028c.233-.401.532-.732.895-.993.373-.271.858-.406 1.455-.406.42 0 .807.07 1.161.21.354.14.657.34.909.601.252.261.448.578.588.951.149.374.224.788.224 1.245 0 .476-.08.914-.238 1.315a2.867 2.867 0 0 1-1.679 1.679 3.596 3.596 0 0 1-1.329.238zm-.014-1.021c.644 0 1.143-.178 1.497-.532.364-.354.546-.863.546-1.525v-.112c0-.662-.182-1.17-.546-1.524-.354-.355-.853-.532-1.497-.532-.643 0-1.147.177-1.51.532-.355.354-.532.862-.532 1.524v.112c0 .662.177 1.171.532 1.525.363.354.867.532 1.51.532zM409.614 229.963c-1.24 0-2.206-.42-2.896-1.259-.69-.849-1.035-2.094-1.035-3.735s.345-2.9 1.035-3.777c.69-.886 1.656-1.329 2.896-1.329.82 0 1.506.187 2.056.56.56.373.993.9 1.301 1.58l-.951.574a2.66 2.66 0 0 0-.895-1.203c-.401-.308-.905-.462-1.511-.462-.42 0-.797.08-1.133.238a2.363 2.363 0 0 0-.839.686 3.14 3.14 0 0 0-.518 1.049 4.691 4.691 0 0 0-.182 1.357v1.454c0 1.007.233 1.795.7 2.364.466.569 1.123.854 1.972.854.625 0 1.147-.159 1.567-.476a2.83 2.83 0 0 0 .923-1.287l.937.588c-.308.69-.751 1.235-1.329 1.636-.578.392-1.278.588-2.098.588zM415.038 229.795v-9.764h5.819v1.035h-4.644v3.273h4.239v1.036h-4.239v4.42h-1.175zM425.925 229.963c-1.166 0-2.019-.443-2.56-1.329-.531-.886-.797-2.126-.797-3.721 0-1.595.266-2.835.797-3.721.541-.886 1.394-1.329 2.56-1.329 1.166 0 2.014.443 2.546 1.329.541.886.811 2.126.811 3.721 0 1.595-.27 2.835-.811 3.721-.532.886-1.38 1.329-2.546 1.329zm0-1.021c.382 0 .709-.08.979-.238.271-.159.49-.383.658-.672.168-.289.289-.629.363-1.021.084-.391.126-.825.126-1.301v-1.594c0-.476-.042-.91-.126-1.301a3.197 3.197 0 0 0-.363-1.021 1.822 1.822 0 0 0-.658-.672c-.27-.158-.597-.238-.979-.238s-.709.08-.979.238a1.82 1.82 0 0 0-.657.672 3.464 3.464 0 0 0-.378 1.021 6.932 6.932 0 0 0-.112 1.301v1.594c0 .476.037.91.112 1.301.084.392.21.732.378 1.021.167.289.387.513.657.672.27.158.597.238.979.238z" fill="#fff"/><path d="M85.93 103.912c0-1.103.894-1.998 1.998-1.998h365.689c1.103 0 1.998.895 1.998 1.998v40.966a1.999 1.999 0 0 1-1.998 1.998H87.928a1.998 1.998 0 0 1-1.998-1.998v-40.966z" fill="#031F32"/><path d="m106.298 123.735-1.231-2.366h-.048v8.537h-1.726v-11.159h2.014l3.645 6.171 1.231 2.366h.048v-8.537h1.727v11.159h-2.015l-3.645-6.171zM118.016 130.097c-.597 0-1.13-.101-1.599-.303a3.38 3.38 0 0 1-1.199-.864 4.106 4.106 0 0 1-.767-1.374 6.036 6.036 0 0 1-.256-1.807c0-.661.086-1.257.256-1.79a3.907 3.907 0 0 1 .767-1.375 3.277 3.277 0 0 1 1.199-.879c.469-.203 1.002-.304 1.599-.304.608 0 1.14.106 1.599.32.469.213.858.511 1.167.895.309.373.538.81.687 1.311.16.501.24 1.039.24 1.614v.656h-5.707v.272c0 .639.186 1.167.559 1.582.384.405.928.608 1.631.608.512 0 .943-.112 1.295-.336a2.93 2.93 0 0 0 .895-.911l1.023 1.007c-.309.511-.756.922-1.343 1.231-.586.298-1.268.447-2.046.447zm0-7.337c-.298 0-.575.053-.831.16a1.926 1.926 0 0 0-.64.447c-.17.192-.303.421-.399.688a2.573 2.573 0 0 0-.144.879v.112h3.869v-.16c0-.64-.166-1.151-.496-1.535-.33-.394-.783-.591-1.359-.591zM122.67 129.906l2.925-4.205-2.845-4.108h2.014l1.87 2.893h.048l1.919-2.893h1.854l-2.845 4.092 2.893 4.221h-2.014l-1.919-3.022h-.047l-1.999 3.022h-1.854zM134.554 129.906c-.608 0-1.066-.155-1.375-.464-.309-.32-.464-.767-.464-1.343v-5.084h-1.295v-1.422h.704c.288 0 .485-.064.591-.192.118-.128.176-.336.176-.624v-1.454h1.567v2.27h1.742v1.422h-1.742v5.468h1.615v1.423h-1.519zM144.062 118.747v6.874c0 .949.181 1.663.544 2.142.362.48.98.72 1.854.72.874 0 1.492-.24 1.855-.72.362-.479.543-1.193.543-2.142v-6.874h1.775v6.586c0 .821-.075 1.53-.224 2.127-.149.597-.389 1.092-.719 1.486-.331.384-.763.672-1.295.864-.523.192-1.167.287-1.935.287-.767 0-1.417-.095-1.95-.287a3.027 3.027 0 0 1-1.279-.864c-.33-.394-.57-.889-.719-1.486-.15-.597-.224-1.306-.224-2.127v-6.586h1.774zM153.361 129.906v-8.313h1.742v1.375h.08c.182-.448.453-.821.816-1.12.373-.298.879-.447 1.518-.447.853 0 1.514.282 1.983.847.479.554.719 1.348.719 2.382v5.276h-1.742v-5.052c0-1.3-.523-1.95-1.567-1.95-.224 0-.448.032-.672.095a1.773 1.773 0 0 0-.575.256 1.394 1.394 0 0 0-.416.448 1.345 1.345 0 0 0-.144.639v5.564h-1.742zM163.691 120.106c-.362 0-.629-.085-.799-.256a.918.918 0 0 1-.24-.655v-.272c0-.266.08-.485.24-.655.17-.171.437-.256.799-.256.363 0 .624.085.783.256.16.17.24.389.24.655v.272c0 .266-.08.485-.24.655-.159.171-.42.256-.783.256zm-.879 1.487h1.742v8.313h-1.742v-8.313zM170.434 130.097c-.597 0-1.13-.101-1.599-.303a3.219 3.219 0 0 1-1.183-.864 4.03 4.03 0 0 1-.735-1.374 6.005 6.005 0 0 1-.256-1.807c0-.661.085-1.257.256-1.79a3.84 3.84 0 0 1 .735-1.375c.32-.384.714-.677 1.183-.879.469-.203 1.002-.304 1.599-.304.831 0 1.513.186 2.046.559.533.373.922.869 1.167 1.487l-1.439.672a1.74 1.74 0 0 0-.623-.912c-.288-.234-.672-.351-1.151-.351-.64 0-1.125.202-1.455.607-.32.394-.48.911-.48 1.551v1.486c0 .64.16 1.162.48 1.567.33.394.815.592 1.455.592.511 0 .916-.123 1.215-.368.309-.256.554-.592.735-1.007l1.327.703c-.277.682-.693 1.205-1.247 1.567-.554.362-1.231.543-2.03.543zM178.715 130.097a4.038 4.038 0 0 1-1.583-.303 3.371 3.371 0 0 1-1.199-.864 4.106 4.106 0 0 1-.767-1.374 5.697 5.697 0 0 1-.272-1.807c0-.661.091-1.257.272-1.79a3.907 3.907 0 0 1 .767-1.375c.331-.384.73-.677 1.199-.879a4.02 4.02 0 0 1 1.583-.304c.575 0 1.098.101 1.566.304.48.202.885.495 1.215.879.331.373.587.831.768 1.375.181.533.272 1.129.272 1.79s-.091 1.263-.272 1.807a4.091 4.091 0 0 1-.768 1.374c-.33.373-.735.661-1.215.864a3.916 3.916 0 0 1-1.566.303zm0-1.438c.597 0 1.076-.182 1.439-.544.362-.373.543-.927.543-1.662v-1.407c0-.736-.181-1.285-.543-1.647-.363-.373-.842-.559-1.439-.559-.597 0-1.077.186-1.439.559-.362.362-.544.911-.544 1.647v1.407c0 .735.182 1.289.544 1.662.362.362.842.544 1.439.544zM184.655 129.906v-8.313h1.742v1.598h.08c.117-.426.363-.799.736-1.119.373-.319.889-.479 1.55-.479h.464v1.678h-.688c-.692 0-1.225.112-1.598.336-.363.224-.544.554-.544.991v5.308h-1.742zM190.952 129.906v-8.313h1.743v1.375h.08c.181-.448.453-.821.815-1.12.373-.298.879-.447 1.519-.447.852 0 1.513.282 1.982.847.48.554.719 1.348.719 2.382v5.276h-1.742v-5.052c0-1.3-.522-1.95-1.567-1.95-.224 0-.447.032-.671.095a1.788 1.788 0 0 0-.576.256c-.17.117-.309.267-.415.448a1.345 1.345 0 0 0-.144.639v5.564h-1.743z" fill="#E1E7EC"/><path d="M87.074 92.933V83.17h4.392c.448 0 .85.075 1.204.224.363.14.67.345.923.616.251.26.443.578.573.951.13.373.196.783.196 1.23 0 .458-.065.873-.196 1.246-.13.363-.322.68-.573.951-.252.261-.56.466-.924.615-.354.14-.755.21-1.203.21h-2.545v3.721h-1.847zm1.847-5.315h2.378c.354 0 .634-.094.839-.28.205-.196.308-.471.308-.825v-.644c0-.354-.103-.625-.308-.811-.205-.187-.485-.28-.84-.28h-2.377v2.84zM95.787 92.933v-7.302h1.79v1.511h.07c.047-.196.117-.382.21-.56a1.814 1.814 0 0 1 .951-.825 2.18 2.18 0 0 1 .77-.126h.391v1.693h-.56c-.605 0-1.062.088-1.37.266-.308.177-.462.466-.462.867v4.476h-1.79zM104.105 93.101c-.522 0-.993-.089-1.412-.266a2.985 2.985 0 0 1-1.063-.77 3.603 3.603 0 0 1-.672-1.202 5.039 5.039 0 0 1-.238-1.595c0-.587.08-1.114.238-1.58.159-.467.383-.863.672-1.19a2.985 2.985 0 0 1 1.063-.769c.419-.177.89-.266 1.412-.266.523 0 .994.09 1.413.266.42.177.774.434 1.063.77.299.326.527.722.686 1.189.158.466.238.993.238 1.58 0 .588-.08 1.12-.238 1.595a3.464 3.464 0 0 1-.686 1.203 2.835 2.835 0 0 1-1.063.77c-.419.176-.89.265-1.413.265zm0-1.44c.476 0 .849-.145 1.12-.434.27-.29.405-.714.405-1.273v-1.357c0-.55-.135-.97-.405-1.26-.271-.288-.644-.433-1.12-.433-.466 0-.834.145-1.105.434-.27.289-.405.709-.405 1.259v1.357c0 .56.135.984.405 1.273.271.289.639.433 1.105.433zM109.092 85.631h1.79v8.183c0 .616-.153 1.087-.461 1.413-.308.336-.798.504-1.469.504h-.979v-1.427h1.119v-8.673zm.895-1.063c-.373 0-.643-.084-.811-.251a.898.898 0 0 1-.238-.644v-.28c0-.26.079-.475.238-.643.168-.168.438-.252.811-.252.364 0 .63.084.797.252a.871.871 0 0 1 .252.643v.28a.871.871 0 0 1-.252.644c-.167.167-.433.251-.797.251zM115.909 93.101a3.783 3.783 0 0 1-1.455-.266 3.216 3.216 0 0 1-1.077-.77 3.6 3.6 0 0 1-.671-1.202 5.01 5.01 0 0 1-.238-1.595c0-.578.075-1.1.224-1.566.159-.467.382-.863.671-1.19.29-.335.644-.591 1.064-.769.419-.186.895-.28 1.426-.28.569 0 1.063.098 1.483.294.42.196.765.462 1.035.798.271.335.471.727.602 1.175.14.438.209.909.209 1.412v.588h-4.853v.182c0 .531.149.96.447 1.287.299.317.742.475 1.329.475.448 0 .811-.093 1.091-.28.289-.186.546-.424.77-.713l.965 1.077c-.299.42-.709.75-1.231.993-.513.233-1.11.35-1.791.35zm-.028-6.295c-.475 0-.853.159-1.133.476-.28.317-.419.727-.419 1.23v.113h2.993v-.126c0-.504-.126-.91-.378-1.217-.242-.317-.596-.476-1.063-.476zM123.639 93.101c-.541 0-1.021-.089-1.44-.266a2.847 2.847 0 0 1-1.064-.77 3.55 3.55 0 0 1-.643-1.202 5.32 5.32 0 0 1-.224-1.595c0-.587.075-1.114.224-1.58.149-.467.364-.863.643-1.19.29-.335.644-.592 1.064-.769.419-.177.899-.266 1.44-.266.737 0 1.343.164 1.819.49.485.326.834.779 1.049 1.357l-1.469.657a1.464 1.464 0 0 0-.475-.755c-.224-.205-.532-.308-.924-.308-.503 0-.881.159-1.133.476-.242.317-.363.732-.363 1.245v1.329c0 .513.121.928.363 1.245.252.307.63.461 1.133.461.429 0 .76-.107.993-.322.234-.223.415-.498.546-.825l1.371.658c-.243.643-.611 1.128-1.105 1.454-.494.317-1.096.476-1.805.476zM130.209 92.933c-.615 0-1.086-.158-1.412-.475-.317-.327-.476-.788-.476-1.385v-4.015h-1.077v-1.427h.56c.27 0 .452-.06.545-.181.103-.131.154-.322.154-.574v-1.245h1.609v2h1.496v1.427h-1.496v4.448h1.384v1.427h-1.287zM136.467 92.933v-7.302h1.791v1.217h.069a2.32 2.32 0 0 1 .7-.979c.326-.27.774-.406 1.343-.406.755 0 1.333.248 1.734.742s.602 1.198.602 2.112v4.616h-1.791V88.5c0-.522-.093-.914-.279-1.175-.187-.261-.495-.392-.924-.392a1.8 1.8 0 0 0-.545.084 1.415 1.415 0 0 0-.462.224c-.13.093-.238.215-.322.364a.97.97 0 0 0-.125.503v4.826h-1.791zM150.062 92.933c-.392 0-.704-.112-.937-.336-.224-.233-.364-.54-.42-.923h-.084c-.121.476-.368.835-.741 1.077-.373.233-.835.35-1.385.35-.746 0-1.32-.196-1.721-.588-.401-.391-.601-.913-.601-1.566 0-.755.27-1.315.811-1.679.541-.373 1.311-.56 2.308-.56h1.245v-.53c0-.411-.107-.728-.321-.952-.215-.224-.56-.336-1.036-.336-.419 0-.76.094-1.021.28a2.627 2.627 0 0 0-.643.644l-1.063-.952c.27-.42.629-.755 1.077-1.007.447-.26 1.04-.392 1.776-.392.989 0 1.739.224 2.252.672.513.448.77 1.091.77 1.93v3.441h.727v1.427h-.993zm-2.966-1.133c.401 0 .742-.088 1.022-.266.279-.177.419-.438.419-.783v-.965h-1.147c-.932 0-1.399.298-1.399.895v.238c0 .298.094.522.28.671.196.14.471.21.825.21zM152.504 92.933v-7.302h1.791v1.217h.07c.139-.382.363-.708.671-.979.308-.27.737-.406 1.287-.406.504 0 .937.122 1.301.364.364.243.634.611.811 1.105h.028c.131-.41.387-.755.769-1.035.392-.289.882-.434 1.469-.434.718 0 1.268.248 1.651.742.391.494.587 1.198.587 2.112v4.616h-1.79V88.5c0-1.044-.392-1.567-1.175-1.567-.177 0-.35.028-.518.084a1.277 1.277 0 0 0-.433.224 1.02 1.02 0 0 0-.294.364c-.075.14-.112.307-.112.503v4.826h-1.79V88.5c0-1.044-.392-1.567-1.175-1.567-.168 0-.336.028-.504.084a1.281 1.281 0 0 0-.434.224 1.171 1.171 0 0 0-.307.364c-.075.14-.112.307-.112.503v4.826h-1.791zM167.873 93.101a3.783 3.783 0 0 1-1.455-.266 3.196 3.196 0 0 1-1.077-.77 3.584 3.584 0 0 1-.671-1.202 5.01 5.01 0 0 1-.238-1.595c0-.578.074-1.1.224-1.566a3.43 3.43 0 0 1 .671-1.19 2.835 2.835 0 0 1 1.063-.769 3.48 3.48 0 0 1 1.427-.28c.569 0 1.063.098 1.483.294.419.196.764.462 1.035.798.27.335.471.727.601 1.175.14.438.21.909.21 1.412v.588h-4.854v.182c0 .531.149.96.448 1.287.298.317.741.475 1.329.475.447 0 .811-.093 1.091-.28.289-.186.545-.424.769-.713l.965 1.077c-.298.42-.708.75-1.231.993-.513.233-1.109.35-1.79.35zm-.028-6.295c-.476 0-.853.159-1.133.476-.28.317-.42.727-.42 1.23v.113h2.994v-.126c0-.504-.126-.91-.378-1.217-.242-.317-.597-.476-1.063-.476z" fill="#fff"/><path d="M285.82 299.725c0-1.104.895-1.998 1.999-1.998h165.796c1.104 0 1.999.894 1.999 1.998v40.965a1.998 1.998 0 0 1-1.999 1.998H287.819a1.998 1.998 0 0 1-1.999-1.998v-40.965z" fill="#031F32"/><path d="M288.754 302.721c0-1.104.895-1.998 1.998-1.998h69.941c1.103 0 1.998.894 1.998 1.998v34.97a1.998 1.998 0 0 1-1.998 1.998h-69.941a1.998 1.998 0 0 1-1.998-1.998v-34.97z" fill="#1B304F"/><path d="M384.887 322.847h-2.154l-.504 2.868h-.895l.503-2.868h-1.79v-.839h1.93l.392-2.35h-1.777v-.839h1.931l.489-2.868h.896l-.49 2.868h2.154l.49-2.868h.895l-.49 2.868h1.791v.839h-1.944l-.392 2.35h1.79v.839h-1.93l-.504 2.868h-.895l.504-2.868zm.14-.839.391-2.35h-2.154l-.392 2.35h2.155zM393.008 320.092c.662 0 1.156-.15 1.483-.448.336-.308.503-.699.503-1.175v-.098c0-.513-.163-.895-.489-1.147-.317-.261-.737-.392-1.259-.392-.504 0-.914.112-1.231.336a2.488 2.488 0 0 0-.783.881l-.868-.671c.122-.196.266-.387.434-.574a3.033 3.033 0 0 1 1.427-.881 3.62 3.62 0 0 1 1.049-.14c.41 0 .797.056 1.161.168.364.103.676.261.937.476.271.205.48.461.63.769.158.308.237.657.237 1.049 0 .317-.051.602-.154.853a2.017 2.017 0 0 1-.391.658 2.342 2.342 0 0 1-.602.475 2.731 2.731 0 0 1-.727.294v.056c.261.056.513.149.755.28.252.121.471.284.658.489.196.196.349.439.461.728.122.28.182.601.182.965a2.8 2.8 0 0 1-.238 1.161 2.627 2.627 0 0 1-.671.895 3.235 3.235 0 0 1-1.049.574c-.41.14-.863.21-1.357.21-.42 0-.793-.047-1.119-.14a3.343 3.343 0 0 1-.867-.378 3.846 3.846 0 0 1-.672-.531 5.19 5.19 0 0 1-.503-.616l.881-.671c.121.195.252.373.392.531.149.159.312.294.489.406.177.112.378.2.602.266.223.056.485.084.783.084.69 0 1.212-.154 1.567-.462.354-.317.531-.765.531-1.343v-.112c0-.578-.177-1.021-.531-1.329-.355-.317-.877-.475-1.567-.475h-1.147v-1.021h1.063zM403.168 325.715v-1.917h-4.714v-1.035l4.084-6.812h1.749v6.868h1.413v.979h-1.413v1.917h-1.119zm-3.609-2.896h3.609v-5.959h-.07l-3.539 5.959zM410.684 325.883c-.56 0-1.049-.07-1.469-.21a3.25 3.25 0 0 1-1.063-.602 2.556 2.556 0 0 1-.644-.895 2.947 2.947 0 0 1-.209-1.119c0-.671.181-1.203.545-1.595.364-.391.839-.666 1.427-.825v-.112a2.601 2.601 0 0 1-1.231-.853c-.298-.401-.448-.881-.448-1.441 0-.746.271-1.338.812-1.776.54-.448 1.301-.672 2.28-.672.979 0 1.739.224 2.28.672.541.438.811 1.03.811 1.776 0 .56-.154 1.04-.462 1.441-.298.392-.704.676-1.217.853v.112c.588.159 1.064.434 1.427.825.364.392.546.924.546 1.595 0 .401-.075.774-.224 1.119-.14.345-.354.644-.643.895-.28.252-.63.453-1.05.602-.419.14-.909.21-1.468.21zm0-1.022c.68 0 1.207-.149 1.58-.447.373-.308.56-.742.56-1.301v-.294c0-.559-.187-.988-.56-1.287-.373-.307-.9-.461-1.58-.461-.681 0-1.208.154-1.581.461-.373.299-.56.728-.56 1.287v.294c0 .559.187.993.56 1.301.373.298.9.447 1.581.447zm0-4.769c.615 0 1.081-.131 1.398-.392.318-.261.476-.644.476-1.147v-.21c0-.504-.158-.886-.476-1.147-.317-.261-.783-.392-1.398-.392-.616 0-1.082.131-1.399.392-.317.261-.476.643-.476 1.147v.21c0 .503.159.886.476 1.147.317.261.783.392 1.399.392zM417.5 325.715l3.735-8.757h-4.168v1.819h-1.05v-2.826h6.407v1.035l-3.665 8.729H417.5zM427.828 325.883c-.504 0-.961-.084-1.371-.252a3.04 3.04 0 0 1-1.035-.742 3.373 3.373 0 0 1-.644-1.189 5.128 5.128 0 0 1-.224-1.566c0-.728.108-1.408.322-2.042.215-.644.49-1.227.826-1.749a8.098 8.098 0 0 1 1.133-1.399c.41-.41.811-.741 1.203-.993h1.51c-.522.382-.988.755-1.399 1.119-.41.364-.769.746-1.077 1.147a6.594 6.594 0 0 0-.783 1.273 7.368 7.368 0 0 0-.518 1.525l.07.028c.234-.401.532-.732.896-.993.373-.271.858-.406 1.454-.406.42 0 .807.07 1.161.21.355.14.658.34.91.601.251.261.447.578.587.951.149.373.224.788.224 1.245 0 .476-.079.914-.238 1.315a2.865 2.865 0 0 1-1.678 1.679 3.596 3.596 0 0 1-1.329.238zm-.014-1.022c.643 0 1.142-.177 1.496-.531.364-.354.546-.863.546-1.525v-.112c0-.662-.182-1.17-.546-1.524-.354-.355-.853-.532-1.496-.532-.644 0-1.147.177-1.511.532-.354.354-.532.862-.532 1.524v.112c0 .662.178 1.171.532 1.525.364.354.867.531 1.511.531zM439.148 316.986h-4.28l-.28 3.721h.098c.233-.326.494-.587.784-.783.298-.196.704-.294 1.216-.294.42 0 .807.07 1.161.21.355.14.663.34.924.601a2.5 2.5 0 0 1 .601.937c.149.373.224.798.224 1.273 0 .476-.075.914-.224 1.315a2.865 2.865 0 0 1-.657 1.021c-.28.28-.625.499-1.035.658a3.717 3.717 0 0 1-1.371.238c-.411 0-.774-.047-1.091-.14a3.207 3.207 0 0 1-.826-.378 3.622 3.622 0 0 1-.643-.531 6.272 6.272 0 0 1-.49-.616l.882-.671c.121.195.247.373.377.531.14.159.289.294.448.406.168.112.359.2.573.266.215.056.471.084.77.084.671 0 1.179-.178 1.524-.532.346-.354.518-.853.518-1.497v-.14c0-.643-.172-1.142-.518-1.496-.345-.355-.853-.532-1.524-.532-.448 0-.802.084-1.063.252-.252.158-.481.35-.686.573l-.993-.14.35-5.371h5.231v1.035zM290.184 289.167c-.84 0-1.553-.149-2.14-.447a4.984 4.984 0 0 1-1.497-1.175l1.245-1.203c.336.392.709.69 1.119.895.42.205.881.308 1.385.308.569 0 .998-.121 1.287-.364.289-.252.433-.587.433-1.007 0-.326-.093-.592-.28-.797-.186-.205-.536-.355-1.049-.448l-.923-.14c-1.949-.308-2.923-1.254-2.923-2.839 0-.439.079-.835.237-1.189a2.6 2.6 0 0 1 .714-.91 3.194 3.194 0 0 1 1.105-.573 4.86 4.86 0 0 1 1.483-.21c.736 0 1.38.121 1.93.364.55.242 1.021.601 1.413 1.077l-1.259 1.189a2.906 2.906 0 0 0-.881-.728c-.345-.186-.779-.279-1.301-.279-.532 0-.933.102-1.203.307-.261.196-.392.476-.392.84 0 .373.107.648.322.825.214.177.559.308 1.035.392l.909.168c.989.177 1.716.494 2.182.951.476.447.714 1.077.714 1.888 0 .466-.084.891-.252 1.273a2.705 2.705 0 0 1-.714.979 3.23 3.23 0 0 1-1.147.63c-.447.149-.965.223-1.552.223zM298.539 289.167a3.776 3.776 0 0 1-1.454-.265 3.21 3.21 0 0 1-1.078-.77 3.587 3.587 0 0 1-.671-1.203 5.006 5.006 0 0 1-.238-1.594c0-.578.075-1.101.224-1.567.159-.466.382-.863.671-1.189a2.84 2.84 0 0 1 1.064-.769c.419-.187.895-.28 1.426-.28.569 0 1.063.098 1.483.294.42.196.765.461 1.035.797.271.336.471.727.602 1.175.14.438.209.909.209 1.413v.587h-4.853v.182c0 .532.149.961.447 1.287.299.317.742.476 1.329.476.448 0 .811-.094 1.091-.28.289-.187.546-.424.77-.713l.965 1.077c-.299.419-.709.75-1.231.993-.513.233-1.11.349-1.791.349zm-.028-6.294c-.475 0-.853.158-1.133.475-.28.318-.419.728-.419 1.231v.112h2.993v-.126c0-.503-.126-.909-.378-1.217-.242-.317-.596-.475-1.063-.475zM306.269 289.167c-.541 0-1.021-.088-1.44-.265a2.843 2.843 0 0 1-1.064-.77 3.537 3.537 0 0 1-.643-1.203 5.316 5.316 0 0 1-.224-1.594c0-.588.075-1.115.224-1.581.149-.466.364-.863.643-1.189a2.84 2.84 0 0 1 1.064-.769c.419-.177.899-.266 1.44-.266.737 0 1.343.163 1.819.49.485.326.834.778 1.049 1.356l-1.469.658a1.465 1.465 0 0 0-.475-.756c-.224-.205-.532-.307-.924-.307-.503 0-.881.158-1.133.475-.242.317-.363.732-.363 1.245v1.329c0 .513.121.928.363 1.245.252.308.63.462 1.133.462.429 0 .76-.108.993-.322a2.32 2.32 0 0 0 .546-.825l1.371.657c-.243.644-.611 1.129-1.105 1.455-.494.317-1.096.475-1.805.475zM313.387 289.167c-.523 0-.994-.088-1.413-.265a2.99 2.99 0 0 1-1.063-.77 3.589 3.589 0 0 1-.672-1.203 5.035 5.035 0 0 1-.237-1.594c0-.588.079-1.115.237-1.581.159-.466.383-.863.672-1.189a2.987 2.987 0 0 1 1.063-.769c.419-.177.89-.266 1.413-.266.522 0 .993.089 1.412.266.42.177.774.433 1.064.769.298.326.526.723.685 1.189.158.466.238.993.238 1.581 0 .587-.08 1.119-.238 1.594a3.465 3.465 0 0 1-.685 1.203c-.29.336-.644.593-1.064.77-.419.177-.89.265-1.412.265zm0-1.44c.475 0 .848-.145 1.119-.434.27-.289.405-.713.405-1.273v-1.357c0-.55-.135-.97-.405-1.259-.271-.289-.644-.433-1.119-.433-.467 0-.835.144-1.105.433-.271.289-.406.709-.406 1.259v1.357c0 .56.135.984.406 1.273.27.289.638.434 1.105.434zM318.373 289v-7.302h1.791v1.217h.069c.15-.392.383-.718.7-.979.326-.271.774-.406 1.343-.406.755 0 1.333.247 1.734.741.401.495.602 1.199.602 2.113V289h-1.791v-4.435c0-.522-.093-.913-.279-1.175-.187-.261-.495-.391-.924-.391-.186 0-.368.028-.545.084a1.413 1.413 0 0 0-.462.223c-.13.094-.238.215-.322.364a.971.971 0 0 0-.125.504V289h-1.791zM331.129 287.783h-.07a1.873 1.873 0 0 1-.742 1.007c-.363.252-.788.377-1.273.377-.923 0-1.631-.331-2.126-.993-.485-.662-.727-1.608-.727-2.839 0-1.222.242-2.159.727-2.812.495-.662 1.203-.993 2.126-.993.485 0 .91.126 1.273.378.364.242.611.573.742.993h.07v-4.253h1.79V289h-1.79v-1.217zm-1.511-.098c.429 0 .788-.103 1.077-.308.289-.205.434-.499.434-.881v-2.322c0-.355-.145-.639-.434-.854-.289-.214-.648-.321-1.077-.321-.466 0-.844.158-1.133.475-.28.308-.42.723-.42 1.245v1.259c0 .522.14.937.42 1.245.289.308.667.462 1.133.462zM340.355 289c-.391 0-.704-.112-.937-.336-.224-.233-.364-.541-.419-.923h-.084c-.122.475-.369.834-.742 1.077-.373.233-.834.349-1.385.349-.746 0-1.319-.195-1.72-.587-.401-.392-.602-.914-.602-1.567 0-.755.271-1.315.812-1.678.541-.373 1.31-.56 2.308-.56h1.245v-.531c0-.411-.108-.728-.322-.952-.215-.223-.56-.335-1.035-.335-.42 0-.76.093-1.021.28a2.623 2.623 0 0 0-.644.643l-1.063-.951a3.02 3.02 0 0 1 1.077-1.007c.448-.261 1.04-.392 1.777-.392.988 0 1.739.224 2.252.671.513.448.769 1.091.769 1.931v3.441h.728V289h-.994zm-2.965-1.133c.401 0 .741-.089 1.021-.266.28-.177.42-.438.42-.784v-.965h-1.147c-.933 0-1.399.299-1.399.896v.237c0 .299.093.523.28.672.195.14.471.21.825.21zM342.798 289v-7.302h1.79v1.511h.07c.047-.196.117-.383.21-.56a1.806 1.806 0 0 1 .951-.825 2.18 2.18 0 0 1 .769-.126h.392v1.692h-.559c-.607 0-1.064.089-1.371.266-.308.177-.462.466-.462.867V289h-1.79zM352.874 281.698h1.679l-2.937 8.603a3.277 3.277 0 0 1-.322.671 1.572 1.572 0 0 1-.406.476c-.158.121-.35.209-.573.265a3.253 3.253 0 0 1-.784.084h-1.077v-1.427h1.315l.336-1.021-2.616-7.651h1.777l1.272 3.861.476 1.846h.084l.504-1.846 1.272-3.861zM361.921 289.167c-.541 0-1.021-.088-1.441-.265a2.84 2.84 0 0 1-1.063-.77 3.537 3.537 0 0 1-.643-1.203 5.316 5.316 0 0 1-.224-1.594c0-.588.075-1.115.224-1.581.149-.466.364-.863.643-1.189a2.837 2.837 0 0 1 1.063-.769c.42-.177.9-.266 1.441-.266.737 0 1.343.163 1.819.49.485.326.834.778 1.049 1.356l-1.469.658a1.46 1.46 0 0 0-.476-.756c-.223-.205-.531-.307-.923-.307-.503 0-.881.158-1.133.475-.242.317-.364.732-.364 1.245v1.329c0 .513.122.928.364 1.245.252.308.63.462 1.133.462.429 0 .76-.108.993-.322.233-.224.415-.499.546-.825l1.371.657c-.243.644-.611 1.129-1.105 1.455-.495.317-1.096.475-1.805.475zM369.039 289.167c-.523 0-.994-.088-1.413-.265a2.98 2.98 0 0 1-1.063-.77 3.589 3.589 0 0 1-.672-1.203 5.035 5.035 0 0 1-.238-1.594c0-.588.08-1.115.238-1.581.159-.466.383-.863.672-1.189a2.978 2.978 0 0 1 1.063-.769c.419-.177.89-.266 1.413-.266.522 0 .993.089 1.412.266.42.177.774.433 1.063.769.299.326.527.723.686 1.189.158.466.238.993.238 1.581 0 .587-.08 1.119-.238 1.594a3.452 3.452 0 0 1-.686 1.203 2.831 2.831 0 0 1-1.063.77c-.419.177-.89.265-1.412.265zm0-1.44c.475 0 .848-.145 1.119-.434.27-.289.405-.713.405-1.273v-1.357c0-.55-.135-.97-.405-1.259-.271-.289-.644-.433-1.119-.433-.467 0-.835.144-1.106.433-.27.289-.405.709-.405 1.259v1.357c0 .56.135.984.405 1.273.271.289.639.434 1.106.434zM375.815 289c-.615 0-1.067-.154-1.356-.462-.29-.308-.434-.741-.434-1.301v-8.589h1.79v8.925h.966V289h-.966zM381.032 289.167c-.522 0-.993-.088-1.413-.265a2.998 2.998 0 0 1-1.063-.77 3.57 3.57 0 0 1-.671-1.203 5.006 5.006 0 0 1-.238-1.594c0-.588.079-1.115.238-1.581.158-.466.382-.863.671-1.189a2.996 2.996 0 0 1 1.063-.769c.42-.177.891-.266 1.413-.266s.993.089 1.413.266c.42.177.774.433 1.063.769.299.326.527.723.686 1.189.158.466.237.993.237 1.581 0 .587-.079 1.119-.237 1.594a3.452 3.452 0 0 1-.686 1.203 2.831 2.831 0 0 1-1.063.77c-.42.177-.891.265-1.413.265zm0-1.44c.476 0 .849-.145 1.119-.434.271-.289.406-.713.406-1.273v-1.357c0-.55-.135-.97-.406-1.259-.27-.289-.643-.433-1.119-.433-.466 0-.834.144-1.105.433-.27.289-.406.709-.406 1.259v1.357c0 .56.136.984.406 1.273.271.289.639.434 1.105.434zM386.019 289v-7.302h1.79v1.511h.07c.047-.196.117-.383.21-.56a1.806 1.806 0 0 1 .951-.825 2.18 2.18 0 0 1 .769-.126h.392v1.692h-.559c-.607 0-1.064.089-1.371.266-.308.177-.462.466-.462.867V289h-1.79z" fill="#fff"/><path d="M286.762 395.643c0-1.104.894-1.998 1.998-1.998h165.859c1.104 0 1.998.894 1.998 1.998v40.965a1.997 1.997 0 0 1-1.998 1.998H288.76a1.997 1.997 0 0 1-1.998-1.998v-40.965z" fill="#031F32"/><path d="M289.758 398.641c0-1.104.894-1.998 1.998-1.998h69.941c1.103 0 1.998.894 1.998 1.998v34.97a1.998 1.998 0 0 1-1.998 1.998h-69.941a1.997 1.997 0 0 1-1.998-1.998v-34.97z" fill="#001B30"/><path d="M385.859 418.765h-2.154l-.503 2.868h-.896l.504-2.868h-1.79v-.839h1.93l.392-2.35h-1.777v-.839h1.93l.49-2.868h.895l-.489 2.868h2.154l.489-2.868h.896l-.49 2.868h1.791v.839h-1.945l-.391 2.35h1.79v.839h-1.93l-.504 2.868h-.895l.503-2.868zm.14-.839.392-2.35h-2.154l-.392 2.35h2.154zM393.981 416.01c.662 0 1.156-.15 1.482-.448.336-.308.504-.7.504-1.175v-.098c0-.513-.163-.895-.49-1.147-.317-.261-.736-.392-1.258-.392-.504 0-.914.112-1.231.336a2.482 2.482 0 0 0-.784.881l-.867-.671c.121-.196.266-.387.434-.574.177-.196.382-.368.615-.517.233-.149.504-.271.811-.364.308-.093.658-.14 1.05-.14.41 0 .797.056 1.161.168.363.103.676.261.937.476.27.205.48.461.629.769.159.308.238.657.238 1.049 0 .317-.051.602-.154.853a2.02 2.02 0 0 1-.392.658 2.32 2.32 0 0 1-.601.475 2.745 2.745 0 0 1-.727.294v.056c.261.056.512.149.755.28.252.121.471.284.657.489.196.196.35.439.462.728.121.28.182.601.182.965a2.8 2.8 0 0 1-.238 1.161 2.627 2.627 0 0 1-.671.895 3.235 3.235 0 0 1-1.049.574c-.411.14-.863.21-1.357.21-.42 0-.793-.047-1.119-.14a3.35 3.35 0 0 1-.868-.378 3.88 3.88 0 0 1-.671-.532 5.19 5.19 0 0 1-.504-.615l.882-.671c.121.195.251.373.391.531a2.383 2.383 0 0 0 1.091.672c.224.055.485.083.784.083.69 0 1.212-.153 1.566-.461.355-.317.532-.765.532-1.343v-.112c0-.578-.177-1.021-.532-1.329-.354-.317-.876-.475-1.566-.475h-1.147v-1.021h1.063zM404.14 421.633v-1.917h-4.714v-1.035l4.085-6.812h1.748v6.868h1.413v.979h-1.413v1.917h-1.119zm-3.609-2.896h3.609v-5.959h-.07l-3.539 5.959zM411.656 421.801c-.559 0-1.049-.07-1.468-.21a3.266 3.266 0 0 1-1.064-.602 2.563 2.563 0 0 1-.643-.895 2.948 2.948 0 0 1-.21-1.119c0-.671.182-1.203.546-1.595.363-.391.839-.666 1.427-.825v-.112a2.596 2.596 0 0 1-1.231-.853c-.299-.401-.448-.881-.448-1.441 0-.746.27-1.338.811-1.776.541-.448 1.301-.672 2.28-.672.979 0 1.74.224 2.28.672.541.438.812 1.03.812 1.776 0 .56-.154 1.04-.462 1.441-.298.392-.704.676-1.217.853v.112c.588.159 1.063.434 1.427.825.364.392.545.924.545 1.595 0 .401-.074.774-.223 1.119-.14.345-.355.643-.644.895a3.09 3.09 0 0 1-1.049.602c-.42.14-.909.21-1.469.21zm0-1.022c.681 0 1.208-.149 1.581-.447.373-.308.56-.742.56-1.301v-.294c0-.559-.187-.988-.56-1.287-.373-.307-.9-.461-1.581-.461-.68 0-1.207.154-1.58.461-.373.299-.56.728-.56 1.287v.294c0 .559.187.993.56 1.301.373.298.9.447 1.58.447zm0-4.769c.616 0 1.082-.131 1.399-.392.317-.261.476-.644.476-1.147v-.21c0-.504-.159-.886-.476-1.147-.317-.261-.783-.392-1.399-.392-.615 0-1.081.131-1.398.392-.318.261-.476.643-.476 1.147v.21c0 .503.158.886.476 1.147.317.261.783.392 1.398.392zM418.473 421.633l3.735-8.757h-4.169v1.819h-1.049v-2.826h6.407v1.035l-3.665 8.729h-1.259zM428.8 421.801c-.503 0-.96-.084-1.37-.252a3.057 3.057 0 0 1-1.036-.742 3.387 3.387 0 0 1-.643-1.189 5.128 5.128 0 0 1-.224-1.566c0-.728.107-1.408.322-2.042a7.703 7.703 0 0 1 .825-1.749 8.145 8.145 0 0 1 1.133-1.399 7.43 7.43 0 0 1 1.203-.993h1.511c-.522.382-.989.755-1.399 1.119-.41.364-.769.746-1.077 1.147a6.545 6.545 0 0 0-.783 1.273 7.31 7.31 0 0 0-.518 1.525l.07.028c.233-.401.532-.732.895-.993.373-.271.858-.406 1.455-.406.42 0 .807.07 1.161.21.354.14.657.34.909.601.252.261.448.578.588.951.149.373.224.788.224 1.245 0 .476-.08.914-.238 1.315a2.867 2.867 0 0 1-1.679 1.679 3.596 3.596 0 0 1-1.329.238zm-.014-1.022c.644 0 1.143-.177 1.497-.531.364-.354.546-.863.546-1.525v-.112c0-.662-.182-1.17-.546-1.524-.354-.355-.853-.532-1.497-.532-.643 0-1.147.177-1.51.532-.355.354-.532.862-.532 1.524v.112c0 .662.177 1.171.532 1.525.363.354.867.531 1.51.531zM440.121 412.904h-4.28l-.28 3.721h.098c.233-.326.494-.588.783-.783.299-.196.704-.294 1.217-.294.42 0 .807.07 1.161.21.355.14.662.34.923.601.261.252.462.564.602.937.149.373.224.798.224 1.273 0 .476-.075.914-.224 1.315a2.867 2.867 0 0 1-.658 1.021 2.93 2.93 0 0 1-1.035.658 3.717 3.717 0 0 1-1.371.238c-.41 0-.774-.047-1.091-.14a3.215 3.215 0 0 1-.825-.378 3.627 3.627 0 0 1-.643-.532 5.977 5.977 0 0 1-.49-.615l.881-.671c.122.195.247.373.378.531.14.159.289.294.448.406.167.112.359.2.573.266.215.055.471.083.769.083.672 0 1.18-.177 1.525-.531.345-.354.518-.853.518-1.497v-.14c0-.643-.173-1.142-.518-1.496-.345-.355-.853-.532-1.525-.532-.447 0-.802.084-1.063.252-.251.158-.48.35-.685.573l-.993-.14.349-5.371h5.232v1.035zM291.741 376.537v8.127h-1.846v-8.127h-2.77V374.9h7.386v1.637h-2.77zM297.947 384.832a3.785 3.785 0 0 1-1.455-.266 3.195 3.195 0 0 1-1.077-.77 3.57 3.57 0 0 1-.671-1.203 5.006 5.006 0 0 1-.238-1.594c0-.578.074-1.101.224-1.567.158-.466.382-.862.671-1.189a2.829 2.829 0 0 1 1.063-.769c.42-.187.895-.28 1.427-.28.569 0 1.063.098 1.483.294.419.196.764.461 1.035.797.27.336.471.728.601 1.175.14.438.21.909.21 1.413v.587h-4.854v.182c0 .532.149.961.448 1.287.298.317.741.476 1.329.476.447 0 .811-.093 1.091-.28.289-.187.545-.424.769-.713l.965 1.077c-.298.419-.708.75-1.231.993-.513.233-1.109.35-1.79.35zm-.028-6.295c-.476 0-.853.158-1.133.476-.28.317-.42.727-.42 1.23v.112h2.994v-.126c0-.503-.126-.909-.378-1.216-.242-.318-.597-.476-1.063-.476zM301.821 384.664l2.49-3.707-2.434-3.595h2.042l1.511 2.42h.056l1.497-2.42h1.902l-2.476 3.623 2.49 3.679h-2.042l-1.539-2.518h-.056l-1.538 2.518h-1.903zM312.479 384.664c-.615 0-1.086-.159-1.413-.476-.317-.326-.475-.788-.475-1.385v-4.014h-1.077v-1.427h.559c.271 0 .453-.061.546-.182.102-.13.154-.322.154-.573v-1.245h1.608v2h1.497v1.427h-1.497v4.448h1.385v1.427h-1.287zM321.618 384.832c-.54 0-1.021-.089-1.44-.266a2.831 2.831 0 0 1-1.063-.77 3.521 3.521 0 0 1-.644-1.203 5.316 5.316 0 0 1-.224-1.594c0-.588.075-1.115.224-1.581a3.39 3.39 0 0 1 .644-1.189 2.829 2.829 0 0 1 1.063-.769c.419-.177.9-.266 1.44-.266.737 0 1.343.163 1.819.49.485.326.835.778 1.049 1.356l-1.469.658a1.458 1.458 0 0 0-.475-.755c-.224-.206-.532-.308-.924-.308-.503 0-.881.158-1.133.475-.242.317-.363.732-.363 1.245v1.329c0 .513.121.928.363 1.245.252.308.63.462 1.133.462.429 0 .76-.107.994-.322.233-.224.415-.499.545-.825l1.371.657c-.242.644-.611 1.129-1.105 1.455-.494.317-1.096.476-1.805.476zM328.736 384.832c-.522 0-.993-.089-1.413-.266a2.99 2.99 0 0 1-1.063-.77 3.589 3.589 0 0 1-.672-1.203 5.035 5.035 0 0 1-.237-1.594c0-.588.079-1.115.237-1.581.159-.466.383-.862.672-1.189a2.987 2.987 0 0 1 1.063-.769c.42-.177.891-.266 1.413-.266s.993.089 1.413.266c.419.177.774.433 1.063.769.298.327.527.723.685 1.189.159.466.238.993.238 1.581 0 .587-.079 1.119-.238 1.594a3.45 3.45 0 0 1-.685 1.203 2.84 2.84 0 0 1-1.063.77c-.42.177-.891.266-1.413.266zm0-1.441c.475 0 .848-.145 1.119-.434.27-.289.405-.713.405-1.273v-1.357c0-.55-.135-.969-.405-1.259-.271-.289-.644-.433-1.119-.433-.467 0-.835.144-1.105.433-.271.29-.406.709-.406 1.259v1.357c0 .56.135.984.406 1.273.27.289.638.434 1.105.434zM335.513 384.664c-.616 0-1.068-.154-1.357-.462-.289-.308-.434-.741-.434-1.301v-8.589h1.791v8.925h.965v1.427h-.965zM340.729 384.832c-.522 0-.993-.089-1.412-.266a2.98 2.98 0 0 1-1.063-.77 3.572 3.572 0 0 1-.672-1.203 5.035 5.035 0 0 1-.238-1.594c0-.588.08-1.115.238-1.581a3.44 3.44 0 0 1 .672-1.189 2.978 2.978 0 0 1 1.063-.769c.419-.177.89-.266 1.412-.266.523 0 .994.089 1.413.266.42.177.774.433 1.063.769.299.327.527.723.686 1.189.158.466.238.993.238 1.581 0 .587-.08 1.119-.238 1.594a3.452 3.452 0 0 1-.686 1.203 2.831 2.831 0 0 1-1.063.77c-.419.177-.89.266-1.413.266zm0-1.441c.476 0 .849-.145 1.12-.434.27-.289.405-.713.405-1.273v-1.357c0-.55-.135-.969-.405-1.259-.271-.289-.644-.433-1.12-.433-.466 0-.834.144-1.105.433-.27.29-.405.709-.405 1.259v1.357c0 .56.135.984.405 1.273.271.289.639.434 1.105.434zM345.716 384.664v-7.302h1.79v1.511h.07c.047-.196.117-.383.21-.56a1.805 1.805 0 0 1 .951-.825c.224-.084.481-.126.77-.126h.391v1.692h-.559c-.606 0-1.063.089-1.371.266-.308.177-.462.467-.462.868v4.476h-1.79z" fill="#fff"/><path d="M88.93 395.643c0-1.104.894-1.998 1.998-1.998h165.859c1.103 0 1.998.894 1.998 1.998v40.965a1.998 1.998 0 0 1-1.998 1.998H90.928a1.998 1.998 0 0 1-1.998-1.998v-40.965z" fill="#031F32"/><path d="M240.26 421.633h-6.407v-1.203l3.19-2.938a7.148 7.148 0 0 0 1.147-1.329c.308-.475.461-.951.461-1.426v-.168c0-.541-.149-.979-.447-1.315-.299-.336-.751-.504-1.357-.504-.299 0-.56.042-.783.126-.224.084-.42.201-.588.35a2.123 2.123 0 0 0-.406.531 3.331 3.331 0 0 0-.251.644l-1.049-.406c.093-.289.219-.569.377-.839.168-.28.373-.527.616-.741.251-.215.55-.387.895-.518.354-.131.769-.196 1.245-.196.475 0 .9.07 1.273.21.373.14.685.336.937.587.252.252.443.551.573.896.14.345.21.727.21 1.147 0 .382-.056.736-.168 1.063a4.052 4.052 0 0 1-.433.937 5.577 5.577 0 0 1-.686.853c-.261.28-.545.56-.853.84l-2.63 2.364h5.134v1.035z" fill="#fff"/><path fill-rule="evenodd" clip-rule="evenodd" d="M99.547 416.623c0-1.103.895-1.998 1.998-1.998h112.779a1.999 1.999 0 1 1 0 3.997H101.545a1.999 1.999 0 0 1-1.998-1.999z" fill="#7B8997"/><path fill-rule="evenodd" clip-rule="evenodd" d="M99.918 416.623c0-1.103.895-1.998 1.998-1.998H120.9a1.998 1.998 0 1 1 0 3.997h-18.984a1.999 1.999 0 0 1-1.998-1.999z" fill="#EFF3F5"/><path d="M124.896 416.624a5.995 5.995 0 1 1-11.99 0 5.995 5.995 0 0 1 11.99 0z" fill="#EFF3F5"/><path fill-rule="evenodd" clip-rule="evenodd" d="M118.901 421.42a4.796 4.796 0 1 0 0-9.591 4.796 4.796 0 0 0 0 9.591zm0 1.199a5.995 5.995 0 1 0 0-11.99 5.995 5.995 0 0 0 0 11.99z" fill="#EFF3F5"/><path d="M91.074 374.9h4.518c.401 0 .76.061 1.078.182.326.121.6.289.825.503.224.215.391.481.503.798.122.307.182.648.182 1.021 0 .373-.051.69-.154.951a1.71 1.71 0 0 1-.391.629 1.524 1.524 0 0 1-.56.378c-.205.084-.42.131-.643.14v.084c.214 0 .443.042.685.126.252.084.48.219.685.406.215.177.392.41.532.699.14.28.21.629.21 1.049 0 .392-.065.76-.196 1.105a2.67 2.67 0 0 1-.517.881 2.53 2.53 0 0 1-.798.602c-.308.14-.643.21-1.007.21h-4.952V374.9zm1.847 8.197h2.573c.355 0 .63-.089.826-.266.196-.186.294-.452.294-.797v-.476c0-.345-.098-.611-.294-.797-.196-.187-.471-.28-.825-.28H92.92v2.616zm0-4.127h2.28c.335 0 .597-.088.783-.265.187-.187.28-.443.28-.77v-.433c0-.327-.093-.578-.28-.756-.186-.186-.448-.279-.783-.279h-2.28v2.503zM103.133 384.831c-.522 0-.993-.088-1.413-.265a2.998 2.998 0 0 1-1.063-.77 3.574 3.574 0 0 1-.671-1.203 5.02 5.02 0 0 1-.238-1.594c0-.588.08-1.115.238-1.581a3.44 3.44 0 0 1 .671-1.189 2.996 2.996 0 0 1 1.063-.769c.42-.177.891-.266 1.413-.266s.993.089 1.413.266c.42.177.774.433 1.063.769.298.327.527.723.685 1.189.159.466.238.993.238 1.581 0 .587-.079 1.119-.238 1.594a3.45 3.45 0 0 1-.685 1.203 2.831 2.831 0 0 1-1.063.77c-.42.177-.891.265-1.413.265zm0-1.44c.476 0 .849-.145 1.119-.434.271-.289.406-.713.406-1.273v-1.357c0-.55-.135-.97-.406-1.259-.27-.289-.643-.433-1.119-.433-.466 0-.834.144-1.105.433-.27.289-.406.709-.406 1.259v1.357c0 .56.136.984.406 1.273.271.289.639.434 1.105.434zM108.12 384.664v-7.302h1.79v1.511h.07c.047-.196.117-.383.21-.56.102-.186.233-.35.391-.49.159-.139.346-.251.56-.335a2.18 2.18 0 0 1 .769-.126h.392v1.692h-.559c-.607 0-1.064.089-1.371.266-.308.177-.462.466-.462.867v4.477h-1.79zM118.075 383.447h-.07a1.876 1.876 0 0 1-.741 1.007 2.18 2.18 0 0 1-1.273.377c-.924 0-1.632-.331-2.127-.993-.484-.662-.727-1.608-.727-2.839 0-1.222.243-2.159.727-2.812.495-.662 1.203-.993 2.127-.993.485 0 .909.126 1.273.378.363.242.61.573.741.993h.07v-4.253h1.79v10.352h-1.79v-1.217zm-1.511-.098c.429 0 .788-.103 1.077-.308.289-.205.434-.499.434-.881v-2.322c0-.355-.145-.639-.434-.854-.289-.214-.648-.321-1.077-.321-.466 0-.844.158-1.133.475-.28.308-.42.723-.42 1.245v1.259c0 .522.14.937.42 1.245.289.308.667.462 1.133.462zM124.882 384.831a3.785 3.785 0 0 1-1.455-.265 3.195 3.195 0 0 1-1.077-.77 3.589 3.589 0 0 1-.672-1.203 5.035 5.035 0 0 1-.237-1.594c0-.578.074-1.101.223-1.567.159-.466.383-.863.672-1.189a2.829 2.829 0 0 1 1.063-.769c.419-.187.895-.28 1.427-.28.568 0 1.063.098 1.482.294.42.196.765.461 1.035.797.271.336.471.727.602 1.175.14.438.21.909.21 1.413v.587h-4.854v.182c0 .532.149.961.448 1.287.298.317.741.476 1.328.476.448 0 .812-.094 1.091-.28.29-.187.546-.424.77-.713l.965 1.077c-.298.419-.709.75-1.231.993-.513.233-1.11.349-1.79.349zm-.028-6.294c-.476 0-.854.158-1.133.475-.28.318-.42.728-.42 1.231v.112h2.993v-.126c0-.503-.126-.909-.377-1.217-.243-.317-.597-.475-1.063-.475zM129.73 384.664v-7.302h1.791v1.511h.07a2.36 2.36 0 0 1 .209-.56c.103-.186.233-.35.392-.49.159-.139.345-.251.56-.335.223-.084.48-.126.769-.126h.392v1.692h-.56c-.606 0-1.063.089-1.371.266-.308.177-.461.466-.461.867v4.477h-1.791zM138.527 384.664v-7.302h1.791v1.511h.07a2.32 2.32 0 0 1 .21-.56c.102-.186.233-.35.391-.49.159-.139.345-.251.56-.335a2.18 2.18 0 0 1 .769-.126h.392v1.692h-.56c-.606 0-1.063.089-1.371.266-.307.177-.461.466-.461.867v4.477h-1.791zM149.24 384.664c-.392 0-.704-.112-.937-.336-.224-.233-.364-.541-.42-.923h-.084c-.121.475-.368.834-.741 1.077-.373.233-.835.349-1.385.349-.746 0-1.32-.195-1.721-.587-.401-.392-.601-.914-.601-1.567 0-.755.27-1.315.811-1.678.541-.373 1.31-.56 2.308-.56h1.245v-.531c0-.411-.107-.728-.322-.952-.214-.223-.559-.335-1.035-.335-.419 0-.76.093-1.021.28a2.619 2.619 0 0 0-.643.643l-1.063-.951c.27-.42.629-.756 1.077-1.007.447-.261 1.04-.392 1.776-.392.989 0 1.739.224 2.252.671.513.448.77 1.091.77 1.931v3.441h.727v1.427h-.993zm-2.966-1.133c.401 0 .742-.089 1.022-.266.279-.177.419-.438.419-.784v-.965h-1.147c-.932 0-1.399.299-1.399.896v.237c0 .299.094.523.28.672.196.14.471.21.825.21zM156.214 383.447h-.07c-.13.419-.377.755-.741 1.007a2.18 2.18 0 0 1-1.273.377c-.923 0-1.632-.331-2.126-.993-.485-.662-.728-1.608-.728-2.839 0-1.222.243-2.159.728-2.812.494-.662 1.203-.993 2.126-.993.485 0 .909.126 1.273.378.364.242.611.573.741.993h.07v-4.253h1.791v10.352h-1.791v-1.217zm-1.51-.098c.429 0 .788-.103 1.077-.308.289-.205.433-.499.433-.881v-2.322c0-.355-.144-.639-.433-.854-.289-.214-.648-.321-1.077-.321-.467 0-.844.158-1.133.475-.28.308-.42.723-.42 1.245v1.259c0 .522.14.937.42 1.245.289.308.666.462 1.133.462zM160.965 376.299c-.373 0-.644-.084-.812-.252a.9.9 0 0 1-.237-.643v-.28c0-.261.079-.476.237-.644.168-.168.439-.251.812-.251.363 0 .629.083.797.251a.873.873 0 0 1 .252.644v.28a.87.87 0 0 1-.252.643c-.168.168-.434.252-.797.252zm-.895 1.063h1.79v7.302h-1.79v-7.302zM168.3 383.447h-.07a2.4 2.4 0 0 1-.266.531 1.779 1.779 0 0 1-.406.434c-.158.13-.354.233-.587.308a2.501 2.501 0 0 1-.784.111c-.755 0-1.333-.247-1.734-.741s-.602-1.198-.602-2.112v-4.616h1.791v4.434c0 .504.098.891.294 1.161.196.261.508.392.937.392.177 0 .35-.024.517-.07a1.41 1.41 0 0 0 .462-.21 1.33 1.33 0 0 0 .322-.364c.084-.149.126-.321.126-.517v-4.826h1.79v7.302h-1.79v-1.217zM174.551 384.831c-.7 0-1.287-.116-1.763-.349a4.18 4.18 0 0 1-1.259-.993l1.091-1.063c.271.307.565.55.882.727.326.177.699.266 1.119.266.429 0 .736-.075.923-.224a.73.73 0 0 0 .294-.616c0-.214-.07-.382-.21-.503-.131-.131-.359-.219-.686-.266l-.727-.098c-.793-.102-1.399-.326-1.818-.671-.411-.355-.616-.868-.616-1.539 0-.354.065-.671.196-.951a1.96 1.96 0 0 1 .56-.728c.242-.205.531-.359.867-.461a3.699 3.699 0 0 1 1.147-.168c.354 0 .667.028.937.084.28.047.532.121.755.224.224.093.429.214.616.363.186.14.368.299.545.476l-1.049 1.049a2.757 2.757 0 0 0-.769-.559 2.148 2.148 0 0 0-.979-.224c-.392 0-.676.07-.854.21a.676.676 0 0 0-.251.545c0 .243.07.429.21.56.149.121.396.209.741.265l.741.098c1.576.224 2.364.942 2.364 2.155 0 .354-.074.68-.224.979a2.21 2.21 0 0 1-.601.755 3.068 3.068 0 0 1-.951.49 4.18 4.18 0 0 1-1.231.167zM87.074 192.826v-9.764h1.847v8.128h3.846v1.636h-5.693zM97.016 192.994c-.522 0-.993-.089-1.413-.266a2.988 2.988 0 0 1-1.063-.769 3.597 3.597 0 0 1-.672-1.203 5.027 5.027 0 0 1-.237-1.595c0-.587.079-1.114.237-1.58.159-.467.383-.863.672-1.189a3.003 3.003 0 0 1 1.063-.77c.42-.177.89-.265 1.413-.265.522 0 .993.088 1.413.265.42.178.774.434 1.063.77.298.326.527.722.685 1.189.159.466.238.993.238 1.58 0 .588-.079 1.119-.238 1.595a3.462 3.462 0 0 1-.685 1.203c-.29.336-.644.592-1.063.769-.42.177-.891.266-1.413.266zm0-1.441c.475 0 .848-.144 1.119-.433.27-.289.405-.714.405-1.273v-1.357c0-.55-.135-.97-.405-1.259-.27-.289-.644-.434-1.12-.434-.465 0-.834.145-1.104.434-.27.289-.406.709-.406 1.259v1.357c0 .559.135.984.406 1.273.27.289.639.433 1.105.433zM108.591 193.442c0 .382-.07.718-.21 1.007-.131.298-.35.545-.658.741-.307.196-.704.345-1.189.448-.485.102-1.077.154-1.776.154a8.302 8.302 0 0 1-1.567-.126c-.429-.075-.783-.187-1.063-.336-.27-.14-.466-.317-.587-.531a1.447 1.447 0 0 1-.182-.728c0-.41.112-.732.336-.965.233-.224.554-.368.965-.434v-.154a1.235 1.235 0 0 1-.7-.433 1.325 1.325 0 0 1-.238-.784c0-.186.038-.349.112-.489.075-.149.173-.275.294-.378.131-.102.275-.186.434-.252.158-.074.326-.13.503-.167v-.056c-.447-.206-.783-.49-1.007-.854-.214-.363-.322-.788-.322-1.273 0-.746.257-1.342.77-1.79.513-.457 1.263-.685 2.252-.685.224 0 .443.014.657.042.224.027.429.074.616.139v-.237c0-.709.345-1.063 1.035-1.063h1.133v1.37h-1.553v.196c.383.215.667.494.854.839.186.345.279.742.279 1.189 0 .737-.256 1.329-.769 1.777-.504.448-1.254.671-2.252.671a4.4 4.4 0 0 1-1.119-.126 1.16 1.16 0 0 0-.364.266.534.534 0 0 0-.154.392c0 .364.317.545.951.545h1.959c.895 0 1.543.187 1.944.56.41.364.616.872.616 1.525zm-1.679.209a.628.628 0 0 0-.28-.545c-.186-.131-.508-.196-.965-.196h-2.49a.89.89 0 0 0-.377.755c0 .28.116.499.349.658.233.158.63.238 1.189.238h.895c.588 0 1.012-.075 1.273-.224a.733.733 0 0 0 .406-.686zm-2.154-4.588c.876 0 1.315-.373 1.315-1.119v-.237c0-.746-.439-1.119-1.315-1.119-.877 0-1.315.373-1.315 1.119v.237c0 .746.438 1.119 1.315 1.119zM112.438 192.994c-.522 0-.993-.089-1.413-.266a2.996 2.996 0 0 1-1.063-.769 3.59 3.59 0 0 1-.671-1.203 5.013 5.013 0 0 1-.238-1.595c0-.587.079-1.114.238-1.58.158-.467.382-.863.671-1.189a3.01 3.01 0 0 1 1.063-.77c.42-.177.891-.265 1.413-.265s.993.088 1.413.265c.42.178.774.434 1.063.77.299.326.527.722.686 1.189.158.466.237.993.237 1.58 0 .588-.079 1.119-.237 1.595a3.47 3.47 0 0 1-.686 1.203 2.829 2.829 0 0 1-1.063.769c-.42.177-.891.266-1.413.266zm0-1.441c.476 0 .849-.144 1.119-.433.271-.289.406-.714.406-1.273v-1.357c0-.55-.135-.97-.406-1.259-.27-.289-.643-.434-1.119-.434-.466 0-.834.145-1.105.434-.27.289-.405.709-.405 1.259v1.357c0 .559.135.984.405 1.273.271.289.639.433 1.105.433z" fill="#fff"/><path d="M85.93 203.389c0-1.104.894-1.998 1.998-1.998h165.859c1.103 0 1.998.894 1.998 1.998v136.903a1.999 1.999 0 0 1-1.998 1.999H87.928a1.999 1.999 0 0 1-1.998-1.999V203.389z" fill="#031F32"/><path d="M88.926 205.803c0-1.104.894-1.998 1.998-1.998h159.864c1.104 0 1.998.894 1.998 1.998v88.465a1.998 1.998 0 0 1-1.998 1.998H90.924a1.998 1.998 0 0 1-1.998-1.998v-88.465z" fill="#1B304F"/><path d="M150.347 312.953v6.043c0 .932.172 1.641.517 2.126.345.475.952.713 1.819.713s1.473-.238 1.818-.713c.345-.485.518-1.194.518-2.126v-6.043h1.175v5.763c0 .709-.065 1.324-.196 1.846-.121.522-.322.956-.601 1.301-.28.345-.649.602-1.105.769-.448.168-.998.252-1.651.252s-1.203-.084-1.651-.252a2.415 2.415 0 0 1-1.063-.769c-.27-.345-.466-.779-.587-1.301-.112-.522-.168-1.137-.168-1.846v-5.763h1.175zM158.788 315.499h1.119v1.175h.056c.186-.457.457-.793.811-1.008.364-.223.797-.335 1.301-.335.448 0 .853.088 1.217.265.364.178.671.429.923.756.261.326.457.723.588 1.189.14.466.209.988.209 1.566 0 .579-.069 1.101-.209 1.567a3.313 3.313 0 0 1-.588 1.189 2.583 2.583 0 0 1-.923.756 2.744 2.744 0 0 1-1.217.265c-.979 0-1.683-.447-2.112-1.343h-.056v3.973h-1.119v-10.015zm2.979 6.378c.634 0 1.133-.196 1.497-.587.364-.401.545-.924.545-1.567v-1.231c0-.643-.181-1.161-.545-1.553-.364-.401-.863-.601-1.497-.601-.252 0-.494.037-.727.112-.224.065-.42.158-.588.28-.168.121-.303.27-.405.447-.094.168-.14.35-.14.546v2.685c0 .234.046.443.14.63.102.177.237.331.405.461.168.122.364.215.588.28.233.066.475.098.727.098zM168.269 322.716c-.392 0-.691-.107-.896-.321-.196-.224-.293-.504-.293-.84v-9.19h1.119v9.372h1.063v.979h-.993zM173.796 322.884c-.485 0-.928-.088-1.329-.265a2.973 2.973 0 0 1-1.035-.756 3.75 3.75 0 0 1-.657-1.189 4.832 4.832 0 0 1-.238-1.567c0-.568.079-1.086.238-1.552.158-.466.377-.863.657-1.189a2.901 2.901 0 0 1 1.035-.77 3.255 3.255 0 0 1 1.329-.265c.485 0 .923.088 1.315.265.401.178.746.434 1.035.77.289.326.513.723.672 1.189.158.466.237.984.237 1.552a4.86 4.86 0 0 1-.237 1.567 3.63 3.63 0 0 1-.672 1.189 2.973 2.973 0 0 1-1.035.756c-.392.177-.83.265-1.315.265zm0-.993c.606 0 1.1-.186 1.483-.559.382-.373.573-.942.573-1.707v-1.035c0-.765-.191-1.334-.573-1.707-.383-.373-.877-.559-1.483-.559-.606 0-1.1.186-1.483.559-.382.373-.573.942-.573 1.707v1.035c0 .765.191 1.334.573 1.707.383.373.877.559 1.483.559zM184.319 322.716c-.42 0-.723-.111-.909-.335a1.699 1.699 0 0 1-.336-.84h-.07c-.159.448-.42.784-.783 1.008-.364.223-.798.335-1.301.335-.765 0-1.362-.196-1.791-.587-.419-.392-.629-.923-.629-1.595 0-.681.247-1.203.741-1.567.504-.363 1.282-.545 2.336-.545h1.427v-.713c0-.513-.14-.905-.42-1.175-.279-.271-.708-.406-1.287-.406-.438 0-.806.098-1.105.294a2.448 2.448 0 0 0-.727.783l-.671-.629c.195-.392.508-.723.937-.994.429-.279.97-.419 1.622-.419.877 0 1.558.214 2.043.643.485.429.727 1.026.727 1.791v3.972h.825v.979h-.629zm-3.217-.783c.279 0 .536-.033.769-.098.233-.065.434-.158.601-.28.168-.121.299-.261.392-.419.093-.159.14-.331.14-.518v-1.189h-1.483c-.643 0-1.114.093-1.413.28-.289.186-.433.457-.433.811v.294c0 .354.126.63.378.825.261.196.61.294 1.049.294zM191.339 321.541h-.056c-.438.896-1.142 1.343-2.112 1.343-.448 0-.853-.088-1.217-.265a2.708 2.708 0 0 1-.937-.756 3.634 3.634 0 0 1-.588-1.189 5.829 5.829 0 0 1-.195-1.567c0-.578.065-1.1.195-1.566.14-.466.336-.863.588-1.189.261-.327.573-.578.937-.756a2.744 2.744 0 0 1 1.217-.265c.504 0 .933.112 1.287.335.364.215.639.551.825 1.008h.056v-4.309h1.119v10.351h-1.119v-1.175zm-1.86.336c.252 0 .489-.032.713-.098a1.87 1.87 0 0 0 .602-.28c.168-.13.298-.284.391-.461a1.28 1.28 0 0 0 .154-.63v-2.685c0-.196-.051-.378-.154-.546a1.277 1.277 0 0 0-.391-.447 1.87 1.87 0 0 0-.602-.28 2.228 2.228 0 0 0-.713-.112c-.634 0-1.133.2-1.497.601-.364.392-.545.91-.545 1.553v1.231c0 .643.181 1.166.545 1.567.364.391.863.587 1.497.587z" fill="#fff"/><path d="M188.84 249.766c0 9.933-8.052 17.985-17.984 17.985-9.933 0-17.985-8.052-17.985-17.985s8.052-17.985 17.985-17.985c9.932 0 17.984 8.052 17.984 17.985z" fill="url(#c)"/><defs><linearGradient id="b" x1="571.534" y1="82.775" x2="545.992" y2="104.45" gradientUnits="userSpaceOnUse"><stop offset=".073" stop-color="#CBD3FF"/><stop offset="1" stop-color="#506CF0"/></linearGradient><linearGradient id="c" x1="187.405" y1="243.556" x2="161.863" y2="265.232" gradientUnits="userSpaceOnUse"><stop offset=".073" stop-color="#CBD3FF"/><stop offset="1" stop-color="#506CF0"/></linearGradient><clipPath id="a"><rect x="511.566" y="54.953" width="379.677" height="597.492" rx="7.469" fill="#fff"/></clipPath></defs></svg>