<svg width="33" height="32" viewBox="0 0 33 32" fill="none" xmlns="http://www.w3.org/2000/svg">
<g clip-path="url(#clip0_2380_3007)">
<path d="M16.7148 32C25.5514 32 32.7148 24.8366 32.7148 16C32.7148 7.16344 25.5514 0 16.7148 0C7.87829 0 0.714844 7.16344 0.714844 16C0.714844 24.8366 7.87829 32 16.7148 32Z" fill="white"/>
<path d="M13.7866 24.4382C20.8826 24.4382 24.7626 18.5582 24.7626 13.4622C24.7626 13.2942 24.7626 13.1262 24.7546 12.9662C25.5066 12.4222 26.1626 11.7422 26.6826 10.9662C25.9946 11.2702 25.2506 11.4782 24.4666 11.5742C25.2666 11.0942 25.8746 10.3422 26.1626 9.4382C25.4186 9.8782 24.5946 10.1982 23.7146 10.3742C23.0106 9.6222 22.0106 9.1582 20.8986 9.1582C18.7706 9.1582 17.0426 10.8862 17.0426 13.0142C17.0426 13.3182 17.0746 13.6142 17.1466 13.8942C13.9386 13.7342 11.0986 12.1982 9.19463 9.8622C8.86663 10.4302 8.67463 11.0942 8.67463 11.7982C8.67463 13.1342 9.35463 14.3182 10.3946 15.0062C9.76263 14.9902 9.17063 14.8142 8.65063 14.5262C8.65063 14.5422 8.65063 14.5582 8.65063 14.5742C8.65063 16.4462 9.97862 17.9982 11.7466 18.3582C11.4266 18.4462 11.0826 18.4942 10.7306 18.4942C10.4826 18.4942 10.2426 18.4702 10.0026 18.4222C10.4906 19.9582 11.9146 21.0702 13.6026 21.1022C12.2826 22.1342 10.6186 22.7502 8.81063 22.7502C8.49863 22.7502 8.19463 22.7342 7.89062 22.6942C9.57863 23.7982 11.6106 24.4382 13.7866 24.4382Z" fill="#042337"/>
</g>
<defs>
<clipPath id="clip0_2380_3007">
<rect width="32" height="32" fill="white" transform="translate(0.714844)"/>
</clipPath>
</defs>
</svg>
