<svg width="33" height="32" viewBox="0 0 33 32" fill="none" xmlns="http://www.w3.org/2000/svg">
<g clip-path="url(#clip0_2380_3013)">
<path fill-rule="evenodd" clip-rule="evenodd" d="M16.7038 -0.000611369C12.8367 -0.0045418 9.09458 1.3688 6.14806 3.87331C3.20154 6.37782 1.24321 9.84978 0.62404 13.667C0.00486887 17.4842 0.765325 21.3972 2.76911 24.7046C4.7729 28.0121 7.88905 30.4979 11.5591 31.7166C12.3683 31.8664 12.668 31.3569 12.668 30.9274C12.668 30.4978 12.668 29.5188 12.668 28.1602C8.14267 29.1592 7.18365 25.9825 7.18365 25.9825C6.88212 24.9979 6.24151 24.152 5.37553 23.595C3.90705 22.596 5.4954 22.596 5.4954 22.596C6.01016 22.6687 6.50163 22.8576 6.93259 23.1484C7.36354 23.4391 7.7227 23.8241 7.98283 24.2742C8.20386 24.675 8.50185 25.0282 8.85971 25.3136C9.21758 25.5989 9.62827 25.8108 10.0682 25.937C10.5082 26.0632 10.9687 26.1013 11.4234 26.0491C11.8781 25.9969 12.318 25.8555 12.7179 25.6329C12.7806 24.8111 13.1349 24.0387 13.7169 23.4551C10.1006 23.0455 6.30456 21.647 6.30456 15.4134C6.27973 13.7981 6.87704 12.235 7.97283 11.0479C7.48381 9.64358 7.54087 8.10665 8.13267 6.74241C8.13267 6.74241 9.50125 6.30285 12.608 8.41066C15.2759 7.67818 18.0918 7.67818 20.7596 8.41066C23.8664 6.30285 25.225 6.74241 25.225 6.74241C25.823 8.10471 25.8836 9.64277 25.3948 11.0479C26.4906 12.235 27.0879 13.7981 27.0631 15.4134C27.0631 21.6669 23.257 23.0355 19.6308 23.4051C20.0196 23.796 20.3198 24.2659 20.5112 24.783C20.7025 25.3001 20.7804 25.8522 20.7396 26.402C20.7396 28.5798 20.7396 30.338 20.7396 30.8674C20.7396 31.3969 21.0293 31.8065 21.8585 31.6566C25.517 30.4265 28.6196 27.9367 30.6128 24.6314C32.6061 21.3262 33.3604 17.4203 32.7413 13.6105C32.1221 9.80067 30.1697 6.3347 27.2323 3.83075C24.2949 1.32679 20.5636 -0.0522972 16.7038 -0.0605469V-0.000611369Z" fill="white"/>
</g>
<defs>
<clipPath id="clip0_2380_3013">
<rect width="32.5463" height="31.7371" fill="white" transform="translate(0.429688)"/>
</clipPath>
</defs>
</svg>
