<svg width="32" height="32" viewBox="0 0 32 32" fill="none" xmlns="http://www.w3.org/2000/svg">
<circle cx="16" cy="16" r="16" fill="white"/>
<path d="M23.7918 23.7916H20.6978V18.9464C20.6978 17.7909 20.6772 16.3036 19.0887 16.3036C17.4772 16.3036 17.2306 17.5624 17.2306 18.8622V23.7912H14.1367V13.8275H17.1069V15.1891H17.1485C17.7533 14.1551 18.8819 13.5352 20.079 13.5797C23.2148 13.5797 23.7931 15.6423 23.7931 18.3256L23.7918 23.7916ZM10.6458 12.4654C9.66079 12.4654 8.84991 11.655 8.84991 10.6701C8.84991 9.68511 9.66041 8.87461 10.6454 8.87461C11.6303 8.87461 12.4407 9.68493 12.4408 10.6697C12.4408 11.6545 11.6305 12.4654 10.6458 12.4654ZM12.1927 23.7916H9.09555V13.8275H12.1927V23.7916ZM25.3341 6.00144H7.54077C6.70552 5.99201 6.01018 6.67119 6 7.50644V25.3737C6.00981 26.2094 6.70506 26.8893 7.54077 26.8803H25.3341C26.1719 26.8909 26.8696 26.2111 26.8808 25.3737V7.50522C26.8696 6.6682 26.171 5.98911 25.3341 6.00013V6.00144Z" fill="#042F4B"/>
</svg>
