<svg width="32" height="32" viewBox="0 0 32 32" fill="none" xmlns="http://www.w3.org/2000/svg">
<g clip-path="url(#clip0_2514_3085)">
<path fill-rule="evenodd" clip-rule="evenodd" d="M32 16C32 24.8366 24.8366 32 16 32C7.16344 32 0 24.8366 0 16C0 7.16344 7.16344 0 16 0C24.8366 0 32 7.16344 32 16ZM10.4336 6.72369C10.4336 8.08969 11.5413 9.19738 12.9073 9.19738H15.381V6.72369C15.381 5.35769 14.2733 4.25 12.9073 4.25C11.5413 4.25 10.4336 5.35769 10.4336 6.72369ZM9.19738 19.0928C9.19738 20.4588 8.08969 21.5665 6.72369 21.5665C5.35769 21.5665 4.25 20.4588 4.25 19.0928C4.25 17.7268 5.35769 16.6191 6.72369 16.6191H9.19738V19.0928ZM10.4336 19.0928C10.4336 17.7268 11.5413 16.6191 12.9073 16.6191C14.2733 16.6191 15.381 17.7268 15.381 19.0928V25.277C15.381 26.643 14.2733 27.7507 12.9073 27.7507C11.5413 27.7507 10.4336 26.643 10.4336 25.277V19.0928ZM12.9079 10.4336C14.2739 10.4336 15.3816 11.5413 15.3816 12.9073C15.3816 14.2733 14.2739 15.381 12.9079 15.381H6.72369C5.35769 15.381 4.25 14.2733 4.25 12.9073C4.25 11.5412 5.35769 10.4336 6.72369 10.4336H12.9079ZM25.2745 10.4336C23.9085 10.4336 22.8008 11.5413 22.8008 12.9073V15.381H25.2745C26.6405 15.381 27.7482 14.2733 27.7482 12.9073C27.7482 11.5413 26.6405 10.4336 25.2745 10.4336ZM21.5646 12.9079C21.5646 14.2739 20.4569 15.3816 19.0909 15.3816C17.7249 15.3816 16.6172 14.2739 16.6172 12.9079V6.72369C16.6172 5.35769 17.7249 4.25 19.0909 4.25C20.4569 4.25 21.5646 5.35769 21.5646 6.72369V12.9079ZM21.5646 25.2764C21.5646 23.9104 20.4569 22.8027 19.0909 22.8027H16.6172V25.2764C16.6172 26.6424 17.7249 27.7501 19.0909 27.7501C20.4569 27.7501 21.5646 26.6424 21.5646 25.2764ZM19.0909 21.5665C17.7249 21.5665 16.6172 20.4588 16.6172 19.0928C16.6172 17.7268 17.7249 16.6191 19.0909 16.6191H25.2751C26.6411 16.6191 27.7488 17.7268 27.7488 19.0928C27.7488 20.4588 26.6411 21.5665 25.2751 21.5665H19.0909Z" fill="white"/>
</g>
<defs>
<clipPath id="clip0_2514_3085">
<rect width="32" height="32" fill="white"/>
</clipPath>
</defs>
</svg>
