<svg width="48" height="46" viewBox="0 0 48 46" fill="none" xmlns="http://www.w3.org/2000/svg">
<rect x="0.291992" y="0.150391" width="46.7105" height="45.7007" rx="22.8504" fill="#7291FF"/>
<path d="M23.9109 5.7371L23.6789 5.0229L23.4468 5.7371L22.8758 7.49444H21.028H20.2771L20.8846 7.93584L22.3795 9.02194L21.8085 10.7793L21.5764 11.4935L22.184 11.0521L23.6789 9.96599L25.1737 11.0521L25.7813 11.4935L25.5492 10.7793L24.9782 9.02194L26.4731 7.93584L27.0806 7.49444H26.3297H24.4819L23.9109 5.7371Z" fill="white" stroke="white" stroke-width="0.488"/>
<path d="M13.1375 10.8641L12.9054 10.1499L12.6734 10.8641L12.1024 12.6214H10.2546H9.50363L10.1112 13.0628L11.606 14.1489L11.0351 15.9062L10.803 16.6204L11.4105 16.179L12.9054 15.0929L14.4003 16.179L15.0078 16.6204L14.7758 15.9062L14.2048 14.1489L15.6997 13.0628L16.3072 12.6214H15.5562H13.7085L13.1375 10.8641Z" fill="white" stroke="white" stroke-width="0.488"/>
<path d="M13.1375 30.6609L12.9054 29.9467L12.6734 30.6609L12.1024 32.4183H10.2546H9.50363L10.1112 32.8597L11.606 33.9458L11.0351 35.7031L10.803 36.4173L11.4105 35.9759L12.9054 34.8898L14.4003 35.9759L15.0078 36.4173L14.7758 35.7031L14.2048 33.9458L15.6997 32.8597L16.3072 32.4183H15.5562H13.7085L13.1375 30.6609Z" fill="white" stroke="white" stroke-width="0.488"/>
<path d="M34.4812 10.8641L34.2492 10.1499L34.0171 10.8641L33.4461 12.6214H31.5983H30.8474L31.4549 13.0628L32.9498 14.1489L32.3788 15.9062L32.1467 16.6204L32.7543 16.179L34.2492 15.0929L35.744 16.179L36.3516 16.6204L36.1195 15.9062L35.5485 14.1489L37.0434 13.0628L37.651 12.6214H36.9H35.0522L34.4812 10.8641Z" fill="white" stroke="white" stroke-width="0.488"/>
<path d="M34.4812 30.0672L34.2492 29.353L34.0171 30.0672L33.4461 31.8245H31.5983H30.8474L31.4549 32.2659L32.9498 33.352L32.3788 35.1094L32.1467 35.8236L32.7543 35.3822L34.2492 34.2961L35.744 35.3822L36.3516 35.8236L36.1195 35.1094L35.5485 33.352L37.0434 32.2659L37.651 31.8245H36.9H35.0522L34.4812 30.0672Z" fill="white" stroke="white" stroke-width="0.488"/>
<path d="M38.7859 20.4246L38.5539 19.7104L38.3218 20.4246L37.7508 22.1819H35.903H35.1521L35.7596 22.6233L37.2545 23.7094L36.6835 25.4668L36.4514 26.181L37.059 25.7396L38.5539 24.6535L40.0487 25.7396L40.6563 26.181L40.4242 25.4668L39.8532 23.7094L41.3481 22.6233L41.9556 22.1819H41.2047H39.3569L38.7859 20.4246Z" fill="white" stroke="white" stroke-width="0.488"/>
<path d="M8.97341 20.8699L8.74135 20.1557L8.50929 20.8699L7.9383 22.6273H6.09052H5.33957L5.9471 23.0687L7.44199 24.1548L6.87099 25.9121L6.63893 26.6263L7.24647 26.1849L8.74135 25.0988L10.2362 26.1849L10.8438 26.6263L10.6117 25.9121L10.0407 24.1548L11.5356 23.0687L12.1431 22.6273H11.3922H9.5444L8.97341 20.8699Z" fill="white" stroke="white" stroke-width="0.488"/>
<path d="M23.9109 34.5398L23.6789 33.8256L23.4468 34.5398L22.8758 36.2972H21.028H20.2771L20.8846 36.7386L22.3795 37.8247L21.8085 39.582L21.5764 40.2962L22.184 39.8548L23.6789 38.7687L25.1737 39.8548L25.7813 40.2962L25.5492 39.582L24.9782 37.8247L26.4731 36.7386L27.0806 36.2972H26.3297H24.4819L23.9109 34.5398Z" fill="white" stroke="white" stroke-width="0.488"/>
</svg>
