<?xml version="1.0" encoding="UTF-8"?>
<svg width="23px" height="23px" viewBox="0 0 23 23" version="1.1" xmlns="http://www.w3.org/2000/svg" xmlns:xlink="http://www.w3.org/1999/xlink">
    <!-- Generator: Sketch 51.3 (57544) - http://www.bohemiancoding.com/sketch -->
    <title>Combined Shape</title>
    <desc>Created with Sketch.</desc>
    <defs></defs>
    <g id="Page-1" stroke="none" stroke-width="1" fill="none" fill-rule="evenodd">
        <g id="A4" transform="translate(-666.000000, -2600.000000)" fill="#000000">
            <g id="footer" transform="translate(0.000000, 2576.462201)">
                <g id="social-icons" transform="translate(108.617129, 23.959661)">
                    <g id="dribbble" transform="translate(548.474890, 0.000000)">
                        <g id="Dribbble_black" transform="translate(9.086554, 0.000000)">
                            <path d="M21.9656765,8.95259487 C22.1145581,9.67575887 22.1903321,10.4208552 22.1903321,11.1659515 C22.1903321,11.9104457 22.1145581,12.6539079 21.9656765,13.378706 C21.8204932,14.0862164 21.6054706,14.7808254 21.323791,15.4448152 C21.0485621,16.0971077 20.7071922,16.7256618 20.3082823,17.3118134 C19.915307,17.8943526 19.4626414,18.440768 18.9654232,18.9389324 C18.4670868,19.4349465 17.9186932,19.8863219 17.336498,20.2809314 C16.7484542,20.6770891 16.118954,21.0179429 15.4663174,21.2944619 C14.8012955,21.5746794 14.1050524,21.7893579 13.3981441,21.9342832 C12.6724858,22.0835949 11.9262714,22.1597989 11.180659,22.1597989 C10.4345306,22.1597989 9.68831619,22.0835949 8.96369004,21.9342832 C8.25574964,21.7893579 7.55950647,21.5746794 6.89508664,21.2944619 C6.24245005,21.0179429 5.61234783,20.6770891 5.02430403,20.2809314 C4.44210884,19.886408 3.89371521,19.4349465 3.39649695,18.9389324 C2.89867664,18.440768 2.44601106,17.8943526 2.05251971,17.3118134 C1.65576001,16.7256618 1.31387408,16.0970217 1.03752704,15.4448152 C0.755847436,14.7808254 0.540308784,14.0861304 0.394609471,13.378706 C0.247275987,12.6539079 0.172018078,11.9104457 0.172018078,11.1659515 C0.172018078,10.4208552 0.247275987,9.67575887 0.394609471,8.95259487 C0.540308784,8.24508452 0.755847436,7.5493574 1.03761305,6.88639973 C1.31387408,6.23367713 1.65584602,5.60460702 2.05251971,5.0183694 C2.44609707,4.43540014 2.89876265,3.88993081 3.39649695,3.3912504 C3.89380122,2.89523627 4.44210884,2.44489295 5.02430403,2.05088554 C5.61243384,1.65309373 6.24253606,1.31223991 6.89508664,1.03520479 C7.55959247,0.754385282 8.25574964,0.539190666 8.96377605,0.395297544 C9.6884022,0.247189978 10.4345306,0.172018078 11.180745,0.172018078 C11.9263574,0.172018078 12.6724858,0.247189978 13.3982301,0.395297544 C14.1051384,0.539190666 14.8012955,0.754471291 15.4663174,1.03520479 C16.118954,1.3121539 16.7484542,1.65309373 17.336584,2.05088554 C17.9187792,2.44489295 18.4671728,2.89523627 18.9654232,3.3912504 C19.4627274,3.88993081 19.915393,4.43540014 20.3083683,5.0183694 C20.7071922,5.60460702 21.0485621,6.23376314 21.323791,6.88639973 C21.6054706,7.5493574 21.8204932,8.24508452 21.9656765,8.95259487 Z M17.3889635,4.1210371 L17.3898236,4.11974696 C15.7345796,2.6623238 13.5611312,1.77823688 11.180745,1.77823688 C10.4168128,1.77823688 9.67550085,1.87061059 8.96532421,2.04125253 L8.98063382,2.06172268 C9.20322521,2.35948597 10.9163533,4.65076677 12.4799976,7.51779208 C15.9985414,6.20056365 17.3445828,4.18735007 17.3889635,4.1210371 Z M18.440854,5.20277278 C18.4042142,5.25498027 16.8919173,7.41260303 13.2036776,8.9167291 C13.4218826,9.36440615 13.6332068,9.82008204 13.8282753,10.2780802 C13.8976846,10.4423574 13.9654597,10.6033664 14.0315146,10.7643753 C17.1994856,10.3663254 20.3213557,11.0156077 20.5682016,11.0669551 L20.5792968,11.0692773 C20.5577945,8.84370743 19.7605767,6.80107876 18.4413701,5.2019987 L18.440854,5.20277278 Z M14.6045069,12.245967 C15.8377905,15.6300786 16.3387931,18.3860663 16.4345212,18.9518337 C18.545613,17.5293302 20.0449226,15.2703888 20.4631846,12.6539079 C20.2696642,12.5916373 17.6392498,11.7601019 14.6045069,12.245967 Z M12.8428697,12.6808287 L12.8200773,12.6881395 C12.8067459,12.6922679 12.7935865,12.6964823 12.7805132,12.7012128 C7.23327418,14.6322878 5.4217518,18.5239388 5.40214174,18.5664272 C6.99829748,19.8059035 9.00024388,20.5536661 11.180745,20.5536661 C12.4827499,20.5536661 13.7229142,20.2889303 14.8512668,19.8096879 C14.7120182,18.9894197 14.1658608,16.1142235 12.8428697,12.6808287 Z M11.4392882,9.52980153 C6.59835545,10.9769896 1.95300725,10.8728327 1.78640774,10.866468 C1.78554765,10.8977753 1.78451554,10.9287386 1.78348343,10.9596158 C1.78116119,11.028251 1.77883895,11.0963702 1.77883895,11.1659515 C1.77883895,13.577817 2.69010472,15.776552 4.18778011,17.4391068 C4.18451177,17.4342903 6.75747218,12.8762412 11.8311454,11.237941 C11.9537083,11.1970868 12.0785074,11.1606189 12.2021024,11.1251832 C11.9660936,10.5915831 11.7085825,10.0569509 11.4392882,9.52980153 Z M10.6603043,8.08407559 C9.03309933,5.19709619 7.29451262,2.84113659 7.16928345,2.67410703 C4.54738391,3.91048697 2.59059226,6.3228685 1.98044413,9.23023205 L1.98947508,9.23031806 C2.31080485,9.23324237 6.19368292,9.26919414 10.6603043,8.08407559 Z" id="Combined-Shape"></path>
                        </g>
                    </g>
                </g>
            </g>
        </g>
    </g>
</svg>