<?xml version="1.0" encoding="UTF-8"?>
<svg width="24px" height="19px" viewBox="0 0 24 19" version="1.1" xmlns="http://www.w3.org/2000/svg" xmlns:xlink="http://www.w3.org/1999/xlink">
    <!-- Generator: Sketch 51.3 (57544) - http://www.bohemiancoding.com/sketch -->
    <title>Shape</title>
    <desc>Created with Sketch.</desc>
    <defs></defs>
    <g id="Page-1" stroke="none" stroke-width="1" fill="none" fill-rule="evenodd">
        <g id="A4" transform="translate(-809.000000, -2600.000000)" fill="#000000">
            <g id="footer" transform="translate(0.000000, 2576.462201)">
                <g id="social-icons" transform="translate(108.617129, 23.959661)">
                    <g id="medium" transform="translate(692.232855, 0.000000)">
                        <path d="M11.4564037,2.95881846 C11.6613686,3.14792008 11.7660524,3.42556263 11.7383091,3.70648966 L11.7383091,13.8220289 C11.7991067,14.1868846 11.6867359,14.559637 11.4355089,14.8260984 L9.08655366,17.7421489 L9.08655366,18.1267114 L15.7472495,18.1267114 L15.7472495,17.7421489 L13.3982244,14.8260984 C13.1452503,14.5600563 13.0258913,14.1898197 13.0745993,13.8220289 L13.0745993,5.07373772 L18.9209562,18.1267114 L19.5995836,18.1267114 L24.6211891,5.07373772 L24.6211891,15.4776115 C24.6211891,15.7553938 24.6211891,15.8087839 24.443688,15.9903383 L22.6375788,17.784847 L22.6375788,18.1694095 L31.4071142,18.1694095 L31.4071142,17.784847 L29.6636895,16.0331062 C29.5097387,15.9130484 29.4334271,15.7157006 29.4652935,15.5203795 L29.4652935,2.64903002 C29.4334271,2.45370887 29.5097387,2.25636113 29.6636895,2.13630326 L31.4489038,0.384562541 L31.4489038,0 L25.2684394,0 L20.8627769,11.2477031 L15.8516538,0 L9.36843108,0 L9.36843108,0.384562541 L11.4564037,2.95881846 Z" id="Shape"></path>
                    </g>
                </g>
            </g>
        </g>
    </g>
</svg>