<?xml version="1.0" encoding="UTF-8"?>
<svg width="22px" height="19px" viewBox="0 0 22 19" version="1.1" xmlns="http://www.w3.org/2000/svg" xmlns:xlink="http://www.w3.org/1999/xlink">
    <!-- Generator: Sketch 51.3 (57544) - http://www.bohemiancoding.com/sketch -->
    <title>Shape</title>
    <desc>Created with Sketch.</desc>
    <defs></defs>
    <g id="Page-1" stroke="none" stroke-width="1" fill="none" fill-rule="evenodd">
        <g id="A4" transform="translate(-511.000000, -2600.000000)" fill="#000000">
            <g id="footer" transform="translate(0.000000, 2576.462201)">
                <g id="social-icons" transform="translate(108.617129, 23.959661)">
                    <g id="twitter" transform="translate(381.757264, 0.000000)">
                        <path d="M31.3234231,5.53280897 L31.2764621,4.75897848 C31.1356725,2.75344837 32.3713787,0.921599186 34.3266867,0.21103551 C35.0461953,-0.0416590471 36.2662479,-0.0732458667 37.0640247,0.147861871 C37.3768181,0.242622329 37.9712839,0.558397349 38.3935596,0.842678726 L39.1600292,1.36381466 L40.0046738,1.09537328 C40.4740036,0.953186006 41.0996835,0.716331447 41.3811696,0.558397349 C41.6470952,0.416303249 41.8817135,0.337289612 41.8817135,0.384716429 C41.8817135,0.653157808 41.3029945,1.5690824 40.8181042,2.07437834 C40.161117,2.78503519 40.3488676,2.84820883 41.6784025,2.37440654 C42.4761793,2.10596516 42.4917398,2.10596516 42.3353897,2.40599336 C42.2414678,2.56392745 41.7565775,3.11665021 41.24038,3.62194615 C40.3644281,4.4905371 40.3175603,4.58529756 40.3175603,5.31170123 C40.3175603,6.43289356 39.7857091,8.77003868 39.2538579,10.0491651 C38.2684236,12.4494839 36.1567655,14.9287231 34.0451074,16.1762627 C31.0731511,17.9291914 27.1156674,18.3713137 23.7839567,17.3448819 C22.6733865,16.9974268 20.7650394,16.1130891 20.7650394,15.9552481 C20.7650394,15.9078213 21.3437584,15.8446477 22.0477066,15.8289009 C23.5180311,15.797314 24.9883556,15.3866854 26.2397155,14.6602817 L27.0844532,14.1549858 L26.1145795,13.8233708 C24.7380837,13.3495685 23.5023775,12.259963 23.1895841,11.2335311 C23.0956622,10.9019161 23.1269695,10.8860761 24.0029214,10.8860761 L24.9101806,10.8703292 L24.143711,10.5071274 C23.2364518,10.0491651 22.4074609,9.27533462 22.0007456,8.48575731 C21.7035127,7.91728773 21.328198,6.4802272 21.4376803,6.36971992 C21.4688944,6.32238628 21.7974346,6.41705356 22.1728426,6.54340084 C23.2521055,6.9381895 23.3928951,6.84342904 22.7672152,6.180199 C21.5940304,4.98008621 21.2342761,3.19557067 21.7974346,1.50590876 L22.0633602,0.747918267 L23.0956622,1.77435014 C25.2074135,3.84305388 27.6944795,5.07484667 30.5412999,5.43804851 L31.3234231,5.53280897 Z" id="Shape"></path>
                    </g>
                </g>
            </g>
        </g>
    </g>
</svg>