<?xml version="1.0" encoding="UTF-8"?>
<svg width="24px" height="18px" viewBox="0 0 24 18" version="1.1" xmlns="http://www.w3.org/2000/svg" xmlns:xlink="http://www.w3.org/1999/xlink">
    <!-- Generator: Sketch 51.3 (57544) - http://www.bohemiancoding.com/sketch -->
    <title>Newspaper</title>
    <desc>Created with Sketch.</desc>
    <defs></defs>
    <g id="Page-1" stroke="none" stroke-width="1" fill="none" fill-rule="evenodd" stroke-linecap="round" stroke-linejoin="round">
        <g id="Newspaper" transform="translate(0.000000, 1.000000)" stroke="#000000" stroke-width="1.33333333">
            <path d="M4.66666667,4.13884615 L16.6666667,4.13884615" id="Shape"></path>
            <path d="M5.97496033,8.11213204 L7.30829367,8.08756956 C7.9919542,8.07497528 8.56508289,8.56932801 8.65454264,9.2181607 L8.66666667,9.39502654 L8.66666667,10.6808588 C8.66666667,11.3935048 8.08486427,11.9749372 7.358373,11.9883205 L6.02503967,12.012883 C5.34137913,12.0254772 4.76825044,11.5311245 4.67879069,10.8822918 L4.66666667,10.7054213 L4.66666667,9.41959372 C4.66666667,8.70694777 5.24846907,8.12551534 5.97496033,8.11213204 Z" id="Shape"></path>
            <path d="M3.33333333,0.197144554 L18,0.197144554 C19.4727593,0.197144554 20.6666667,1.36809213 20.6666667,2.81252917 L20.6666667,15.9086996 L3.33333333,15.9086996 C1.860574,15.9086996 0.666666667,14.7377521 0.666666667,13.293315 L0.666666667,2.81252917 C0.666666667,1.36809213 1.860574,0.197144554 3.33333333,0.197144554 Z" id="Shape"></path>
            <path d="M11.3333333,8.06192308 L16.6666667,8.06192308" id="Shape"></path>
            <path d="M11.3333333,11.985 L16.6666667,11.985" id="Shape"></path>
            <path d="M20,15.9086996 C21.8409492,15.9086996 23.3333333,14.4450152 23.3333333,12.6394689 L23.3333333,4.1394689 L20.6666667,4.1394689" id="Shape"></path>
        </g>
    </g>
</svg>