<?xml version="1.0" encoding="UTF-8"?>
<svg width="22px" height="21px" viewBox="0 0 22 21" version="1.1" xmlns="http://www.w3.org/2000/svg" xmlns:xlink="http://www.w3.org/1999/xlink">
    <!-- Generator: Sketch 51.3 (57544) - http://www.bohemiancoding.com/sketch -->
    <title>Combined Shape</title>
    <desc>Created with Sketch.</desc>
    <defs></defs>
    <g id="Page-1" stroke="none" stroke-width="1" fill="none" fill-rule="evenodd">
        <g id="A4" transform="translate(-155.000000, -2601.000000)" fill="#161011">
            <g id="footer" transform="translate(0.000000, 2576.462201)">
                <g id="social-icons" transform="translate(108.617129, 23.959661)">
                    <g id="mail">
                        <g id="Group-12" transform="translate(46.322011, 0.000000)">
                            <path d="M0.745411672,11.1515822 C0.745411672,5.41362681 5.42674606,0.745411672 11.181026,0.745411672 C16.9353059,0.745411672 21.6167149,5.41362681 21.6167149,11.1515822 C21.6167149,11.9644537 21.5488824,12.6225031 21.396893,13.2830124 L21.3946567,13.2939699 C21.394284,13.295908 21.3188484,13.6004087 21.2771799,13.733241 C21.0192674,14.5558028 20.5523415,15.2409107 19.9267175,15.7143962 C19.320027,16.1737188 18.5677575,16.4267116 17.8086303,16.4267116 C17.7148575,16.4267116 17.6204138,16.42291 17.5279082,16.4155304 C16.4498939,16.3292117 15.5020284,15.7635188 14.9207564,14.8614961 C13.9210848,15.8638512 12.5947738,16.4153068 11.181026,16.4153068 C8.27041704,16.4153068 5.90246779,14.0539917 5.90246779,11.1515822 C5.90246779,8.24917281 8.27041704,5.88793226 11.181026,5.88793226 C14.091635,5.88793226 16.4595842,8.24917281 16.4595842,11.1515822 L16.4595842,12.8483628 C16.4639076,13.8384186 17.1301566,14.2431026 17.6993529,14.2888709 C18.2656422,14.3324775 19.0193279,14.0035273 19.2818619,12.9299854 C19.4113399,12.3411847 19.4771597,11.7426937 19.4771597,11.1515822 C19.4771597,6.58996097 15.7555429,2.87885442 11.181026,2.87885442 C6.60650911,2.87885442 2.8849668,6.58996097 2.8849668,11.1515822 C2.8849668,15.713129 6.60650911,19.4243101 11.181026,19.4243101 C12.7733744,19.4243101 14.3220417,18.9708016 15.6595339,18.1128328 L15.6835361,18.0974027 L17.0893825,19.7273199 L17.0591934,19.7478933 C15.3218624,20.9319797 13.2891993,21.5578273 11.181026,21.5578273 C5.42674606,21.5578273 0.745411672,16.8896122 0.745411672,11.1515822 Z M14.5355276,11.1810952 C14.5355276,9.33153628 13.0307468,7.82682256 11.1812149,7.82682256 C9.33152374,7.82682256 7.82682256,9.33153628 7.82682256,11.1810952 C7.82682256,13.030734 9.33152374,14.5355276 11.1812149,14.5355276 C13.0307468,14.5355276 14.5355276,13.030734 14.5355276,11.1810952 Z" id="Combined-Shape"></path>
                        </g>
                    </g>
                </g>
            </g>
        </g>
    </g>
</svg>