<?xml version="1.0" encoding="UTF-8"?>
<svg width="23px" height="23px" viewBox="0 0 23 23" version="1.1" xmlns="http://www.w3.org/2000/svg" xmlns:xlink="http://www.w3.org/1999/xlink">
    <!-- Generator: Sketch 51.3 (57544) - http://www.bohemiancoding.com/sketch -->
    <title>Github_black</title>
    <desc>Created with Sketch.</desc>
    <defs></defs>
    <g id="Page-1" stroke="none" stroke-width="1" fill="none" fill-rule="evenodd">
        <g id="A4" transform="translate(-345.000000, -2600.000000)" fill="#000000" fill-rule="nonzero">
            <g id="footer" transform="translate(0.000000, 2576.462201)">
                <g id="social-icons" transform="translate(108.617129, 23.959661)">
                    <g id="Github_black" transform="translate(236.401987, 0.000000)">
                        <path d="M11.1604682,0 C4.9975443,0 0,5.08178258 0,11.3510209 C0,16.3662904 3.1978177,20.6211934 7.63220186,22.1221263 C8.19000273,22.2272294 8.394758,21.8759076 8.394758,21.5760657 C8.394758,21.3053881 8.38441541,20.4112202 8.37961683,19.4627304 C5.27474427,20.1493944 4.619574,18.123412 4.619574,18.123412 C4.11190206,16.8113943 3.38041095,16.462495 3.38041095,16.462495 C2.36782044,15.7579878 3.45674111,15.7724768 3.45674111,15.7724768 C4.57744426,15.8523756 5.16754475,16.942214 5.16754475,16.942214 C6.16294887,18.677579 7.77839572,18.1758704 8.41525682,17.885812 C8.51542152,17.1523736 8.80468783,16.651224 9.1238172,16.3679675 C6.64495069,16.0809375 4.03908466,15.1076162 4.03908466,10.7581391 C4.03908466,9.51884556 4.47505731,8.50625039 5.18897534,7.71131543 C5.07311041,7.42521711 4.69108693,6.27090055 5.29710662,4.70735298 C5.29710662,4.70735298 6.23427545,4.40228393 8.367038,5.87089401 C9.25729248,5.61941075 10.2120251,5.49324982 11.1604682,5.48896371 C12.108958,5.49324982 13.064436,5.61941075 13.9563211,5.87089401 C16.0864747,4.40228393 17.0223856,4.70735298 17.0223856,4.70735298 C17.6298496,6.27090055 17.2476397,7.42521711 17.1317748,7.71131543 C17.84737,8.50625039 18.2804076,9.51884556 18.2804076,10.7581391 C18.2804076,15.1179587 15.6695566,16.0779092 13.1843541,16.3589294 C13.5846868,16.711183 13.9413663,17.4019933 13.9413663,18.4610369 C13.9413663,19.9796268 13.9284147,21.2020088 13.9284147,21.5760657 C13.9284147,21.8781438 14.1293032,22.2320746 14.695024,22.1206355 C19.1270089,20.6179788 22.3207718,16.3645666 22.3207718,11.3510209 C22.3207718,5.08178258 17.3239978,0 11.1604682,0 Z" id="Shape"></path>
                        <path d="M4.4813731,16.5189276 C4.43923605,16.6159642 4.28969582,16.644636 4.15346119,16.5782677 C4.01469482,16.5147746 3.93675404,16.3829965 3.9817423,16.2859598 C4.02292895,16.1864474 4.17278865,16.1590535 4.31123555,16.2251023 C4.45032138,16.2889149 4.52953202,16.4219708 4.4813731,16.5189276 Z" id="Shape"></path>
                        <path d="M4.92954574,17.1191122 C4.83825943,17.2051274 4.65990372,17.1651946 4.53888347,17.0291836 C4.41373417,16.8935719 4.39029364,16.7121174 4.48280189,16.6248244 C4.57689946,16.5387293 4.74988023,16.5790614 4.87531704,16.7146731 C5.00046634,16.851962 5.02490519,17.0321386 4.92954574,17.1191122 Z" id="Shape"></path>
                        <path d="M5.37454569,17.825356 C5.25738295,17.9081765 5.06570566,17.8304674 4.9471852,17.6574786 C4.82994259,17.48441 4.82994259,17.2769193 4.9497409,17.1937793 C5.06850095,17.1106393 5.25738295,17.1853934 5.37742085,17.3571043 C5.49434399,17.5327286 5.49434399,17.7406186 5.37454569,17.825356 Z" id="Shape"></path>
                        <path d="M6.03627526,18.4471971 C5.93141181,18.564839 5.70810777,18.5332921 5.54462302,18.3727624 C5.37730472,18.2158266 5.33074311,17.9931615 5.43592603,17.8755994 C5.54206732,17.757638 5.76672908,17.7908621 5.93141181,17.9500341 C6.09745226,18.1066504 6.14816688,18.3309129 6.03627526,18.4471971 Z" id="Shape"></path>
                        <path d="M6.9180413,18.7234359 C6.87237146,18.8758992 6.65987659,18.9451426 6.44588304,18.8803717 C6.23212613,18.813684 6.09227705,18.6351845 6.13542282,18.4811239 C6.1799095,18.327782 6.39327202,18.2555836 6.60884311,18.324827 C6.82228451,18.3912751 6.9624491,18.5684968 6.9180413,18.7234359 Z" id="Shape"></path>
                        <path d="M7.82674851,18.7327216 C7.83202351,18.8931715 7.65352693,19.0263073 7.43259767,19.028863 C7.21042723,19.0342939 7.03068948,18.9044325 7.02820713,18.7465383 C7.02820713,18.5844912 7.20266988,18.452713 7.42491789,18.4487996 C7.64584716,18.4443271 7.82674851,18.5732301 7.82674851,18.7327216 Z" id="Shape"></path>
                        <path d="M8.67764066,18.5599045 C8.70420624,18.7165208 8.55003243,18.8772901 8.32963945,18.9198584 C8.11298591,18.9613885 7.91245869,18.8647512 7.88495826,18.7094127 C7.85808107,18.5489629 8.01505945,18.3881137 8.23140137,18.3465836 C8.45202806,18.3066508 8.64951699,18.4007325 8.67764066,18.5599045 Z" id="Shape"></path>
                    </g>
                </g>
            </g>
        </g>
    </g>
</svg>